<?xml version="1.0" encoding="UTF-8"?>
<svg id="_Слой_1" data-name="Слой 1" xmlns="http://www.w3.org/2000/svg" viewBox="0 0 1235 338">
  <defs>
    <style>
      .cls-1 {
        fill: #a5d6f2;
      }

      .cls-1, .cls-2, .cls-3, .cls-4, .cls-5, .cls-6, .cls-7, .cls-8, .cls-9, .cls-10, .cls-11, .cls-12, .cls-13, .cls-14, .cls-15, .cls-16 {
        stroke-width: 0px;
      }

      .cls-2 {
        fill: #bb1736;
      }

      .cls-3 {
        fill: #275c8e;
      }

      .cls-4 {
        fill: #74afd7;
      }

      .cls-5 {
        fill: #fff;
      }

      .cls-6 {
        fill: #1e79ab;
      }

      .cls-7 {
        fill: #f2ced6;
      }

      .cls-8 {
        fill: #e85f79;
      }

      .cls-9 {
        fill: #17648f;
      }

      .cls-10 {
        fill: #ab233d;
      }

      .cls-11 {
        fill: #871c31;
      }

      .cls-12 {
        fill: #2381c4;
      }

      .cls-13 {
        fill: #196b98;
      }

      .cls-14 {
        fill: #194f8d;
      }

      .cls-15 {
        fill: #2295d3;
      }

      .cls-16 {
        fill: #e72f51;
      }
    </style>
  </defs>
  <rect class="cls-5" width="1235" height="338"/>
  <g>
    <g>
      <path class="cls-10" d="m101.64,235.6s.06.04.1.05c-.03-.02-.06-.04-.09-.06,0,0,0,0,0,0Z"/>
      <path class="cls-16" d="m85.73,233.87l-.15.1s.08-.08.12-.13c0,0,.02.02.02.02Z"/>
      <g>
        <g>
          <g>
            <path class="cls-9" d="m137.98,226.22c.3.22.6.44.91.66-7.81-3.38-14.18,1.97-21.18,3.49h0c-7.85,2.51-15.83,4.68-23.5,7.66-4.76,1.85-10.28,1.93-14.22,5.67-.82.78-1.09,2.14-1.61,3.23.08,5.59.16,11.17.24,16.76-.18.28-.89-11.3-.48-17.34.33-4.8,4.91-5.22,8.39-6.37,15.4-5.1,30.82-10.17,46.31-15.01,1.44-.45,3.42.79,5.15,1.25Z"/>
            <path class="cls-6" d="m149.97,218.62c0,4.72,0,9.44,0,14.16,0,.32-.03.63-.11.93-.69,2.42-3.65,3.75-6.23,2.61-3.34-1.32-6.63-2.68-9.9-3.99-3.35-1.34-4.1-2.34-4.11-5.52-.02-5.12-.98-8.41,4.99-9.43.11-.02.22-.04.33-.07,2.67-.68,5.35-1.38,8.07-2.06,2.86-.71,4.32-.44,5.94,1.34.46.5.81,1.09.98,1.73.03.1.05.2.05.29Z"/>
            <path class="cls-9" d="m113.29,254.54c.16,3.88.32,7.76.47,11.64-4.38-3.99-8.75-7.99-13.12-11.98,4.22.11,8.43.23,12.65.34Z"/>
            <path class="cls-6" d="m227.45,235.67l-54.57,23.23c.07-.1.07-.1.06-.16-4.6,1.99-9.6,4.95-14.36,6.38-4.35,1.31-8.34,3.71-12.98,4.3-1.5.19-3.15,2.07-4.73,3.2,0,.07,0,.14.02.2,10.38-4.33,31.1-12.96,31.1-12.96.5-.08,11.4-4.75,11.88-4.93l6.96-2.53,16.42-6.64,10.02-3.65c1-.36,1.98-.78,2.94-1.24l4.16-2.01c.46-.22.89-.48,1.29-.79l1.17-.89c.43-.33.73-.8.85-1.33.03-.14-.11-.25-.23-.19Zm-80.78,34.28s-.05-.09-.07-.14c.11-.02.11-.02.16.07-.03.02-.06.04-.09.06Z"/>
            <path class="cls-6" d="m139.72,273.22c-5.99,2.49-11.99,4.98-17.98,7.47,0,0,.02-.14.02-.14,5.89-2.51,11.79-5.02,17.68-7.54.09.07.18.14.27.21Z"/>
            <path class="cls-10" d="m89.9,273.22c2.51,1.37,5.01,2.73,7.52,4.1-2.51-1.37-5.01-2.73-7.52-4.1Z"/>
            <path class="cls-6" d="m115.13,283.25s-.04-.1-.04-.1c1.64-.75,3.28-1.5,4.93-2.25.09.13.17.25.26.38-1.72.66-3.43,1.31-5.15,1.97Z"/>
            <path class="cls-10" d="m85.49,270.69c1.47.85,2.95,1.69,4.42,2.54-1.47-.85-2.95-1.69-4.42-2.54Z"/>
            <path class="cls-10" d="m79.35,266.87c1.19.79,2.39,1.57,3.58,2.36-1.19-.79-2.39-1.57-3.58-2.36Z"/>
            <path class="cls-10" d="m82.91,269.23c.86.5,1.73,1,2.59,1.49-.86-.5-1.73-1-2.59-1.49Z"/>
            <path class="cls-6" d="m120.28,281.28c-.09-.13-.17-.25-.26-.38.3-.1.59-.2.89-.29,0,.14-.01.28-.02.42-.2.09-.41.17-.61.26Z"/>
            <path class="cls-6" d="m139.72,273.22c-.09-.07-.18-.14-.27-.21.48-.13.95-.27,1.43-.4,0,.07,0,.14.02.21-.39.13-.78.27-1.17.4Z"/>
            <path class="cls-6" d="m120.89,281.02c0-.14.01-.28.02-.42.29-.02.57-.03.86-.05,0,0-.02.14-.02.14-.28.11-.57.22-.85.33Z"/>
            <path class="cls-9" d="m108.49,282.44c.35-.36.71-.73,1.06-1.09,1.12,2.83,3.41,2.07,5.54,1.8l.04.1c-4.36,1.85-7.89-.2-11.38-2.44,1.55.57,3.09,1.15,4.64,1.72.32.2.65.41.98.6,0,0,.12-.19.19-.29-.36-.14-.71-.27-1.07-.41Z"/>
            <path class="cls-9" d="m97.4,277.32c2.85-.14,4.24,2.37,6.38,3.5-2.13-1.17-4.25-2.33-6.38-3.5Z"/>
            <path class="cls-4" d="m226.54,236.89c-.15.09-.31.11-.35.12,0,0-52.83,21.76-53.77,22.28-4.6,1.99-9.07,4.4-13.84,5.83-4.35,1.31-8.07,3.71-12.96,4.53-1.5.25-3.16,1.84-4.74,2.96-.47.13-.95.27-1.42.4-5.89,2.51-11.79,5.03-17.68,7.54-.16.01-.32.02-.47.03-.36.09-.92.23-1.27.32-1.64.75-3.28,1.5-4.93,2.25-2.13.27-4.42,1.03-5.54-1.8-.1-.28.07-.23.1-.34.08-4.8.4-9.61.18-14.4-.24-5.52,1.71-8.97,7.28-10.51,4.95-1.37,9.8-3.17,14.56-5.11,10.81-4.41,22.24-7.25,32.59-12.94,1.67-.92,1.48-.73,1.9-2.29l-33.3,10.35-11.11-17.54,66.3-20.53c5-1.48,7.61-1.76,11.43-.33l3.76,1.41,12.56,4.66,4.48,1.62c1.5.54,2.92,1.29,4.21,2.22l1.1.8c.44.32.79.75,1.02,1.24.51,1.13.76,2.34.76,3.58v2.52s.14,2.53.14,2.53v2.1c.15,1.88,1.75,4.89-.97,6.49Z"/>
            <path class="cls-4" d="m171.25,234.98s.02.04.02.04c-15.72,5.72-31.5,11.27-47.11,17.27-3.77,1.45-8.09,1.88-11.58,4.03-1.96,1.21-4.41,1.17-6.32-.1-1.8-1.19-4.21-1.68-5.77-3.16l.15-.11c.29-.1.58-.19.87-.29h0c7.66-2.69,15.26-5.58,23-8.05,10.3-3.28,20.26-7.69,31.04-9.38.5-.08,5.65-1.97,8.11-2.9.79-.3,1.63-.41,2.47-.33,2.38.24,5.43,1.59,5.13,2.98Z"/>
            <path class="cls-1" d="m225.76,220.27h-.34c-.22,0-.45-.04-.66-.12-1.53-.58-2.17-.58-2.22-.57l-2.58.23c-.78.07-1.55.24-2.29.51l-7.62,2.74-10.59,3.53-11.65,3.83-9.54,3.1-6.59,2c-.4.12-.7.4-1.01.67-1.83,1.53-4.52.82-6.39,1.86-10.34,5.69-21.77,8.53-32.59,12.94-4.76,1.94-9.61,3.74-14.56,5.11-5.57,1.54-7.53,4.99-7.29,10.51.21,4.79.16,13.91-.18,14.4-.48.88-.21.06-.2-.59,0-.21-.1-.4-.1-.61-.02-6.05-.04-12.1-.06-18.15-.01-.59-.03-1.18-.05-1.76,0-.33.09-.66.3-.92,3.71-4.65,9.64-4.78,14.61-6.69,15.61-6,31.4-11.55,47.11-17.27l11.51-3.68,19.58-7.23,16.62-5.2.29-.08,2.56-.57c.06-.01.12-.03.18-.03.29.01.67.04.96.19.8.4,3.08,1.55,2.79,1.84Z"/>
            <path class="cls-8" d="m78.62,263.69c-.08-5.59-.16-11.17-.24-16.76.08,5.59.16,11.17.24,16.76Z"/>
            <path class="cls-4" d="m97.93,249.96c-.3.21-.96,1.8-1.05,1.75-.95-.51-2.11-1.38-3.03-1.93-.21-.13-1.12-.58-.99-.79.04-.07.87-.43.88-.42,1.13.58,2.91.7,4.19,1.4Z"/>
            <path class="cls-4" d="m100.47,253.33c-.72-.33-2.16-.33-2.88-.65.05-.11,1.38-1.75,1.4-1.75.96.33,5.33-.34,6.29,0,0,0,.63.37-3.14,1.75-.29.11-1.12.67-1.41.77l-.25-.12Z"/>
            <path class="cls-6" d="m146.76,269.89s-.06.04-.09.06c-.02-.05-.05-.09-.07-.14.11-.02.11-.02.16.07Z"/>
            <path class="cls-9" d="m108.49,282.44l1.07.41c-.07.1-.18.29-.19.29-.33-.19-.65-.4-.98-.6,0,0,.09-.09.09-.09Z"/>
            <rect class="cls-9" x="108.33" y="282.14" width=".7" height=".7"/>
            <path class="cls-6" d="m79.29,266.83c-1.03-.68-.68-3.14-.68-3.14l-.24-16.76c.52-1.09.79-2.45,1.61-3.23,3.94-3.75,9.47-3.82,14.22-5.67,7.67-2.98,15.65-5.15,23.5-7.67.03.02.06.04.09.06-.03-.02-.06-.04-.1-.05,7-1.52,13.37-6.87,21.18-3.49,6.16,2.53,16.94,6.71,16.65,8.35-.06,1.5-20.75,6.1-31.04,9.38-6.76,2.16-13.14,5.67-20.11,7.02-1.73.34-2.93-.34-4.22-.46-.62-.06-1.14.04-1.5.48h0c-.17.22-.04.41.18.58.18.14.27.21.54.27.7.16,1.39.61,1.98,1.03,2.56,1.83,6.23,2.25,7.4,5.85l.25.66c.16.42.28,1.13.28,1.57-.06,6.11.16,18.08.1,18.61-.06.6.06,1.21-.37,1.64-.08.08-.18.21-.29.35-.21.28-.59.37-.91.24-.95-.4-2.93-1.24-4.07-1.66,0,0,.02.01.02.01-2.15-1.13-3.54-3.64-6.38-3.5,0,0,.03,0,.03,0-2.51-1.37-5.01-2.73-7.52-4.1h0c-1.47-.84-2.95-1.69-4.42-2.53v.03c-.85-.5-1.71-1-2.58-1.49,0,0,.03,0,.03,0-1.21-.8-2.43-1.6-3.64-2.4Zm18.19-16.49c-.08-.98-2.51-1.36-3.54-1.36-.54,0-.1.49,0,.54.9.53,1.59.9,2.51,1.4.18.1.39.12.59.07s.36-.23.44-.66Z"/>
            <path class="cls-13" d="m138.79,237.73c.63.25-24.45.7-38.07,3.49-.45.09-8.03,2.44-10.13,2.44-.5,0-5.65-.42-5.59-1.05.11-1.16,13.6-6.65,14.62-6.98,3.98-1.3,7.98-2.57,11.98-3.84,3.96-1.27,7.93-2.53,11.9-3.8,1.81-.58,3.61-1.15,5.43-1.73.47-.15.94.17.92.63-.02.51-.03,1.01-.06,1.52-.11,2.16.34,2.81,2.46,3.58,2.06.75,4.12,1.53,6.21,2.27.36.13.71.19,1.05.19.07,0,.14,0,.21,0,.06,0,.12,0,.18-.02.02,0,.03,0,.05,0,.05,0,.1-.02.15-.03.02,0,.04,0,.06-.01.05,0,.09-.02.14-.03.02,0,.05-.01.07-.02.05-.02.1-.03.15-.05.06-.02.13-.05.19-.08.06-.03.12-.06.18-.09.05-.03.11-.06.16-.09,0,0,.01,0,.02-.02.06-.03.12-.07.17-.12.17-.12.34-.27.49-.44,0,0,0,0,.01-.01.1-.11.19-.22.28-.34.05-.06.09-.13.13-.2.05-.07.09-.14.13-.21h0c.08-.27.16-.52.24-.79.11-3.24.23-6.45.34-9.63,0-.07.42-.75.69-.8.45-.08.85.24.84.67-.08,2.6-.16,5.23-.22,7.87-.07,2.69,2.08,4.21,4.88,3.36,1.34-.41-3.22,1.2-.49,2.26l-9.78,2.1Z"/>
            <path class="cls-6" d="m167.34,215.83c-.61,1.77-1.36,3.7-2.11,5.8-.52,1.45-1.31,2.49-2.43,3.02-1.88.9-4.1.26-5.3,2.54-.22.42.82,3.23.82,3.23.46.86,1.35,1.15,2.44.73,5.16-2.02,11.34-4.43,18.87-7.38,4.89-1.91,10.43-4.11,16.77-6.62,2.16-.86,3.18-2.08,2.4-3.64-.69-1.37-2.32-1.86-4.39-1.84-.51,0-1-.01-1.49,0-8.92.15-8.47-1.12-14-.83-.87.04-6.66,2.5-7.49,2.87-.96.43-2.45,0-3.32.48-.31.17-.57.5-.6.77,0,0,0,0,0,0-.03.28-.07.56-.17.87Z"/>
            <path class="cls-13" d="m167.52,215.46c-.34,1.54-.77,3.22-1.19,5.03-.29,1.26-.84,2.16-1.72,2.64-1.49.81-3.44.29-4.24,2.31-.15.38,1.04,2.79,1.04,2.79.48.73,1.26.94,2.14.53,4.04-1.88,8.71-4.05,14.16-6.59,3.4-1.58,7.14-3.35,11.26-5.29,1.37-.65,1.97-1.58,1.39-2.81-.52-1.09-1.62-1.52-3.01-1.55-.34,0-.68-.04-1.01-.04-6.27-.1-6.03-1.14-10.11-1.07-.65.01-4.96,1.97-5.59,2.27-.73.35-1.97-.05-2.64.35-.24.14-.42.43-.42.67,0,0,0,0,0,0,0,.24,0,.49-.06.76Z"/>
            <path class="cls-4" d="m143.68,234.08v-17.78c0-.93,1.34-1.95,3.44-2.62,2.94-.95,5.85-1.88,8.72-2.81,3.38-1.09,6.13-6.39,9.49-7.36,6.89-1.99,13.14-5.99,13.27-2.44.14,3.89-.15,17.28-.04,21.22-.05.62-.18,1.17-.39,1.68-.75,1.83-2.62,3.05-6.52,4.41-.09.03-.17.06-.26.09-3.58,1.22-7.22,2.45-10.92,3.7-2.71.92-5.46,1.85-8.23,2.78-4.04,1.37-8.58.93-8.58-.86Z"/>
            <path class="cls-6" d="m178.57,204.98c-.56,2.12-1.65,3.6-2.32,4.88-1.08,2.08-2.87,3.72-5.02,4.66l-2.75,1.2-5.48,2.77c-2.29,1.16-4.71,2.02-7.21,2.58l-1.52.34c-2.64.59-5.39-.35-7.13-2.43l-1.58-1.9c-.54-.65-.83-1.46-.83-2.3v-9.18l22.26-6.94c2.89-.9,6.04-.29,8.38,1.62l2.88-.27c.83.68.59,3.93.31,4.97Z"/>
            <path class="cls-13" d="m172.66,202.84c-.44,1.66-1.29,2.82-1.82,3.83-.85,1.63-2.25,2.92-3.94,3.66l-2.16.94-4.29,2.17c-1.79.91-3.69,1.58-5.65,2.02l-1.19.26c-2.07.46-4.23-.28-5.59-1.91l-1.24-1.49c-.42-.51-.65-1.15-.65-1.81v-7.19l17.45-5.44c2.27-.71,4.73-.23,6.57,1.27l1.8,1.47c.65.53.92,1.4.7,2.21Z"/>
          </g>
          <path class="cls-1" d="m145.26,221.46v8.5c0,.91.15,1.82.45,2.68l.14.42c.18.51.51.96.95,1.28l.24.17c.44.32.98.45,1.51.36l1.76-.28-.98-.65c-.73-.49-1.31-1.17-1.67-1.97l-.24-.52c-.2-.45-.36-.92-.45-1.4l-1.72-8.57Z"/>
          <path class="cls-1" d="m183.42,222.78l-3.39.88c-.55.14-1.08.34-1.58.58l-7.24,3.48c-.48.23-.98.44-1.49.62l-.61.22c-.53.19-.98.56-1.26,1.05l-.19.34c-.11.19.06.43.28.38l2.48-.56c.96-.22,1.9-.52,2.81-.91l4.24-1.83,5.24-2.44,2.37-1.05c.25-.11.22-.48-.05-.55l-.75-.19c-.28-.07-.58-.07-.87,0Z"/>
        </g>
        <path class="cls-4" d="m101.62,251.47l2.39,3.5s-4.78-2.32-5.44-2.72c-1.36-.82-1.69-.7-2.45-1.36-.57-.49-.65-.49-.65-.5l1.29-.83s.45.24,1.27.52c2.48.83,3.26,1.36,3.59,1.4Z"/>
      </g>
      <g>
        <g>
          <path class="cls-6" d="m169.69,55.78c1.93-.17,3.86-.34,5.78-.52.2.09.4.18.6.27-2.12.18-4.24.36-6.37.54v-.29Z"/>
          <path class="cls-6" d="m167.96,56.11c-.3-.09-.6-.18-.89-.27.87-.02,1.75-.04,2.62-.06,0,.1,0,.2.01.29-.58.01-1.16.03-1.74.04Z"/>
          <path class="cls-6" d="m176.07,55.53c-.2-.09-.4-.18-.6-.27.68-.02,1.37-.04,2.05-.06.09.1.19.2.28.29-.58.01-1.16.02-1.74.04Z"/>
          <path class="cls-6" d="m161.65,56.35c1.81-.17,3.61-.34,5.42-.51.3.09.6.18.89.27-1.93.18-3.86.35-5.79.53-.17-.1-.35-.2-.52-.3Z"/>
          <path class="cls-6" d="m159.84,56.69c-.11-.1-.21-.19-.32-.29.71-.02,1.42-.04,2.13-.06.18.1.35.2.52.3-.78.02-1.56.03-2.33.05Z"/>
          <path class="cls-6" d="m154.07,56.98c-.35-.02-.7-.05-1.05-.07.81-.08,1.63-.15,2.44-.23-.46.1-.92.2-1.39.3Z"/>
          <g>
            <path class="cls-2" d="m101.91,143.48c-.18.02-.35.04-.53.06.02-.09.05-.19.07-.28l.46.23Z"/>
            <path class="cls-1" d="m215.06,58.63s.03,0,.03,0c3.27.85,7.04,1.53,10.2,2.45,1.67.49,1.32.5.82.54-14.37,1.16-29.96,2.19-44.33,3.35-7.41.51-14.82,1.02-22.23,1.53h.02c-7.22.47-14.44.96-21.67,1.45-.06,0-.12.17-.17.25.04.02.09.03.13.05-1.58.16-3.16.32-4.73.48-3.55.23-7.1.47-10.65.7-.22.05-.43.11-.65.16-4.42.32-7.7.56-12.12.88l-1.4,1.75c-3.37.36-6.45-.96-9.82-.6-.23,0-1.13.59-1.36.6-1.72.13-2.77-.32-4.49-.19-.22.06-.43.12-.65.18-5.43.31-11.65,2.67-16.87,1.76-8.12-1.41-15.36-5.36-23.33-7.65-.69-.2-1.31-.61-1.97-.92.58-.02,1.15-.04,1.73-.06,4.33-.38,8.66-.75,12.99-1.13,2.8-.21,5.6-.42,8.4-.62,1.64-.18,3.28-.36,4.92-.53.68-.02,1.35-.03,2.03-.05,1.83-.18,3.66-.35,5.49-.53.3-.01.6-.02.9-.04,2.12-.18,4.23-.36,6.35-.55,2.89-.21,5.78-.42,8.67-.64,1.74-.17,3.49-.33,5.23-.5.58-.02,1.15-.05,1.73-.07,1.73-.18,3.46-.36,5.2-.54.59,0,1.19-.02,1.78-.02,4.24-.37,8.48-.74,12.72-1.11,1.06-.12,2.12-.24,3.18-.36,5.01-.29,10.03-.58,15.04-.87,2.03-.17,4.06-.34,6.09-.51.58-.02,1.16-.05,1.74-.07,1.93-.18,3.85-.35,5.78-.52.78-.02,1.56-.03,2.33-.05,1.93-.18,3.86-.35,5.79-.53.58-.01,1.16-.03,1.74-.04,2.12-.18,4.24-.36,6.37-.54.58-.01,1.16-.02,1.74-.04,4.92-.4,9.84-.81,14.76-1.21l1.44.09c7.02,1.42,14.04,2.84,21.06,4.27Z"/>
            <path class="cls-4" d="m186.4,197.32c-.09.06-.68.25-.77.3-.3-.07-.59-.14-.89-.21,3.47-2.48,7.08-14.09,6.31-14.49.03-.03.06-.07.09-.1.89-.99,1.6-2.13,2.19-3.33,1.14-2.35,2.3-4.69,3.36-7.07,2.23-5.02-2.12-16.22-6.69-17.38-.37-.17-.73-.34-1.1-.52-3.91-1.36-7.82-2.73-11.72-4.09,0-.02-.01-.07-.02-.07-1.21-.15-1.61.61-2.82.45-1.48.28-3.4,1.46-4.89,1.75l-.47-.92c-.23-.44-.75-.64-1.21-.46-.42.16-.83.33-1.25.49-.07-.04-.14-.05-.22-.03-.04-3.94-.07-7.87-.11-11.81-.1-2.56-.85-4.71-3.49-5.71-.17-.13-.34-.26-.51-.39l-.46-.06c-3.86-1.07-7.28-.64-11.14-1.71-1.43.08-3.18-1.36-4.61-1.28h-.02c-.78.05-1.56.1-2.34.15-2.87.4-5.74.8-8.6,1.2.26-1,.51-2,.77-3l.16.13.12-.96c.63-11.11-4.36-19.76-11.53-20.01-.32-.18-.63-.35-.95-.53-.36-.11-.74-.19-1.08-.34-9.92-4.32-21.52-1.62-25.8,6.01-.19.21.37.55.18.77l-.7.35c-.17.2-.18.14-.35.35l-1.25,1.65-.25.26c-.44.33-1.02.57-1.28,1-4.47,7.4-5.74,15.53-5.32,24.02-1.68.29-3.35.57-5.03.86-1.55.26-2.92,1.15-3.8,2.45l-.61.9c-1.37.23-3.87-2.04-5.05-1.41h-1.23c-.85-.51-.77-.65-1.17-.98s-.7-.77-.86-1.26h0c-.11-.33-.16-.67-.16-1.01-.05-15.06-.09-30.13-.14-45.19.14-5.24.27-10.48.41-15.72.01-.49.11-.97.3-1.42h0s0,.01,0,.01c.1-.2.19-.39.29-.59h0c.1-.19.21-.39.31-.58l-.02.02c.09-.1.18-.21.27-.31l.02-.03c.13-.18.25-.36.38-.54,2.61-3.84,6.69-3.64,10.62-3.85.3-.06.59-.12.89-.18,2.96-.22,9.32-.79,9.54-.85.96-.04,4.47-.32,5.07-.39l.77-.02,6.6-.57c.19-.02.38-.05.56-.11l.08-.02c.17-.05.34-.09.52-.11.78-.09,1.56-.19,2.34-.28h-.02c4.42-.31,13.9-1.1,13.9-1.1,3.55-.23,7.1-.47,10.65-.7,1.58-.16,3.16-.32,4.73-.48,7.24-.59,14.47-1.18,21.71-1.77h-.02c7.41-.5,14.82-1.01,22.23-1.52,13.83-1.12,27.65-2.24,41.48-3.35.67-.03,1.34-.07,2.01-.1l.63-.14.29-.02c.58.05,1.16.1,1.74.15.39.03.78.11,1.15.22,1.33.4,3.1,1.16,4.02,1.57.39.18.75.42,1.06.73.14.14.28.28.42.42h0c.1.09.2.19.3.29l.28.28c.2.29.39.58.59.88,0,0,1.05,2.41,1.11,3.65.28,5.34.39,10.7.57,16.05-.08,6.46-.52,11.34-.52,11.63-.01,4.82-.02,9.65-.02,14.47-.19,11.69-.26,23.39-.61,35.07-.29,9.67,1.2,19.75-1.01,29.02-.09.4-.23.78-.41,1.15-.09.2-.2.38-.28.47,0,0-.98,1.6-1.16,1.74,0,0-.09.13-.21.31-.25.38-.55.73-.87,1.05l-.66.66c-14.04,6.95-29.46,9.95-44.05,15.32l-.27.33s-.47.28-.96.49Z"/>
            <path class="cls-13" d="m184.93,194.17c-.25.15-.5.3-.75.45l-.34-.52c3.35-2.36,4.93-5.65,4.2-6.03.04-.04,10.3-1.87,10.33-1.9.88-.99,4.85-.72,5.44-1.9,1.08-2.18,5.53.32,6.53-1.9,4.62-2.18,20.44-4.33,16.04-5.44-.35-.16-38.21-23.54-38.56-23.7-3.76-1.3-7.53-2.6-11.29-3.9,0-.02-.01-.06-.02-.06-1.16-.15-1.55.58-2.72.42-1.43.27-3.28,1.4-4.71,1.67l-.45-.88c-.29-.56-1.08-.71-1.57-.16l-.8.19c-.07-.04-.14-.04-.21-.03-.03-3.76-.07-7.51-.1-11.27-.09-2.44-.82-4.5-3.36-5.45-.16-.12-.33-.25-.49-.37l-.44-.06c-3.71-1.02-7.01-.61-10.72-1.63-1.37.07-3.06-1.3-4.44-1.22h-.02c-.75.05-1.5.1-2.25.14-2.76.38-5.52.76-8.29,1.14.25-.95.49-1.91.74-2.86l.16.12.12-.92c.61-10.59-4.19-18.85-11.11-19.09-.3-.17-.61-.34-.91-.5-.35-.11-.71-.18-1.04-.32-9.55-4.12-20.72-1.55-24.84,5.74-.18.21.36.53.18.73l-.67.33c-.17.2-.17.14-.34.33l-1.2,1.57-.24.24c-.42.31-.98.54-1.23.95-4.3,7.06-5.53,14.81-5.12,22.91-1.61.27-3.23.55-4.84.82-1.49.25-2.81,1.1-3.66,2.33l-.59.86c-1.26.21-3.5-1.75-4.69-1.41l-1.2.11c-1-.19-1.45-.7-1.59-1.06-.12-.29-.31-.5-.41-.8l-.13-.38c-.09-.28-.14-.57-.14-.86-.05-14.39-.09-28.78-.14-43.16.13-5,.26-9.99.39-14.99.01-.46.11-.92.29-1.35h0s0,.01,0,.01c.09-.19.19-.38.28-.56h0c.1-.18.2-.37.3-.55l-.02.02c.09-.1.17-.2.26-.3l.02-.03c.12-.17.24-.35.36-.52,2.52-3.67,6.44-3.47,10.23-3.67.29-.06.57-.11.86-.17,2.85-.21,8.97-.75,9.18-.81.93-.04,4.3-.3,4.88-.37l.75-.02,6.35-.54c.18-.02.36-.05.54-.1l.08-.02c.16-.05.33-.08.5-.1.75-.09,1.5-.18,2.25-.27h-.02c4.25-.29,13.38-1.05,13.38-1.05,3.42-.22,6.84-.45,10.25-.67,1.52-.15,3.04-.3,4.56-.46,6.97-.56,13.93-1.13,20.9-1.69h-.02c7.13-.48,14.27-.96,21.4-1.45,13.31-1.07,26.63-2.13,39.94-3.2.65-.03,1.29-.06,1.94-.1,0,0,.19,0,.47,0,1.64,0,3.12,0,4.7.4,1.08.27,1.09.27,1.88.8.59.39,1.13.84,1.63,1.33l.27.27c.1.09.28.28.28.28.03.03.06.06.09.09.13.13.25.28.36.43l.1.14c.19.28.33.55.44.84.38,1.03.89,2.05.94,3.09.27,5.1.38,10.21.54,15.31-.08,6.16-.5,10.82-.5,11.09-.01,4.6-.01,9.2-.02,13.81-.18,11.15-.25,22.31-.59,33.46-.28,9.37,1.06,18.81-1.08,28.12,0,0-.62,2.06-.81,2.43,0,0-.54,1.09-1.09,1.63,0,0-.54.27-1.09.82l-1.36.82c-13.52,6.63-27.36,8.49-41.41,13.61-.09.1-.17.21-.26.31h.01c-.47.2-.94.4-1.42.6Z"/>
            <path class="cls-4" d="m182.7,192.54c-.09.05-.17.1-.26.15-.28-.07-.56-.14-.84-.2,3.3-2.25,6.78-12.92,6.05-13.29.04-.04.07-.07.1-.11.88-.95,1.57-2.04,2.15-3.19,1.07-2.1,2.15-4.21,3.15-6.35,2.15-4.62-1.93-15-6.26-16.1-.35-.16-.69-.32-1.04-.48-3.7-1.28-7.4-2.57-11.1-3.85,0-.02-.01-.06-.02-.06-1.15-.15-1.53.55-2.68.39-1.41.25-3.23,1.33-4.64,1.58l-.44-.85c-.25-.48-.89-.66-1.36-.32l-1.07.29s-.07,0-.1,0c-.02-3.63-.04-7.27-.05-10.9-.08-2.36-.78-4.36-3.29-5.29-.16-.12-.32-.24-.48-.36l-.44-.06c-3.65-1.01-6.88-.63-10.52-1.64-1.35.06-3-1.27-4.35-1.2h-.02c-.74.05-1.47.08-2.21.12-2.71.35-5.41.71-8.12,1.06.24-.92.49-1.84.73-2.76l.15.12.12-.89c.63-10.25-4.06-18.26-10.82-18.51-.3-.16-.59-.33-.89-.49-.34-.1-.7-.18-1.02-.32-9.33-4.02-20.23-1.56-24.26,5.46-.18.2.35.51.17.71l-.66.32c-.16.19-.17.13-.33.32l-1.17,1.51-.24.24c-.41.3-.96.52-1.2.91-4.19,6.79-4.32,18.81-3.93,26.61-1.57.25-4.6-.02-6.17.23-1.45.23-2.34-2.99-3.16-1.8l-.57.82c-.97.16-1.69-.23-2.45-.15s-1.53.04-2.27-.18c-1.14-.35-1.45-.47-1.64-.77-.1-.15-.22-.28-.33-.42-.13-.14-.24-.28-.33-.41-.39-.52-.61-1.16-.61-1.81-.06-4.61-.37-29.42-.41-42.1.13-4.82.25-9.65.38-14.48.01-.45.11-.89.28-1.31h0s0,.01,0,.01c.09-.18.18-.36.27-.54h0c.1-.18.19-.36.29-.54l-.02.02c.08-.1.17-.19.25-.29l.02-.03c.12-.17.24-.33.35-.5,2.45-3.54,6.27-3.35,9.95-3.54.28-.06.56-.11.84-.17,2.78-.2,8.75-.72,8.95-.77.9-.04,4.2-.29,4.76-.35l.73-.02,6.21-.52c.18-.02.36-.05.53-.1l.08-.02c.16-.05.32-.08.49-.1.73-.09,1.47-.17,2.2-.26h-.02c4.16-.28,13.1-1.01,13.1-1.01,3.35-.22,6.7-.43,10.06-.65,1.49-.15,2.98-.29,4.48-.44,6.85-.54,13.7-1.09,20.57-1.63h-.02c7.04-.46,14.08-.93,21.13-1.41,13.18-1.04,26.4-2.08,39.64-3.12.64-.03,1.28-.06,1.93-.09l.6-.13.28-.02c.73.06,1.47.13,2.2.19,1.67.63,3.33,1.26,5,1.89h0c.28.26.56.54.83.81h0c.1.09.19.18.29.27h-.01c.09.09.19.18.28.27,0,0,0,0,0,0,.19.27.37.55.56.82h0c.37,1.13,1,2.26,1.05,3.41.24,4.99.3,9.99.43,14.99-.12,6.03-.57,10.58-.58,10.84-.04,4.5-.08,8.99-.12,13.48-.26,10.88-.41,21.75-.83,32.6-.35,9.11.92,18.3-1.27,27.31,0,0-.15.91-.5,1.83-.26.66-.69,1.24-1.24,1.69-.18.15-.38.31-.55.45-.35.29-.74.52-1.16.68-.32.12-.64.25-.7.28-13.2,6.02-27.58,8.62-41.15,13.34-.09.1-.17.2-.26.3h.01c-.47.18-.93.38-1.4.57Z"/>
            <path class="cls-6" d="m69.67,96.07h0c.05,15.09.09,30.17.14,45.25,0,.3.04.62.19.87.28.46,1.63,1.57,2.4,2.27l.02.14-1.7.08h0c-1.05-.29-2.12-.52-3.15-.88-8.52-2.99-25.55-9.04-25.56-9.04-.31-.07-1.07-.64-1.73-.97-.15-.07-.29-.17-.41-.29l-.08-.08c-.09-.09-.16-.2-.21-.32-.11-.26-.24-.58-.24-.58-.04-18.99-.08-37.98-.12-56.97.02-.12,0-.74.07-1.16.13-.89.21-1.61.54-2.45l1.21-2.33h0c.05-.07.44-.57.63-.83h0c.19-.2.38-.39.57-.58.35-.3,1.06-.83,1.13-.88h.01c2.15-.64,4.29-1.28,6.44-1.91h.03c.65.31,1.27.72,1.95.91,7.96,2.3,15.83,5.19,23.95,6.6,5.22.9-1.55.14-4.16,3.99-.13.18-.25.36-.38.54l-.02.03c-.06.07-.12.14-.18.22l-.29.47c-.12.26-.25.51-.37.76-.18.45-.29.93-.3,1.41-.14,5.24-.27,10.47-.41,15.71h0Z"/>
            <path class="cls-6" d="m215.06,58.63c-7.02-1.42-14.03-2.84-21.04-4.26-.87,0-1.74,0-2.61,0h0c-4.54.37-9.07.75-13.6,1.12-.09-.1-.19-.2-.28-.29,4.43-.36,8.86-.73,13.29-1.09,1.3-.1,2.39-.1,3.53,0,6.86,1.43,13.73,2.87,20.59,4.3.04.08.08.15.13.22Z"/>
            <path class="cls-6" d="m115.02,59.83c4.13-.36,8.25-.72,12.38-1.08.2.09.4.19.59.28-4.24.37-8.48.74-12.72,1.11-.09-.1-.17-.2-.26-.3Z"/>
            <path class="cls-6" d="m59.94,64.23c.68-.03,1.36-.06,2.04-.09.54,0,1.09.01,1.63.02.32.02.64.04.96.06-4.33.38-8.66.75-12.99,1.13-.01-.11-.02-.21-.03-.32,2.32-.2,4.63-.39,6.95-.59.48-.07.96-.14,1.43-.21Z"/>
            <path class="cls-6" d="m232.36,62.98c-.54-.27-2.23-.87-3.31-1.23-.37-.12-.76-.2-1.15-.24-.47-.04-.94-.09-1.41-.13-.2,0-.45-.04-.65-.04-.19-.03-.32-.04-.51-.07-.02,0-.05-.01-.07-.02-.53-.14-6.9-1.79-10.16-2.64.28,0,.57,0,.85.01,3.5.78,7,1.56,10.5,2.34.29.04.58.07.86.11,0,0,.76.17,1.13.25.29.06.58.12.87.17.16.03,1.42.38,3.05,1.47Z"/>
            <path class="cls-6" d="m131.22,58.43c2.11-.13,4.23-.26,6.34-.39.4-.06.79-.12,1.19-.17,2.21-.12,4.42-.24,6.63-.36.28.09.56.19.85.28-5.01.29-10.03.58-15.04.87h0c.01-.08.02-.16.03-.24Z"/>
            <path class="cls-6" d="m95.6,61.33c1.65-.11,3.3-.22,4.94-.34.27.09.53.18.8.27-2.89.21-5.78.43-8.67.64-.38-.07-.77-.14-1.15-.22,1.05-.08,2.1-.16,3.15-.24.31-.04.62-.07.93-.11Z"/>
            <path class="cls-6" d="m51.55,65.03c.01.11.02.21.03.32-.58.02-1.15.04-1.73.06-2.15.64-4.3,1.28-6.46,1.92,2.3-2.26,5.26-2.16,8.16-2.3Z"/>
            <path class="cls-6" d="m64.58,64.22c-.32-.02-.64-.04-.96-.06.04-.09.08-.18.13-.26.76-.03,1.52-.06,2.29-.09.3-.05.61-.1.91-.15,1.83-.12,3.66-.24,5.49-.35.18.1.37.19.55.29-2.8.21-5.6.42-8.4.62Z"/>
            <path class="cls-6" d="m91.52,61.68c.38.07.77.14,1.15.22-2.12.18-4.23.36-6.35.55,0-.1,0-.2-.01-.3,1.74-.16,3.47-.31,5.21-.47Z"/>
            <path class="cls-6" d="m146.23,57.8c-.28-.09-.56-.19-.85-.28,1.54-.1,3.08-.19,4.63-.29.77.02,1.54.04,2.31.06-2.03.17-4.06.34-6.09.51Z"/>
            <path class="cls-6" d="m79.39,62.72c1.64-.16,3.27-.32,4.91-.47.38.08.75.16,1.13.24-1.83.18-3.66.35-5.49.53-.18-.1-.36-.19-.54-.29Z"/>
            <path class="cls-6" d="m107.78,60.42c1.65-.14,3.3-.28,4.95-.42.26.05.51.11.77.16-1.73.18-3.46.36-5.2.54l-.52-.28Z"/>
            <path class="cls-6" d="m101.34,61.26c-.27-.09-.53-.18-.8-.27,1.81-.17,3.63-.33,5.44-.5.2.09.4.18.59.28-1.74.17-3.49.33-5.23.5Z"/>
            <path class="cls-6" d="m72.98,63.6c-.18-.1-.37-.19-.55-.29,1.72-.17,3.43-.34,5.15-.51.11.09.21.18.32.27-1.64.18-3.28.36-4.92.53Z"/>
            <path class="cls-6" d="m155.45,56.68c1.35-.09,2.71-.18,4.06-.28.11.1.21.19.32.29-1.93.17-3.85.35-5.78.52.02-.08.02-.16,0-.24.46-.1.92-.2,1.39-.3Z"/>
            <path class="cls-3" d="m39.24,75.47h0c-.01.09-.02.16-.02.24.04,18.94.08,37.89.12,56.83-.27-1.3-.77-2.61-.77-3.91.04-17.74.29-54.02.4-54.42,0,0,0,0,0-.01.31-2.23,1.35-3.38,2.06-4.57-.4.98-.49.56-1.48,3.7-.17.54-.24,1.59-.32,2.15Z"/>
            <path class="cls-6" d="m154.07,56.98c.01.08.01.16,0,.24-.58.02-1.16.05-1.74.07-.77-.02-1.54-.04-2.31-.06,1-.11,2.01-.21,3.01-.32.35.02.7.05,1.05.07Z"/>
            <path class="cls-6" d="m128,59.03c-.2-.09-.4-.19-.59-.28.88-.05,1.75-.1,2.63-.14.38.02.77.05,1.15.07,0,0,0,0,0,0-1.06.12-2.12.24-3.18.36Z"/>
            <path class="cls-6" d="m113.5,60.16c-.26-.05-.51-.11-.77-.16.77-.05,1.53-.11,2.3-.16.09.1.17.2.26.3-.59,0-1.19.02-1.78.03Z"/>
            <path class="cls-6" d="m106.57,60.77c-.2-.09-.4-.18-.59-.28.6-.03,1.2-.05,1.8-.08.17.09.35.19.52.28-.58.02-1.15.05-1.73.07Z"/>
            <path class="cls-6" d="m77.89,63.06c-.11-.09-.21-.18-.32-.27.6-.02,1.21-.05,1.81-.07.18.1.36.19.54.29-.68.02-1.36.03-2.03.05Z"/>
            <path class="cls-6" d="m85.42,62.49c-.38-.08-.75-.16-1.13-.24.67-.03,1.35-.06,2.02-.1,0,.1,0,.2.01.3-.3.01-.6.02-.9.04Z"/>
            <path class="cls-14" d="m43.36,67.27c-.36.31-.73.63-1.09.94.36-.31.73-.63,1.09-.94Z"/>
            <path class="cls-6" d="m63.74,63.9c-.05.08-.09.17-.13.26-.55,0-1.09-.01-1.63-.02.59-.08,1.17-.16,1.76-.24Z"/>
            <path class="cls-12" d="m59.94,64.23c-.48.07-.96.14-1.43.21.48-.07.96-.14,1.43-.21Z"/>
            <path class="cls-12" d="m138.75,57.87c-.4.06-.79.12-1.19.17.4-.06.79-.12,1.19-.17Z"/>
            <path class="cls-6" d="m131.19,58.68c-.38-.02-.77-.05-1.15-.07.39-.06.79-.12,1.19-.18-.01.08-.02.16-.03.25Z"/>
            <path class="cls-6" d="m215.94,58.64c-.28,0-.88-.02-.88-.02-.05-.07-.09-.14-.13-.22.34.08.67.16,1.01.23Z"/>
            <path class="cls-12" d="m235.74,65.9c-.2-.29-.39-.58-.59-.88.2.29.39.58.59.88Z"/>
            <path class="cls-14" d="m42.27,68.21c-.19.19-.39.39-.58.58.19-.19.39-.39.58-.58Z"/>
            <path class="cls-12" d="m95.6,61.33c-.31.04-.62.07-.93.11.31-.04.62-.07.93-.11Z"/>
            <path class="cls-12" d="m66.94,63.66c-.3.05-.61.1-.91.15.3-.05.61-.1.91-.15Z"/>
            <path class="cls-12" d="m234.87,64.74c-.1-.1-.2-.2-.3-.3.1.1.2.2.3.3Z"/>
            <path class="cls-13" d="m94.36,116.68s0,.01-.01.02c-.67,1.02-1.11,2.18-1.3,3.39-.13.85-.26,1.69-.38,2.54-1.03,1.57-.5,3.13,0,4.69.48,1.61.97,3.22,1.45,4.83,4.11,7.36-.08,9.18-6.4,9.58-.42-8.49.85-16.62,5.32-24.02.27-.44.86-.68,1.31-1.02Z"/>
            <path class="cls-1" d="m137.87,68.27s-.09-.03-.13-.05c.06-.09.11-.25.17-.25,7.22-.5,14.44-.98,21.67-1.46-7.24.59-14.47,1.18-21.71,1.77Z"/>
            <path class="cls-1" d="m98.51,71.63c3.37-.36,6.74-.72,10.1-1.08-.87.1-1.74.21-2.61.31-.2.06-.41.12-.61.18-2.29.2-4.59.39-6.88.59Z"/>
            <path class="cls-1" d="m92.66,72.04c1.72-.13,3.44-.26,5.16-.39-.46.02-.92.05-1.37.07-.3.06-.6.12-.89.19-.96.04-1.93.09-2.89.13Z"/>
            <path class="cls-14" d="m74.05,144.4c-.54.07-1.09.14-1.63.21,0,0-.01-.14-.01-.14"/>
            <path class="cls-16" d="m162.18,133.73c-.27,0-.55,0-.82.01.12-.02.24-.05.36-.07.15.02.31.04.46.06Z"/>
            <path class="cls-14" d="m71.23,77.46c.13-.18.25-.36.38-.54-.13.18-.25.36-.38.54Z"/>
            <path class="cls-14" d="m70.37,78.95c.1-.2.19-.39.29-.59-.1.2-.19.39-.29.59Z"/>
            <path class="cls-14" d="m70.1,79.62c.09-.23.19-.45.28-.68-.09.23-.19.45-.28.68Z"/>
            <path class="cls-14" d="m70.66,78.36c.1-.19.21-.39.31-.58-.1.19-.21.39-.31.58Z"/>
            <path class="cls-14" d="m70.95,77.8c.09-.1.18-.21.27-.31-.09.1-.18.21-.27.31Z"/>
            <path class="cls-7" d="m103.41,132.49c-.11-.28-.23-.56-.34-.83.02-.1.03-.2.05-.3.1.38.19.76.29,1.14Z"/>
            <path class="cls-7" d="m134.96,136.75c.2.13.39.25.59.38-.2-.13-.39-.25-.59-.38Z"/>
            <path class="cls-8" d="m52.66,142.17c-.29.07-.47.17-.62.14-.11-.03-.18-.23-.27-.36.17-.04.35-.11.52-.11.09,0,.18.15.37.33Z"/>
            <path class="cls-2" d="m72.46,150.48c-.11.1-.23.19-.34.29.11-.1.23-.19.34-.29Z"/>
            <path class="cls-13" d="m92.68,127.31c-.5-1.56-1.03-3.12,0-4.69,0,1.56,0,3.13,0,4.69Z"/>
            <path class="cls-12" d="m93.25,118.75c.2-.43.4-.86.6-1.3-.2.43-.4.86-.6,1.3Z"/>
            <path class="cls-2" d="m171.88,157.72c-.15.1-.29.2-.44.29.15-.1.29-.2.44-.29Z"/>
            <path class="cls-7" d="m117.43,109.01c-.35.11-.52.17-.69.2-.02,0-.07-.19-.11-.29.13-.04.26-.11.39-.11.09,0,.18.09.41.21Z"/>
            <path class="cls-3" d="m63.35,142.39c-4.54-1.75-7.68-2.39-11.53-4.54-.54-.3-3.14-2.1-2.79-2.44.35-1.4,5.59.39,6.99,1.05,1.8.85,3.45,1.56,5.24,2.44,1.82.9,3.61,1.56,5.48,2.33,1.13.47,1.23.52,1.63.64.54.15,1.04.39,1.53.67.96.56,1.21.94,3.42,1.03,1.4,0,6.9-.18,7.15-.13-.31.17-6.82,1.06-7.15,1.18-3.12,1.11-7.17-1.18-9.96-2.23Z"/>
            <path class="cls-4" d="m68.31,78.65c-.72.41-.87.3-1.44.46-.93.25-2.59-.5-4.18-1.05-4.76-1.65-10.22-2.59-15.22-4.04-2.32-.67-6.05-3.07-3.26-4.79.97-.13,2.38.15,3.14.35,3.1.79,6.01,2.66,9.11,3.42,4.16,1.02,6.51,4.11,11.45,3.23.71-.13,4.17-2.1,4.93-2.1.7,0-1.75,1.4-2.1,1.75-1.05,1.05-1.88,2.47-2.44,2.79Z"/>
            <path class="cls-1" d="m205.56,67.64l6.49-.74h0s5.67-.41,5.67-.41c1.79-.13,7.41.04,7.41.04,1.05,0,2.13.52,3.53,1.39,0,0,2.52,1.63,3.36,5.18.06.27.29,8.8.29,8.8.52,29.11-1.17-1.01-1.28-1.53l-1.14-5.14c-.12-.54-.2-.8-.59-1.41-.18-.29-.38-.56-.59-.83l-.78-1.01c-.46-.6-2.64-1.79-3.97-2.5-.71-.38-1.53-.68-2.41-.9l-.5-.12c-2.08-.51-4.27-.69-6.42-.52l-2.83.22c-1.08.08-2.17.1-3.24.04l-2.97-.17c-4.35.11-.41-.35-.04-.39Z"/>
            <polygon class="cls-7" points="103.05 130.9 103.21 131.74 103.06 131.66 102.7 129.75 103.05 130.9"/>
            <path class="cls-4" d="m113.77,102.19l78.8,27.56,20.28,28.11-15.49,21.02s-16.71,6.46-17.43,6.16-51.71-19.16-51.71-19.16l-32.72-20.98,5.89-25.98,12.38-16.73Z"/>
            <polygon class="cls-1" points="227.67 174.44 227.67 174.44 227.67 174.44 227.67 174.44"/>
            <polygon class="cls-1" points="217.88 176.48 217.87 176.49 217.87 176.49 217.88 176.48"/>
            <polygon class="cls-13" points="184.04 193.05 184.05 193.04 184.04 193.04 184.04 193.05"/>
            <path class="cls-4" d="m186.4,196.77c14.59-5.38,31.24-8.65,45.28-15.6-7.58,5.61-16.96,6.51-25.45,9.74-5.9,2.24-12.02,3.9-18.04,5.82-3.69,1.4-1.6.12-1.79.04Z"/>
            <path class="cls-13" d="m208.44,182.79s-.08.03-.12.05l.07-.02.06-.03Z"/>
            <path class="cls-1" d="m227.92,176.92c-.18.15-.38.31-.55.45-.35.29-.74.52-1.16.68-.32.12-.64.25-.7.28-12.27,5.6-25.56,8.24-38.27,12.37-.74,1.09-1.36,3.05-.89,2.85.09-.1.17-.2.26-.31,14.05-5.13,27.89-6.98,41.41-13.61l1.09-.54c.65-.26,1.36-1.09,1.36-1.09.54-.54,1.09-1.63,1.09-1.63.07-.14.2-.5.33-.91-.97.39-2.03.3-2.86.1-.26.52-.63.98-1.09,1.35Z"/>
            <path class="cls-1" d="m78.58,84.6c-.08.22-.18.45-.26.67-.17.42-.33,2-.34,2.07-1.58,13.39-.04,26.85-.1,40.22-.22,3.01.6,4-.89,3.63-.42-.11-.72-.47-.73-.91-.33-13.73-2.44-30.28-.29-44.93l.31-1.42c.09-.6.5-1.4.5-1.4.35-.68,1.22-1.53,1.22-1.53.11-.11.42-.34.76-.59.7-.37,1.1-.57,1.42-.45.29.11.39.48.23.75-.56.93-1.64,3.43-1.83,3.91Z"/>
            <path class="cls-6" d="m184.74,197.41c-6.16,2.01-12.31,4.03-18.47,6.04,0-3.94,0-7.88,0-11.83.19,1.19.39,2.37.59,3.55.22,1.25,1.59,1.92,2.71,1.33,4.5-2.38,8.6-5.34,12.29-8.91,2.01-.85,6.22-2.75,7.64-3.44.29-.14.55-.32.78-.53.25-.24.51-.47.76-.71.77.4-2.84,12.01-6.31,14.49Z"/>
            <path class="cls-13" d="m188.05,192.74l-.83,1.86c-.37.65-.85,1.34-1.35,1.9l-.54.54c-.53.43-.9.47-1.55.68l-7.5,2.47-9.99,3.24v-5.35s21.77-5.35,21.77-5.35Z"/>
            <path class="cls-4" d="m166.29,203.85c0-.13-.01-.27-.02-.4,6.16-2.01,12.31-4.03,18.47-6.04.3.07.59.14.89.21-6.45,2.08-12.9,4.15-19.34,6.23Z"/>
            <path class="cls-4" d="m172.91,194.58c-1.2.75-2.44,1.46-3.7,2.11-.74.38-1.6.11-2.03-.53l-.91.25v1.72s21.78-5.39,21.78-5.39l.59-1.29.58-1.38-16.31,4.51Z"/>
            <path class="cls-13" d="m181.86,187.59l-5.29-.04c-.74,0-1.43-.28-2.05-.68-.06-.04-.12-.07-.18-.08-5.34-2.9-9.17-2.73-8.06,4.83.21,1.31.43,2.62.66,3.93.04.23.13.43.25.61l5.73-1.58c3.21-2,6.2-4.32,8.96-6.99Z"/>
          </g>
        </g>
        <path class="cls-6" d="m169.2,196.69c1.27-.66,2.5-1.36,3.7-2.11l-5.73,1.58c.43.64,1.29.91,2.03.53Z"/>
      </g>
      <g>
        <g>
          <path class="cls-10" d="m166.52,151.67c1.06,2.56-2.46,6.83,2.91,7.79-1.13,1.28-1.79.3-2.69-.31,0,0-.35-.35-.35-.35-.1-.2-.05-.05-.15-.25,0,0,0,.02,0,.02-.02-2.12-.04-4.24-.07-6.36.01-.19.03-.39.04-.58h.08c.08-.02.15,0,.22.03Z"/>
          <g>
            <path class="cls-2" d="m104.68,141.54c-.81.63-1.61,1.25-2.42,1.88-.01.01-.03.01-.05,0-1.4-.44-2.81-.87-4.21-1.31-.04-.01-.05-.07-.01-.1,2.12-1.25,4.42-.67,6.66-.57.05,0,.07.06.03.09Z"/>
            <g>
              <path class="cls-8" d="m45.54,142.39c.7-3.84,1.75-4.54,3.49-4.19,8.04,2.26,10.05,6.79,18.74,7.01.97.02,1.96-.33,2.94-.51.57-.03,1.14-.05,1.71-.08.54-.07,1.09-.14,1.63-.21,1.56-.32,3.13-.63,4.69-.95.52,0,1.04-.02,1.56-.02,5.83-.83,11.6-2.35,17.57-1.35,1.45.45,2.9.9,4.35,1.35-.11.02-.22.03-.32.05l-.46-.23c-.02.09-.05.19-.07.28-3.39.57-6.84.9-10.15,1.77-6.28,1.65-13.48,0-18.77,5.17-.11.1-.23.19-.34.29,0,0,0,0,0,0-.42.1-.93.41-1.26.27-8.01-3.22-10.73-3.58-18.69-6.91-3.49,2.1-7.33,1.4-6.64-1.75Z"/>
              <path class="cls-10" d="m87.73,141.72c6.32-.4,10.5-2.22,6.4-9.58,2.28-2.03,4.38-.14,6.36.54,1.51.52,2.08.26,2.57-1.02.11.28.23.56.34.83.61,1.36,1.23,2.72,1.84,4.08.08.49.15.97.23,1.46,0,.47,0,.95,0,1.42-.23.67-.46,1.33-.69,2-2.33-.08-4.71-.72-6.9.63-5.97-1-11.74.52-17.57,1.35-.51.04-1.58.19-1.59.04,2.48-.42,6.53-1.33,9.01-1.76Z"/>
              <path class="cls-10" d="m50.78,137.85c8.52,3.01,8.27,2.97,16.79,5.96,1.02.36,2.1.59,3.14.88-.98.18-1.96.54-2.94.51-8.61.32-8.95-3.35-16.99-5.61-1.77-.5-2.1-.7-3.14-.35s-1.75,1.75-1.75,1.75c0-1.05.7-2.44,1.75-3.14.41-.27,2.1-.35,3.14,0Z"/>
              <path class="cls-8" d="m94.09,117.24c1.05-1.75,2.44-3.84,2.44-3.84,4.19-7.68,16.05-10.41,25.97-6.08.35.15.72.23,1.08.34-8.41-.06-15.23,2.73-19.18,10.68-.14.19-.39.62-.39.62-3.64.09-5.49-4.55-9.93-1.71Z"/>
              <path class="cls-2" d="m94.8,116.24c3.8-1.58,5.86,2.79,9.22,2.71-1.15,4-2.36,7.99-.94,12.19-.01.07,0,.15.03.21-.02.1-.03.2-.05.3-.5,1.28-1.07,1.54-2.57,1.02-1.98-.68-4.08-2.56-6.36-.54-.49-1.63-.98-3.27-1.47-4.9l-.22-3.07c.25-1.68.51-3.37.76-5.05l.61-1.59.66-1.01c.08-.12.19-.22.32-.27Z"/>
              <path class="cls-8" d="m175.48,150.16q1.03-.09,2.08.25c3.91,1.36,7.44,2.74,11.34,4.11-6.28-2.16-11.84-.5-17.03,3.19l-.44.29h.01c-.58-.39-1.33-.66-1.71-1.2-1.21-1.69.34-4.27-1.76-5.72.23-.02,5.41-.74,7.5-.93Z"/>
              <path class="cls-2" d="m134.96,136.75c-1.58-1.6-.7-3.1.06-4.74,2.87-.4,5.74-.8,8.6-1.2,1.63.67,3,1.43.96,3.2.36.38.75,1.1,1.09,1.09,2.6-.12,5.19-.39,7.79-.61-5.98.88-11.95,1.75-17.93,2.63,0,0,.01.01.01.01-.2-.13-.39-.25-.59-.38Z"/>
              <path class="cls-8" d="m153.46,134.49c-2.59.22-5.19.49-7.79.61-.35.02-.73-.71-1.09-1.09,2.04-1.78.67-2.53-.96-3.2.78-.05,1.56-.09,2.34-.14,1.58.02,3.16.03,4.74.05.15,0,.31,0,.46,0,3.52.98,7.05,1.96,10.57,2.94-.12.02-.24.05-.36.07-2.63.25-5.26.5-7.9.75Z"/>
              <path class="cls-2" d="m171.45,158.01c-.47.38-.95.77-1.42,1.15-.21.1-.41.2-.62.3,0,0,.01,0,.01,0-5.37-.96-1.85-5.23-2.91-7.79.49-.19.97-.38,1.46-.57,2.11,1.45.55,4.03,1.76,5.72.38.53,1.13.81,1.71,1.2Z"/>
              <g>
                <path class="cls-10" d="m65.1,236.33c.23.09.8-.05,1.05,0,2.29.43,4.29,1.36,6.58,1.79-4.28.48-8.12-.74-11.68-3.04,0,0,.07-.09.07-.09,1.34.54,2.64.79,3.98,1.33Z"/>
                <path class="cls-10" d="m50.3,229.52c-3.03-1.58.01,0-3.01-1.57-.35-.35-.41-.61-.35-.7,2.99,1.65.44.56,3.42,2.2l-.06.07Z"/>
                <path class="cls-10" d="m61.04,235.09c-1.54-.78-3.08-1.55-4.62-2.33,0,0,.06-.07.06-.07,1.54.77,3.09,1.54,4.63,2.32l-.07.09Z"/>
                <path class="cls-10" d="m55.26,232.18c-1.54-.77-3.29-1.71-4.83-2.49,0,0,.35-.35.35-.35,1.54.77,3,1.99,4.55,2.76l-.07.07Z"/>
                <path class="cls-10" d="m56.42,232.76c-.39-.19-.77-.39-1.16-.58,0,0,.07-.07.07-.07.39.19.77.39,1.16.58l-.06.07Z"/>
                <path class="cls-10" d="m70.09,235.31c0,.19,0,.39,0,.58,0-.28-.02-.56-.03-.84,0,0,.05-.04.05-.04,0,.1-.01.2-.02.3Z"/>
              </g>
              <g>
                <g>
                  <path class="cls-10" d="m70.04,235.12c-1.79-1.93-.34-8.55.3-10.66,0,2.1-.3,8.55-.3,10.66Z"/>
                  <path class="cls-8" d="m70.09,235.31c3.24,4.64,6.63,1.06,9.96.16,1.89-.51,3.77-1.08,5.66-1.62-.04.04-.08.08-.12.13.05-.03.1-.07.15-.1,5.84-2.06,11.62-4.32,17.54-6.12,6.15-1.87,12.43-3.29,18.65-4.9-16.4,5.09-32.8,10.18-49.19,15.27-2.41-.45-4.82-.9-7.23-1.35,1.49-.52,3.38,1.06,4.59-.88,0-.19,0-.39,0-.58Z"/>
                  <g>
                    <path class="cls-7" d="m171.88,157.72c5.18-3.69,10.75-5.35,17.03-3.19.37.17.73.34,1.1.52-4.98-.13-9.9-.18-14.52,2.31-2.41,1.3-3.98,4.57-7.43,3.49-.62-.19-1.32-1.35-1.67-2.04.9.61,1.91,1.94,3.04.66h-.01c.21-.1,1.57-1.06,2.04-1.45,0,0-.01,0-.01,0,.15-.1.29-.2.44-.29Z"/>
                    <path class="cls-7" d="m103.08,131.14c-1.42-4.2-.21-8.19.94-12.19,0,0,.25-.42.39-.62,3.95-7.95,10.77-10.74,19.18-10.68.32.18.63.35.95.53-1.15.19-2.31.37-3.46.59-1.31.26-2.63.48-3.9.86-6.09,1.77-9.72,6.05-12.4,11.61-1.57,3.25-2.22,6.42-1.69,9.91Zm14.35-22.13c-.23-.12-.32-.21-.41-.21-.13,0-.26.07-.39.11.04.1.09.3.11.29.18-.03.35-.09.69-.2Z"/>
                    <path class="cls-7" d="m153.46,134.49c2.63-.25,5.26-.5,7.9-.75.27,0,.55,0,.82-.01.17.13.34.26.51.39-8.32,1.11-16.64,2.23-24.96,3.29-.71.09-1.47-.18-2.2-.29,5.98-.88,11.95-1.75,17.93-2.63Z"/>
                    <path class="cls-7" d="m105.45,137.85c-.07-.42-.13-.85-.2-1.27,1.67.68.45,4.33.45,4.33-4.25,7.35-12.03,5.03-18.14,5.8-13.11,1.65-15.17,3.07-15.16,16.11,0,5.63.38,11.31.39,16.94l-.7.35c-.28-.75-.5-1.9-.49-2.65.13-8.9.34-17.79.53-26.69h0c.11-.09.23-.19.34-.28,5.3-5.17,12.5-3.53,18.77-5.17,3.31-.87,6.76-1.2,10.15-1.77,0,0,0,0,0,0l1.48-.6c.41-.32.83-.64,1.24-.96.44-.34.77-.8.95-1.33.06-.17.12-.35.18-.52l.2-2.27Z"/>
                    <path class="cls-7" d="m70.1,205.51c.24-2.01.73-3.61,2.34-4.45.1-.12.85-.48.85-.48,1.78-.49,3.45-.44,5.11.58,8.1,4.94,15.71,2.3,19.46-6.71,1.98-4.53,1.6-9.05,0-13.58,3.24,6.65,2.62,13.19-1.8,18.84-3.91,4.99-9,7.93-15.52,3.8-1.74-1.11-3.43-3.01-5.84-1.62-3.11,1.8-3.58,4.97-3.72,8.1-.37,8.33-.59,16.67-.87,25.01,0,0-.05.04-.05.04,0-.21-.01-.42-.02-.63,0-2.1,0-4.21.01-6.31,0-.79,0-1.59,0-2.38,0-3.16,0-6.33,0-9.49,0-3.02,0-6.03-.01-9.05.02-.56.04-1.12.06-1.67Z"/>
                  </g>
                  <path class="cls-7" d="m76.15,180.52c-.38.14-.76.27-1.14.41-.3,0-.59,0-.89,0-.18-.03-.35-.06-.53-.09-.01-.08-.03-.17-.05-.25h0c.86-.03,1.72-.05,2.59-.06Z"/>
                  <path class="cls-7" d="m97.58,180.32c-.18-.3-.36-.6-.54-.9.18.3.36.6.54.9Z"/>
                  <path class="cls-7" d="m72.69,180c.29.19.58.38.87.58,0,0,0,.01,0,.01-.29-.19-.58-.39-.87-.58h0Z"/>
                  <path class="cls-7" d="m97.02,179.41c-.11-.19-.22-.37-.33-.56.11.19.22.37.33.56Z"/>
                  <path class="cls-7" d="m96.43,178.57c-.1-.11-.19-.21-.29-.32.1.11.19.21.29.32Z"/>
                  <path class="cls-7" d="m97.87,180.89c-.1-.2-.21-.4-.31-.6.1.2.21.4.31.6Z"/>
                  <path class="cls-7" d="m96.72,178.87c-.1-.1-.2-.21-.3-.31.1.1.2.21.3.31Z"/>
                  <path class="cls-7" d="m72.41,179.71c.1.1.19.19.29.29,0,0,0,0,0,0-.1-.1-.19-.19-.29-.29h0Z"/>
                  <path class="cls-2" d="m74.13,180.92c.3,0,.59,0,.89,0-.3,0-.59,0-.89,0Z"/>
                  <path class="cls-10" d="m70.04,207.19c-.08-.28-.16-.55-.24-.83.1-.28.2-.56.3-.84-.02.56-.04,1.12-.06,1.67Z"/>
                  <path class="cls-10" d="m70.05,225.72c0-3.16,0-6.33,0-9.49,0,3.16,0,6.33,0,9.49Z"/>
                  <path class="cls-2" d="m72.78,179.76l.35.35s.5.53.5.53c.09.06.04.21-.07.2-4.83-.41-8.73-3.15-12.97-5.08-7.4-3.35-3.94-1.1-11.21-4.73-1.4-.7-.96-1.22-2.1-3.49-.7-1.4-1.75-21.3-.35-23.75.74-1.29,3.6-1.09,4.54-.7,7.96,3.33,11.39,4.74,19.39,7.96.33.13.83-.17,1.26-.27-.19,8.9-.4,17.79-.53,26.69,0,.56.29,1.13.56,1.7.13.27.44.37.63.6Z"/>
                </g>
                <g>
                  <path class="cls-10" d="m45.84,191.94s.05.05.05.08c0,1.04-.35,2.43-.35,4.84.35,4.19,0,4.89,0,8.73.28,4.11-.35,11.18-.2,16.4.06,2.04.72,3.88,1.61,5.37l.34.58q-1.05-.7-1.75-1.75c-1.05-1.75-.67-3.36-.7-4.89-.13-8.22.35-10.83,0-19.21,0,0,0-3.8,0-5.93,0-1.01.12-2.01.34-2.99.29-1.23.4-1.34.65-1.24Z"/>
                  <g>
                    <path class="cls-8" d="m48.68,191.98c4.18.7,1.05.35,5.46,1.77,2.17.7,4.42,1.1,6.64,1.66,1.65,2.62,4.57,2.81,7.12,3.69,1.76.6,3.58,1,5.38,1.49h0c-.18.2-.36.42-.54.63-.82,1.43-2.12,3.68-2.94,5.11v.03c-.43.22-1.12.72-1.25.61-3.46-3.14-8.1-3.72-12.12-5.61-6.39-3-4.43-1.97-10.9-4.83.1-.43-.35-2.44,0-3.84,0-.35,0-.7.7-1.4.55-.55,2.44.7,2.44.7Z"/>
                    <path class="cls-2" d="m97.85,194.46c-3.75,9-11.37,11.65-19.46,6.71-1.66-1.01-3.33-1.07-5.11-.58-1.79-.49-3.62-.89-5.38-1.49-2.54-.88-5.47-1.07-7.12-3.69,6.15-.04,12.31-.35,18.18,2.14,2.75,1.17,2.83-1.17,3.91-2.8,3.57-5.38,8.56-8.96,15.08-9.95.07-.01.74,2.3.69,3.51-.08,2.06-.51,4.1-.8,6.15Z"/>
                    <path class="cls-2" d="m70.06,235.05c0,.28.02.56.03.84-1,1.6-2.45.82-3.76.78l-3.59-.85c-2.08-1.04-4.16-2.08-6.25-3.12-.39-.19-.77-.39-1.16-.58-1.54-.77-3.09-1.55-4.63-2.32-1.16-.58-1.05-.64-2.01-1.14-1.14-.59-2.44-1.4-2.79-2.79-1.07-4.29-.35-8.03-.35-19.56-.03-4.59.04-5.51,0-9.78,6.46,2.85,4.51,1.82,10.9,4.83,4.02,1.89,8.66,2.47,12.12,5.61.12.11.81-.39,1.24-.61l.24.15c0,3.24.01,6.48.02,9.73,0,3.16,0,6.33,0,9.49l-.41,3.93c-.34,1.59-.37,3.18.4,4.77,0,.21.01.42.02.63Z"/>
                    <path class="cls-11" d="m98.65,188.31c.05-1.21-.63-3.52-.7-3.51-6.53.99-11.52,4.57-15.08,9.95-1.08,1.63-1.16,3.97-3.91,2.8-5.86-2.49-11.91-2.11-18.05-2.07-2.21-.55-2.35-.4-4.54-1.05-5.94-1.75-5.24-1.75-10.13-3.14,2.87-2.58,4.19-2.44,7.68-2.1,7.33.7,9.22-4.09,8.28-11.62-.05-.41-.72-.86-1.2-1.07-12.52-5.55-10.58-4.07-13.37-6.16-1.4-1.4-2.31-3.11-2.44-7.68-.14-4.37-.78-14.47.35-18.86,0,0,1.4,0,1.05,1.4-.35,4.89-.35,9.11,0,13.62.35,4.54-.35,7.68,2.44,11.87l.18.18c6,2.57,4.43,1.75,11.38,4.9,4.25,1.93,8.16,4.69,13.01,5.08.18.03.35.06.53.08.3,0,.59,0,.89,0,.38-.14.76-.27,1.14-.41,6.14-5.34,12.47-9.05,19.99-2.27.09.1.19.21.28.31.09.1.18.19.27.29h0c.11.19.21.38.32.56h.01c.18.3.35.59.53.89v.02c.11.19.21.38.31.57v-.02c1.58,4.53,1.96,9.06-.02,13.58.28-2.05.72-4.09.8-6.15Z"/>
                    <path class="cls-16" d="m197.55,170.25c0,.65-.02,1.32-.07,1.99,0,.12-.03.25-.06.37-1.74,7.51-3.74,7.9-5.55,9.6l-1.41,1.3c-.09.08-.18.16-.29.22-1.04.69-7.07,4.59-10.11,4.7-.12,0-.24,0-.36-.02l-6.58-.95c-.07-.01-.14-.02-.21-.04-3.75-.88-7.65-3.03-6.66,4.05.01.1.02.21.02.31,0,3.89,0,7.78,0,11.67v.2c.02.14.01.27,0,.41-.1.85-1.19,5.36-1.19,5.36-.01.09-.06.17-.12.23-.09.09-.24.23-.37.36-.07.07-.16.12-.25.15-.91.29-10.89,3.55-11.86,3.91-.05.02-.11.04-.16.05-1.51.44-20.64,5.98-30.41,8.81v-.06c-6.22,1.61-12.5,3.03-18.65,4.9-5.92,1.8-11.7,4.06-17.54,6.12l-.02-.02c-1.88.54-3.76,1.11-5.65,1.62-3.33.89-6.72,4.48-9.96-.16,0-.1.01-.2.02-.3.28-8.34.5-16.68.87-25.01.14-3.14.6-6.31,3.72-8.11,2.42-1.4,4.1.51,5.84,1.62,6.52,4.13,11.62,1.19,15.52-3.8,4.42-5.64,5.04-12.19,1.8-18.84v.02c-.09-.19-.19-.38-.28-.57v-.02c-.19-.3-.37-.59-.54-.88h-.01c-.11-.19-.21-.38-.32-.56h0c-.09-.1-.18-.2-.27-.3l-.2-.22c-.06-.06-.12-.12-.18-.18-2.87-2.55-5.56-3.58-8.14-3.58-4.07,0-7.84,2.57-11.54,5.76-.81.7-1.99.77-2.88.18-.34-.22-.6-.52-.79-.86-.19-.35-.29-.73-.29-1.14,0-5.24-.01-10.47-.01-15.7,0-13.03,2.05-14.46,15.16-16.11,4.84-.61,13.43-3.89,16.76-5.23.71-.29,1.24-.89,1.44-1.63.27-1.03.51-2.19-.55-3.35-.63-.69-1.29-2.04-1.53-2.94l-.57-2.22c-.03-.07-.04-.14-.03-.22-.54-3.49.12-6.65,1.68-9.9,2.68-5.56,6.31-9.83,12.4-11.61,1.88-.55,3.86-.79,5.76-1.26.28-.07.56-.12.85-.14l.61-.04c.1,0,.2-.01.3,0,7.02.36,12.17,8.66,11.67,19.53-.01.23,0,1.05-1.05,4.19-.32,1.3-1.69,3-.63,4.5.15.21.36.39.58.53.1.07.2.13.3.2h-.01c.73.09,1.49.37,2.2.28,8.12-1.04,16.22-2.13,24.33-3.21.47-.06.96.03,1.38.25.91.49,1.54,1.15,1.96,1.93.53.98.74,2.16.79,3.44.03,3.94.16,7.7.19,11.64l.14,6.94c0,.43.14.84.38,1.2.35.52.68,1.09,1.15,1.23,3.44,1.08,5.02-2.19,7.43-3.49,4.54-2.44,9.35-2.44,14.23-2.32.19,0,.39.03.57.09,4.05,1.27,7.27,7.53,7.27,15.13Z"/>
                  </g>
                </g>
              </g>
            </g>
          </g>
        </g>
        <polygon class="cls-8" points="84.59 142.88 74.72 146.61 85 145.43 84.59 142.88"/>
      </g>
    </g>
    <g>
      <g>
        <rect class="cls-16" x="650.06" y="104.93" width="21.36" height="128.15"/>
        <path class="cls-16" d="m696.43,147.64c-2.36,6.68-3.65,13.87-3.65,21.36s1.29,14.68,3.65,21.36c1.19,3.36,2.65,6.59,4.35,9.66,2.33,4.21,5.13,8.13,8.31,11.69,1.58,1.77,3.27,3.46,5.04,5.04v16.31h-13.78c-1.7-1.49-3.33-3.04-4.89-4.67-.93-.95-1.82-1.92-2.69-2.91-3.74-4.24-7.07-8.85-9.93-13.78-.26-.44-.51-.9-.76-1.35h0c-3.45-6.23-6.15-12.95-7.97-20.01-.01-.05-.03-.11-.04-.17-1.73-6.78-2.65-13.88-2.65-21.19s.92-14.42,2.65-21.19c.01-.06.03-.11.04-.17,1.82-7.07,4.52-13.78,7.97-20.01h0c.25-.45.5-.9.76-1.35,2.85-4.93,6.18-9.55,9.93-13.78.87-.99,1.76-1.96,2.69-2.91,1.56-1.63,3.19-3.18,4.89-4.67h13.78v16.31c-1.77,1.58-3.46,3.27-5.04,5.04-3.19,3.56-5.98,7.48-8.31,11.69-1.71,3.07-3.17,6.31-4.35,9.66Z"/>
        <path class="cls-16" d="m793.85,147.64c-3.76-6.48-9.16-11.89-15.64-15.64-6.28-3.63-13.58-5.71-21.36-5.71-3.68,0-7.26.47-10.67,1.35h0c-3.79.97-7.38,2.46-10.68,4.37-2.9,1.68-5.58,3.69-8,5.98-2.98,2.83-5.56,6.08-7.64,9.66-3.63,6.28-5.71,13.58-5.71,21.36s2.08,15.07,5.71,21.36c2.08,3.58,4.66,6.83,7.64,9.66,2.42,2.29,5.1,4.3,8,5.98,3.3,1.91,6.89,3.39,10.68,4.37h0c3.41.88,6.98,1.35,10.67,1.35,7.78,0,15.07-2.08,21.36-5.71,6.48-3.76,11.89-9.16,15.64-15.64,3.63-6.28,5.71-13.58,5.71-21.36s-2.08-15.07-5.71-21.36Zm-39.65,42.55c-10.54-1.31-18.71-10.3-18.71-21.19s8.16-19.89,18.71-21.19c-.01-.06,2.65-.17,2.65-.17,11.79,0,21.36,9.56,21.36,21.36s-9.56,21.36-21.36,21.36c0,0-2.66-.11-2.65-.17Z"/>
        <path class="cls-16" d="m903.39,104.93v128.15h-21.36v-101.07c-2.9,1.68-5.58,3.69-8,5.98-2.98,2.83-5.56,6.08-7.64,9.66h-11.43c-2.08-3.58-4.66-6.83-7.64-9.66-2.42-2.29-5.1-4.3-8-5.98v101.07h-21.36V104.93c7.49,0,14.68,1.29,21.36,3.65.91.32,1.8.66,2.69,1.02,6.91,2.79,13.21,6.76,18.67,11.65,5.46-4.89,11.76-8.85,18.67-11.65.88-.36,1.78-.7,2.69-1.02,6.68-2.36,13.87-3.65,21.36-3.65Z"/>
        <polygon class="cls-16" points="988.82 104.93 988.82 233.07 967.46 233.07 967.46 126.28 946.1 126.28 946.1 233.07 924.74 233.07 924.74 104.93 988.82 104.93"/>
      </g>
      <g>
        <path class="cls-15" d="m1140.38,188.62s-.02-.06-.02-.08c-.95-3.69-2.35-7.18-4.16-10.44-.13-.23-.26-.46-.4-.7-1.48-2.57-3.22-4.97-5.17-7.19-.45-.52-.92-1.02-1.4-1.52-.81-.84-1.66-1.65-2.55-2.43h-14.37c-.89.78-1.73,1.59-2.55,2.43-.48.5-.94,1-1.4,1.52-1.95,2.22-3.69,4.62-5.17,7.19-.14.23-.27.46-.4.7-1.81,3.26-3.21,6.75-4.16,10.44-.01.03-.02.06-.02.08-.91,3.53-1.38,7.24-1.38,11.05v33.41h11.13v-22.27h22.27v22.27h11.13v-33.41c0-3.81-.48-7.51-1.38-11.05Zm-32.02,11.05c0-3.9.67-7.65,1.9-11.13.62-1.76,1.38-3.44,2.27-5.04,1.22-2.2,2.68-4.24,4.34-6.09h5.25c1.66,1.85,3.12,3.9,4.34,6.09.89,1.6,1.65,3.28,2.26,5.04,1.24,3.48,1.9,7.23,1.9,11.13h-22.27Z"/>
        <path class="cls-15" d="m1196.42,166.27v66.8h-11.13v-52.69c-1.51.87-2.91,1.92-4.17,3.12-1.56,1.47-2.91,3.17-3.99,5.04h-5.95c-1.08-1.87-2.43-3.57-3.99-5.04-1.26-1.19-2.66-2.25-4.17-3.12v52.69h-11.13v-66.8c3.91,0,7.65.67,11.13,1.9.47.16.94.34,1.4.53,3.6,1.46,6.89,3.53,9.74,6.08,2.85-2.55,6.13-4.62,9.74-6.08.46-.19.92-.36,1.4-.53,3.48-1.23,7.23-1.9,11.13-1.9Z"/>
        <path class="cls-15" d="m1087.11,174.78v13.76h-2.98c-1.08-1.87-2.43-3.57-3.99-5.04-1.26-1.19-2.66-2.25-4.17-3.12-1.72-1-3.59-1.77-5.57-2.27-1.78-.46-3.64-.7-5.57-.7-4.06,0-7.86,1.08-11.13,2.98-3.38,1.96-6.2,4.78-8.16,8.16-1.9,3.27-2.98,7.08-2.98,11.13s1.08,7.86,2.98,11.13c1.96,3.38,4.78,6.2,8.16,8.16,3.27,1.9,7.08,2.98,11.13,2.98,1.92,0,3.79-.24,5.57-.7,1.98-.51,3.85-1.28,5.57-2.27,1.51-.87,2.91-1.92,4.17-3.12,1.56-1.47,2.91-3.17,3.99-5.04h2.98v13.76c-2.85,2.55-6.13,4.62-9.74,6.08-.46.19-.92.36-1.4.53-3.48,1.23-7.23,1.9-11.13,1.9s-7.65-.67-11.13-1.9c-4.15-1.46-7.92-3.73-11.13-6.61-.92-.82-1.8-1.7-2.62-2.62-2.87-3.21-5.14-6.98-6.61-11.13-1.23-3.48-1.9-7.23-1.9-11.13s.67-7.65,1.9-11.13c1.46-4.15,3.73-7.92,6.61-11.13.82-.92,1.7-1.8,2.62-2.62,3.21-2.87,6.98-5.14,11.13-6.61,3.48-1.23,7.23-1.9,11.13-1.9s7.65.67,11.13,1.9c.47.16.94.34,1.4.53,3.6,1.46,6.89,3.53,9.74,6.08Z"/>
      </g>
      <g>
        <path class="cls-15" d="m592.51,166.27v66.8h-11.13v-15.08c-.45.52-.92,1.03-1.4,1.52-.82.84-1.67,1.65-2.55,2.43-2.21,1.95-4.62,3.69-7.19,5.17-3.45,2-7.19,3.54-11.13,4.56-3.56.92-7.29,1.4-11.13,1.4v-66.8h11.13v53.77c.47-.16.94-.34,1.4-.53,3.6-1.46,6.89-3.53,9.74-6.08.92-.82,1.8-1.7,2.62-2.62,1.66-1.86,3.12-3.9,4.34-6.09.89-1.61,1.65-3.29,2.27-5.04,1.23-3.48,1.9-7.23,1.9-11.13v-22.27h11.13Z"/>
        <path class="cls-15" d="m486.23,166.27v3.95c-1.95,2.21-3.69,4.62-5.17,7.19h-17.1v11.13h11.13c.47,0,.93.03,1.38.09-.9,3.53-1.38,7.23-1.38,11.05h-11.13v22.27h17.1c1.48,2.57,3.22,4.97,5.17,7.19v3.95h-33.4v-66.8h33.4Z"/>
        <path class="cls-15" d="m341.49,174.78v13.76h-2.98c-1.08-1.87-2.43-3.57-3.99-5.04-1.26-1.19-2.66-2.25-4.17-3.12-1.72-1-3.59-1.77-5.57-2.27-1.78-.46-3.64-.7-5.57-.7-4.06,0-7.86,1.08-11.13,2.98-3.38,1.96-6.2,4.78-8.16,8.16-1.9,3.27-2.98,7.08-2.98,11.13s1.08,7.86,2.98,11.13c1.96,3.38,4.78,6.2,8.16,8.16,3.27,1.9,7.08,2.98,11.13,2.98,1.92,0,3.79-.24,5.57-.7,1.98-.51,3.85-1.28,5.57-2.27,1.51-.87,2.91-1.92,4.17-3.12,1.56-1.47,2.91-3.17,3.99-5.04h2.98v13.76c-2.85,2.55-6.13,4.62-9.74,6.08-.46.19-.92.36-1.4.53-3.48,1.23-7.23,1.9-11.13,1.9s-7.65-.67-11.13-1.9c-4.15-1.46-7.92-3.73-11.13-6.61-.92-.82-1.8-1.7-2.62-2.62-2.87-3.21-5.14-6.98-6.61-11.13-1.23-3.48-1.9-7.23-1.9-11.13s.67-7.65,1.9-11.13c1.46-4.15,3.73-7.92,6.61-11.13.82-.92,1.7-1.8,2.62-2.62,3.21-2.87,6.98-5.14,11.13-6.61,3.48-1.23,7.23-1.9,11.13-1.9s7.65.67,11.13,1.9c.47.16.94.34,1.4.53,3.6,1.46,6.89,3.53,9.74,6.08Z"/>
        <path class="cls-15" d="m382.99,168.17c-3.48-1.23-7.23-1.9-11.13-1.9s-7.65.67-11.13,1.9c0,0-8.29,4.06-11.13,6.61v49.79c2.85,2.55,6.13,4.62,9.74,6.08.46.19.92.36,1.4.53,3.48,1.23,7.23,1.9,11.13,1.9s7.65-.67,11.13-1.9c4.15-1.46,7.92-3.73,11.13-6.61v-49.79c-3.21-2.87-6.98-5.14-11.13-6.61Zm0,50.79c-3.27,1.9-7.08,2.98-11.13,2.98-1.92,0-3.79-.24-5.57-.7-1.98-.51-3.85-1.28-5.57-2.27v-38.58c1.72-1,3.59-1.77,5.57-2.27,1.78-.46,3.64-.7,5.57-.7,4.06,0,7.86,1.08,11.13,2.98v38.58Z"/>
        <path class="cls-15" d="m443.78,199.67c-1.08-1.87-2.43-3.57-3.99-5.04-1.26-1.19-2.66-2.25-4.17-3.12-1.72-1-3.59-1.77-5.57-2.27-1.78-.46-3.64-.7-5.57-.7-4.05,0-7.86,1.08-11.13,2.97v-14.11h16.2l11.14-11.13h-38.46v66.81h22.26c1.93,0,3.79-.24,5.57-.7,1.98-.51,3.85-1.28,5.57-2.27,1.51-.87,2.91-1.93,4.17-3.12,1.56-1.47,2.91-3.17,3.99-5.04,1.89-3.27,2.97-7.08,2.97-11.13s-1.08-7.86-2.97-11.13Zm-17.91,22.18s.02.06.02.09h-1.4c-6.15,0-11.13-4.98-11.13-11.13s4.99-11.13,11.13-11.13h1.4s-.01.06-.02.08c5.49.68,9.75,5.37,9.75,11.05s-4.26,10.37-9.75,11.05Z"/>
        <path class="cls-15" d="m537.92,177.4c-1.08-1.87-2.43-3.57-3.99-5.04-1.26-1.19-2.66-2.25-4.17-3.12-1.72-1-3.59-1.77-5.57-2.27-1.78-.46-3.64-.7-5.57-.7h-22.27v66.8h11.13v-25.24c3.27,1.9,7.08,2.98,11.13,2.98,1.92,0,3.79-.24,5.57-.7,1.98-.51,3.85-1.28,5.57-2.27,1.51-.87,2.91-1.92,4.17-3.12,1.56-1.47,2.91-3.17,3.99-5.04,1.9-3.27,2.98-7.08,2.98-11.13s-1.08-7.86-2.98-11.13Zm-19.29,22.27c-6.08,0-11.02-4.87-11.13-10.93-.11-6.24,5.19-11.34,11.42-11.34h1.11s-.01.06-.02.09c5.49.68,9.75,5.36,9.75,11.05s-4.26,10.36-9.75,11.05c0,.03.01.06.02.09h-1.4Z"/>
      </g>
    </g>
  </g>
</svg>