<?xml version="1.0" encoding="UTF-8"?>
<svg id="_Слой_1" data-name="Слой 1" xmlns="http://www.w3.org/2000/svg" viewBox="0 0 2560 1440">
  <defs>
    <style>
      .cls-1 {
        fill: #a5d6f2;
      }

      .cls-1, .cls-2, .cls-3, .cls-4, .cls-5, .cls-6, .cls-7, .cls-8, .cls-9, .cls-10, .cls-11, .cls-12, .cls-13, .cls-14, .cls-15, .cls-16 {
        stroke-width: 0px;
      }

      .cls-2 {
        fill: #bb1736;
      }

      .cls-3 {
        fill: #275c8e;
      }

      .cls-4 {
        fill: #74afd7;
      }

      .cls-5 {
        fill: #fff;
      }

      .cls-6 {
        fill: #1e79ab;
      }

      .cls-7 {
        fill: #f2ced6;
      }

      .cls-8 {
        fill: #e85f79;
      }

      .cls-9 {
        fill: #17648f;
      }

      .cls-10 {
        fill: #ab233d;
      }

      .cls-11 {
        fill: #871c31;
      }

      .cls-12 {
        fill: #2381c4;
      }

      .cls-13 {
        fill: #196b98;
      }

      .cls-14 {
        fill: #194f8d;
      }

      .cls-15 {
        fill: #2295d3;
      }

      .cls-16 {
        fill: #e72f51;
      }
    </style>
  </defs>
  <rect class="cls-5" width="2560" height="1440"/>
  <g>
    <g>
      <g>
        <rect class="cls-16" x="1336.09" y="516.54" width="68.27" height="409.62"/>
        <path class="cls-16" d="m1484.29,653.08c-7.55,21.35-11.66,44.34-11.66,68.27s4.12,46.92,11.66,68.27c3.79,10.73,8.46,21.07,13.92,30.89,7.45,13.46,16.38,26,26.57,37.38,5.06,5.67,10.45,11.06,16.12,16.12v52.15h-44.05c-5.42-4.76-10.64-9.73-15.63-14.92-2.96-3.03-5.82-6.13-8.59-9.29-11.97-13.54-22.6-28.29-31.73-44.05-.82-1.42-1.63-2.86-2.43-4.3h-.02c-11.04-19.91-19.67-41.38-25.49-63.96-.04-.17-.09-.34-.13-.53-5.54-21.66-8.48-44.36-8.48-67.74s2.94-46.08,8.48-67.74c.04-.19.09-.36.13-.53,5.82-22.59,14.45-44.05,25.49-63.97h.02c.8-1.44,1.61-2.88,2.43-4.3,9.12-15.76,19.76-30.51,31.73-44.05,2.77-3.17,5.63-6.26,8.59-9.29,4.99-5.2,10.2-10.16,15.63-14.92h44.05v52.15c-5.67,5.06-11.06,10.45-16.12,16.12-10.18,11.38-19.12,23.91-26.57,37.38-5.46,9.82-10.13,20.16-13.92,30.89Z"/>
        <path class="cls-16" d="m1795.71,653.08c-12-20.73-29.28-38-50.01-50.01-20.08-11.61-43.41-18.26-68.27-18.26-11.78,0-23.19,1.5-34.1,4.3h-.02c-12.12,3.11-23.59,7.85-34.15,13.96-9.27,5.37-17.84,11.8-25.58,19.12-9.54,9.05-17.79,19.44-24.43,30.89-11.61,20.08-18.26,43.41-18.26,68.27s6.66,48.19,18.26,68.27c6.64,11.45,14.89,21.85,24.43,30.89,7.74,7.32,16.31,13.75,25.58,19.12,10.56,6.11,22.04,10.85,34.15,13.96h.02c10.9,2.81,22.32,4.3,34.1,4.3,24.86,0,48.19-6.66,68.27-18.26,20.73-12,38-29.28,50.01-50.01,11.61-20.08,18.26-43.41,18.26-68.27s-6.66-48.19-18.26-68.27Zm-126.75,136.01c-33.7-4.17-59.79-32.92-59.79-67.74s26.09-63.57,59.79-67.74c-.04-.19,8.48-.53,8.48-.53,37.7,0,68.27,30.57,68.27,68.27s-30.57,68.27-68.27,68.27c0,0-8.51-.34-8.48-.53Z"/>
        <path class="cls-16" d="m2145.84,516.54v409.62h-68.27v-323.09c-9.27,5.37-17.84,11.8-25.58,19.12-9.54,9.05-17.79,19.44-24.43,30.89h-36.52c-6.64-11.45-14.89-21.85-24.43-30.89-7.74-7.32-16.31-13.75-25.58-19.12v323.09h-68.27v-409.62c23.93,0,46.92,4.12,68.27,11.66,2.9,1.02,5.76,2.11,8.59,3.26,22.07,8.93,42.23,21.6,59.68,37.23,17.45-15.63,37.61-28.29,59.68-37.23,2.83-1.16,5.69-2.24,8.59-3.26,21.35-7.55,44.34-11.66,68.27-11.66Z"/>
        <polygon class="cls-16" points="2418.92 516.54 2418.92 926.16 2350.65 926.16 2350.65 584.81 2282.38 584.81 2282.38 926.16 2214.11 926.16 2214.11 516.54 2418.92 516.54"/>
      </g>
      <g>
        <path class="cls-15" d="m1959.92,1075.29c-.03-.08-.05-.17-.06-.25-2.84-10.96-6.99-21.33-12.37-31.01-.39-.7-.76-1.38-1.18-2.08-4.4-7.64-9.57-14.77-15.36-21.36-1.35-1.53-2.73-3.04-4.15-4.51-2.42-2.5-4.95-4.9-7.58-7.21h-42.69c-2.63,2.31-5.15,4.71-7.58,7.21-1.43,1.47-2.81,2.98-4.15,4.51-5.78,6.59-10.96,13.72-15.35,21.36-.42.7-.81,1.38-1.19,2.08-5.36,9.67-9.53,20.05-12.36,31.01-.03.08-.05.17-.06.25-2.7,10.5-4.11,21.5-4.11,32.82v99.25h33.07v-66.17h66.17v66.17h33.08v-99.25c0-11.32-1.43-22.32-4.11-32.82Zm-95.14,32.82c0-11.6,1.98-22.73,5.66-33.07,1.83-5.22,4.09-10.22,6.74-14.98,3.63-6.53,7.95-12.6,12.88-18.11h15.6c4.93,5.5,9.27,11.58,12.9,18.11,2.65,4.76,4.91,9.75,6.73,14.98,3.67,10.34,5.66,21.47,5.66,33.07h-66.17Z"/>
        <path class="cls-15" d="m2126.41,1008.88v198.48h-33.08v-156.56c-4.49,2.59-8.64,5.71-12.39,9.26-4.63,4.37-8.64,9.42-11.85,14.98h-17.68c-3.21-5.55-7.22-10.61-11.85-14.98-3.75-3.55-7.9-6.68-12.39-9.26v156.56h-33.08v-198.48c11.61,0,22.73,1.98,33.08,5.65,1.4.48,2.79,1,4.15,1.56,10.71,4.33,20.47,10.49,28.93,18.06,8.46-7.58,18.22-13.73,28.93-18.06,1.36-.56,2.75-1.08,4.15-1.56,10.34-3.67,21.47-5.65,33.08-5.65Z"/>
        <path class="cls-15" d="m1801.63,1034.16v40.88h-8.84c-3.21-5.55-7.22-10.61-11.85-14.98-3.75-3.55-7.9-6.68-12.39-9.26-5.11-2.97-10.67-5.25-16.54-6.76-5.29-1.36-10.83-2.08-16.54-2.08-12.05,0-23.36,3.21-33.08,8.84-10.04,5.81-18.42,14.19-24.24,24.24-5.63,9.72-8.84,21.03-8.84,33.08s3.21,23.36,8.84,33.08c5.81,10.04,14.19,18.42,24.24,24.24,9.72,5.63,21.03,8.84,33.08,8.84,5.71,0,11.25-.72,16.54-2.09,5.87-1.5,11.43-3.79,16.54-6.76,4.49-2.59,8.64-5.71,12.39-9.26,4.63-4.37,8.64-9.42,11.85-14.98h8.84v40.88c-8.46,7.58-18.22,13.73-28.93,18.06-1.36.56-2.75,1.08-4.15,1.56-10.34,3.67-21.47,5.65-33.08,5.65s-22.73-1.98-33.08-5.65c-12.33-4.35-23.54-11.09-33.08-19.63-2.75-2.45-5.35-5.05-7.8-7.8-8.54-9.54-15.28-20.75-19.63-33.08-3.67-10.35-5.65-21.47-5.65-33.08s1.98-22.73,5.65-33.08c4.35-12.33,11.09-23.54,19.63-33.08,2.45-2.75,5.05-5.35,7.8-7.8,9.54-8.54,20.75-15.28,33.08-19.63,10.34-3.67,21.47-5.65,33.08-5.65s22.73,1.98,33.08,5.65c1.4.48,2.79,1,4.15,1.56,10.71,4.33,20.47,10.49,28.93,18.06Z"/>
      </g>
      <g>
        <path class="cls-15" d="m2333.1,232.65v198.48h-33.08v-44.81c-1.34,1.54-2.73,3.05-4.15,4.51-2.43,2.51-4.95,4.91-7.58,7.22-6.58,5.79-13.71,10.97-21.35,15.36-10.24,5.93-21.35,10.53-33.08,13.55-10.57,2.73-21.65,4.17-33.08,4.17v-198.48h33.08v159.75c1.4-.48,2.79-1,4.15-1.56,10.71-4.33,20.47-10.49,28.93-18.06,2.75-2.45,5.35-5.05,7.8-7.8,4.93-5.51,9.26-11.59,12.89-18.1,2.65-4.77,4.91-9.76,6.74-14.98,3.67-10.35,5.65-21.47,5.65-33.08v-66.16h33.08Z"/>
        <path class="cls-15" d="m2017.34,232.65v11.73c-5.79,6.58-10.97,13.71-15.36,21.35h-50.8v33.08h33.08c1.4,0,2.77.08,4.11.26-2.69,10.49-4.11,21.49-4.11,32.82h-33.08v66.16h50.8c4.39,7.64,9.56,14.78,15.36,21.35v11.73h-99.24v-198.48h99.24Z"/>
        <path class="cls-15" d="m1587.3,257.93v40.88h-8.84c-3.21-5.55-7.22-10.61-11.85-14.98-3.75-3.55-7.9-6.68-12.39-9.26-5.11-2.97-10.67-5.25-16.54-6.76-5.29-1.36-10.83-2.08-16.54-2.08-12.05,0-23.36,3.21-33.08,8.84-10.04,5.81-18.42,14.19-24.24,24.24-5.63,9.72-8.84,21.03-8.84,33.08s3.21,23.36,8.84,33.08c5.81,10.04,14.19,18.42,24.24,24.24,9.72,5.63,21.03,8.84,33.08,8.84,5.71,0,11.25-.72,16.54-2.09,5.87-1.5,11.43-3.79,16.54-6.76,4.49-2.59,8.64-5.71,12.39-9.26,4.63-4.37,8.64-9.42,11.85-14.98h8.84v40.88c-8.46,7.58-18.22,13.73-28.93,18.06-1.36.56-2.75,1.08-4.15,1.56-10.34,3.67-21.47,5.65-33.08,5.65s-22.73-1.98-33.08-5.65c-12.33-4.35-23.54-11.09-33.08-19.63-2.75-2.45-5.35-5.05-7.8-7.8-8.54-9.54-15.28-20.75-19.63-33.08-3.67-10.35-5.65-21.47-5.65-33.08s1.98-22.73,5.65-33.08c4.35-12.33,11.09-23.54,19.63-33.08,2.45-2.75,5.05-5.35,7.8-7.8,9.54-8.54,20.75-15.28,33.08-19.63,10.34-3.67,21.47-5.65,33.08-5.65s22.73,1.98,33.08,5.65c1.4.48,2.79,1,4.15,1.56,10.71,4.33,20.47,10.49,28.93,18.06Z"/>
        <path class="cls-15" d="m1710.6,238.3c-10.34-3.67-21.47-5.65-33.08-5.65s-22.73,1.98-33.08,5.65c0,0-24.62,12.05-33.08,19.63v147.92c8.46,7.58,18.22,13.73,28.93,18.06,1.36.56,2.75,1.08,4.15,1.56,10.34,3.67,21.47,5.65,33.08,5.65s22.73-1.98,33.08-5.65c12.33-4.35,23.54-11.09,33.08-19.63v-147.92c-9.54-8.54-20.75-15.28-33.08-19.63Zm0,150.9c-9.72,5.63-21.03,8.84-33.08,8.84-5.71,0-11.25-.72-16.54-2.09-5.87-1.5-11.43-3.79-16.54-6.76v-114.64c5.11-2.97,10.67-5.25,16.54-6.76,5.29-1.36,10.83-2.08,16.54-2.08,12.05,0,23.36,3.21,33.08,8.84v114.64Z"/>
        <path class="cls-15" d="m1891.23,331.89c-3.21-5.57-7.22-10.62-11.86-14.98-3.75-3.55-7.89-6.68-12.39-9.27-5.12-2.96-10.67-5.25-16.54-6.76-5.29-1.36-10.82-2.08-16.54-2.08-12.05,0-23.35,3.21-33.08,8.84v-41.92h48.12l33.08-33.08h-114.27v198.48h66.15c5.72,0,11.25-.71,16.54-2.08,5.88-1.5,11.43-3.8,16.54-6.76,4.5-2.59,8.64-5.72,12.39-9.27,4.63-4.37,8.65-9.43,11.86-14.98,5.63-9.72,8.84-21.02,8.84-33.08s-3.21-23.35-8.84-33.07Zm-53.22,65.89c.03.09.05.19.06.26h-4.17c-18.26,0-33.08-14.8-33.08-33.08s14.82-33.07,33.08-33.07h4.17c-.02.08-.03.17-.06.25,16.32,2.03,28.97,15.95,28.97,32.82s-12.65,30.8-28.97,32.82Z"/>
        <path class="cls-15" d="m2170.89,265.73c-3.21-5.55-7.22-10.61-11.85-14.98-3.75-3.55-7.9-6.68-12.39-9.26-5.11-2.97-10.67-5.25-16.54-6.76-5.29-1.36-10.83-2.08-16.54-2.08h-66.16v198.48h33.08v-75c9.72,5.63,21.03,8.84,33.08,8.84,5.71,0,11.25-.72,16.54-2.09,5.87-1.5,11.43-3.79,16.54-6.76,4.49-2.59,8.64-5.71,12.39-9.26,4.63-4.37,8.64-9.42,11.85-14.98,5.63-9.72,8.84-21.03,8.84-33.08s-3.21-23.36-8.84-33.08Zm-57.32,66.16c-18.06,0-32.74-14.48-33.07-32.46-.34-18.53,15.41-33.7,33.94-33.7h3.3c-.02.08-.04.18-.06.26,16.32,2.02,28.97,15.94,28.97,32.82s-12.65,30.79-28.97,32.82c.02.08.04.18.06.26h-4.17Z"/>
      </g>
    </g>
    <g>
      <path class="cls-10" d="m472.78,1070.32c.17.09.33.19.5.28-.16-.1-.32-.2-.47-.31,0,0-.03.03-.03.03Z"/>
      <path class="cls-16" d="m389.07,1061.22c-.26.18-.52.36-.78.54.22-.22.43-.44.65-.67,0,0,.13.13.13.13Z"/>
      <g>
        <g>
          <g>
            <path class="cls-9" d="m663.91,1020.97c1.59,1.15,3.18,2.3,4.76,3.45-41.07-17.78-74.57,10.35-111.39,18.35l.03-.03c-41.28,13.22-83.27,24.64-123.59,40.33-25.02,9.73-54.07,10.13-74.82,29.84-4.31,4.09-5.72,11.23-8.47,16.97.41,29.38.83,58.76,1.24,88.15-.94,1.49-4.7-59.45-2.52-91.19,1.73-25.22,25.82-27.44,44.11-33.5,81.02-26.84,162.11-53.49,243.58-78.94,7.6-2.37,17.98,4.17,27.07,6.58Z"/>
            <path class="cls-6" d="m726.96,980.97c0,24.82-.02,49.64-.02,74.45,0,1.67-.15,3.33-.59,4.91-3.61,12.75-19.22,19.72-32.79,13.72-17.59-6.92-34.86-14.09-52.05-20.99-17.62-7.06-21.57-12.33-21.63-29.04-.13-26.95-5.14-44.24,26.25-49.58.58-.1,1.17-.22,1.73-.36,14.03-3.6,28.13-7.26,42.45-10.82,15.03-3.73,22.73-2.29,31.25,7.07,2.41,2.65,4.24,5.76,5.17,9.1.15.52.25,1.04.25,1.53Z"/>
            <path class="cls-9" d="m534.05,1169.9c.83,20.41,1.67,40.81,2.5,61.22-23.01-21.01-46.02-42.01-69.02-63.02,22.18.6,44.35,1.2,66.52,1.8Z"/>
            <path class="cls-6" d="m1134.5,1070.67l-287.04,122.16c.34-.54.36-.54.33-.84-24.2,10.44-50.47,26.05-75.55,33.58-22.86,6.87-43.87,19.52-68.25,22.6-7.92,1-16.56,10.87-24.87,16.81-.01.36.01.73.11,1.07,54.58-22.78,163.57-68.15,163.57-68.15,2.65-.44,59.94-25,62.46-25.92l36.63-13.32,86.35-34.9,52.72-19.18c5.26-1.92,10.41-4.09,15.46-6.52l21.9-10.58c2.4-1.16,4.66-2.55,6.78-4.15l6.16-4.66c2.27-1.72,3.85-4.2,4.48-6.98.16-.72-.56-1.3-1.23-1.02Zm-424.86,180.29c-.11-.24-.24-.49-.37-.72.56-.09.57-.1.84.39-.16.11-.31.21-.47.33Z"/>
            <path class="cls-6" d="m673.06,1268.18c-31.52,13.09-63.04,26.19-94.57,39.28,0,0,.12-.73.12-.74,31-13.22,62-26.43,93-39.64.48.37.96.73,1.44,1.1Z"/>
            <path class="cls-10" d="m411.03,1268.19c13.19,7.19,26.37,14.37,39.56,21.56-13.18-7.19-26.37-14.37-39.56-21.56Z"/>
            <path class="cls-6" d="m543.72,1320.9s-.2-.51-.2-.52c8.64-3.95,17.27-7.89,25.91-11.84.45.67.9,1.34,1.35,2-9.02,3.45-18.04,6.9-27.07,10.35Z"/>
            <path class="cls-10" d="m387.8,1254.87c7.76,4.45,15.51,8.89,23.27,13.34-7.76-4.45-15.51-8.89-23.27-13.34Z"/>
            <path class="cls-10" d="m355.55,1234.76c6.28,4.14,12.56,8.28,18.84,12.41-6.28-4.14-12.56-8.28-18.84-12.41Z"/>
            <path class="cls-10" d="m374.24,1247.16c4.55,2.62,9.09,5.24,13.64,7.85-4.55-2.62-9.09-5.24-13.64-7.85Z"/>
            <path class="cls-6" d="m570.79,1310.55c-.45-.67-.9-1.34-1.35-2.01,1.56-.52,3.11-1.03,4.67-1.55-.03.73-.06,1.47-.09,2.2-1.08.45-2.15.9-3.23,1.35Z"/>
            <path class="cls-6" d="m673.06,1268.18c-.48-.37-.96-.73-1.44-1.1,2.5-.71,5-1.41,7.5-2.11-.02.37.02.73.12,1.09-2.06.71-4.12,1.42-6.17,2.13Z"/>
            <path class="cls-6" d="m574.02,1309.2c.03-.73.06-1.47.09-2.2,1.5-.09,3.01-.18,4.51-.27,0,0-.12.73-.12.73-1.49.58-2.99,1.16-4.48,1.74Z"/>
            <path class="cls-9" d="m508.79,1316.65c1.86-1.91,3.73-3.82,5.59-5.73,5.91,14.87,17.94,10.9,29.14,9.46l.2.51c-22.95,9.76-41.49-1.07-59.84-12.81,8.14,3.02,16.28,6.04,24.42,9.06,1.7,1.08,3.39,2.16,5.14,3.16.03.02.64-.98.99-1.5-1.88-.72-3.76-1.44-5.64-2.16Z"/>
            <path class="cls-9" d="m450.44,1289.73c14.97-.75,22.28,12.46,33.57,18.42-11.19-6.14-22.38-12.28-33.57-18.42Z"/>
            <path class="cls-4" d="m1129.68,1077.09c-.79.46-1.62.56-1.85.64,0,0-277.89,114.44-282.79,117.17-24.2,10.44-47.73,23.13-72.8,30.66-22.86,6.87-42.44,19.52-68.18,23.81-7.87,1.31-16.63,9.65-24.94,15.59-2.49.7-4.99,1.4-7.49,2.1-30.99,13.22-62,26.43-93.01,39.65-.83.06-1.66.1-2.49.16-1.87.46-4.82,1.2-6.68,1.66-8.64,3.95-17.28,7.9-25.92,11.84-11.21,1.44-23.23,5.42-29.15-9.45-.54-1.47.36-1.2.53-1.79.43-25.24,2.09-50.55.97-75.73-1.29-29.02,9-47.17,38.32-55.27,26.02-7.19,51.53-16.68,76.56-26.89,56.88-23.2,117-38.13,171.39-68.05,8.78-4.85,7.79-3.82,9.97-12.03l-175.16,54.42-58.46-92.25,348.7-107.97c26.32-7.78,40.05-9.28,60.14-1.73l19.78,7.44,66.05,24.5,23.56,8.54c7.9,2.86,15.36,6.79,22.17,11.7l5.81,4.19c2.33,1.67,4.18,3.93,5.35,6.54,2.66,5.92,4.02,12.33,3.98,18.81l-.07,13.27.82,13.29v11.03c.79,9.88,9.18,25.72-5.09,34.15Z"/>
            <path class="cls-4" d="m838.88,1067.03s.1.19.1.19c-82.67,30.1-165.7,59.27-247.81,90.82-19.82,7.62-42.56,9.88-60.9,21.19-10.29,6.35-23.18,6.17-33.26-.5-9.44-6.25-22.13-8.83-30.37-16.61l.8-.58c1.53-.51,3.06-1.03,4.6-1.54l-.03.02c40.3-14.19,80.28-29.36,120.96-42.34,54.16-17.27,106.58-40.43,163.28-49.35,2.64-.42,29.72-10.38,42.66-15.26,4.14-1.56,8.58-2.16,12.98-1.71,12.49,1.28,28.54,8.34,26.98,15.66Z"/>
            <path class="cls-1" d="m1125.58,989.66h-1.81c-1.18,0-2.36-.21-3.46-.62-8.03-3.05-11.42-3.03-11.68-3.01l-13.59,1.23c-4.11.39-8.16,1.29-12.03,2.68l-40.08,14.42-55.7,18.57-61.26,20.15-50.19,16.33-34.69,10.5c-2.08.63-3.66,2.13-5.33,3.53-9.6,8.07-23.78,4.33-33.61,9.76-54.39,29.92-114.5,44.86-171.39,68.06-25.04,10.21-50.55,19.69-76.57,26.87-29.32,8.1-39.61,26.25-38.32,55.27,1.12,25.18.82,73.19-.96,75.72-2.51,4.62-1.08.33-1.07-3.08,0-1.1-.55-2.13-.55-3.23-.11-31.81-.22-63.63-.31-95.44-.07-3.09-.17-6.19-.24-9.28-.04-1.75.5-3.47,1.58-4.85,19.51-24.43,50.72-25.17,76.84-35.2,82.11-31.56,165.14-60.73,247.81-90.82l60.55-19.34,102.98-38.03,87.43-27.33c.51-.14,1.02-.27,1.54-.41l13.44-2.98c.31-.07.62-.17.93-.16,1.55.07,3.5.22,5.07.99,4.23,2.08,16.17,8.16,14.66,9.67Z"/>
            <path class="cls-8" d="m351.68,1218.02c-.41-29.38-.83-58.77-1.24-88.15.41,29.38.83,58.77,1.24,88.15Z"/>
            <path class="cls-4" d="m453.25,1145.8c-1.6,1.1-5.04,9.44-5.51,9.18-4.97-2.69-11.08-7.28-15.95-10.15-1.12-.66-5.91-3.06-5.2-4.15.24-.36,4.58-2.25,4.62-2.23,5.92,3.05,15.32,3.68,22.04,7.35Z"/>
            <path class="cls-4" d="m466.64,1163.57c-3.77-1.72-11.39-1.71-15.16-3.43.28-.58,7.27-9.21,7.35-9.18,5.04,1.71,28.05-1.79,33.07,0,0,0,3.33,1.96-16.53,9.18-1.52.55-5.88,3.52-7.41,4.03l-1.31-.61Z"/>
            <path class="cls-6" d="m710.1,1250.63c-.15.11-.31.22-.46.33-.13-.24-.25-.48-.38-.72.55-.09.57-.1.84.39Z"/>
            <path class="cls-9" d="m508.79,1316.65c1.88.72,3.76,1.44,5.64,2.16-.34.52-.96,1.52-.99,1.5-1.74-1-3.44-2.09-5.14-3.16,0,0,.48-.5.48-.5Z"/>
            <rect class="cls-9" x="507.94" y="1315.06" width="3.67" height="3.67"/>
            <path class="cls-6" d="m355.23,1234.55c-5.44-3.59-3.55-16.53-3.55-16.53l-1.24-88.15c2.75-5.74,4.16-12.88,8.47-16.97,20.75-19.71,49.8-20.11,74.82-29.84,40.32-15.69,82.31-27.11,123.59-40.33.16.1.32.2.47.31-.17-.09-.33-.19-.5-.28,36.82-8,70.33-36.13,111.39-18.35,32.41,13.29,89.09,35.3,87.57,43.94-.31,7.9-109.13,32.07-163.28,49.35-35.57,11.34-69.11,29.82-105.78,36.94-9.11,1.77-15.42-1.76-22.22-2.4-3.24-.3-6.02.18-7.88,2.54h0c-.9,1.15-.19,2.18.97,3.07.94.71,1.44,1.11,2.86,1.43,3.69.84,7.33,3.23,10.4,5.44,13.45,9.64,32.76,11.84,38.92,30.75l1.3,3.49c.82,2.21,1.47,5.93,1.45,8.28-.33,32.15.85,95.08.54,97.91-.34,3.17.29,6.36-1.93,8.64-.41.42-.95,1.1-1.5,1.82-1.12,1.45-3.08,1.96-4.78,1.24-4.97-2.12-15.39-6.51-21.43-8.75,0,0,.12.06.12.06-11.29-5.95-18.6-19.17-33.57-18.42,0,0,.14.01.14.02-13.19-7.19-26.37-14.37-39.56-21.56l.04.02c-7.76-4.45-15.51-8.89-23.27-13.34l.08.14c-4.55-2.62-9.09-5.24-13.64-7.85,0,0,.15.01.15.01-6.39-4.21-12.78-8.42-19.17-12.63Zm95.68-86.71c-.41-5.16-13.2-7.15-18.59-7.15-2.86,0-.52,2.56,0,2.86,4.74,2.79,8.37,4.73,13.19,7.37.95.52,2.06.62,3.11.38s1.87-1.21,2.29-3.46Z"/>
            <path class="cls-13" d="m668.18,1081.51c3.33,1.3-128.59,3.67-200.23,18.37-2.39.49-42.25,12.86-53.27,12.86-2.61,0-29.71-2.2-29.39-5.51.58-6.1,71.53-34.97,76.9-36.73,20.95-6.82,41.97-13.5,63.01-20.22,20.84-6.66,41.71-13.31,62.61-19.99,9.5-3.03,19.01-6.07,28.54-9.11,2.48-.79,4.94.89,4.86,3.33-.09,2.66-.18,5.32-.31,7.99-.58,11.35,1.79,14.78,12.96,18.83,10.84,3.94,21.67,8.04,32.64,11.93,1.87.66,3.72,1,5.53,1.01.37,0,.73,0,1.08-.03.33-.02.65-.05.97-.09.09,0,.16-.02.25-.03.27-.04.53-.09.8-.15.1,0,.2-.04.3-.06.25-.05.49-.11.73-.18.12-.04.24-.07.36-.11.26-.08.54-.17.8-.27.34-.12.67-.26,1-.41.33-.14.65-.3.97-.48.29-.14.56-.31.84-.48.04-.02.08-.05.12-.08.3-.18.61-.39.9-.62.9-.65,1.76-1.42,2.56-2.29.02-.02.04-.04.07-.07.52-.56,1.01-1.16,1.46-1.8.25-.34.49-.68.71-1.04.24-.36.46-.72.67-1.1v-.02c.43-1.4.83-2.73,1.25-4.12.6-17.05,1.19-33.94,1.78-50.65.01-.35,2.23-3.95,3.64-4.19,2.37-.4,4.49,1.28,4.42,3.5-.4,13.69-.82,27.49-1.18,41.41-.35,14.17,10.92,22.13,25.67,17.68,7.05-2.13-16.96,6.29-2.58,11.9l-51.44,11.02Z"/>
            <path class="cls-6" d="m818.32,966.32c-3.23,9.31-7.16,19.48-11.1,30.48-2.73,7.63-6.88,13.1-12.78,15.91-9.89,4.71-21.54,1.35-27.89,13.34-1.18,2.23,4.31,17,4.31,17,2.41,4.55,7.09,6.07,12.86,3.82,27.15-10.6,59.66-23.3,99.25-38.79,25.71-10.06,54.85-21.61,88.22-34.82,11.37-4.5,16.72-10.93,12.6-19.13-3.61-7.2-12.2-9.78-23.09-9.67-2.68.03-5.27-.07-7.85-.03-46.93.78-44.53-5.89-73.62-4.39-4.56.23-35.05,13.15-39.4,15.1-5.06,2.27-12.86.02-17.45,2.52-1.63.88-2.99,2.65-3.15,4.07,0,0,0,.02,0,.03-.16,1.46-.35,2.96-.91,4.57Z"/>
            <path class="cls-13" d="m819.28,964.38c-1.79,8.09-4.07,16.92-6.28,26.47-1.53,6.61-4.44,11.38-9.07,13.89-7.83,4.25-18.1,1.52-22.31,12.16-.78,1.98,5.48,14.65,5.48,14.65,2.52,3.83,6.62,4.95,11.24,2.81,21.27-9.88,45.82-21.3,74.46-34.64,17.9-8.33,37.53-17.61,59.25-27.84,7.22-3.4,10.37-8.33,7.31-14.8-2.72-5.73-8.52-7.98-15.81-8.14-1.81-.04-3.57-.19-5.32-.22-33-.53-31.7-6.02-53.17-5.62-3.44.06-26.1,10.35-29.39,11.94-3.85,1.86-10.35-.27-13.86,1.83-1.25.74-2.21,2.26-2.2,3.51,0,0,0,.02,0,.02,0,1.28-.02,2.58-.33,3.98Z"/>
            <path class="cls-4" d="m693.9,1062.31v-93.51c0-4.88,7.04-10.24,18.08-13.8,15.47-4.98,30.76-9.9,45.88-14.78,17.75-5.72,32.26-33.64,49.94-38.74,36.26-10.45,69.12-31.5,69.81-12.86.73,20.48-.8,90.91-.2,111.62-.27,3.25-.95,6.15-2.04,8.82-3.93,9.6-13.76,16.07-34.27,23.19-.46.16-.9.31-1.36.47-18.82,6.42-37.98,12.89-57.42,19.47-14.27,4.83-28.7,9.7-43.28,14.64-21.25,7.19-45.12,4.87-45.12-4.52Z"/>
            <path class="cls-6" d="m877.39,909.24c-2.97,11.15-8.68,18.94-12.19,25.68-5.7,10.97-15.08,19.57-26.41,24.52l-14.48,6.33-28.8,14.55c-12.03,6.08-24.77,10.63-37.93,13.55l-7.99,1.77c-13.9,3.09-28.37-1.85-37.48-12.79l-8.32-9.99c-2.83-3.4-4.38-7.69-4.38-12.11v-48.26l117.1-36.5c15.2-4.74,31.76-1.53,44.09,8.54l15.15-1.43c4.37,3.57,3.09,20.67,1.63,26.12Z"/>
            <path class="cls-13" d="m846.29,897.99c-2.33,8.74-6.8,14.85-9.55,20.14-4.47,8.6-11.82,15.34-20.7,19.23l-11.35,4.97-22.58,11.41c-9.43,4.76-19.42,8.33-29.73,10.62l-6.27,1.39c-10.9,2.42-22.24-1.45-29.39-10.03l-6.53-7.83c-2.22-2.67-3.44-6.03-3.44-9.49v-37.83l91.81-28.62c11.92-3.71,24.9-1.2,34.57,6.7l9.46,7.73c3.43,2.8,4.84,7.35,3.7,11.63Z"/>
          </g>
          <path class="cls-1" d="m702.21,995.95v44.7c0,4.79.8,9.55,2.36,14.08l.76,2.2c.93,2.71,2.68,5.06,5,6.74l1.24.9c2.3,1.66,5.16,2.34,7.96,1.89l9.28-1.49-5.14-3.43c-3.85-2.56-6.89-6.15-8.8-10.36l-1.25-2.75c-1.07-2.36-1.87-4.84-2.38-7.39l-9.03-45.1Z"/>
          <path class="cls-1" d="m902.9,1002.86l-17.81,4.61c-2.87.74-5.66,1.76-8.33,3.05l-38.08,18.28c-2.55,1.22-5.16,2.31-7.83,3.25l-3.22,1.13c-2.79.98-5.14,2.94-6.61,5.51l-1.02,1.78c-.59,1.03.32,2.26,1.48,2l13.03-2.94c5.06-1.14,10-2.75,14.76-4.8l22.32-9.61,27.55-12.86,12.47-5.54c1.33-.59,1.16-2.53-.25-2.89l-3.92-.99c-1.49-.38-3.06-.37-4.55.02Z"/>
        </g>
        <path class="cls-4" d="m472.64,1153.76l12.59,18.39s-25.14-12.22-28.61-14.3c-7.15-4.29-8.87-3.7-12.87-7.15-2.98-2.57-3.43-2.59-3.43-2.62l6.77-4.39s2.39,1.29,6.68,2.72c13.04,4.35,17.16,7.15,18.88,7.35Z"/>
      </g>
      <g>
        <g>
          <path class="cls-6" d="m830.67,124.47c10.14-.9,20.28-1.81,30.42-2.71,1.05.47,2.1.94,3.14,1.41-11.16.95-22.33,1.9-33.49,2.85-.02-.52-.05-1.03-.07-1.55Z"/>
          <path class="cls-6" d="m821.59,126.25c-1.57-.48-3.14-.96-4.7-1.44,4.59-.11,9.19-.23,13.78-.34.02.52.05,1.03.07,1.55-3.05.08-6.1.15-9.15.23Z"/>
          <path class="cls-6" d="m864.23,123.17c-1.05-.47-2.1-.94-3.14-1.41,3.6-.11,7.19-.22,10.79-.33.5.51.99,1.03,1.49,1.54-3.04.06-6.09.13-9.14.19Z"/>
          <path class="cls-6" d="m788.39,127.47c9.5-.89,19-1.78,28.5-2.66,1.57.48,3.14.96,4.71,1.44-10.15.93-20.3,1.85-30.45,2.78-.92-.52-1.84-1.04-2.75-1.56Z"/>
          <path class="cls-6" d="m778.87,129.3c-.56-.51-1.12-1.02-1.69-1.54,3.73-.1,7.47-.19,11.2-.29.92.52,1.84,1.04,2.76,1.56-4.09.09-8.18.18-12.27.26Z"/>
          <path class="cls-6" d="m748.51,130.78c-1.84-.13-3.69-.25-5.53-.38,4.28-.4,8.55-.8,12.82-1.19-2.43.52-4.86,1.05-7.3,1.57Z"/>
          <g>
            <path class="cls-2" d="m474.2,585.79c-.93.1-1.86.2-2.79.3.13-.5.26-1,.38-1.5.8.4,1.6.8,2.4,1.2Z"/>
            <path class="cls-1" d="m1069.33,139.47s.17,0,.17,0c17.22,4.48,37.02,8.05,53.63,12.89,8.81,2.56,6.95,2.65,4.29,2.86-75.58,6.11-157.57,11.52-233.14,17.63-38.97,2.69-77.93,5.37-116.9,8.06l.12-.06c-37.99,2.55-75.98,5.1-113.96,7.7-.34.02-.61.87-.92,1.34.24.09.47.18.71.27-8.3.84-16.6,1.68-24.9,2.51-18.67,1.24-37.34,2.47-56.01,3.7-1.13.29-2.26.57-3.39.86-23.24,1.66-40.5,2.94-63.74,4.6l-7.35,9.18c-17.71,1.9-33.94-5.06-51.65-3.16-1.21.03-5.93,3.12-7.13,3.16-9.04.68-14.57-1.69-23.61-1-1.14.31-2.27.61-3.41.92-28.55,1.64-61.28,14.02-88.72,9.27-42.72-7.4-80.79-28.18-122.69-40.25-3.61-1.04-6.91-3.19-10.35-4.82,3.04-.1,6.07-.21,9.11-.31,22.77-1.98,45.55-3.96,68.32-5.94,14.72-1.09,29.45-2.19,44.18-3.28,8.62-.94,17.25-1.87,25.87-2.81,3.56-.09,7.13-.18,10.69-.27,9.63-.93,19.27-1.85,28.9-2.78,1.58-.06,3.17-.13,4.75-.19,11.13-.96,22.26-1.92,33.38-2.88,15.19-1.12,30.39-2.24,45.58-3.35,9.18-.87,18.35-1.75,27.53-2.62,3.04-.12,6.07-.24,9.11-.37,9.11-.94,18.22-1.88,27.33-2.82,3.12-.04,6.24-.09,9.37-.13,22.3-1.94,44.6-3.88,66.9-5.82,5.58-.62,11.16-1.25,16.74-1.88,26.38-1.53,52.75-3.07,79.13-4.6,10.68-.9,21.36-1.79,32.04-2.69,3.05-.12,6.11-.24,9.16-.36,10.13-.92,20.26-1.84,30.39-2.76,4.09-.09,8.18-.18,12.27-.26,10.15-.93,20.3-1.86,30.45-2.78,3.05-.08,6.1-.15,9.15-.23,11.16-.95,22.33-1.9,33.49-2.85,3.04-.06,6.09-.13,9.13-.19,25.88-2.13,51.75-4.26,77.63-6.39,2.54.15,5.04.3,7.58.45,36.92,7.48,73.84,14.96,110.75,22.44Z"/>
            <path class="cls-4" d="m918.6,868.93c-.47.29-3.56,1.3-4.03,1.59-1.57-.37-3.13-.75-4.69-1.12,18.25-13.05,37.22-74.13,33.18-76.22.18-.17.34-.34.49-.51,4.7-5.2,8.44-11.2,11.51-17.5,6.02-12.34,12.08-24.66,17.66-37.19,11.75-26.38-11.15-85.29-35.17-91.4-1.93-.9-3.86-1.81-5.78-2.71-20.56-7.17-41.11-14.34-61.67-21.51-.04-.12-.06-.34-.12-.35-6.36-.81-8.48,3.18-14.84,2.34-7.81,1.48-17.91,7.7-25.72,9.18l-2.47-4.85c-1.19-2.33-3.95-3.38-6.39-2.43-2.19.86-4.37,1.72-6.56,2.57-.37-.2-.75-.25-1.16-.15-.19-20.7-.37-41.41-.56-62.11-.5-13.45-4.45-24.8-18.38-30.03-.9-.68-1.8-1.37-2.7-2.05l-2.42-.32c-20.29-5.64-38.28-3.36-58.57-9.01-7.51.41-16.72-7.14-24.23-6.74l-.11.04c-4.1.24-8.19.48-12.29.72-15.09,2.1-30.17,4.2-45.26,6.3,1.34-5.25,2.68-10.51,4.02-15.76l.85.67c.21-1.68.42-3.37.64-5.05,3.33-58.41-22.91-103.93-60.67-105.23-1.66-.93-3.32-1.85-4.98-2.78-1.9-.59-3.89-1-5.7-1.79-52.15-22.74-113.16-8.53-135.71,31.63-.99,1.13,1.94,2.9.96,4.03l-3.67,1.84c-.9,1.08-.93.76-1.84,1.84l-6.56,8.67-1.31,1.34c-2.32,1.71-5.37,2.98-6.74,5.25-23.5,38.94-30.18,81.67-27.99,126.34-8.81,1.5-17.62,3.01-26.43,4.51-8.14,1.39-15.36,6.04-20,12.87l-3.22,4.75c-7.2,1.22-20.34-10.75-26.58-7.4-2.08.02-4.38.05-6.46.07-4.5-2.74-4.07-3.48-6.17-5.25s-3.68-4.05-4.54-6.65h0c-.56-1.71-.85-3.5-.86-5.31-.25-79.23-.5-158.46-.75-237.7.71-27.55,1.43-55.11,2.14-82.66.07-2.56.6-5.08,1.57-7.44h0s-.03.06-.03.06c.51-1.03,1.01-2.07,1.52-3.1h0c.55-1.01,1.09-2.03,1.64-3.05l-.11.12c.47-.54.93-1.09,1.4-1.63l.1-.18c.66-.95,1.33-1.91,1.99-2.86,13.74-20.22,35.2-19.15,55.87-20.24,1.56-.32,3.13-.63,4.69-.95,15.58-1.18,49.02-4.14,50.16-4.45,5.07-.23,23.51-1.67,26.66-2.04l4.08-.11,34.7-2.98c1-.09,1.99-.27,2.96-.56l.44-.13c.89-.26,1.81-.45,2.73-.56,4.1-.49,8.21-.98,12.31-1.47l-.11.05c23.24-1.66,73.1-5.85,73.1-5.85,18.67-1.23,37.34-2.47,56-3.7,8.3-.84,16.6-1.68,24.9-2.51,38.06-3.1,76.11-6.21,114.17-9.31l-.13.06c38.97-2.69,77.93-5.37,116.9-8.06,72.73-5.88,145.45-11.76,218.18-17.64,3.52-.18,7.05-.35,10.57-.53l3.29-.73,1.54-.1c3.06.27,6.11.54,9.17.81,2.05.18,4.08.56,6.05,1.15,7.01,2.12,16.32,6.1,21.13,8.24,2.08.92,3.96,2.21,5.57,3.82.74.74,1.48,1.48,2.22,2.22l-.05-.03c.53.52,1.05,1.05,1.58,1.57l1.49,1.49c1.04,1.54,2.07,3.07,3.11,4.61,0,0,5.51,12.7,5.85,19.21,1.5,28.11,2.07,56.27,2.98,84.41-.42,33.98-2.72,59.66-2.72,61.15-.06,25.38-.08,50.75-.11,76.13-1.01,61.5-1.37,123.01-3.21,184.48-1.52,50.85,6.33,103.88-5.3,152.64-.5,2.09-1.21,4.12-2.13,6.05-.5,1.04-1.04,2.01-1.5,2.46,0,0-5.18,8.4-6.09,9.15,0,0-.48.71-1.1,1.62-1.34,1.98-2.87,3.83-4.56,5.52l-3.46,3.46c-73.86,36.55-154.95,52.32-231.69,80.6l-1.42,1.71s-2.48,1.47-5.05,2.59Z"/>
            <path class="cls-13" d="m910.86,852.37c-1.3.79-2.61,1.58-3.95,2.39-1.15-1.74-.65-.98-1.8-2.72,17.61-12.43,25.95-29.74,22.07-31.73.2-.2,54.18-9.82,54.35-10.01,4.65-5.21,25.53-3.76,28.61-10.01,5.66-11.49,29.08,1.66,34.33-10.01,24.31-11.44,107.51-22.78,84.39-28.61-1.86-.86-200.95-123.82-202.81-124.68-19.79-6.84-39.59-13.68-59.38-20.52-.04-.12-.06-.33-.11-.33-6.13-.77-8.16,3.04-14.29,2.23-7.52,1.41-17.24,7.35-24.76,8.76l-2.37-4.63c-1.51-2.94-5.66-3.74-8.24-.84-1.55.36-2.68.62-4.23.97-.35-.19-.72-.24-1.12-.15-.18-19.75-.36-39.5-.54-59.25-.48-12.83-4.29-23.66-17.69-28.65-.86-.65-1.73-1.3-2.6-1.96l-2.33-.3c-19.54-5.38-36.86-3.21-56.4-8.59-7.23.39-16.1-6.82-23.33-6.43l-.1.04c-3.94.23-7.89.46-11.83.69-14.53,2-29.05,4.01-43.58,6.01,1.29-5.01,2.58-10.02,3.87-15.04l.82.64c.2-1.61.41-3.21.61-4.82,3.2-55.72-22.06-99.14-58.42-100.38-1.6-.88-3.19-1.77-4.79-2.65-1.83-.56-3.74-.95-5.49-1.71-50.21-21.69-108.96-8.14-130.67,30.18-.95,1.08,1.87,2.77.92,3.85l-3.54,1.75c-.87,1.03-.9.72-1.77,1.75l-6.32,8.27-1.26,1.28c-2.23,1.63-5.17,2.84-6.49,5.01-22.63,37.15-29.06,77.91-26.95,120.52-8.48,1.44-16.97,2.87-25.45,4.31-7.84,1.33-14.79,5.76-19.26,12.28l-3.1,4.53c-6.6,1.1-18.4-9.2-24.69-7.42-2.13.2-4.16.4-6.29.6-5.28-.98-7.61-3.7-8.39-5.56-.64-1.52-1.65-2.65-2.17-4.21l-.66-2.01c-.48-1.46-.73-2.98-.73-4.52-.24-75.68-.48-151.35-.72-227.03.69-26.28,1.38-52.57,2.06-78.85.06-2.44.58-4.85,1.51-7.11h0s-.03.06-.03.06c.49-.99.98-1.97,1.46-2.96h0c.53-.97,1.05-1.94,1.58-2.91l-.11.12c.45-.52.9-1.04,1.35-1.56l.09-.17c.64-.91,1.28-1.82,1.91-2.73,13.23-19.29,33.89-18.26,53.8-19.3,1.51-.3,3.01-.6,4.52-.91,15-1.12,47.2-3.95,48.29-4.24,4.88-.22,22.64-1.59,25.67-1.95l3.92-.11,33.42-2.85c.96-.08,1.92-.26,2.85-.53l.42-.12c.86-.25,1.74-.43,2.63-.54,3.95-.47,7.9-.93,11.86-1.4l-.11.05c22.37-1.59,70.39-5.58,70.39-5.58,17.98-1.18,35.95-2.36,53.93-3.53,7.99-.8,15.99-1.6,23.98-2.4,36.64-2.96,73.29-5.92,109.93-8.88l-.12.06c37.52-2.56,75.04-5.13,112.56-7.69,70.03-5.61,140.05-11.22,210.08-16.83,3.39-.17,6.79-.34,10.18-.5,0,0,.99,0,2.49-.01,8.6-.03,16.39,0,24.73,2.08,5.66,1.41,5.72,1.43,9.87,4.2,3.08,2.05,5.96,4.4,8.59,7l1.42,1.4c.51.5,1.46,1.46,1.46,1.46.15.15.31.31.46.46.7.7,1.32,1.45,1.88,2.27l.51.74c.99,1.45,1.76,2.9,2.32,4.44,1.98,5.41,4.66,10.78,4.95,16.27,1.44,26.82,1.99,53.68,2.86,80.53-.4,32.42-2.62,56.91-2.62,58.33-.06,24.21-.08,48.42-.11,72.62-.97,58.67-1.32,117.35-3.09,175.99-1.49,49.31,5.58,98.96-5.67,147.9,0,0-3.26,10.83-4.25,12.79,0,0-2.86,5.72-5.72,8.58,0,0-2.86,1.43-5.72,4.29l-7.15,4.29c-71.12,34.87-143.93,44.63-217.82,71.61-.46.54-.91,1.09-1.37,1.63l.07-.04c-2.48,1.07-4.97,2.14-7.45,3.21Z"/>
            <path class="cls-4" d="m899.14,843.81c-.45.26-.9.52-1.35.79-1.48-.36-2.96-.72-4.44-1.08,17.35-11.85,35.64-67.96,31.82-69.92.2-.19.38-.38.55-.56,4.61-4.99,8.27-10.75,11.33-16.76,5.64-11.07,11.31-22.12,16.55-33.38,11.31-24.28-10.16-78.88-32.94-84.68-1.83-.85-3.65-1.7-5.48-2.54-19.48-6.76-38.95-13.51-58.4-20.26-.04-.11-.06-.32-.11-.32-6.03-.79-8.05,2.89-14.07,2.07-7.4,1.32-17,7-24.4,8.32l-2.31-4.49c-1.3-2.53-4.66-3.45-7.18-1.68-1.96.54-3.68,1.01-5.65,1.55-.17-.02-.35,0-.53.03-.09-19.11-.19-38.23-.28-57.35-.42-12.43-4.12-22.94-17.28-27.85-.85-.63-1.7-1.27-2.55-1.91l-2.29-.31c-19.18-5.32-36.2-3.3-55.36-8.61-7.09.34-15.77-6.68-22.86-6.34l-.1.04c-3.87.2-7.74.4-11.61.61-14.24,1.86-28.48,3.73-42.71,5.59,1.28-4.84,2.56-9.68,3.84-14.52l.8.63c.2-1.55.41-3.1.61-4.66,3.3-53.91-21.34-96.05-56.93-97.37-1.56-.86-3.12-1.72-4.68-2.58-1.79-.55-3.66-.93-5.37-1.67-49.05-21.15-106.41-8.22-127.62,28.72-.93,1.04,1.82,2.68.89,3.72l-3.45,1.68c-.85.99-.88.7-1.72,1.69l-6.16,7.96-1.24,1.24c-2.17,1.57-5.04,2.72-6.33,4.81-22.06,35.73-22.7,98.95-20.68,139.98-8.24,1.33-24.21-.1-32.44,1.23-7.61,1.23-12.29-15.72-16.62-9.48l-3.01,4.34c-5.12.82-8.91-1.23-12.89-.81-4.01.42-8.06.23-11.92-.96-6.01-1.85-7.61-2.48-8.64-4.07-.51-.79-1.14-1.5-1.76-2.2-.66-.75-1.25-1.47-1.75-2.15-2.06-2.75-3.18-6.08-3.23-9.53-.31-24.22-1.93-154.74-2.14-221.46.67-25.37,1.34-50.75,2.01-76.14.06-2.37.56-4.7,1.47-6.88h0s-.03.06-.03.06c.47-.95.95-1.91,1.42-2.86h0c.51-.93,1.02-1.87,1.53-2.82l-.1.11c.44-.5.87-1,1.31-1.5l.09-.16c.62-.88,1.24-1.76,1.86-2.64,12.87-18.64,32.97-17.63,52.35-18.62,1.47-.29,2.93-.58,4.4-.87,14.62-1.07,46.01-3.79,47.08-4.07,4.76-.21,22.09-1.53,25.06-1.87l3.83-.1,32.64-2.73c.94-.08,1.88-.25,2.79-.51l.41-.12c.84-.24,1.7-.42,2.57-.52,3.86-.45,7.73-.9,11.6-1.35l-.1.05c21.89-1.52,68.91-5.37,68.91-5.37,17.62-1.13,35.25-2.27,52.89-3.4,7.85-.77,15.7-1.55,23.55-2.32,36.02-2.86,72.08-5.73,108.19-8.6l-.12.06c37.01-2.48,74.06-4.97,111.15-7.46,69.35-5.46,138.85-10.93,208.5-16.42,3.38-.16,6.76-.33,10.13-.49l3.16-.68,1.47-.09c3.85.33,7.71.66,11.57,1,8.76,3.31,17.53,6.62,26.3,9.93l-.02-.04c1.46,1.43,2.92,2.87,4.38,4.3l-.05-.02c.5.49,1,.98,1.5,1.47l-.06-.04c.5.49.99.99,1.49,1.48,0,0-.01-.05-.01-.05.98,1.44,1.97,2.87,2.95,4.31l-.05-.06c1.93,6,5.25,11.93,5.54,18.02,1.24,26.26,1.59,52.56,2.27,78.83-.64,31.7-3.02,55.64-3.03,57.03-.23,23.65-.43,47.29-.63,70.92-1.39,57.22-2.17,114.4-4.35,171.47-1.83,47.94,4.83,96.24-6.69,143.66,0,0-.77,4.79-2.65,9.65-1.35,3.48-3.62,6.53-6.52,8.87-.95.77-1.99,1.61-2.92,2.37-1.84,1.51-3.91,2.71-6.12,3.57-1.67.65-3.37,1.31-3.71,1.47-69.42,31.67-145.05,45.36-216.46,70.18-.45.52-.9,1.04-1.36,1.56l.06-.04c-2.45,1.01-4.9,2.01-7.34,3.02Z"/>
            <path class="cls-6" d="m304.61,336.41v.03c.25,79.32.5,158.65.75,237.97,0,1.59.2,3.24,1.02,4.6,1.49,2.43,8.55,8.27,12.61,11.96l.09.74-8.95.41h-.03c-5.52-1.52-11.15-2.74-16.54-4.63-44.8-15.75-134.37-47.53-134.43-47.53-1.63-.37-5.62-3.39-9.08-5.08-.8-.39-1.51-.92-2.13-1.55l-.41-.41c-.48-.48-.86-1.05-1.12-1.67-.57-1.36-1.26-3.05-1.26-3.05-.21-99.89-.43-199.78-.64-299.67.1-.63.03-3.92.36-6.09.7-4.67,1.1-8.49,2.86-12.87l6.38-12.26.04-.07c.24-.31,2.32-2.91,3.32-4.31h.01c1-1.03,2.02-2.05,3.02-3.06,1.83-1.58,5.59-4.37,5.95-4.63l.06-.03c11.28-3.35,22.57-6.69,33.85-10.04h.17c3.41,1.64,6.68,3.76,10.26,4.79,41.89,12.07,83.26,27.3,125.96,34.71,27.45,4.75-8.14.76-21.88,20.98-.66.96-1.32,1.9-1.99,2.86l-.09.17c-.33.37-.65.75-.97,1.13l-1.52,2.46c-.61,1.38-1.29,2.68-1.93,4.01-.97,2.36-1.5,4.89-1.57,7.44-.72,27.55-1.43,55.09-2.15,82.64v.03Z"/>
            <path class="cls-6" d="m1069.34,139.47c-36.9-7.47-73.79-14.95-110.67-22.41-4.58,0-9.14.01-13.73.03h-.01c-23.86,1.96-47.7,3.93-71.56,5.89-.49-.51-.99-1.03-1.49-1.54,23.3-1.92,46.6-3.83,69.91-5.75,6.85-.5,12.57-.5,18.55.04,36.1,7.54,72.21,15.07,108.31,22.6.2.4.43.79.69,1.14Z"/>
            <path class="cls-6" d="m543.17,145.81c21.71-1.9,43.41-3.8,65.12-5.7,1.04.49,2.08.98,3.12,1.47-22.3,1.94-44.6,3.88-66.89,5.82-.45-.53-.89-1.06-1.34-1.59Z"/>
            <path class="cls-6" d="m253.44,168.96c3.58-.16,7.15-.32,10.73-.49,2.86.03,5.73.07,8.59.1,1.69.11,3.38.22,5.07.32-22.77,1.98-45.55,3.96-68.32,5.94-.06-.56-.11-1.13-.17-1.69,12.19-1.03,24.37-2.07,36.56-3.1,2.51-.36,5.03-.72,7.54-1.08Z"/>
            <path class="cls-6" d="m1160.32,162.38c-2.86-1.43-11.71-4.57-17.42-6.46-1.96-.65-3.99-1.07-6.05-1.25-2.48-.22-4.96-.45-7.44-.67-1.03-.01-2.39-.19-3.42-.2-1-.17-1.67-.19-2.67-.36-.11-.03-.24-.06-.37-.09-2.77-.73-36.3-9.43-53.45-13.87,1.49.03,2.99.04,4.48.07,18.42,4.09,36.83,8.2,55.25,12.29,1.52.19,3.03.37,4.55.57.01-.01,3.98.89,5.95,1.33,1.52.31,3.05.62,4.56.92.83.17,7.45,2,16.03,7.72Z"/>
            <path class="cls-6" d="m628.34,138.43c11.12-.68,22.25-1.35,33.37-2.03,2.08-.31,4.17-.61,6.25-.92,11.62-.63,23.24-1.25,34.86-1.88,1.48.5,2.97.99,4.45,1.49-26.38,1.53-52.75,3.07-79.13,4.6l.02.03c.05-.43.11-.87.18-1.3Z"/>
            <path class="cls-6" d="m440.97,153.69c8.67-.59,17.34-1.18,26-1.78,1.4.48,2.8.95,4.2,1.43-15.19,1.12-30.39,2.24-45.58,3.35-2.02-.38-4.04-.76-6.06-1.14,5.52-.43,11.03-.85,16.55-1.28,1.63-.2,3.26-.39,4.89-.58Z"/>
            <path class="cls-6" d="m209.33,173.15c.06.56.11,1.13.17,1.69-3.04.1-6.07.21-9.11.31-11.32,3.36-22.64,6.72-33.96,10.08,12.08-11.9,27.66-11.37,42.9-12.08Z"/>
            <path class="cls-6" d="m277.82,168.9c-1.69-.11-3.38-.22-5.06-.32.2-.47.42-.92.67-1.37,4.01-.15,8.02-.31,12.03-.46,1.6-.27,3.19-.54,4.79-.8,9.62-.62,19.25-1.24,28.87-1.86.96.51,1.92,1.02,2.88,1.54-14.73,1.09-29.45,2.19-44.18,3.28Z"/>
            <path class="cls-6" d="m419.53,155.55c2.02.38,4.04.76,6.06,1.14-11.13.96-22.26,1.92-33.38,2.88-.02-.52-.04-1.04-.06-1.56,9.13-.82,18.25-1.64,27.38-2.46Z"/>
            <path class="cls-6" d="m707.28,135.1c-1.48-.5-2.97-.99-4.45-1.49,8.11-.51,16.22-1.02,24.33-1.52,4.05.11,8.11.22,12.16.33-10.68.89-21.36,1.79-32.04,2.69Z"/>
            <path class="cls-6" d="m355.72,161.01c8.6-.83,17.21-1.66,25.81-2.49,1.97.41,3.95.83,5.92,1.24-9.63.92-19.27,1.85-28.9,2.78-.94-.51-1.89-1.02-2.83-1.53Z"/>
            <path class="cls-6" d="m505.07,148.88c8.67-.73,17.35-1.47,26.02-2.2,1.35.28,2.7.57,4.06.85-9.11.94-18.22,1.88-27.33,2.82l-2.74-1.47Z"/>
            <path class="cls-6" d="m471.17,153.34c-1.4-.48-2.8-.95-4.2-1.43,9.54-.88,19.07-1.76,28.61-2.64,1.04.48,2.08.97,3.12,1.45-9.18.87-18.35,1.74-27.53,2.62Z"/>
            <path class="cls-6" d="m322,165.62c-.96-.51-1.92-1.02-2.88-1.54,9.03-.9,18.06-1.8,27.09-2.7.55.48,1.11.95,1.66,1.43-8.62.94-17.24,1.87-25.87,2.81Z"/>
            <path class="cls-6" d="m755.8,129.21c7.13-.48,14.25-.97,21.38-1.45.56.51,1.12,1.02,1.69,1.53-10.13.92-20.26,1.84-30.39,2.76.09-.42.1-.85.03-1.27,2.43-.52,4.86-1.05,7.29-1.57Z"/>
            <path class="cls-3" d="m144.57,228.05v.06c-.07.4-.1.8-.1,1.2.21,99.63.43,199.28.64,298.91-1.4-6.85-4.05-13.72-4.03-20.58.2-93.28,1.54-284.15,2.12-286.23,0-.03.02-.05.02-.08,1.61-11.74,7.1-17.8,10.85-24.04-2.09,5.15-2.59,2.94-7.81,19.45-.9,2.84-1.24,8.37-1.69,11.32Z"/>
            <path class="cls-6" d="m748.51,130.78c.07.43.06.85-.03,1.27-3.05.12-6.11.24-9.16.36-4.05-.11-8.11-.22-12.16-.33,5.28-.56,10.55-1.12,15.82-1.68,1.84.13,3.68.25,5.53.38Z"/>
            <path class="cls-6" d="m611.4,141.58c-1.04-.49-2.08-.98-3.12-1.47,4.61-.25,9.21-.5,13.82-.75,2.02.12,4.04.24,6.06.37,0,0-.02-.03-.02-.03-5.58.63-11.16,1.25-16.74,1.88Z"/>
            <path class="cls-6" d="m535.14,147.53c-1.35-.28-2.7-.57-4.05-.85,4.03-.29,8.05-.58,12.08-.86.45.53.9,1.06,1.34,1.59-3.12.04-6.25.09-9.37.13Z"/>
            <path class="cls-6" d="m498.7,150.72c-1.04-.48-2.08-.97-3.12-1.45,3.16-.13,6.32-.26,9.48-.4.92.49,1.83.98,2.75,1.47-3.04.12-6.07.25-9.11.37Z"/>
            <path class="cls-6" d="m347.87,162.81c-.55-.48-1.11-.96-1.66-1.43,3.17-.12,6.34-.24,9.52-.37.95.51,1.89,1.02,2.84,1.53-3.56.09-7.13.18-10.69.27Z"/>
            <path class="cls-6" d="m387.46,159.76c-1.97-.41-3.95-.83-5.92-1.24,3.54-.17,7.08-.34,10.61-.51.02.52.04,1.04.06,1.56-1.58.06-3.17.13-4.75.19Z"/>
            <path class="cls-14" d="m166.22,184.91c-1.92,1.65-3.84,3.31-5.75,4.96,1.92-1.65,3.84-3.31,5.75-4.96Z"/>
            <path class="cls-6" d="m273.43,167.21c-.25.44-.47.9-.67,1.37-2.87-.03-5.73-.07-8.6-.1,3.09-.42,6.18-.84,9.27-1.26Z"/>
            <path class="cls-12" d="m253.44,168.96c-2.51.36-5.03.72-7.54,1.08,2.52-.36,5.03-.72,7.54-1.08Z"/>
            <path class="cls-12" d="m667.96,135.48c-2.08.31-4.17.61-6.25.92,2.08-.31,4.17-.61,6.25-.92Z"/>
            <path class="cls-6" d="m628.17,139.73c-2.02-.12-4.04-.24-6.06-.37,2.08-.31,4.16-.62,6.24-.93-.06.43-.12.86-.18,1.3Z"/>
            <path class="cls-6" d="m1073.97,139.56c-1.49-.03-4.64-.09-4.64-.09-.25-.37-.48-.75-.68-1.14,1.77.41,3.54.82,5.31,1.23Z"/>
            <path class="cls-12" d="m1178.11,177.74c-1.04-1.54-2.07-3.07-3.11-4.61,1.04,1.54,2.07,3.07,3.11,4.61Z"/>
            <path class="cls-14" d="m160.48,189.86c-1.01,1.02-2.03,2.04-3.04,3.07,1.01-1.02,2.03-2.04,3.04-3.07Z"/>
            <path class="cls-12" d="m440.97,153.69c-1.63.19-3.26.39-4.89.58,1.63-.19,3.26-.39,4.89-.58Z"/>
            <path class="cls-12" d="m290.25,165.95c-1.6.27-3.19.54-4.79.8,1.6-.27,3.19-.54,4.79-.8Z"/>
            <path class="cls-12" d="m1173.52,171.64c-.53-.52-1.05-1.05-1.58-1.57.53.52,1.05,1.05,1.58,1.57Z"/>
            <path class="cls-13" d="m434.48,444.82s-.04.05-.05.08c-3.53,5.37-5.86,11.45-6.82,17.81-.67,4.45-1.35,8.9-2.02,13.35-5.4,8.23-2.6,16.45.04,24.66,2.55,8.47,5.09,16.93,7.64,25.4,21.59,38.7-.41,48.29-33.64,50.38-2.19-44.67,4.49-87.4,27.99-126.34,1.4-2.32,4.54-3.59,6.87-5.35Z"/>
            <path class="cls-1" d="m663.33,190.17c-.24-.09-.47-.18-.71-.27.31-.46.58-1.31.92-1.34,37.98-2.61,75.97-5.15,113.96-7.7-38.06,3.1-76.11,6.21-114.17,9.31Z"/>
            <path class="cls-1" d="m456.29,207.88c17.71-1.9,35.43-3.8,53.14-5.7-4.57.54-9.14,1.09-13.7,1.63-1.08.32-2.15.64-3.23.95-12.07,1.04-24.14,2.07-36.21,3.11Z"/>
            <path class="cls-1" d="m425.55,210.03c9.04-.68,18.08-1.37,27.12-2.05-2.41.13-4.82.25-7.23.38-1.57.33-3.13.65-4.7.98-5.07.23-10.13.46-15.2.69Z"/>
            <path class="cls-14" d="m327.67,590.62c-2.86.37-5.72.73-8.58,1.1,0,0-.08-.74-.08-.74"/>
            <path class="cls-16" d="m791.21,534.49c-1.44.02-2.89.04-4.33.07.64-.13,1.27-.26,1.91-.39.81.11,1.62.21,2.42.32Z"/>
            <path class="cls-14" d="m312.84,238.53c.66-.95,1.32-1.91,1.99-2.86-.66.95-1.32,1.91-1.99,2.86Z"/>
            <path class="cls-14" d="m308.3,246.37c.51-1.03,1.01-2.07,1.52-3.1-.51,1.03-1.01,2.07-1.52,3.1Z"/>
            <path class="cls-14" d="m306.86,249.88c.49-1.19.98-2.38,1.47-3.58-.49,1.19-.98,2.38-1.47,3.58Z"/>
            <path class="cls-14" d="m309.82,243.28c.55-1.02,1.09-2.04,1.64-3.06-.55,1.02-1.09,2.04-1.64,3.06Z"/>
            <path class="cls-14" d="m311.35,240.34c.47-.54.93-1.09,1.4-1.63-.47.54-.93,1.09-1.4,1.63Z"/>
            <path class="cls-7" d="m482.05,527.97c-.6-1.46-1.19-2.92-1.79-4.38.09-.53.17-1.06.26-1.6.51,1.99,1.02,3.98,1.53,5.97Z"/>
            <path class="cls-7" d="m648,550.4c1.03.67,2.06,1.34,3.09,2-1.03-.67-2.06-1.34-3.09-2Z"/>
            <path class="cls-8" d="m215.12,578.89c-1.51.38-2.47.91-3.24.71-.6-.16-.97-1.22-1.45-1.88.92-.21,1.85-.6,2.76-.55.49.02.94.8,1.93,1.72Z"/>
            <path class="cls-2" d="m319.29,622.61c-.59.5-1.19,1.01-1.78,1.51.59-.5,1.19-1.01,1.78-1.51Z"/>
            <path class="cls-13" d="m425.63,500.72c-2.65-8.22-5.44-16.43-.04-24.66.01,8.22.03,16.44.04,24.66Z"/>
            <path class="cls-12" d="m428.66,455.71c1.05-2.27,2.1-4.55,3.15-6.82-1.05,2.27-2.1,4.55-3.15,6.82Z"/>
            <path class="cls-2" d="m842.19,660.65c-.77.52-1.53,1.03-2.3,1.55.77-.52,1.53-1.03,2.3-1.55Z"/>
            <path class="cls-7" d="m555.82,404.47c-1.82.56-2.72.9-3.65,1.05-.11.02-.38-1.01-.58-1.55.69-.22,1.37-.57,2.07-.6.46-.02.94.45,2.15,1.1Z"/>
            <path class="cls-3" d="m271.39,580.01c-23.88-9.18-40.38-12.58-60.62-23.88-2.82-1.58-16.53-11.02-14.7-12.86,1.84-7.35,29.39,2.05,36.74,5.51,9.47,4.46,18.15,8.18,27.55,12.86,9.57,4.76,19.01,8.22,28.82,12.25,5.96,2.45,6.45,2.76,8.58,3.38,2.82.81,5.49,2.06,8.03,3.54,5.05,2.92,6.36,4.93,17.98,5.4,7.35,0,36.27-.95,37.61-.69-1.64.88-35.88,5.58-37.61,6.2-16.39,5.83-37.7-6.2-52.4-11.71Z"/>
            <path class="cls-4" d="m297.48,244.77c-3.77,2.16-4.55,1.59-7.55,2.39-4.91,1.31-13.63-2.64-21.97-5.52-25.05-8.66-53.76-13.64-80.07-21.27-12.19-3.53-31.84-16.16-17.16-25.2,5.13-.7,12.5.81,16.53,1.84,16.28,4.15,31.59,13.98,47.93,17.98,21.88,5.36,34.25,21.6,60.22,16.97,3.72-.66,21.93-11.07,25.96-11.07,3.67,0-9.18,7.35-11.02,9.18-5.51,5.51-9.9,13-12.86,14.7Z"/>
            <path class="cls-1" d="m1019.35,186.9l34.13-3.87h.05s29.8-2.14,29.8-2.14c9.41-.67,38.96.23,38.96.23,5.51.02,11.21,2.76,18.58,7.3,0,0,13.23,8.55,17.67,27.22.34,1.42,1.51,46.27,1.51,46.27,2.72,153.13-6.13-5.31-6.74-8.04l-6.02-27.05c-.63-2.84-1.06-4.2-3.1-7.42-.96-1.51-1.99-2.97-3.08-4.38l-4.08-5.31c-2.44-3.18-13.86-9.42-20.9-13.13-3.76-1.98-8.04-3.57-12.67-4.71l-2.62-.64c-10.95-2.69-22.46-3.61-33.76-2.73l-14.86,1.17c-5.67.44-11.39.51-17.06.19l-15.61-.88c-22.89.59-2.18-1.84-.21-2.06Z"/>
            <polygon class="cls-7" points="480.18 519.58 481.04 524.04 480.26 523.59 478.37 513.57 480.18 519.58"/>
            <path class="cls-4" d="m536.55,368.62l414.47,144.95,106.66,147.85-81.46,110.58s-87.91,33.98-91.67,32.4c-3.76-1.57-271.96-100.77-271.96-100.77l-172.12-110.37,30.96-136.66,65.13-88Z"/>
            <polygon class="cls-1" points="1135.64 748.64 1135.64 748.64 1135.64 748.64 1135.64 748.64"/>
            <polygon class="cls-1" points="1084.14 759.34 1084.1 759.4 1084.09 759.41 1084.14 759.34"/>
            <path class="cls-13" d="m906.14,846.49l.06-.04s-.03.01-.04.02c0,0-.01.01-.02.02Z"/>
            <path class="cls-4" d="m918.6,866.07c76.74-28.28,164.31-45.49,238.17-82.05-39.84,29.49-89.23,34.23-133.89,51.21-31.03,11.8-63.22,20.52-94.89,30.62-19.41,7.37-8.42.63-9.39.22Z"/>
            <path class="cls-13" d="m1034.5,792.52c-.22.09-.43.17-.65.26l.36-.12.29-.14Z"/>
            <path class="cls-1" d="m1136.98,761.68c-.95.77-1.99,1.61-2.92,2.37-1.84,1.51-3.91,2.71-6.12,3.57-1.67.65-3.37,1.31-3.71,1.47-64.52,29.43-134.41,43.34-201.29,65.09-3.9,5.72-7.15,16.07-4.68,15,.45-.54.9-1.07,1.35-1.61,73.89-26.98,146.7-36.74,217.82-71.61l5.72-2.86c3.42-1.37,7.15-5.72,7.15-5.72,2.86-2.86,5.72-8.58,5.72-8.58.36-.72,1.03-2.64,1.73-4.78-5.12,2.05-10.66,1.59-15.05.55-1.37,2.75-3.33,5.17-5.73,7.1Z"/>
            <path class="cls-1" d="m351.47,276.06c-.44,1.14-.93,2.39-1.37,3.5-.88,2.21-1.75,10.53-1.8,10.9-8.32,70.43-.22,141.23-.5,211.55-1.16,15.84,3.17,21.03-4.68,19.07-2.22-.55-3.81-2.49-3.86-4.78-1.73-72.24-12.82-159.24-1.53-236.32l1.61-7.49c.49-3.16,2.63-7.39,2.63-7.39,1.85-3.6,6.42-8.07,6.42-8.07.58-.56,2.2-1.79,4.02-3.11,3.68-1.92,5.78-3.01,7.46-2.38,1.54.58,2.06,2.54,1.21,3.96-2.94,4.89-8.65,18.05-9.61,20.54Z"/>
            <path class="cls-6" d="m909.87,869.4c-32.38,10.59-64.77,21.18-97.15,31.77,0-20.73,0-41.47,0-62.2,1,6.24,2.03,12.46,3.11,18.68,1.14,6.57,8.36,10.1,14.26,6.98,23.69-12.51,45.25-28.1,64.64-46.85,10.57-4.49,32.73-14.48,40.2-18.07,1.51-.73,2.9-1.67,4.13-2.81,1.34-1.24,2.67-2.48,4.01-3.72,4.04,2.09-14.93,63.17-33.18,76.22Z"/>
            <path class="cls-13" d="m927.25,844.86l-4.35,9.77c-1.95,3.44-4.47,7.07-7.12,10.01l-2.86,2.86c-2.77,2.25-4.74,2.48-8.14,3.59l-39.47,13.01-52.54,17.06.03-28.16,114.45-28.16Z"/>
            <path class="cls-4" d="m812.83,903.28c-.04-.7-.07-1.4-.11-2.1,32.38-10.59,64.77-21.18,97.15-31.77,1.56.37,3.13.75,4.69,1.12-33.91,10.92-67.82,21.84-101.74,32.76Z"/>
            <path class="cls-4" d="m847.62,854.54c-6.33,3.94-12.82,7.66-19.48,11.12-3.88,2.01-8.4.57-10.66-2.79l-4.77,1.32.05,9.04,114.49-28.37,3.11-6.77,3.04-7.24-85.78,23.7Z"/>
            <path class="cls-13" d="m894.73,817.79l-27.85-.21c-3.88-.03-7.54-1.45-10.8-3.57-.3-.2-.62-.35-.95-.44-28.08-15.25-48.22-14.36-42.42,25.41,1.11,6.9,2.26,13.79,3.46,20.68.21,1.2.67,2.28,1.3,3.22l30.14-8.33c16.9-10.52,32.62-22.74,47.11-36.76Z"/>
          </g>
        </g>
        <path class="cls-6" d="m828.13,865.66c6.67-3.46,13.15-7.18,19.48-11.12l-30.14,8.33c2.25,3.36,6.77,4.8,10.66,2.79Z"/>
      </g>
      <g>
        <g>
          <path class="cls-10" d="m814,628.84c5.57,13.49-12.94,35.95,15.28,40.99-5.95,6.73-9.41,1.58-14.14-1.64,0,0-1.84-1.84-1.84-1.84-.52-1.05-.24-.25-.76-1.29,0,0,.04.1.04.1-.12-11.14-.23-22.28-.35-33.43.07-1.01.14-2.03.21-3.04h.41c.41-.1.79-.05,1.16.15Z"/>
          <g>
            <path class="cls-2" d="m488.75,575.57c-4.24,3.3-8.48,6.59-12.72,9.88-.07.05-.16.07-.25.04-7.39-2.3-14.78-4.59-22.17-6.89-.23-.07-.26-.39-.06-.51,11.18-6.55,23.22-3.53,35.04-3.01.25.01.35.32.15.48Z"/>
            <g>
              <path class="cls-8" d="m177.71,580.01c3.67-20.21,9.18-23.88,18.37-22.04,42.28,11.91,52.86,35.7,98.57,36.87,5.13.13,10.3-1.76,15.46-2.71,3-.14,5.99-.28,8.99-.42,2.86-.37,5.72-.73,8.58-1.1,8.23-1.66,16.46-3.32,24.69-4.98,2.74-.04,5.49-.08,8.23-.12,30.65-4.36,61.03-12.37,92.42-7.09,7.63,2.37,15.26,4.74,22.9,7.11-.57.09-1.14.17-1.71.26-.8-.4-1.6-.8-2.4-1.2-.13.5-.25,1-.38,1.5-17.82,3.01-35.97,4.73-53.38,9.3-33.02,8.66-70.88.01-98.75,27.21-.59.5-1.19,1.01-1.78,1.51,0,0,.03-.02.03-.02-2.22.53-4.88,2.14-6.6,1.45-42.12-16.91-56.45-18.85-98.33-36.35-18.37,11.02-38.58,7.35-34.9-9.18Z"/>
              <path class="cls-10" d="m399.62,576.5c33.23-2.09,55.24-11.67,33.64-50.38,11.99-10.66,23.04-.76,33.45,2.82,7.94,2.73,10.94,1.38,13.54-5.35.6,1.46,1.19,2.92,1.79,4.38,3.23,7.16,6.47,14.32,9.7,21.48.4,2.55.79,5.11,1.19,7.66,0,2.49,0,4.98,0,7.48-1.21,3.51-2.41,7.02-3.62,10.53-12.24-.43-24.75-3.81-36.31,3.3-31.39-5.27-61.77,2.73-92.42,7.09-2.66.22-8.33,1-8.38.22,13.06-2.23,34.35-7,47.41-9.23Z"/>
              <path class="cls-10" d="m205.26,556.13c44.8,15.84,43.48,15.61,88.3,31.36,5.39,1.89,11.02,3.11,16.54,4.64-5.16.95-10.33,2.84-15.46,2.71-45.29,1.71-47.1-17.62-89.38-29.52-9.32-2.62-11.02-3.67-16.53-1.84-5.51,1.84-9.18,9.18-9.18,9.18,0-5.51,3.67-12.86,9.18-16.53,2.16-1.44,11.02-1.84,16.53,0Z"/>
              <path class="cls-8" d="m433.04,447.75c5.51-9.18,12.86-20.21,12.86-20.21,22.04-40.41,84.44-54.73,136.59-31.99,1.82.79,3.8,1.2,5.7,1.79-44.22-.3-80.1,14.37-100.87,56.18-.75,1.02-2.04,3.24-2.04,3.24-19.13.45-28.9-23.94-52.24-9Z"/>
              <path class="cls-2" d="m436.77,442.48c19.96-8.3,30.84,14.69,48.51,14.27-6.04,21.03-12.39,42.04-4.92,64.11-.07.39-.01.77.16,1.13-.09.53-.17,1.06-.26,1.6-2.61,6.73-5.6,8.08-13.54,5.35-10.41-3.58-21.47-13.48-33.45-2.82-2.59-8.6-5.17-17.2-7.76-25.8-.39-5.46-.76-10.71-1.15-16.17,1.34-8.85,2.68-17.7,4.02-26.56.9-2.36,2.31-6.02,3.21-8.38l3.49-5.31c.41-.62,1-1.14,1.69-1.42Z"/>
              <path class="cls-8" d="m861.15,620.93q5.42-.5,10.94,1.34c20.56,7.17,39.12,14.44,59.67,21.6-33.04-11.37-62.3-2.63-89.56,16.78-.77.52-1.53,1.03-2.3,1.55h.06c-3.05-2.05-6.97-3.49-8.99-6.3-6.39-8.87,1.79-22.44-9.28-30.08,1.21-.11,28.44-3.88,39.47-4.9Z"/>
              <path class="cls-2" d="m648,550.4c-8.31-8.42-3.7-16.31.33-24.91,15.09-2.1,30.17-4.2,45.26-6.3,8.56,3.55,15.79,7.5,5.06,16.84,1.92,2,3.92,5.79,5.74,5.71,13.67-.65,27.31-2.06,40.95-3.23-31.44,4.61-62.88,9.22-94.32,13.84,0,0,.06.06.06.06-1.03-.67-2.06-1.34-3.09-2Z"/>
              <path class="cls-8" d="m745.35,538.51c-13.65,1.17-27.28,2.58-40.95,3.23-1.82.09-3.82-3.71-5.74-5.71,10.73-9.35,3.5-13.29-5.06-16.84,4.1-.24,8.19-.48,12.29-.72,8.3.08,16.6.16,24.91.24.8,0,1.61,0,2.41,0,18.53,5.15,37.06,10.31,55.58,15.46-.64.13-1.27.26-1.91.39-13.84,1.32-27.69,2.64-41.53,3.95Z"/>
              <path class="cls-2" d="m839.95,662.21c-2.49,2.02-4.98,4.05-7.47,6.07-1.08.52-2.17,1.04-3.25,1.56,0,0,.06-.02.06-.02-28.22-5.04-9.71-27.5-15.28-40.99,2.56-1,5.12-2.01,7.68-3.01,11.08,7.64,2.89,21.21,9.28,30.08,2.02,2.8,5.94,4.24,8.99,6.31Z"/>
              <g>
                <path class="cls-10" d="m280.58,1074.16c1.24.5,4.2-.25,5.51,0,12.02,2.25,22.57,7.18,34.59,9.43-22.51,2.5-42.71-3.9-61.43-15.97,0,0,.39-.45.39-.45,7.05,2.85,13.89,4.14,20.95,6.99Z"/>
                <path class="cls-10" d="m202.74,1038.33c-15.91-8.29.06.03-15.85-8.26-1.84-1.84-2.15-3.19-1.84-3.67,15.71,8.65,2.29,2.92,17.99,11.57l-.31.36Z"/>
                <path class="cls-10" d="m259.24,1067.62c-8.11-4.08-16.21-8.17-24.32-12.25,0,0,.33-.38.33-.38,8.12,4.06,16.25,8.12,24.37,12.18l-.39.45Z"/>
                <path class="cls-10" d="m228.82,1052.33c-8.12-4.06-17.28-9.01-25.4-13.08,0,0,1.84-1.84,1.84-1.84,8.12,4.06,15.79,10.45,23.91,14.52l-.34.39Z"/>
                <path class="cls-10" d="m234.93,1055.37c-2.03-1.01-4.07-2.03-6.1-3.04,0,0,.34-.39.34-.39,2.03,1.02,4.06,2.03,6.09,3.05l-.33.38Z"/>
                <path class="cls-10" d="m306.8,1068.77c0,1.01-.01,2.03-.02,3.04-.05-1.48-.09-2.95-.14-4.43,0,0,.25-.19.25-.19-.03.52-.06,1.05-.1,1.57Z"/>
              </g>
              <g>
                <g>
                  <path class="cls-10" d="m306.54,1067.75c-9.44-10.13-1.81-44.99,1.59-56.05-.02,11.07-1.57,44.99-1.59,56.05Z"/>
                  <path class="cls-8" d="m306.8,1068.77c17.06,24.41,34.88,5.56,52.4.85,9.96-2.68,19.84-5.68,29.75-8.53-.22.22-.43.44-.65.67.26-.18.52-.36.78-.54,30.72-10.83,61.12-22.72,92.25-32.18,32.32-9.82,65.36-17.28,98.09-25.77-86.25,26.77-172.49,53.55-258.74,80.32-12.68-2.37-25.35-4.74-38.03-7.12,7.82-2.72,17.76,5.58,24.14-4.65,0-1.01.01-2.03.02-3.04Z"/>
                  <g>
                    <path class="cls-7" d="m842.19,660.65c27.26-19.41,56.53-28.15,89.56-16.78,1.93.9,3.86,1.81,5.79,2.71-26.19-.67-52.05-.95-76.38,12.15-12.66,6.82-20.96,24.03-39.09,18.37-3.28-1.02-6.94-7.08-8.77-10.75,4.73,3.22,10.04,10.21,15.98,3.48l-.06.02c1.08-.52,8.23-5.61,10.72-7.63,0,0-.06,0-.06,0,.77-.52,1.53-1.03,2.3-1.55Z"/>
                    <path class="cls-7" d="m480.36,520.87c-7.47-22.07-1.12-43.08,4.92-64.11,0,0,1.29-2.22,2.04-3.24,20.77-41.81,56.65-56.48,100.87-56.18,1.66.93,3.32,1.85,4.97,2.78-6.07,1.03-12.17,1.93-18.21,3.11-6.88,1.35-13.82,2.55-20.54,4.5-32.02,9.31-51.1,31.8-65.2,61.04-8.24,17.09-11.69,33.74-8.87,52.1Zm75.46-116.39c-1.21-.65-1.69-1.11-2.15-1.1-.7.02-1.38.38-2.07.6.2.54.47,1.56.58,1.55.93-.15,1.83-.49,3.65-1.05Z"/>
                    <path class="cls-7" d="m745.35,538.51c13.84-1.32,27.69-2.64,41.53-3.96,1.44-.02,2.89-.05,4.33-.07.9.68,1.8,1.37,2.7,2.05-43.76,5.82-87.51,11.72-131.29,17.33-3.73.48-7.72-.97-11.58-1.52,31.44-4.61,62.88-9.22,94.32-13.84Z"/>
                    <path class="cls-7" d="m492.79,556.16c-.35-2.23-.69-4.47-1.04-6.7,8.77,3.56,2.38,22.8,2.38,22.8-22.34,38.68-63.27,26.46-95.43,30.52-68.97,8.69-79.77,16.17-79.76,84.73,0,29.61,2.02,59.46,2.04,89.07l-3.67,1.84c-1.48-3.96-2.62-10-2.56-13.93.68-46.8,1.79-93.58,2.79-140.37l-.03.02c.59-.5,1.19-1.01,1.78-1.51,27.87-27.2,65.73-18.55,98.75-27.21,17.41-4.57,35.56-6.29,53.38-9.3.01,0,.03,0,.04,0,2.65-1.07,5.15-2.08,7.79-3.15,2.17-1.69,4.35-3.38,6.52-5.07,2.32-1.8,4.06-4.23,5.01-7.01.32-.92.63-1.84.95-2.76.36-4.04.7-7.91,1.06-11.95Z"/>
                    <path class="cls-7" d="m306.86,912.04c1.27-10.55,3.84-19,12.29-23.41.51-.61,4.45-2.5,4.45-2.5,9.36-2.57,18.13-2.29,26.86,3.04,42.58,25.99,82.63,12.08,102.38-35.28,10.43-23.8,8.41-47.62.04-71.43,17.06,34.96,13.8,69.39-9.46,99.08-20.55,26.23-47.34,41.72-81.65,19.98-9.18-5.81-18.02-15.84-30.73-8.49-16.37,9.46-18.82,26.13-19.55,42.62-1.95,43.83-3.11,87.7-4.59,131.56,0,0-.25.19-.25.19-.03-1.1-.07-2.21-.1-3.31.02-11.06.04-22.13.06-33.19,0-4.18,0-8.36.01-12.54,0-16.64,0-33.27,0-49.91-.03-15.86-.05-31.73-.08-47.59.11-2.93.21-5.87.32-8.8Z"/>
                  </g>
                  <path class="cls-7" d="m338.7,780.6c-1.99.71-3.98,1.43-5.97,2.14-1.56,0-3.11-.02-4.67-.03-.92-.15-1.85-.3-2.77-.45-.06-.44-.14-.88-.24-1.32l.05-.06c4.54-.09,9.07-.19,13.61-.28Z"/>
                  <path class="cls-7" d="m451.39,779.54c-.96-1.59-1.91-3.17-2.87-4.76.96,1.59,1.91,3.17,2.87,4.76Z"/>
                  <path class="cls-7" d="m320.52,777.85c1.53,1.01,3.05,2.02,4.58,3.03,0,0-.05.06-.05.06-1.52-1.02-3.04-2.04-4.56-3.06l.02-.03Z"/>
                  <path class="cls-7" d="m448.48,774.73c-.57-.98-1.14-1.95-1.71-2.93.57.98,1.14,1.95,1.71,2.93Z"/>
                  <path class="cls-7" d="m445.36,770.32c-.5-.56-1.01-1.12-1.51-1.68.5.56,1.01,1.12,1.51,1.68Z"/>
                  <path class="cls-7" d="m452.96,782.56c-.55-1.05-1.09-2.09-1.64-3.14.55,1.05,1.09,2.09,1.64,3.14Z"/>
                  <path class="cls-7" d="m446.88,771.92c-.52-.55-1.04-1.1-1.55-1.65.52.55,1.04,1.1,1.55,1.65Z"/>
                  <path class="cls-7" d="m319.01,776.33c.5.51,1.01,1.01,1.51,1.52,0,0-.02.03-.02.03-.5-.51-1.01-1.02-1.51-1.53l.03-.02Z"/>
                  <path class="cls-2" d="m328.06,782.71c1.56,0,3.11.02,4.67.03-1.56,0-3.11-.02-4.67-.03Z"/>
                  <path class="cls-10" d="m306.54,920.84c-.43-1.46-.85-2.91-1.28-4.37.53-1.48,1.07-2.96,1.6-4.44-.11,2.94-.21,5.87-.32,8.81Z"/>
                  <path class="cls-10" d="m306.61,1018.34c0-16.64,0-33.27,0-49.91,0,16.64,0,33.27,0,49.91Z"/>
                  <path class="cls-2" d="m320.99,776.57l1.84,1.84c.16.19,2.62,2.8,2.62,2.8.48.32.22,1.09-.36,1.04-25.4-2.13-45.9-16.58-68.23-26.7-38.92-17.65-20.72-5.78-58.95-24.9-7.35-3.67-5.04-6.41-11.02-18.37-3.67-7.35-9.18-112.06-1.84-124.91,3.87-6.77,18.94-5.74,23.88-3.67,41.88,17.49,59.88,24.94,102,41.86,1.73.69,4.38-.91,6.6-1.45-1,46.79-2.11,93.58-2.79,140.37-.04,2.96,1.53,5.94,2.94,8.92.67,1.42,2.29,1.97,3.29,3.18Z"/>
                </g>
                <g>
                  <path class="cls-10" d="m179.26,840.68c.16.06.28.26.28.43-.05,5.48-1.84,12.8-1.84,25.47,1.84,22.04,0,25.72,0,45.92,1.46,21.63-1.84,58.78-1.06,86.25.3,10.73,3.8,20.42,8.45,28.27l1.8,3.05q-5.51-3.67-9.18-9.18c-5.51-9.18-3.54-17.67-3.67-25.72-.7-43.25,1.84-56.95,0-101.03,0-.02,0-19.98,0-31.18,0-5.29.61-10.58,1.81-15.74,1.51-6.48,2.13-7.07,3.42-6.54Z"/>
                  <g>
                    <path class="cls-8" d="m194.24,840.86c22.01,3.68,5.51,1.84,28.74,9.3,11.42,3.67,23.27,5.8,34.91,8.71,8.68,13.77,24.06,14.8,37.44,19.41,9.23,3.18,18.84,5.27,28.28,7.84l.02-.06c-.95,1.13-1.9,2.27-2.85,3.4-4.32,7.5-11.14,19.36-15.45,26.86l-.05.15c-2.23,1.13-5.84,3.78-6.5,3.18-18.18-16.54-42.59-19.57-63.75-29.52-33.61-15.8-23.32-10.39-57.31-25.39.52-2.24-1.84-12.86,0-20.21,0-1.84,0-3.67,3.67-7.35,2.9-2.9,12.84,3.67,12.86,3.67Z"/>
                    <path class="cls-2" d="m452.84,853.89c-19.75,47.35-59.8,61.26-102.38,35.28-8.73-5.33-17.51-5.6-26.86-3.04-9.44-2.58-19.05-4.67-28.28-7.84-13.38-4.6-28.76-5.64-37.44-19.41,32.32-.19,64.75-1.84,95.6,11.26,14.48,6.15,14.89-6.18,20.56-14.74,18.75-28.28,45-47.12,79.34-52.34.37-.06,3.9,12.11,3.65,18.48-.43,10.82-2.7,21.57-4.19,32.35Z"/>
                    <path class="cls-2" d="m306.64,1067.39c.05,1.48.09,2.95.14,4.43-5.24,8.41-12.89,4.3-19.79,4.08-6.38-1.52-12.5-2.97-18.88-4.49-10.95-5.47-21.9-10.95-32.85-16.42-2.03-1.02-4.06-2.03-6.09-3.05-8.12-4.06-16.24-8.13-24.36-12.19-6.1-3.04-5.52-3.38-10.57-6-6-3.12-12.86-7.35-14.7-14.7-5.64-22.54-1.84-42.25-1.84-102.87-.17-24.14.22-28.96,0-51.44,33.99,15.01,23.7,9.59,57.31,25.39,21.16,9.95,45.57,12.98,63.75,29.52.66.6,4.26-2.05,6.5-3.18l1.27.8c.03,17.05.06,34.11.08,51.16,0,16.63,0,33.27,0,49.91-.6,5.71-1.57,14.95-2.17,20.66-1.79,8.36-1.95,16.71,2.1,25.08.03,1.1.07,2.21.1,3.31Z"/>
                    <path class="cls-11" d="m457.04,821.54c.26-6.37-3.29-18.54-3.66-18.48-34.33,5.22-60.58,24.05-79.34,52.34-5.68,8.56-6.08,20.89-20.56,14.73-30.84-13.1-62.62-11.08-94.95-10.89-11.63-2.9-12.36-2.12-23.88-5.51-31.23-9.18-27.55-9.18-53.27-16.53,15.1-13.58,22.04-12.86,40.41-11.02,38.58,3.67,48.48-21.53,43.55-61.13-.26-2.15-3.8-4.5-6.3-5.64-65.87-29.19-55.62-21.4-70.32-32.42-7.35-7.35-12.12-16.37-12.86-40.41-.72-22.98-4.11-76.11,1.84-99.2,0,0,7.35,0,5.51,7.35-1.84,25.72-1.82,47.93,0,71.64,1.84,23.88-1.84,40.41,12.86,62.46l.94.94c31.54,13.5,23.27,9.22,59.85,25.79,22.37,10.16,42.93,24.65,68.43,26.73.94.15,1.86.29,2.77.44,1.56.02,3.12.02,4.67.04,2-.72,3.99-1.43,5.97-2.15,32.31-28.11,65.6-47.6,105.15-11.96.5.55.97,1.08,1.49,1.63.48.51.96,1.01,1.43,1.52l.02.04c.57.96,1.12,1.95,1.69,2.9l.05.06c.94,1.54,1.86,3.07,2.79,4.63l.07.13c.51,1.01,1.03,2,1.56,3.01l-.07-.11c8.38,23.83,10.4,47.63-.04,71.44,1.49-10.78,3.77-21.53,4.19-32.35Z"/>
                    <path class="cls-16" d="m977.25,726.57c0,3.43-.12,6.93-.38,10.45-.05.65-.15,1.3-.3,1.93-9.13,39.48-19.66,41.53-29.17,50.47l-7.43,6.86c-.47.43-.97.83-1.5,1.18-5.48,3.63-37.17,24.16-53.19,24.72-.64.02-1.28-.04-1.92-.13l-34.59-5c-.38-.05-.75-.12-1.12-.21-19.73-4.65-40.21-15.96-35.05,21.31.07.53.12,1.08.12,1.62,0,20.47,0,40.94.02,61.39l.04,1.03c.06.72.02,1.43-.07,2.17-.53,4.46-6.25,28.18-6.25,28.18-.07.46-.29.88-.62,1.19-.5.48-1.29,1.23-1.95,1.87-.37.35-.83.62-1.32.79-4.81,1.54-57.3,18.65-62.38,20.54-.28.11-.56.2-.85.29-7.93,2.3-108.58,31.44-159.93,46.33l.02-.29c-32.72,8.49-65.76,15.94-98.09,25.77-31.14,9.46-61.52,21.35-92.25,32.18l-.13-.13c-9.9,2.85-19.78,5.84-29.74,8.52-17.52,4.7-35.34,23.55-52.39-.84.02-.53.06-1.05.09-1.58,1.47-43.85,2.63-87.72,4.59-131.55.73-16.5,3.18-33.18,19.55-42.64,12.71-7.35,21.55,2.68,30.73,8.51,34.31,21.73,61.1,6.25,81.65-19.99,23.26-29.69,26.53-64.11,9.46-99.09l.07.11c-.53-1.01-1.05-2-1.56-3.01l-.07-.13c-.94-1.56-1.86-3.09-2.79-4.63l-.05-.06c-.57-.96-1.12-1.95-1.69-2.9l-.02-.04c-.48-.51-.96-1.01-1.43-1.52l-1.04-1.14c-.3-.33-.62-.65-.96-.95-15.09-13.43-29.26-18.86-42.81-18.86-21.4,0-41.24,13.5-60.71,30.31-4.26,3.67-10.47,4.06-15.16.96-1.76-1.16-3.18-2.74-4.15-4.54-.97-1.82-1.51-3.86-1.51-5.97-.02-27.54-.05-55.05-.05-82.59-.02-68.56,10.78-76.03,79.76-84.72,25.47-3.22,70.61-20.44,88.15-27.48,3.73-1.5,6.53-4.66,7.57-8.55,1.45-5.4,2.67-11.54-2.89-17.6-3.33-3.62-6.8-10.71-8.03-15.47l-2.99-11.66c-.17-.37-.22-.73-.15-1.14-2.83-18.35.62-34.99,8.85-52.1,14.11-29.24,33.18-51.73,65.21-61.04,9.9-2.88,20.32-4.13,30.27-6.61,1.47-.37,2.96-.62,4.48-.73l3.2-.2c.53-.04,1.05-.06,1.58-.02,36.94,1.87,64.04,45.56,61.35,102.71-.06,1.19,0,5.51-5.51,22.04-1.71,6.82-8.91,15.75-3.34,23.69.79,1.13,1.87,2.03,3.03,2.77.53.34,1.06.69,1.6,1.04l-.06-.06c3.86.55,7.84,2,11.57,1.52,42.68-5.48,85.32-11.22,127.96-16.9,2.49-.33,5.03.14,7.24,1.33,4.78,2.57,8.07,6.04,10.3,10.17,2.79,5.16,3.91,11.37,4.17,18.09.18,20.7.83,40.51,1.01,61.21l.75,36.52c.05,2.25.74,4.44,1.98,6.32,1.83,2.76,3.59,5.72,6.05,6.48,18.11,5.68,26.42-11.54,39.07-18.37,23.86-12.84,49.17-12.83,74.84-12.18,1.02.03,2.04.15,3.02.46,21.32,6.68,38.24,39.59,38.24,79.56Z"/>
                  </g>
                </g>
              </g>
            </g>
          </g>
        </g>
        <polygon class="cls-8" points="383.08 582.63 331.18 602.22 385.25 596.01 383.08 582.63"/>
      </g>
    </g>
  </g>
</svg>