<?xml version="1.0" encoding="UTF-8"?>
<svg id="_Слой_1" data-name="Слой 1" xmlns="http://www.w3.org/2000/svg" viewBox="0 0 376 256">
  <defs>
    <style>
      .cls-1 {
        fill: #a5d6f2;
      }

      .cls-1, .cls-2, .cls-3, .cls-4, .cls-5, .cls-6, .cls-7, .cls-8, .cls-9, .cls-10, .cls-11, .cls-12, .cls-13, .cls-14, .cls-15, .cls-16 {
        stroke-width: 0px;
      }

      .cls-2 {
        fill: #bb1736;
      }

      .cls-3 {
        fill: #275c8e;
      }

      .cls-4 {
        fill: #74afd7;
      }

      .cls-5 {
        fill: #fff;
      }

      .cls-6 {
        fill: #1e79ab;
      }

      .cls-7 {
        fill: #f2ced6;
      }

      .cls-8 {
        fill: #e85f79;
      }

      .cls-9 {
        fill: #17648f;
      }

      .cls-10 {
        fill: #ab233d;
      }

      .cls-11 {
        fill: #871c31;
      }

      .cls-12 {
        fill: #2381c4;
      }

      .cls-13 {
        fill: #196b98;
      }

      .cls-14 {
        fill: #194f8d;
      }

      .cls-15 {
        fill: #2295d3;
      }

      .cls-16 {
        fill: #e72f51;
      }
    </style>
  </defs>
  <rect class="cls-5" width="376" height="256"/>
  <g>
    <g>
      <g>
        <rect class="cls-16" x="196.38" y="97.59" width="10.2" height="61.22"/>
        <path class="cls-16" d="m218.53,118c-1.13,3.19-1.74,6.63-1.74,10.2s.62,7.01,1.74,10.2c.57,1.6,1.26,3.15,2.08,4.62,1.11,2.01,2.45,3.89,3.97,5.59.76.85,1.56,1.65,2.41,2.41v7.79h-6.58c-.81-.71-1.59-1.45-2.34-2.23-.44-.45-.87-.92-1.28-1.39-1.79-2.02-3.38-4.23-4.74-6.58-.12-.21-.24-.43-.36-.64h0c-1.65-2.98-2.94-6.18-3.81-9.56,0-.03-.01-.05-.02-.08-.83-3.24-1.27-6.63-1.27-10.12s.44-6.89,1.27-10.12c0-.03.01-.05.02-.08.87-3.38,2.16-6.58,3.81-9.56h0c.12-.22.24-.43.36-.64,1.36-2.36,2.95-4.56,4.74-6.58.41-.47.84-.94,1.28-1.39.75-.78,1.52-1.52,2.34-2.23h6.58v7.79c-.85.76-1.65,1.56-2.41,2.41-1.52,1.7-2.86,3.57-3.97,5.59-.82,1.47-1.51,3.01-2.08,4.62Z"/>
        <path class="cls-16" d="m265.07,118c-1.79-3.1-4.38-5.68-7.47-7.47-3-1.73-6.49-2.73-10.2-2.73-1.76,0-3.47.22-5.1.64h0c-1.81.46-3.53,1.17-5.1,2.09-1.39.8-2.67,1.76-3.82,2.86-1.43,1.35-2.66,2.9-3.65,4.62-1.73,3-2.73,6.49-2.73,10.2s.99,7.2,2.73,10.2c.99,1.71,2.22,3.26,3.65,4.62,1.16,1.09,2.44,2.05,3.82,2.86,1.58.91,3.29,1.62,5.1,2.09h0c1.63.42,3.34.64,5.1.64,3.72,0,7.2-.99,10.2-2.73,3.1-1.79,5.68-4.38,7.47-7.47,1.73-3,2.73-6.49,2.73-10.2s-.99-7.2-2.73-10.2Zm-18.94,20.33c-5.04-.62-8.94-4.92-8.94-10.12s3.9-9.5,8.94-10.12c0-.03,1.27-.08,1.27-.08,5.63,0,10.2,4.57,10.2,10.2s-4.57,10.2-10.2,10.2c0,0-1.27-.05-1.27-.08Z"/>
        <path class="cls-16" d="m317.4,97.59v61.22h-10.2v-48.29c-1.39.8-2.67,1.76-3.82,2.86-1.43,1.35-2.66,2.9-3.65,4.62h-5.46c-.99-1.71-2.22-3.26-3.65-4.62-1.16-1.09-2.44-2.05-3.82-2.86v48.29h-10.2v-61.22c3.58,0,7.01.62,10.2,1.74.43.15.86.31,1.28.49,3.3,1.33,6.31,3.23,8.92,5.56,2.61-2.34,5.62-4.23,8.92-5.56.42-.17.85-.33,1.28-.49,3.19-1.13,6.63-1.74,10.2-1.74Z"/>
        <polygon class="cls-16" points="358.21 97.59 358.21 158.81 348.01 158.81 348.01 107.8 337.81 107.8 337.81 158.81 327.6 158.81 327.6 97.59 358.21 97.59"/>
      </g>
      <g>
        <path class="cls-15" d="m289.61,181.1s0-.03,0-.04c-.42-1.64-1.04-3.19-1.85-4.63-.06-.1-.11-.21-.18-.31-.66-1.14-1.43-2.21-2.3-3.19-.2-.23-.41-.45-.62-.67-.36-.37-.74-.73-1.13-1.08h-6.38c-.39.35-.77.7-1.13,1.08-.21.22-.42.44-.62.67-.86.98-1.64,2.05-2.29,3.19-.06.1-.12.21-.18.31-.8,1.45-1.42,3-1.85,4.63,0,.01,0,.03,0,.04-.4,1.57-.61,3.21-.61,4.9v14.83h4.94v-9.89h9.89v9.89h4.94v-14.83c0-1.69-.21-3.34-.61-4.9Zm-14.22,4.9c0-1.73.3-3.4.85-4.94.27-.78.61-1.53,1.01-2.24.54-.98,1.19-1.88,1.93-2.71h2.33c.74.82,1.39,1.73,1.93,2.71.4.71.73,1.46,1.01,2.24.55,1.55.85,3.21.85,4.94h-9.89Z"/>
        <path class="cls-15" d="m314.5,171.17v29.66h-4.94v-23.4c-.67.39-1.29.85-1.85,1.38-.69.65-1.29,1.41-1.77,2.24h-2.64c-.48-.83-1.08-1.59-1.77-2.24-.56-.53-1.18-1-1.85-1.38v23.4h-4.94v-29.66c1.73,0,3.4.3,4.94.84.21.07.42.15.62.23,1.6.65,3.06,1.57,4.32,2.7,1.26-1.13,2.72-2.05,4.32-2.7.2-.08.41-.16.62-.23,1.55-.55,3.21-.84,4.94-.84Z"/>
        <path class="cls-15" d="m265.96,174.95v6.11h-1.32c-.48-.83-1.08-1.59-1.77-2.24-.56-.53-1.18-1-1.85-1.38-.76-.44-1.59-.79-2.47-1.01-.79-.2-1.62-.31-2.47-.31-1.8,0-3.49.48-4.94,1.32-1.5.87-2.75,2.12-3.62,3.62-.84,1.45-1.32,3.14-1.32,4.94s.48,3.49,1.32,4.94c.87,1.5,2.12,2.75,3.62,3.62,1.45.84,3.14,1.32,4.94,1.32.85,0,1.68-.11,2.47-.31.88-.22,1.71-.57,2.47-1.01.67-.39,1.29-.85,1.85-1.38.69-.65,1.29-1.41,1.77-2.24h1.32v6.11c-1.26,1.13-2.72,2.05-4.32,2.7-.2.08-.41.16-.62.23-1.55.55-3.21.84-4.94.84s-3.4-.3-4.94-.84c-1.84-.65-3.52-1.66-4.94-2.93-.41-.37-.8-.76-1.17-1.17-1.28-1.43-2.28-3.1-2.93-4.94-.55-1.55-.84-3.21-.84-4.94s.3-3.4.84-4.94c.65-1.84,1.66-3.52,2.93-4.94.37-.41.76-.8,1.17-1.17,1.43-1.28,3.1-2.28,4.94-2.93,1.55-.55,3.21-.84,4.94-.84s3.4.3,4.94.84c.21.07.42.15.62.23,1.6.65,3.06,1.57,4.32,2.7Z"/>
      </g>
      <g>
        <path class="cls-15" d="m345.39,55.17v29.66h-4.94v-6.7c-.2.23-.41.46-.62.67-.36.37-.74.73-1.13,1.08-.98.87-2.05,1.64-3.19,2.3-1.53.89-3.19,1.57-4.94,2.03-1.58.41-3.24.62-4.94.62v-29.66h4.94v23.87c.21-.07.42-.15.62-.23,1.6-.65,3.06-1.57,4.32-2.7.41-.37.8-.76,1.17-1.17.74-.82,1.38-1.73,1.93-2.71.4-.71.73-1.46,1.01-2.24.55-1.55.84-3.21.84-4.94v-9.89h4.94Z"/>
        <path class="cls-15" d="m298.2,55.17v1.75c-.87.98-1.64,2.05-2.3,3.19h-7.59v4.94h4.94c.21,0,.41.01.61.04-.4,1.57-.61,3.21-.61,4.9h-4.94v9.89h7.59c.66,1.14,1.43,2.21,2.3,3.19v1.75h-14.83v-29.66h14.83Z"/>
        <path class="cls-15" d="m233.93,58.94v6.11h-1.32c-.48-.83-1.08-1.59-1.77-2.24-.56-.53-1.18-1-1.85-1.38-.76-.44-1.59-.79-2.47-1.01-.79-.2-1.62-.31-2.47-.31-1.8,0-3.49.48-4.94,1.32-1.5.87-2.75,2.12-3.62,3.62-.84,1.45-1.32,3.14-1.32,4.94s.48,3.49,1.32,4.94c.87,1.5,2.12,2.75,3.62,3.62,1.45.84,3.14,1.32,4.94,1.32.85,0,1.68-.11,2.47-.31.88-.22,1.71-.57,2.47-1.01.67-.39,1.29-.85,1.85-1.38.69-.65,1.29-1.41,1.77-2.24h1.32v6.11c-1.26,1.13-2.72,2.05-4.32,2.7-.2.08-.41.16-.62.23-1.55.55-3.21.84-4.94.84s-3.4-.3-4.94-.84c-1.84-.65-3.52-1.66-4.94-2.93-.41-.37-.8-.76-1.17-1.17-1.28-1.43-2.28-3.1-2.93-4.94-.55-1.55-.84-3.21-.84-4.94s.3-3.4.84-4.94c.65-1.84,1.66-3.52,2.93-4.94.37-.41.76-.8,1.17-1.17,1.43-1.28,3.1-2.28,4.94-2.93,1.55-.55,3.21-.84,4.94-.84s3.4.3,4.94.84c.21.07.42.15.62.23,1.6.65,3.06,1.57,4.32,2.7Z"/>
        <path class="cls-15" d="m252.35,56.01c-1.55-.55-3.21-.84-4.94-.84s-3.4.3-4.94.84c0,0-3.68,1.8-4.94,2.93v22.11c1.26,1.13,2.72,2.05,4.32,2.7.2.08.41.16.62.23,1.55.55,3.21.84,4.94.84s3.4-.3,4.94-.84c1.84-.65,3.52-1.66,4.94-2.93v-22.11c-1.43-1.28-3.1-2.28-4.94-2.93Zm0,22.55c-1.45.84-3.14,1.32-4.94,1.32-.85,0-1.68-.11-2.47-.31-.88-.22-1.71-.57-2.47-1.01v-17.13c.76-.44,1.59-.79,2.47-1.01.79-.2,1.62-.31,2.47-.31,1.8,0,3.49.48,4.94,1.32v17.13Z"/>
        <path class="cls-15" d="m279.35,70c-.48-.83-1.08-1.59-1.77-2.24-.56-.53-1.18-1-1.85-1.39-.76-.44-1.59-.79-2.47-1.01-.79-.2-1.62-.31-2.47-.31-1.8,0-3.49.48-4.94,1.32v-6.26h7.19l4.94-4.94h-17.08v29.66h9.89c.85,0,1.68-.11,2.47-.31.88-.22,1.71-.57,2.47-1.01.67-.39,1.29-.85,1.85-1.39.69-.65,1.29-1.41,1.77-2.24.84-1.45,1.32-3.14,1.32-4.94s-.48-3.49-1.32-4.94Zm-7.95,9.85s0,.03,0,.04h-.62c-2.73,0-4.94-2.21-4.94-4.94s2.21-4.94,4.94-4.94h.62s0,.03,0,.04c2.44.3,4.33,2.38,4.33,4.9s-1.89,4.6-4.33,4.9Z"/>
        <path class="cls-15" d="m321.14,60.11c-.48-.83-1.08-1.59-1.77-2.24-.56-.53-1.18-1-1.85-1.38-.76-.44-1.59-.79-2.47-1.01-.79-.2-1.62-.31-2.47-.31h-9.89v29.66h4.94v-11.21c1.45.84,3.14,1.32,4.94,1.32.85,0,1.68-.11,2.47-.31.88-.22,1.71-.57,2.47-1.01.67-.39,1.29-.85,1.85-1.38.69-.65,1.29-1.41,1.77-2.24.84-1.45,1.32-3.14,1.32-4.94s-.48-3.49-1.32-4.94Zm-8.57,9.89c-2.7,0-4.89-2.16-4.94-4.85-.05-2.77,2.3-5.04,5.07-5.04h.49s0,.03,0,.04c2.44.3,4.33,2.38,4.33,4.9s-1.89,4.6-4.33,4.9c0,.01,0,.03,0,.04h-.62Z"/>
      </g>
    </g>
    <g>
      <path class="cls-10" d="m67.36,180.35s.05.03.08.04c-.02-.02-.05-.03-.07-.05,0,0,0,0,0,0Z"/>
      <path class="cls-16" d="m54.85,179l-.12.08s.06-.07.1-.1c0,0,.02.02.02.02Z"/>
      <g>
        <g>
          <g>
            <path class="cls-9" d="m95.93,172.98c.24.17.47.34.71.52-6.14-2.66-11.14,1.55-16.65,2.74h0c-6.17,1.97-12.44,3.68-18.47,6.02-3.74,1.45-8.08,1.51-11.18,4.46-.64.61-.86,1.68-1.27,2.54.06,4.39.12,8.78.19,13.17-.14.22-.7-8.88-.38-13.63.26-3.77,3.86-4.1,6.59-5.01,12.11-4.01,24.23-7.99,36.4-11.8,1.14-.35,2.69.62,4.05.98Z"/>
            <path class="cls-6" d="m105.35,167c0,3.71,0,7.42,0,11.13,0,.25-.02.5-.09.73-.54,1.91-2.87,2.95-4.9,2.05-2.63-1.03-5.21-2.11-7.78-3.14-2.63-1.05-3.22-1.84-3.23-4.34-.02-4.03-.77-6.61,3.92-7.41.09-.01.17-.03.26-.05,2.1-.54,4.2-1.09,6.34-1.62,2.25-.56,3.4-.34,4.67,1.06.36.4.63.86.77,1.36.02.08.04.16.04.23Z"/>
            <path class="cls-9" d="m76.52,195.24c.12,3.05.25,6.1.37,9.15-3.44-3.14-6.88-6.28-10.31-9.42,3.31.09,6.63.18,9.94.27Z"/>
            <path class="cls-6" d="m166.26,180.41l-42.9,18.26c.05-.08.05-.08.05-.13-3.62,1.56-7.54,3.89-11.29,5.02-3.42,1.03-6.56,2.92-10.2,3.38-1.18.15-2.48,1.62-3.72,2.51,0,.05,0,.11.02.16,8.16-3.41,24.44-10.19,24.44-10.19.4-.07,8.96-3.74,9.33-3.87l5.47-1.99,12.9-5.22,7.88-2.87c.79-.29,1.56-.61,2.31-.97l3.27-1.58c.36-.17.7-.38,1.01-.62l.92-.7c.34-.26.58-.63.67-1.04.02-.11-.08-.19-.18-.15Zm-63.5,26.94s-.04-.07-.06-.11c.08-.01.09-.01.13.06-.02.02-.05.03-.07.05Z"/>
            <path class="cls-6" d="m97.29,209.92c-4.71,1.96-9.42,3.91-14.13,5.87,0,0,.02-.11.02-.11,4.63-1.98,9.27-3.95,13.9-5.92.07.05.14.11.22.16Z"/>
            <path class="cls-10" d="m58.13,209.93c1.97,1.07,3.94,2.15,5.91,3.22-1.97-1.07-3.94-2.15-5.91-3.22Z"/>
            <path class="cls-6" d="m77.96,217.8s-.03-.08-.03-.08c1.29-.59,2.58-1.18,3.87-1.77.07.1.13.2.2.3-1.35.52-2.7,1.03-4.04,1.55Z"/>
            <path class="cls-10" d="m54.66,207.94c1.16.66,2.32,1.33,3.48,1.99-1.16-.66-2.32-1.33-3.48-1.99Z"/>
            <path class="cls-10" d="m49.84,204.93c.94.62,1.88,1.24,2.82,1.86-.94-.62-1.88-1.24-2.82-1.86Z"/>
            <path class="cls-10" d="m52.64,206.78c.68.39,1.36.78,2.04,1.17-.68-.39-1.36-.78-2.04-1.17Z"/>
            <path class="cls-6" d="m82.01,216.26c-.07-.1-.13-.2-.2-.3.23-.08.47-.15.7-.23,0,.11,0,.22-.01.33-.16.07-.32.13-.48.2Z"/>
            <path class="cls-6" d="m97.29,209.92c-.07-.05-.14-.11-.22-.16.37-.11.75-.21,1.12-.32,0,.06,0,.11.02.16-.31.11-.62.21-.92.32Z"/>
            <path class="cls-6" d="m82.49,216.05c0-.11,0-.22.01-.33.22-.01.45-.03.67-.04,0,0-.02.11-.02.11-.22.09-.45.17-.67.26Z"/>
            <path class="cls-9" d="m72.74,217.17c.28-.29.56-.57.84-.86.88,2.22,2.68,1.63,4.36,1.41l.03.08c-3.43,1.46-6.2-.16-8.94-1.91,1.22.45,2.43.9,3.65,1.35.25.16.51.32.77.47,0,0,.1-.15.15-.22-.28-.11-.56-.22-.84-.32Z"/>
            <path class="cls-9" d="m64.02,213.15c2.24-.11,3.33,1.86,5.02,2.75-1.67-.92-3.34-1.84-5.02-2.75Z"/>
            <path class="cls-4" d="m165.53,181.37c-.12.07-.24.08-.28.1,0,0-41.53,17.1-42.26,17.51-3.62,1.56-7.13,3.46-10.88,4.58-3.42,1.03-6.34,2.92-10.19,3.56-1.18.2-2.49,1.44-3.73,2.33-.37.1-.75.21-1.12.31-4.63,1.98-9.27,3.95-13.9,5.93-.12,0-.25.01-.37.02-.28.07-.72.18-1,.25-1.29.59-2.58,1.18-3.87,1.77-1.68.22-3.47.81-4.36-1.41-.08-.22.05-.18.08-.27.06-3.77.31-7.55.15-11.32-.19-4.34,1.34-7.05,5.73-8.26,3.89-1.08,7.7-2.49,11.44-4.02,8.5-3.47,17.48-5.7,25.61-10.17,1.31-.72,1.16-.57,1.49-1.8l-26.18,8.13-8.74-13.79,52.11-16.14c3.93-1.16,5.99-1.39,8.99-.26l2.96,1.11,9.87,3.66,3.52,1.28c1.18.43,2.3,1.02,3.31,1.75l.87.63c.35.25.62.59.8.98.4.88.6,1.84.59,2.81v1.98s.11,1.99.11,1.99v1.65c.12,1.48,1.37,3.84-.76,5.1Z"/>
            <path class="cls-4" d="m122.07,179.86s.02.03.02.03c-12.36,4.5-24.76,8.86-37.03,13.57-2.96,1.14-6.36,1.48-9.1,3.17-1.54.95-3.46.92-4.97-.08-1.41-.93-3.31-1.32-4.54-2.48l.12-.09c.23-.08.46-.15.69-.23h0c6.02-2.12,12-4.39,18.08-6.32,8.09-2.58,15.93-6.04,24.4-7.37.39-.06,4.44-1.55,6.38-2.28.62-.23,1.28-.32,1.94-.26,1.87.19,4.27,1.25,4.03,2.34Z"/>
            <path class="cls-1" d="m164.92,168.3h-.27c-.18,0-.35-.03-.52-.09-1.2-.46-1.71-.45-1.75-.45l-2.03.18c-.61.06-1.22.19-1.8.4l-5.99,2.16-8.32,2.78-9.16,3.01-7.5,2.44-5.18,1.57c-.31.09-.55.32-.8.53-1.44,1.21-3.55.65-5.02,1.46-8.13,4.47-17.11,6.7-25.61,10.17-3.74,1.53-7.56,2.94-11.44,4.02-4.38,1.21-5.92,3.92-5.73,8.26.17,3.76.12,10.94-.14,11.32-.38.69-.16.05-.16-.46,0-.16-.08-.32-.08-.48-.02-4.75-.03-9.51-.05-14.26-.01-.46-.02-.93-.04-1.39,0-.26.07-.52.24-.72,2.92-3.65,7.58-3.76,11.48-5.26,12.27-4.72,24.68-9.08,37.03-13.57l9.05-2.89,15.39-5.68,13.07-4.08.23-.06,2.01-.44s.09-.03.14-.02c.23,0,.52.03.76.15.63.31,2.42,1.22,2.19,1.45Z"/>
            <path class="cls-8" d="m49.26,202.43c-.06-4.39-.12-8.78-.19-13.17.06,4.39.12,8.78.19,13.17Z"/>
            <path class="cls-4" d="m64.44,191.64c-.24.16-.75,1.41-.82,1.37-.74-.4-1.66-1.09-2.38-1.52-.17-.1-.88-.46-.78-.62.04-.05.68-.34.69-.33.88.46,2.29.55,3.29,1.1Z"/>
            <path class="cls-4" d="m66.44,194.29c-.56-.26-1.7-.26-2.27-.51.04-.09,1.09-1.38,1.1-1.37.75.26,4.19-.27,4.94,0,0,0,.5.29-2.47,1.37-.23.08-.88.53-1.11.6l-.2-.09Z"/>
            <path class="cls-6" d="m102.83,207.3s-.05.03-.07.05c-.02-.04-.04-.07-.06-.11.08-.01.09-.02.13.06Z"/>
            <path class="cls-9" d="m72.74,217.17l.84.32c-.05.08-.14.23-.15.22-.26-.15-.51-.31-.77-.47,0,0,.07-.07.07-.07Z"/>
            <rect class="cls-9" x="72.62" y="216.93" width=".55" height=".55"/>
            <path class="cls-6" d="m49.79,204.9c-.81-.54-.53-2.47-.53-2.47l-.19-13.17c.41-.86.62-1.92,1.27-2.54,3.1-2.95,7.44-3,11.18-4.46,6.03-2.34,12.3-4.05,18.47-6.03.02.02.05.03.07.05-.03-.01-.05-.03-.08-.04,5.5-1.19,10.51-5.4,16.65-2.74,4.84,1.99,13.32,5.28,13.09,6.57-.05,1.18-16.31,4.79-24.4,7.37-5.32,1.7-10.33,4.46-15.81,5.52-1.36.26-2.3-.26-3.32-.36-.48-.05-.9.03-1.18.38h0c-.13.17-.03.33.14.46.14.11.22.17.43.21.55.13,1.1.48,1.55.81,2.01,1.44,4.9,1.77,5.82,4.59l.19.52c.12.33.22.89.22,1.24-.05,4.81.13,14.21.08,14.63-.05.47.04.95-.29,1.29-.06.06-.14.16-.22.27-.17.22-.46.29-.71.19-.74-.32-2.3-.97-3.2-1.31,0,0,.02,0,.02,0-1.69-.89-2.78-2.87-5.02-2.75,0,0,.02,0,.02,0-1.97-1.07-3.94-2.15-5.91-3.22h0c-1.16-.66-2.32-1.33-3.48-1.99v.02c-.67-.39-1.35-.78-2.03-1.17,0,0,.02,0,.02,0-.95-.63-1.91-1.26-2.86-1.89Zm14.3-12.96c-.06-.77-1.97-1.07-2.78-1.07-.43,0-.08.38,0,.43.71.42,1.25.71,1.97,1.1.14.08.31.09.47.06s.28-.18.34-.52Z"/>
            <path class="cls-13" d="m96.56,182.03c.5.19-19.22.55-29.92,2.75-.36.07-6.31,1.92-7.96,1.92-.39,0-4.44-.33-4.39-.82.09-.91,10.69-5.23,11.49-5.49,3.13-1.02,6.27-2.02,9.42-3.02,3.11-1,6.23-1.99,9.36-2.99,1.42-.45,2.84-.91,4.26-1.36.37-.12.74.13.73.5-.01.4-.03.8-.05,1.19-.09,1.7.27,2.21,1.94,2.81,1.62.59,3.24,1.2,4.88,1.78.28.1.56.15.83.15.05,0,.11,0,.16,0,.05,0,.1,0,.14-.01.01,0,.02,0,.04,0,.04,0,.08-.01.12-.02.01,0,.03,0,.04,0,.04,0,.07-.02.11-.03.02,0,.04-.01.05-.02.04-.01.08-.03.12-.04.05-.02.1-.04.15-.06.05-.02.1-.05.15-.07.04-.02.08-.05.13-.07,0,0,.01,0,.02-.01.04-.03.09-.06.13-.09.13-.1.26-.21.38-.34,0,0,0,0,.01-.01.08-.08.15-.17.22-.27.04-.05.07-.1.11-.15.04-.05.07-.11.1-.16h0c.06-.21.12-.41.18-.62.09-2.55.18-5.07.27-7.57,0-.05.33-.59.54-.63.35-.06.67.19.66.52-.06,2.05-.12,4.11-.18,6.19-.05,2.12,1.63,3.31,3.84,2.64,1.05-.32-2.53.94-.39,1.78l-7.69,1.65Z"/>
            <path class="cls-6" d="m119,164.81c-.48,1.39-1.07,2.91-1.66,4.56-.41,1.14-1.03,1.96-1.91,2.38-1.48.7-3.22.2-4.17,1.99-.18.33.64,2.54.64,2.54.36.68,1.06.91,1.92.57,4.06-1.58,8.92-3.48,14.83-5.8,3.84-1.5,8.2-3.23,13.18-5.2,1.7-.67,2.5-1.63,1.88-2.86-.54-1.08-1.82-1.46-3.45-1.44-.4,0-.79-.01-1.17,0-7.01.12-6.65-.88-11-.66-.68.04-5.24,1.97-5.89,2.26-.76.34-1.92,0-2.61.38-.24.13-.45.4-.47.61,0,0,0,0,0,0-.02.22-.05.44-.14.68Z"/>
            <path class="cls-13" d="m119.15,164.52c-.27,1.21-.61,2.53-.94,3.96-.23.99-.66,1.7-1.35,2.08-1.17.64-2.71.23-3.33,1.82-.12.3.82,2.19.82,2.19.38.57.99.74,1.68.42,3.18-1.48,6.85-3.18,11.13-5.18,2.67-1.25,5.61-2.63,8.85-4.16,1.08-.51,1.55-1.25,1.09-2.21-.41-.86-1.27-1.19-2.36-1.22-.27,0-.53-.03-.8-.03-4.93-.08-4.74-.9-7.95-.84-.51,0-3.9,1.55-4.39,1.79-.58.28-1.55-.04-2.07.27-.19.11-.33.34-.33.52,0,0,0,0,0,0,0,.19,0,.39-.05.6Z"/>
            <path class="cls-4" d="m100.41,179.16v-13.97c0-.73,1.05-1.53,2.7-2.06,2.31-.74,4.6-1.48,6.86-2.21,2.65-.86,4.82-5.03,7.46-5.79,5.42-1.56,10.33-4.71,10.43-1.92.11,3.06-.12,13.59-.03,16.68-.04.49-.14.92-.3,1.32-.59,1.44-2.06,2.4-5.12,3.47-.07.02-.13.05-.2.07-2.81.96-5.68,1.93-8.58,2.91-2.13.72-4.29,1.45-6.47,2.19-3.18,1.07-6.74.73-6.74-.68Z"/>
            <path class="cls-6" d="m127.83,156.28c-.44,1.67-1.3,2.83-1.82,3.84-.85,1.64-2.25,2.92-3.95,3.67l-2.16.95-4.3,2.18c-1.8.91-3.7,1.59-5.67,2.03l-1.19.27c-2.08.46-4.24-.28-5.6-1.91l-1.24-1.49c-.42-.51-.66-1.15-.66-1.81v-7.21l17.5-5.45c2.27-.71,4.75-.23,6.59,1.28l2.26-.21c.65.53.46,3.09.24,3.9Z"/>
            <path class="cls-13" d="m123.18,154.6c-.35,1.31-1.02,2.22-1.43,3.01-.67,1.28-1.77,2.29-3.09,2.87l-1.7.74-3.37,1.71c-1.41.71-2.9,1.25-4.44,1.59l-.94.21c-1.63.36-3.32-.22-4.39-1.5l-.98-1.17c-.33-.4-.51-.9-.51-1.42v-5.65l13.72-4.28c1.78-.56,3.72-.18,5.17,1l1.41,1.15c.51.42.72,1.1.55,1.74Z"/>
          </g>
          <path class="cls-1" d="m101.65,169.24v6.68c0,.72.12,1.43.35,2.1l.11.33c.14.4.4.76.75,1.01l.19.13c.34.25.77.35,1.19.28l1.39-.22-.77-.51c-.57-.38-1.03-.92-1.32-1.55l-.19-.41c-.16-.35-.28-.72-.36-1.1l-1.35-6.74Z"/>
          <path class="cls-1" d="m131.64,170.27l-2.66.69c-.43.11-.85.26-1.25.46l-5.69,2.73c-.38.18-.77.34-1.17.49l-.48.17c-.42.15-.77.44-.99.82l-.15.27c-.09.15.05.34.22.3l1.95-.44c.76-.17,1.49-.41,2.21-.72l3.34-1.44,4.12-1.92,1.86-.83c.2-.09.17-.38-.04-.43l-.59-.15c-.22-.06-.46-.06-.68,0Z"/>
        </g>
        <path class="cls-4" d="m67.34,192.82l1.88,2.75s-3.76-1.83-4.28-2.14c-1.07-.64-1.33-.55-1.92-1.07-.45-.38-.51-.39-.51-.39l1.01-.66s.36.19,1,.41c1.95.65,2.57,1.07,2.82,1.1Z"/>
      </g>
      <g>
        <g>
          <path class="cls-6" d="m120.85,39c1.52-.14,3.03-.27,4.55-.41.16.07.31.14.47.21-1.67.14-3.34.28-5,.43v-.23Z"/>
          <path class="cls-6" d="m119.49,39.26c-.23-.07-.47-.14-.7-.22.69-.02,1.37-.03,2.06-.05,0,.08,0,.15.01.23-.46.01-.91.02-1.37.03Z"/>
          <path class="cls-6" d="m125.86,38.8c-.16-.07-.31-.14-.47-.21.54-.02,1.07-.03,1.61-.05.07.08.15.15.22.23-.46,0-.91.02-1.37.03Z"/>
          <path class="cls-6" d="m114.53,39.45c1.42-.13,2.84-.27,4.26-.4.23.07.47.14.7.22-1.52.14-3.03.28-4.55.42-.14-.08-.27-.16-.41-.23Z"/>
          <path class="cls-6" d="m113.11,39.72c-.08-.08-.17-.15-.25-.23.56-.01,1.12-.03,1.67-.04.14.08.27.16.41.23-.61.01-1.22.03-1.83.04Z"/>
          <path class="cls-6" d="m108.57,39.94c-.28-.02-.55-.04-.83-.06.64-.06,1.28-.12,1.92-.18-.36.08-.73.16-1.09.24Z"/>
          <g>
            <path class="cls-2" d="m67.57,107.94c-.14.01-.28.03-.42.04.02-.07.04-.15.06-.22l.36.18Z"/>
            <path class="cls-1" d="m156.52,41.24s.03,0,.02,0c2.57.67,5.53,1.2,8.01,1.93,1.32.38,1.04.4.64.43-11.3.91-23.55,1.72-34.84,2.63-5.82.4-11.65.8-17.47,1.2h.02c-5.68.37-11.35.75-17.03,1.14-.05,0-.09.13-.14.2.04.01.07.03.11.04-1.24.13-2.48.25-3.72.38-2.79.18-5.58.37-8.37.55-.17.04-.34.09-.51.13-3.47.25-6.05.44-9.53.69l-1.1,1.37c-2.65.28-5.07-.76-7.72-.47-.18,0-.89.47-1.07.47-1.35.1-2.18-.25-3.53-.15-.17.05-.34.09-.51.14-4.27.25-9.16,2.1-13.26,1.38-6.38-1.11-12.07-4.21-18.34-6.02-.54-.16-1.03-.48-1.55-.72.45-.02.91-.03,1.36-.05,3.4-.3,6.81-.59,10.21-.89,2.2-.16,4.4-.33,6.6-.49,1.29-.14,2.58-.28,3.87-.42.53-.01,1.07-.03,1.6-.04,1.44-.14,2.88-.28,4.32-.41.24,0,.47-.02.71-.03,1.66-.14,3.33-.29,4.99-.43,2.27-.17,4.54-.33,6.81-.5,1.37-.13,2.74-.26,4.11-.39.45-.02.91-.04,1.36-.05,1.36-.14,2.72-.28,4.08-.42.47,0,.93-.01,1.4-.02,3.33-.29,6.67-.58,10-.87.83-.09,1.67-.19,2.5-.28,3.94-.23,7.88-.46,11.83-.69,1.6-.13,3.19-.27,4.79-.4.46-.02.91-.04,1.37-.05,1.51-.14,3.03-.28,4.54-.41.61-.01,1.22-.03,1.83-.04,1.52-.14,3.03-.28,4.55-.42.46-.01.91-.02,1.37-.03,1.67-.14,3.34-.28,5-.43.46,0,.91-.02,1.37-.03,3.87-.32,7.73-.64,11.6-.95l1.13.07c5.52,1.12,11.03,2.24,16.55,3.35Z"/>
            <path class="cls-4" d="m133.99,150.26c-.07.04-.53.19-.6.24-.23-.06-.47-.11-.7-.17,2.73-1.95,5.56-11.08,4.96-11.39.03-.03.05-.05.07-.08.7-.78,1.26-1.67,1.72-2.62.9-1.84,1.81-3.69,2.64-5.56,1.76-3.94-1.67-12.75-5.26-13.66-.29-.14-.58-.27-.86-.41-3.07-1.07-6.14-2.14-9.22-3.21,0-.02,0-.05-.02-.05-.95-.12-1.27.48-2.22.35-1.17.22-2.68,1.15-3.84,1.37l-.37-.72c-.18-.35-.59-.51-.95-.36-.33.13-.65.26-.98.38-.05-.03-.11-.04-.17-.02-.03-3.09-.06-6.19-.08-9.28-.08-2.01-.67-3.71-2.75-4.49-.13-.1-.27-.2-.4-.31l-.36-.05c-3.03-.84-5.72-.5-8.75-1.35-1.12.06-2.5-1.07-3.62-1.01h-.02c-.61.04-1.22.08-1.84.11-2.25.31-4.51.63-6.76.94.2-.79.4-1.57.6-2.36l.13.1.1-.75c.5-8.73-3.42-15.53-9.07-15.73-.25-.14-.5-.28-.74-.41-.28-.09-.58-.15-.85-.27-7.79-3.4-16.91-1.27-20.28,4.73-.15.17.29.43.14.6l-.55.27c-.13.16-.14.11-.27.27l-.98,1.3-.2.2c-.35.26-.8.44-1.01.79-3.51,5.82-4.51,12.21-4.18,18.88-1.32.22-2.63.45-3.95.67-1.22.21-2.3.9-2.99,1.92l-.48.71c-1.08.18-3.04-1.61-3.97-1.11h-.97c-.67-.4-.61-.51-.92-.77s-.55-.61-.68-.99h0c-.08-.26-.13-.52-.13-.79-.04-11.84-.07-23.68-.11-35.52.11-4.12.21-8.24.32-12.35,0-.38.09-.76.24-1.11h0s0,0,0,0c.08-.15.15-.31.23-.46h0c.08-.15.16-.3.24-.46l-.02.02c.07-.08.14-.16.21-.24v-.03c.11-.14.21-.29.31-.43,2.05-3.02,5.26-2.86,8.35-3.02.23-.05.47-.09.7-.14,2.33-.18,7.33-.62,7.5-.66.76-.03,3.51-.25,3.98-.3l.61-.02,5.19-.45c.15-.01.3-.04.44-.08l.07-.02c.13-.04.27-.07.41-.08.61-.07,1.23-.15,1.84-.22h-.02c3.47-.24,10.92-.87,10.92-.87,2.79-.18,5.58-.37,8.37-.55,1.24-.13,2.48-.25,3.72-.38,5.69-.46,11.38-.93,17.06-1.39h-.02c5.82-.39,11.65-.79,17.47-1.2,10.87-.88,21.74-1.76,32.61-2.64.53-.03,1.05-.05,1.58-.08l.49-.11.23-.02c.46.04.91.08,1.37.12.31.03.61.08.9.17,1.05.32,2.44.91,3.16,1.23.31.14.59.33.83.57.11.11.22.22.33.33h0c.08.07.16.15.24.23l.22.22c.15.23.31.46.46.69,0,0,.82,1.9.87,2.87.22,4.2.31,8.41.44,12.62-.06,5.08-.41,8.92-.41,9.14,0,3.79-.01,7.58-.02,11.38-.15,9.19-.21,18.38-.48,27.57-.23,7.6.95,15.52-.79,22.81-.07.31-.18.62-.32.9-.07.16-.16.3-.22.37,0,0-.77,1.26-.91,1.37,0,0-.07.11-.16.24-.2.3-.43.57-.68.82l-.52.52c-11.04,5.46-23.16,7.82-34.63,12.05l-.21.26s-.37.22-.76.39Z"/>
            <path class="cls-13" d="m132.83,147.78c-.19.12-.39.24-.59.36l-.27-.41c2.63-1.86,3.88-4.44,3.3-4.74.03-.03,8.1-1.47,8.12-1.5.7-.78,3.82-.56,4.28-1.5.85-1.72,4.35.25,5.13-1.5,3.63-1.71,16.07-3.4,12.61-4.28-.28-.13-30.03-18.5-30.31-18.63-2.96-1.02-5.92-2.04-8.87-3.07,0-.02,0-.05-.02-.05-.92-.12-1.22.45-2.14.33-1.12.21-2.58,1.1-3.7,1.31l-.35-.69c-.23-.44-.85-.56-1.23-.12l-.63.15c-.05-.03-.11-.04-.17-.02-.03-2.95-.05-5.9-.08-8.86-.07-1.92-.64-3.54-2.64-4.28-.13-.1-.26-.19-.39-.29l-.35-.05c-2.92-.8-5.51-.48-8.43-1.28-1.08.06-2.41-1.02-3.49-.96h-.02c-.59.04-1.18.07-1.77.11-2.17.3-4.34.6-6.51.9.19-.75.39-1.5.58-2.25l.12.1.09-.72c.48-8.33-3.3-14.82-8.73-15-.24-.13-.48-.26-.72-.4-.27-.08-.56-.14-.82-.25-7.5-3.24-16.28-1.22-19.53,4.51-.14.16.28.41.14.58l-.53.26c-.13.15-.13.11-.26.26l-.94,1.24-.19.19c-.33.24-.77.42-.97.75-3.38,5.55-4.34,11.64-4.03,18.01-1.27.21-2.54.43-3.8.64-1.17.2-2.21.86-2.88,1.84l-.46.68c-.99.17-2.75-1.38-3.69-1.11l-.94.09c-.79-.15-1.14-.55-1.25-.83-.1-.23-.25-.4-.32-.63l-.1-.3c-.07-.22-.11-.45-.11-.67-.04-11.31-.07-22.62-.11-33.93.1-3.93.21-7.86.31-11.78,0-.36.09-.72.23-1.06h0s0,0,0,0c.07-.15.15-.29.22-.44h0c.08-.14.16-.29.24-.44l-.02.02c.07-.08.13-.15.2-.23v-.03c.11-.14.2-.27.3-.41,1.98-2.88,5.07-2.73,8.04-2.89.23-.05.45-.09.68-.14,2.24-.17,7.05-.59,7.22-.63.73-.03,3.38-.24,3.84-.29l.59-.02,4.99-.43c.14-.01.29-.04.43-.08l.06-.02c.13-.04.26-.06.39-.08.59-.07,1.18-.14,1.77-.21h-.02c3.34-.23,10.52-.83,10.52-.83,2.69-.18,5.37-.35,8.06-.53,1.19-.12,2.39-.24,3.58-.36,5.48-.44,10.95-.89,16.43-1.33h-.02c5.61-.37,11.21-.76,16.82-1.14,10.47-.84,20.93-1.68,31.4-2.51.51-.03,1.01-.05,1.52-.08,0,0,.15,0,.37,0,1.29,0,2.45,0,3.7.31.85.21.85.21,1.48.63.46.31.89.66,1.28,1.05l.21.21c.08.07.22.22.22.22.02.02.05.05.07.07.1.1.2.22.28.34l.08.11c.15.22.26.43.35.66.3.81.7,1.61.74,2.43.22,4.01.3,8.02.43,12.03-.06,4.84-.39,8.51-.39,8.72,0,3.62-.01,7.24-.02,10.85-.14,8.77-.2,17.54-.46,26.3-.22,7.37.83,14.79-.85,22.1,0,0-.49,1.62-.63,1.91,0,0-.43.86-.86,1.28,0,0-.43.21-.86.64l-1.07.64c-10.63,5.21-21.51,6.67-32.55,10.7-.07.08-.14.16-.2.24h0c-.37.15-.74.31-1.11.47Z"/>
            <path class="cls-4" d="m131.08,146.5c-.07.04-.13.08-.2.12-.22-.05-.44-.11-.66-.16,2.59-1.77,5.33-10.16,4.75-10.45.03-.03.06-.06.08-.08.69-.75,1.24-1.61,1.69-2.51.84-1.65,1.69-3.31,2.47-4.99,1.69-3.63-1.52-11.79-4.92-12.66-.27-.13-.55-.25-.82-.38-2.91-1.01-5.82-2.02-8.73-3.03,0-.02,0-.05-.02-.05-.9-.12-1.2.43-2.1.31-1.11.2-2.54,1.05-3.65,1.24l-.35-.67c-.19-.38-.7-.52-1.07-.25l-.84.23s-.05,0-.08,0c-.01-2.86-.03-5.71-.04-8.57-.06-1.86-.62-3.43-2.58-4.16-.13-.09-.25-.19-.38-.29l-.34-.05c-2.87-.79-5.41-.49-8.27-1.29-1.06.05-2.36-1-3.42-.95h-.02c-.58.04-1.16.07-1.73.1-2.13.28-4.26.56-6.38.84.19-.72.38-1.45.57-2.17l.12.09.09-.7c.49-8.06-3.19-14.35-8.51-14.55-.23-.13-.47-.26-.7-.39-.27-.08-.55-.14-.8-.25-7.33-3.16-15.9-1.23-19.07,4.29-.14.16.27.4.13.56l-.52.25c-.13.15-.13.1-.26.25l-.92,1.19-.18.18c-.32.23-.75.41-.95.72-3.3,5.34-3.39,14.79-3.09,20.92-1.23.2-3.62-.02-4.85.18-1.14.18-1.84-2.35-2.48-1.42l-.45.65c-.77.12-1.33-.18-1.93-.12s-1.2.03-1.78-.14c-.9-.28-1.14-.37-1.29-.61-.08-.12-.17-.22-.26-.33-.1-.11-.19-.22-.26-.32-.31-.41-.48-.91-.48-1.42-.05-3.62-.29-23.13-.32-33.1.1-3.79.2-7.58.3-11.38,0-.35.08-.7.22-1.03h0s0,0,0,0c.07-.14.14-.28.21-.43h0c.08-.14.15-.28.23-.42l-.02.02c.07-.07.13-.15.2-.22v-.02c.11-.13.2-.26.29-.39,1.92-2.79,4.93-2.64,7.82-2.78.22-.04.44-.09.66-.13,2.18-.16,6.88-.57,7.04-.61.71-.03,3.3-.23,3.74-.28h.57s4.88-.42,4.88-.42c.14-.01.28-.04.42-.08l.06-.02c.13-.04.25-.06.38-.08.58-.07,1.16-.13,1.73-.2h-.02c3.27-.22,10.3-.8,10.3-.8,2.63-.17,5.27-.34,7.9-.51,1.17-.12,2.35-.23,3.52-.35,5.38-.43,10.77-.86,16.17-1.29h-.02c5.53-.36,11.07-.73,16.61-1.11,10.36-.82,20.75-1.63,31.16-2.45.5-.02,1.01-.05,1.51-.07l.47-.1h.22c.58.04,1.15.09,1.73.13,1.31.49,2.62.99,3.93,1.48h0c.22.21.44.42.65.64h0c.07.07.15.14.22.22h0c.07.07.15.14.22.22,0,0,0,0,0,0,.15.21.29.43.44.64h0c.29.89.78,1.77.83,2.68.19,3.92.24,7.86.34,11.78-.1,4.74-.45,8.32-.45,8.52-.03,3.53-.06,7.07-.09,10.6-.21,8.55-.32,17.1-.65,25.63-.27,7.16.72,14.38-1,21.47,0,0-.11.72-.4,1.44-.2.52-.54.98-.97,1.33-.14.11-.3.24-.44.35-.27.23-.58.41-.92.53-.25.1-.5.2-.55.22-10.37,4.73-21.68,6.78-32.35,10.49-.07.08-.14.16-.2.23h0c-.37.14-.73.3-1.1.45Z"/>
            <path class="cls-6" d="m42.23,70.67h0c.04,11.86.07,23.71.11,35.57,0,.24.03.48.15.69.22.36,1.28,1.24,1.89,1.79v.11s-1.33.06-1.33.06h0c-.82-.23-1.67-.41-2.47-.69-6.69-2.35-20.08-7.1-20.09-7.1-.24-.06-.84-.51-1.36-.76-.12-.06-.23-.14-.32-.23l-.06-.06c-.07-.07-.13-.16-.17-.25-.09-.2-.19-.46-.19-.46-.03-14.93-.06-29.86-.1-44.79.02-.09,0-.59.05-.91.1-.7.16-1.27.43-1.92l.95-1.83h0c.04-.06.35-.45.5-.65h0c.15-.15.3-.31.45-.46.27-.24.84-.65.89-.69h0c1.69-.5,3.37-1,5.06-1.5h.03c.51.25,1,.56,1.53.72,6.26,1.8,12.44,4.08,18.83,5.19,4.1.71-1.22.11-3.27,3.14-.1.14-.2.28-.3.43v.03c-.06.06-.11.11-.16.17l-.23.37c-.09.21-.19.4-.29.6-.15.35-.22.73-.24,1.11-.11,4.12-.21,8.23-.32,12.35h0Z"/>
            <path class="cls-6" d="m156.52,41.24c-5.51-1.12-11.03-2.23-16.54-3.35-.68,0-1.37,0-2.05,0h0c-3.57.29-7.13.59-10.69.88-.07-.08-.15-.15-.22-.23,3.48-.29,6.96-.57,10.45-.86,1.02-.07,1.88-.07,2.77,0,5.4,1.13,10.79,2.25,16.19,3.38.03.06.06.12.1.17Z"/>
            <path class="cls-6" d="m77.88,42.19c3.24-.28,6.49-.57,9.73-.85.16.07.31.15.47.22-3.33.29-6.66.58-10,.87-.07-.08-.13-.16-.2-.24Z"/>
            <path class="cls-6" d="m34.58,45.65c.53-.02,1.07-.05,1.6-.07.43,0,.86.01,1.28.02.25.02.5.03.76.05-3.4.3-6.81.59-10.21.89,0-.08-.02-.17-.03-.25,1.82-.15,3.64-.31,5.46-.46.38-.05.75-.11,1.13-.16Z"/>
            <path class="cls-6" d="m170.11,44.66c-.43-.21-1.75-.68-2.6-.96-.29-.1-.6-.16-.9-.19-.37-.03-.74-.07-1.11-.1-.15,0-.36-.03-.51-.03-.15-.03-.25-.03-.4-.05-.02,0-.04,0-.06-.01-.41-.11-5.43-1.41-7.99-2.07.22,0,.45,0,.67.01,2.75.61,5.5,1.22,8.26,1.84.23.03.45.06.68.09,0,0,.59.13.89.2.23.05.46.09.68.14.12.03,1.11.3,2.4,1.15Z"/>
            <path class="cls-6" d="m90.61,41.08c1.66-.1,3.32-.2,4.99-.3.31-.05.62-.09.93-.14,1.74-.09,3.47-.19,5.21-.28.22.07.44.15.67.22-3.94.23-7.88.46-11.83.69h0c0-.06.02-.13.03-.19Z"/>
            <path class="cls-6" d="m62.61,43.36c1.3-.09,2.59-.18,3.89-.27.21.07.42.14.63.21-2.27.17-4.54.33-6.81.5-.3-.06-.6-.11-.91-.17.82-.06,1.65-.13,2.47-.19.24-.03.49-.06.73-.09Z"/>
            <path class="cls-6" d="m27.99,46.27c0,.08.02.17.03.25-.45.02-.91.03-1.36.05-1.69.5-3.38,1-5.07,1.51,1.81-1.78,4.13-1.7,6.41-1.81Z"/>
            <path class="cls-6" d="m38.23,45.64c-.25-.02-.5-.03-.76-.05.03-.07.06-.14.1-.2.6-.02,1.2-.05,1.8-.07.24-.04.48-.08.72-.12,1.44-.09,2.88-.19,4.31-.28.14.08.29.15.43.23-2.2.16-4.4.33-6.6.49Z"/>
            <path class="cls-6" d="m59.4,43.64c.3.06.6.11.91.17-1.66.14-3.33.29-4.99.43,0-.08,0-.16,0-.23,1.36-.12,2.73-.25,4.09-.37Z"/>
            <path class="cls-6" d="m102.41,40.59c-.22-.07-.44-.15-.67-.22,1.21-.08,2.42-.15,3.64-.23.61.02,1.21.03,1.82.05-1.6.13-3.19.27-4.79.4Z"/>
            <path class="cls-6" d="m49.87,44.46c1.29-.12,2.57-.25,3.86-.37.29.06.59.12.89.19-1.44.14-2.88.28-4.32.41-.14-.08-.28-.15-.42-.23Z"/>
            <path class="cls-6" d="m72.19,42.65c1.3-.11,2.59-.22,3.89-.33.2.04.4.09.61.13-1.36.14-2.72.28-4.08.42l-.41-.22Z"/>
            <path class="cls-6" d="m67.12,43.31c-.21-.07-.42-.14-.63-.21,1.43-.13,2.85-.26,4.28-.39.16.07.31.14.47.22-1.37.13-2.74.26-4.11.39Z"/>
            <path class="cls-6" d="m44.83,45.15c-.14-.08-.29-.15-.43-.23,1.35-.13,2.7-.27,4.05-.4.08.07.17.14.25.21-1.29.14-2.58.28-3.87.42Z"/>
            <path class="cls-6" d="m109.66,39.71c1.06-.07,2.13-.14,3.2-.22.08.08.17.15.25.23-1.51.14-3.03.27-4.54.41.01-.06.01-.13,0-.19.36-.08.73-.16,1.09-.24Z"/>
            <path class="cls-3" d="m18.31,54.48h0c0,.07-.01.13-.01.19.03,14.89.06,29.78.1,44.67-.21-1.02-.6-2.05-.6-3.08.03-13.94.23-42.47.32-42.78,0,0,0,0,0-.01.24-1.76,1.06-2.66,1.62-3.59-.31.77-.39.44-1.17,2.91-.13.42-.19,1.25-.25,1.69Z"/>
            <path class="cls-6" d="m108.57,39.94c.01.06,0,.13,0,.19-.46.02-.91.04-1.37.05-.61-.02-1.21-.03-1.82-.05.79-.08,1.58-.17,2.36-.25.27.02.55.04.83.06Z"/>
            <path class="cls-6" d="m88.08,41.56c-.16-.07-.31-.15-.47-.22.69-.04,1.38-.07,2.07-.11.3.02.6.04.91.05,0,0,0,0,0,0-.83.09-1.67.19-2.5.28Z"/>
            <path class="cls-6" d="m76.68,42.44c-.2-.04-.4-.09-.61-.13.6-.04,1.2-.09,1.81-.13.07.08.13.16.2.24-.47,0-.93.01-1.4.02Z"/>
            <path class="cls-6" d="m71.24,42.92c-.16-.07-.31-.14-.47-.22.47-.02.94-.04,1.42-.06.14.07.27.15.41.22-.45.02-.91.04-1.36.06Z"/>
            <path class="cls-6" d="m48.69,44.73c-.08-.07-.17-.14-.25-.21.47-.02.95-.04,1.42-.05.14.08.28.15.42.23-.53.01-1.07.03-1.6.04Z"/>
            <path class="cls-6" d="m54.61,44.27c-.3-.06-.59-.12-.88-.19.53-.03,1.06-.05,1.59-.08,0,.08,0,.16,0,.23-.24,0-.47.02-.71.03Z"/>
            <path class="cls-14" d="m21.55,48.03c-.29.25-.57.49-.86.74.29-.25.57-.49.86-.74Z"/>
            <path class="cls-6" d="m37.57,45.39c-.04.07-.07.13-.1.2-.43,0-.86-.01-1.28-.02.46-.06.92-.13,1.38-.19Z"/>
            <path class="cls-12" d="m34.58,45.65c-.38.05-.75.11-1.13.16.38-.05.75-.11,1.13-.16Z"/>
            <path class="cls-12" d="m96.53,40.64c-.31.05-.62.09-.93.14.31-.05.62-.09.93-.14Z"/>
            <path class="cls-6" d="m90.58,41.28c-.3-.02-.6-.04-.91-.05.31-.05.62-.09.93-.14,0,.06-.02.13-.03.19Z"/>
            <path class="cls-6" d="m157.21,41.25c-.22,0-.69-.01-.69-.01-.04-.05-.07-.11-.1-.17.26.06.53.12.79.18Z"/>
            <path class="cls-12" d="m172.77,46.96c-.15-.23-.31-.46-.46-.69.15.23.31.46.46.69Z"/>
            <path class="cls-14" d="m20.69,48.77c-.15.15-.3.31-.45.46.15-.15.3-.31.45-.46Z"/>
            <path class="cls-12" d="m62.61,43.36c-.24.03-.49.06-.73.09.24-.03.49-.06.73-.09Z"/>
            <path class="cls-12" d="m40.08,45.2c-.24.04-.48.08-.72.12.24-.04.48-.08.72-.12Z"/>
            <path class="cls-12" d="m172.09,46.05c-.08-.08-.16-.16-.24-.23.08.08.16.16.24.23Z"/>
            <path class="cls-13" d="m61.64,86.87s0,0,0,.01c-.53.8-.88,1.71-1.02,2.66-.1.67-.2,1.33-.3,2-.81,1.23-.39,2.46,0,3.69.38,1.27.76,2.53,1.14,3.8,3.23,5.78-.06,7.22-5.03,7.53-.33-6.68.67-13.06,4.18-18.88.21-.35.68-.54,1.03-.8Z"/>
            <path class="cls-1" d="m95.84,48.82s-.07-.03-.11-.04c.05-.07.09-.2.14-.2,5.68-.39,11.35-.77,17.03-1.15-5.69.46-11.38.93-17.06,1.39Z"/>
            <path class="cls-1" d="m64.9,51.46c2.65-.28,5.29-.57,7.94-.85-.68.08-1.37.16-2.05.24-.16.05-.32.1-.48.14-1.8.16-3.61.31-5.41.47Z"/>
            <path class="cls-1" d="m60.3,51.79c1.35-.1,2.7-.2,4.05-.31-.36.02-.72.04-1.08.06-.23.05-.47.1-.7.15-.76.03-1.51.07-2.27.1Z"/>
            <path class="cls-14" d="m45.67,108.66c-.43.05-.86.11-1.28.16,0,0-.01-.11-.01-.11"/>
            <path class="cls-16" d="m114.95,100.27c-.22,0-.43,0-.65.01.1-.02.19-.04.29-.06.12.02.24.03.36.05Z"/>
            <path class="cls-14" d="m43.46,56.04c.1-.14.2-.28.3-.43-.1.14-.2.29-.3.43Z"/>
            <path class="cls-14" d="m42.78,57.22c.08-.15.15-.31.23-.46-.08.15-.15.31-.23.46Z"/>
            <path class="cls-14" d="m42.56,57.74c.07-.18.15-.36.22-.53-.07.18-.15.36-.22.53Z"/>
            <path class="cls-14" d="m43.01,56.75c.08-.15.16-.31.24-.46-.08.15-.16.31-.24.46Z"/>
            <path class="cls-14" d="m43.24,56.31c.07-.08.14-.16.21-.24-.07.08-.14.16-.21.24Z"/>
            <path class="cls-7" d="m68.75,99.3c-.09-.22-.18-.44-.27-.65.01-.08.03-.16.04-.24.08.3.15.6.23.89Z"/>
            <path class="cls-7" d="m93.55,102.65c.15.1.31.2.46.3-.15-.1-.31-.2-.46-.3Z"/>
            <path class="cls-8" d="m28.85,106.91c-.23.06-.37.14-.48.11-.09-.02-.15-.18-.22-.28.14-.03.28-.09.41-.08.07,0,.14.12.29.26Z"/>
            <path class="cls-2" d="m44.42,113.44c-.09.08-.18.15-.27.23.09-.08.18-.15.27-.23Z"/>
            <path class="cls-13" d="m60.31,95.23c-.4-1.23-.81-2.46,0-3.69,0,1.23,0,2.46,0,3.69Z"/>
            <path class="cls-12" d="m60.77,88.5c.16-.34.31-.68.47-1.02-.16.34-.31.68-.47,1.02Z"/>
            <path class="cls-2" d="m122.57,119.13c-.11.08-.23.15-.34.23.11-.08.23-.15.34-.23Z"/>
            <path class="cls-7" d="m79.77,80.84c-.27.08-.41.13-.54.16-.02,0-.06-.15-.09-.23.1-.03.21-.09.31-.09.07,0,.14.07.32.16Z"/>
            <path class="cls-3" d="m37.26,107.08c-3.57-1.37-6.03-1.88-9.06-3.57-.42-.24-2.47-1.65-2.2-1.92.27-1.1,4.39.31,5.49.82,1.42.67,2.71,1.22,4.12,1.92,1.43.71,2.84,1.23,4.31,1.83.89.37.96.41,1.28.5.42.12.82.31,1.2.53.75.44.95.74,2.69.81,1.1,0,5.42-.14,5.62-.1-.24.13-5.36.83-5.62.93-2.45.87-5.63-.93-7.83-1.75Z"/>
            <path class="cls-4" d="m41.16,56.98c-.56.32-.68.24-1.13.36-.73.2-2.04-.39-3.28-.82-3.74-1.29-8.03-2.04-11.97-3.18-1.82-.53-4.76-2.41-2.56-3.77.77-.11,1.87.12,2.47.27,2.43.62,4.72,2.09,7.16,2.69,3.27.8,5.12,3.23,9,2.54.56-.1,3.28-1.65,3.88-1.65.55,0-1.37,1.1-1.65,1.37-.82.82-1.48,1.94-1.92,2.2Z"/>
            <path class="cls-1" d="m149.05,48.33l5.1-.58h0s4.45-.32,4.45-.32c1.41-.1,5.82.03,5.82.03.82,0,1.68.41,2.78,1.09,0,0,1.98,1.28,2.64,4.07.05.21.23,6.91.23,6.91.41,22.88-.92-.79-1.01-1.2l-.9-4.04c-.09-.43-.16-.63-.46-1.11-.14-.23-.3-.44-.46-.66l-.61-.79c-.37-.47-2.07-1.41-3.12-1.96-.56-.3-1.2-.53-1.89-.7l-.39-.1c-1.64-.4-3.36-.54-5.05-.41l-2.22.17c-.85.07-1.7.08-2.55.03l-2.33-.13c-3.42.09-.33-.27-.03-.31Z"/>
            <polygon class="cls-7" points="68.47 98.05 68.6 98.71 68.48 98.65 68.2 97.15 68.47 98.05"/>
            <path class="cls-4" d="m76.89,75.49l61.94,21.66,15.94,22.1-12.17,16.53s-13.14,5.08-13.7,4.84-40.64-15.06-40.64-15.06l-25.72-16.5,4.63-20.42,9.73-13.15Z"/>
            <polygon class="cls-1" points="166.43 132.28 166.43 132.28 166.43 132.28 166.43 132.28"/>
            <polygon class="cls-1" points="158.73 133.88 158.72 133.89 158.72 133.89 158.73 133.88"/>
            <polygon class="cls-13" points="132.13 146.9 132.14 146.9 132.13 146.9 132.13 146.9"/>
            <path class="cls-4" d="m133.99,149.83c11.47-4.23,24.56-6.8,35.59-12.26-5.95,4.41-13.34,5.12-20.01,7.65-4.64,1.76-9.45,3.07-14.18,4.58-2.9,1.1-1.26.09-1.4.03Z"/>
            <path class="cls-13" d="m151.31,138.84s-.06.03-.1.04l.05-.02.04-.02Z"/>
            <path class="cls-1" d="m166.63,134.23c-.14.11-.3.24-.44.35-.27.23-.58.41-.92.53-.25.1-.5.2-.55.22-9.64,4.4-20.09,6.48-30.08,9.73-.58.85-1.07,2.4-.7,2.24.07-.08.13-.16.2-.24,11.04-4.03,21.92-5.49,32.55-10.7l.86-.43c.51-.2,1.07-.86,1.07-.86.43-.43.86-1.28.86-1.28.05-.11.15-.39.26-.71-.77.31-1.59.24-2.25.08-.2.41-.5.77-.86,1.06Z"/>
            <path class="cls-1" d="m49.23,61.65c-.07.17-.14.36-.2.52-.13.33-.26,1.57-.27,1.63-1.24,10.53-.03,21.11-.07,31.62-.17,2.37.47,3.14-.7,2.85-.33-.08-.57-.37-.58-.71-.26-10.8-1.92-23.8-.23-35.32l.24-1.12c.07-.47.39-1.1.39-1.1.28-.54.96-1.21.96-1.21.09-.08.33-.27.6-.46.55-.29.86-.45,1.11-.36.23.09.31.38.18.59-.44.73-1.29,2.7-1.44,3.07Z"/>
            <path class="cls-6" d="m132.68,150.33c-4.84,1.58-9.68,3.17-14.52,4.75,0-3.1,0-6.2,0-9.3.15.93.3,1.86.47,2.79.17.98,1.25,1.51,2.13,1.04,3.54-1.87,6.76-4.2,9.66-7,1.58-.67,4.89-2.16,6.01-2.7.23-.11.43-.25.62-.42.2-.19.4-.37.6-.56.6.31-2.23,9.44-4.96,11.39Z"/>
            <path class="cls-13" d="m135.28,146.66l-.65,1.46c-.29.51-.67,1.06-1.06,1.5l-.43.43c-.41.34-.71.37-1.22.54l-5.9,1.94-7.85,2.55v-4.21s17.11-4.21,17.11-4.21Z"/>
            <path class="cls-4" d="m118.18,155.39c0-.1-.01-.21-.02-.31,4.84-1.58,9.68-3.17,14.52-4.75.23.06.47.11.7.17-5.07,1.63-10.14,3.26-15.2,4.9Z"/>
            <path class="cls-4" d="m123.38,148.11c-.95.59-1.92,1.14-2.91,1.66-.58.3-1.26.08-1.59-.42l-.71.2v1.35s17.12-4.24,17.12-4.24l.47-1.01.45-1.08-12.82,3.54Z"/>
            <path class="cls-13" d="m130.42,142.61l-4.16-.03c-.58,0-1.13-.22-1.61-.53-.05-.03-.09-.05-.14-.07-4.2-2.28-7.21-2.15-6.34,3.8.17,1.03.34,2.06.52,3.09.03.18.1.34.19.48l4.5-1.24c2.53-1.57,4.88-3.4,7.04-5.49Z"/>
          </g>
        </g>
        <path class="cls-6" d="m120.47,149.77c1-.52,1.97-1.07,2.91-1.66l-4.5,1.24c.34.5,1.01.72,1.59.42Z"/>
      </g>
      <g>
        <g>
          <path class="cls-10" d="m118.36,114.38c.83,2.02-1.93,5.37,2.28,6.13-.89,1.01-1.41.24-2.11-.24,0,0-.27-.27-.27-.27-.08-.16-.04-.04-.11-.19,0,0,0,.01,0,.01-.02-1.67-.03-3.33-.05-5,.01-.15.02-.3.03-.45h.06c.06-.02.12,0,.17.02Z"/>
          <g>
            <path class="cls-2" d="m69.75,106.41c-.63.49-1.27.98-1.9,1.48-.01,0-.02.01-.04,0-1.1-.34-2.21-.69-3.31-1.03-.03-.01-.04-.06,0-.08,1.67-.98,3.47-.53,5.24-.45.04,0,.05.05.02.07Z"/>
            <g>
              <path class="cls-8" d="m23.26,107.08c.55-3.02,1.37-3.57,2.75-3.29,6.32,1.78,7.9,5.34,14.73,5.51.77.02,1.54-.26,2.31-.4.45-.02.9-.04,1.34-.06.43-.05.86-.11,1.28-.16,1.23-.25,2.46-.5,3.69-.74.41,0,.82-.01,1.23-.02,4.58-.65,9.12-1.85,13.81-1.06,1.14.35,2.28.71,3.42,1.06-.09.01-.17.03-.26.04l-.36-.18c-.02.07-.04.15-.06.22-2.66.45-5.38.71-7.98,1.39-4.93,1.29-10.59,0-14.76,4.07-.09.08-.18.15-.27.23,0,0,0,0,0,0-.33.08-.73.32-.99.22-6.29-2.53-8.44-2.82-14.7-5.43-2.75,1.65-5.77,1.1-5.22-1.37Z"/>
              <path class="cls-10" d="m56.43,106.55c4.97-.31,8.25-1.74,5.03-7.53,1.79-1.59,3.44-.11,5,.42,1.19.41,1.63.21,2.02-.8.09.22.18.44.27.65.48,1.07.97,2.14,1.45,3.21.06.38.12.76.18,1.14,0,.37,0,.74,0,1.12-.18.52-.36,1.05-.54,1.57-1.83-.06-3.7-.57-5.43.49-4.69-.79-9.23.41-13.81,1.06-.4.03-1.25.15-1.25.03,1.95-.33,5.13-1.05,7.08-1.38Z"/>
              <path class="cls-10" d="m27.38,103.51c6.69,2.37,6.5,2.33,13.2,4.69.81.28,1.65.46,2.47.69-.77.14-1.54.42-2.31.4-6.77.26-7.04-2.63-13.36-4.41-1.39-.39-1.65-.55-2.47-.27s-1.37,1.37-1.37,1.37c0-.82.55-1.92,1.37-2.47.32-.22,1.65-.27,2.47,0Z"/>
              <path class="cls-8" d="m61.42,87.31c.82-1.37,1.92-3.02,1.92-3.02,3.29-6.04,12.62-8.18,20.41-4.78.27.12.57.18.85.27-6.61-.04-11.97,2.15-15.08,8.4-.11.15-.31.48-.31.48-2.86.07-4.32-3.58-7.81-1.35Z"/>
              <path class="cls-2" d="m61.98,86.53c2.98-1.24,4.61,2.2,7.25,2.13-.9,3.14-1.85,6.28-.74,9.58,0,.06,0,.11.02.17-.01.08-.03.16-.04.24-.39,1.01-.84,1.21-2.02.8-1.56-.53-3.21-2.01-5-.42-.39-1.29-.77-2.57-1.16-3.86l-.17-2.42c.2-1.32.4-2.65.6-3.97l.48-1.25.52-.79c.06-.09.15-.17.25-.21Z"/>
              <path class="cls-8" d="m125.4,113.19q.81-.07,1.63.2c3.07,1.07,5.85,2.16,8.92,3.23-4.94-1.7-9.31-.39-13.39,2.51l-.34.23h0c-.46-.31-1.04-.52-1.34-.94-.95-1.33.27-3.35-1.39-4.5.18-.02,4.25-.58,5.9-.73Z"/>
              <path class="cls-2" d="m93.55,102.65c-1.24-1.26-.55-2.44.05-3.72,2.25-.31,4.51-.63,6.76-.94,1.28.53,2.36,1.12.76,2.52.29.3.59.87.86.85,2.04-.1,4.08-.31,6.12-.48-4.7.69-9.4,1.38-14.1,2.07,0,0,0,0,0,0-.15-.1-.31-.2-.46-.3Z"/>
              <path class="cls-8" d="m108.1,100.88c-2.04.18-4.08.39-6.12.48-.27.01-.57-.55-.86-.85,1.6-1.4.52-1.99-.76-2.52.61-.04,1.22-.07,1.84-.11,1.24.01,2.48.02,3.72.04.12,0,.24,0,.36,0,2.77.77,5.54,1.54,8.31,2.31-.1.02-.19.04-.28.06-2.07.2-4.14.39-6.21.59Z"/>
              <path class="cls-2" d="m122.23,119.36c-.37.3-.74.61-1.12.91-.16.08-.32.16-.49.23,0,0,0,0,0,0-4.22-.75-1.45-4.11-2.28-6.13.38-.15.76-.3,1.15-.45,1.66,1.14.43,3.17,1.39,4.5.3.42.89.63,1.34.94Z"/>
              <g>
                <path class="cls-10" d="m38.64,180.93c.18.07.63-.04.82,0,1.8.34,3.37,1.07,5.17,1.41-3.36.37-6.38-.58-9.18-2.39,0,0,.06-.07.06-.07,1.05.43,2.08.62,3.13,1.04Z"/>
                <path class="cls-10" d="m27,175.57c-2.38-1.24,0,0-2.37-1.23-.27-.27-.32-.48-.27-.55,2.35,1.29.34.44,2.69,1.73l-.05.05Z"/>
                <path class="cls-10" d="m35.45,179.95c-1.21-.61-2.42-1.22-3.63-1.83,0,0,.05-.06.05-.06,1.21.61,2.43,1.21,3.64,1.82l-.06.07Z"/>
                <path class="cls-10" d="m30.9,177.67c-1.21-.61-2.58-1.35-3.8-1.95,0,0,.27-.27.27-.27,1.21.61,2.36,1.56,3.57,2.17l-.05.06Z"/>
                <path class="cls-10" d="m31.81,178.12c-.3-.15-.61-.3-.91-.45,0,0,.05-.06.05-.06.3.15.61.3.91.46l-.05.06Z"/>
                <path class="cls-10" d="m42.56,180.12c0,.15,0,.3,0,.45,0-.22-.01-.44-.02-.66,0,0,.04-.03.04-.03,0,.08,0,.16-.01.23Z"/>
              </g>
              <g>
                <g>
                  <path class="cls-10" d="m42.52,179.97c-1.41-1.51-.27-6.72.24-8.38,0,1.65-.23,6.72-.24,8.38Z"/>
                  <path class="cls-8" d="m42.56,180.12c2.55,3.65,5.21.83,7.83.13,1.49-.4,2.96-.85,4.45-1.27-.03.03-.06.07-.1.1.04-.03.08-.05.12-.08,4.59-1.62,9.13-3.4,13.79-4.81,4.83-1.47,9.77-2.58,14.66-3.85-12.89,4-25.78,8-38.67,12-1.89-.35-3.79-.71-5.68-1.06,1.17-.41,2.65.83,3.61-.7,0-.15,0-.3,0-.45Z"/>
                  <g>
                    <path class="cls-7" d="m122.57,119.13c4.07-2.9,8.45-4.21,13.39-2.51.29.14.58.27.86.41-3.91-.1-7.78-.14-11.42,1.82-1.89,1.02-3.13,3.59-5.84,2.75-.49-.15-1.04-1.06-1.31-1.61.71.48,1.5,1.53,2.39.52h0c.16-.08,1.23-.84,1.6-1.14,0,0,0,0,0,0,.11-.08.23-.15.34-.23Z"/>
                    <path class="cls-7" d="m68.49,98.24c-1.12-3.3-.17-6.44.74-9.58,0,0,.19-.33.31-.48,3.1-6.25,8.47-8.44,15.08-8.4.25.14.5.28.74.41-.91.15-1.82.29-2.72.46-1.03.2-2.07.38-3.07.67-4.79,1.39-7.64,4.75-9.74,9.12-1.23,2.55-1.75,5.04-1.33,7.79Zm11.28-17.4c-.18-.1-.25-.17-.32-.16-.1,0-.21.06-.31.09.03.08.07.23.09.23.14-.02.27-.07.54-.16Z"/>
                    <path class="cls-7" d="m108.1,100.88c2.07-.2,4.14-.39,6.21-.59.22,0,.43,0,.65-.01.13.1.27.2.4.31-6.54.87-13.08,1.75-19.62,2.59-.56.07-1.15-.15-1.73-.23,4.7-.69,9.4-1.38,14.1-2.07Z"/>
                    <path class="cls-7" d="m70.35,103.51c-.05-.33-.1-.67-.16-1,1.31.53.36,3.41.36,3.41-3.34,5.78-9.46,3.95-14.26,4.56-10.31,1.3-11.92,2.42-11.92,12.66,0,4.43.3,8.89.31,13.31l-.55.27c-.22-.59-.39-1.49-.38-2.08.1-6.99.27-13.99.42-20.98h0c.09-.07.18-.15.27-.22,4.16-4.07,9.82-2.77,14.76-4.07,2.6-.68,5.31-.94,7.98-1.39,0,0,0,0,0,0l1.16-.47c.32-.25.65-.5.97-.76.35-.27.61-.63.75-1.05.05-.14.09-.27.14-.41l.16-1.79Z"/>
                    <path class="cls-7" d="m42.57,156.7c.19-1.58.57-2.84,1.84-3.5.08-.09.66-.37.66-.37,1.4-.38,2.71-.34,4.01.45,6.36,3.88,12.35,1.8,15.3-5.27,1.56-3.56,1.26-7.12,0-10.68,2.55,5.23,2.06,10.37-1.41,14.81-3.07,3.92-7.07,6.23-12.2,2.99-1.37-.87-2.69-2.37-4.59-1.27-2.45,1.41-2.81,3.9-2.92,6.37-.29,6.55-.47,13.11-.69,19.66,0,0-.04.03-.04.03,0-.16,0-.33-.01-.49,0-1.65,0-3.31,0-4.96,0-.62,0-1.25,0-1.87,0-2.49,0-4.97,0-7.46,0-2.37,0-4.74-.01-7.11.02-.44.03-.88.05-1.32Z"/>
                  </g>
                  <path class="cls-7" d="m47.32,137.06c-.3.11-.6.21-.89.32-.23,0-.47,0-.7,0-.14-.02-.28-.05-.41-.07,0-.07-.02-.13-.04-.2h0c.68-.02,1.36-.04,2.03-.05Z"/>
                  <path class="cls-7" d="m64.16,136.9c-.14-.24-.29-.47-.43-.71.14.24.29.47.43.71Z"/>
                  <path class="cls-7" d="m44.61,136.65c.23.15.46.3.68.45,0,0,0,0,0,0-.23-.15-.45-.3-.68-.46h0Z"/>
                  <path class="cls-7" d="m63.73,136.18c-.09-.15-.17-.29-.26-.44.09.15.17.29.26.44Z"/>
                  <path class="cls-7" d="m63.26,135.52c-.08-.08-.15-.17-.23-.25.08.08.15.17.23.25Z"/>
                  <path class="cls-7" d="m64.4,137.35c-.08-.16-.16-.31-.24-.47.08.16.16.31.24.47Z"/>
                  <path class="cls-7" d="m63.49,135.76c-.08-.08-.15-.16-.23-.25.08.08.15.16.23.25Z"/>
                  <path class="cls-7" d="m44.38,136.42c.08.08.15.15.23.23,0,0,0,0,0,0-.08-.08-.15-.15-.23-.23h0Z"/>
                  <path class="cls-2" d="m45.73,137.37c.23,0,.47,0,.7,0-.23,0-.47,0-.7,0Z"/>
                  <path class="cls-10" d="m42.52,158.02c-.06-.22-.13-.44-.19-.65.08-.22.16-.44.24-.66-.02.44-.03.88-.05,1.32Z"/>
                  <path class="cls-10" d="m42.53,172.59c0-2.49,0-4.97,0-7.46,0,2.49,0,4.97,0,7.46Z"/>
                  <path class="cls-2" d="m44.68,136.45l.27.27s.39.42.39.42c.07.05.03.16-.05.16-3.8-.32-6.86-2.48-10.2-3.99-5.82-2.64-3.1-.86-8.81-3.72-1.1-.55-.75-.96-1.65-2.75-.55-1.1-1.37-16.75-.27-18.67.58-1.01,2.83-.86,3.57-.55,6.26,2.61,8.95,3.73,15.24,6.26.26.1.65-.14.99-.22-.15,6.99-.31,13.99-.42,20.98,0,.44.23.89.44,1.33.1.21.34.29.49.48Z"/>
                </g>
                <g>
                  <path class="cls-10" d="m23.5,146.04s.04.04.04.06c0,.82-.27,1.91-.27,3.81.27,3.29,0,3.84,0,6.86.22,3.23-.27,8.79-.16,12.89.05,1.6.57,3.05,1.26,4.22l.27.46q-.82-.55-1.37-1.37c-.82-1.37-.53-2.64-.55-3.84-.1-6.46.27-8.51,0-15.1,0,0,0-2.99,0-4.66,0-.79.09-1.58.27-2.35.23-.97.32-1.06.51-.98Z"/>
                  <g>
                    <path class="cls-8" d="m25.73,146.06c3.29.55.82.27,4.29,1.39,1.71.55,3.48.87,5.22,1.3,1.3,2.06,3.6,2.21,5.6,2.9,1.38.47,2.82.79,4.23,1.17h0c-.14.16-.28.33-.43.5-.65,1.12-1.66,2.89-2.31,4.01v.02c-.34.17-.88.56-.98.48-2.72-2.47-6.36-2.92-9.53-4.41-5.02-2.36-3.49-1.55-8.57-3.79.08-.33-.27-1.92,0-3.02,0-.27,0-.55.55-1.1.43-.43,1.92.55,1.92.55Z"/>
                    <path class="cls-2" d="m64.38,148.01c-2.95,7.08-8.94,9.16-15.3,5.27-1.31-.8-2.62-.84-4.01-.45-1.41-.38-2.85-.7-4.23-1.17-2-.69-4.3-.84-5.6-2.9,4.83-.03,9.68-.27,14.29,1.68,2.16.92,2.22-.92,3.07-2.2,2.8-4.23,6.73-7.04,11.86-7.82.06,0,.58,1.81.55,2.76-.06,1.62-.4,3.22-.63,4.83Z"/>
                    <path class="cls-2" d="m42.53,179.92c0,.22.01.44.02.66-.78,1.26-1.93.64-2.96.61l-2.82-.67c-1.64-.82-3.27-1.64-4.91-2.45-.3-.15-.61-.3-.91-.46-1.21-.61-2.43-1.21-3.64-1.82-.91-.45-.82-.5-1.58-.9-.9-.47-1.92-1.1-2.2-2.2-.84-3.37-.27-6.31-.27-15.37-.03-3.61.03-4.33,0-7.69,5.08,2.24,3.54,1.43,8.57,3.79,3.16,1.49,6.81,1.94,9.53,4.41.1.09.64-.31.97-.48l.19.12c0,2.55,0,5.1.01,7.65,0,2.49,0,4.97,0,7.46l-.32,3.09c-.27,1.25-.29,2.5.31,3.75,0,.16,0,.33.01.49Z"/>
                    <path class="cls-11" d="m65.01,143.18c.04-.95-.49-2.77-.55-2.76-5.13.78-9.05,3.59-11.86,7.82-.85,1.28-.91,3.12-3.07,2.2-4.61-1.96-9.36-1.66-14.19-1.63-1.74-.43-1.85-.32-3.57-.82-4.67-1.37-4.12-1.37-7.96-2.47,2.26-2.03,3.29-1.92,6.04-1.65,5.77.55,7.24-3.22,6.51-9.14-.04-.32-.57-.67-.94-.84-9.84-4.36-8.31-3.2-10.51-4.85-1.1-1.1-1.81-2.45-1.92-6.04-.11-3.43-.61-11.37.27-14.82,0,0,1.1,0,.82,1.1-.27,3.84-.27,7.16,0,10.71.27,3.57-.27,6.04,1.92,9.33l.14.14c4.71,2.02,3.48,1.38,8.94,3.85,3.34,1.52,6.42,3.68,10.23,3.99.14.02.28.04.41.07.23,0,.47,0,.7,0,.3-.11.6-.21.89-.32,4.83-4.2,9.8-7.11,15.71-1.79.07.08.15.16.22.24.07.08.14.15.21.23h0c.09.15.17.3.25.44h0c.14.24.28.47.42.7v.02c.09.15.16.3.24.45v-.02c1.24,3.56,1.54,7.12-.02,10.68.22-1.61.56-3.22.63-4.83Z"/>
                    <path class="cls-16" d="m142.75,128.98c0,.51-.02,1.04-.06,1.56,0,.1-.02.19-.04.29-1.37,5.9-2.94,6.21-4.36,7.54l-1.11,1.03c-.07.06-.14.12-.22.18-.82.54-5.56,3.61-7.95,3.69-.1,0-.19,0-.29-.02l-5.17-.75c-.06,0-.11-.02-.17-.03-2.95-.69-6.01-2.39-5.24,3.18.01.08.02.16.02.24,0,3.06,0,6.12,0,9.18v.15c.01.11,0,.21,0,.32-.08.67-.93,4.21-.93,4.21-.01.07-.04.13-.09.18-.07.07-.19.18-.29.28-.05.05-.12.09-.2.12-.72.23-8.56,2.79-9.32,3.07-.04.02-.08.03-.13.04-1.18.34-16.23,4.7-23.9,6.92v-.04c-4.89,1.27-9.83,2.38-14.66,3.85-4.65,1.41-9.19,3.19-13.79,4.81l-.02-.02c-1.48.43-2.96.87-4.44,1.27-2.62.7-5.28,3.52-7.83-.13,0-.08,0-.16.01-.24.22-6.55.39-13.11.69-19.66.11-2.47.47-4.96,2.92-6.37,1.9-1.1,3.22.4,4.59,1.27,5.13,3.25,9.13.93,12.2-2.99,3.48-4.44,3.96-9.58,1.41-14.81v.02c-.07-.15-.15-.3-.22-.45v-.02c-.15-.23-.29-.46-.43-.69h0c-.09-.15-.17-.3-.25-.44h0c-.07-.08-.14-.16-.21-.23l-.15-.17s-.09-.1-.14-.14c-2.26-2.01-4.37-2.82-6.4-2.82-3.2,0-6.16,2.02-9.07,4.53-.64.55-1.56.61-2.26.14-.26-.17-.47-.41-.62-.68-.15-.27-.23-.58-.23-.89,0-4.12,0-8.23,0-12.34,0-10.25,1.61-11.36,11.92-12.66,3.81-.48,10.55-3.05,13.17-4.11.56-.22.98-.7,1.13-1.28.22-.81.4-1.73-.43-2.63-.5-.54-1.02-1.6-1.2-2.31l-.45-1.74c-.02-.05-.03-.11-.02-.17-.42-2.74.09-5.23,1.32-7.79,2.11-4.37,4.96-7.73,9.75-9.12,1.48-.43,3.04-.62,4.52-.99.22-.05.44-.09.67-.11l.48-.03c.08,0,.16,0,.24,0,5.52.28,9.57,6.81,9.17,15.35,0,.18,0,.82-.82,3.29-.25,1.02-1.33,2.35-.5,3.54.12.17.28.3.45.41.08.05.16.1.24.16h0c.58.07,1.17.29,1.73.22,6.38-.82,12.75-1.68,19.12-2.53.37-.05.75.02,1.08.2.71.38,1.21.9,1.54,1.52.42.77.58,1.7.62,2.7.03,3.09.12,6.05.15,9.15l.11,5.46c0,.34.11.66.3.94.27.41.54.86.9.97,2.71.85,3.95-1.72,5.84-2.75,3.57-1.92,7.35-1.92,11.19-1.82.15,0,.31.02.45.07,3.19,1,5.71,5.92,5.71,11.89Z"/>
                  </g>
                </g>
              </g>
            </g>
          </g>
        </g>
        <polygon class="cls-8" points="53.96 107.47 46.2 110.4 54.28 109.47 53.96 107.47"/>
      </g>
    </g>
  </g>
</svg>