<?xml version="1.0" encoding="UTF-8"?>
<svg id="_Слой_1" data-name="Слой 1" xmlns="http://www.w3.org/2000/svg" viewBox="0 0 1080 243">
  <defs>
    <style>
      .cls-1 {
        fill: #a5d6f2;
      }

      .cls-1, .cls-2, .cls-3, .cls-4, .cls-5, .cls-6, .cls-7, .cls-8, .cls-9, .cls-10, .cls-11, .cls-12, .cls-13, .cls-14, .cls-15, .cls-16 {
        stroke-width: 0px;
      }

      .cls-2 {
        fill: #bb1736;
      }

      .cls-3 {
        fill: #275c8e;
      }

      .cls-4 {
        fill: #74afd7;
      }

      .cls-5 {
        fill: #fff;
      }

      .cls-6 {
        fill: #1e79ab;
      }

      .cls-7 {
        fill: #f2ced6;
      }

      .cls-8 {
        fill: #e85f79;
      }

      .cls-9 {
        fill: #17648f;
      }

      .cls-10 {
        fill: #ab233d;
      }

      .cls-11 {
        fill: #871c31;
      }

      .cls-12 {
        fill: #2381c4;
      }

      .cls-13 {
        fill: #196b98;
      }

      .cls-14 {
        fill: #194f8d;
      }

      .cls-15 {
        fill: #2295d3;
      }

      .cls-16 {
        fill: #e72f51;
      }
    </style>
  </defs>
  <rect class="cls-5" width="1080" height="243"/>
  <g>
    <g>
      <path class="cls-10" d="m97.28,178.66s.05.03.08.05c-.03-.02-.05-.03-.08-.05,0,0,0,0,0,0Z"/>
      <path class="cls-16" d="m83.62,177.18l-.13.09s.07-.07.11-.11c0,0,.02.02.02.02Z"/>
      <g>
        <g>
          <g>
            <path class="cls-9" d="m128.46,170.61c.26.19.52.38.78.56-6.7-2.9-12.17,1.69-18.18,2.99h0c-6.74,2.15-13.59,4.02-20.17,6.58-4.08,1.59-8.82,1.65-12.21,4.87-.7.67-.93,1.83-1.38,2.77.07,4.79.14,9.59.2,14.38-.15.24-.77-9.7-.41-14.88.28-4.12,4.21-4.48,7.2-5.47,13.22-4.38,26.45-8.73,39.74-12.88,1.24-.39,2.93.68,4.42,1.07Z"/>
            <path class="cls-6" d="m138.75,164.08c0,4.05,0,8.1,0,12.15,0,.27-.02.54-.1.8-.59,2.08-3.14,3.22-5.35,2.24-2.87-1.13-5.69-2.3-8.49-3.42-2.88-1.15-3.52-2.01-3.53-4.74-.02-4.4-.84-7.22,4.28-8.09.09-.02.19-.04.28-.06,2.29-.59,4.59-1.19,6.93-1.77,2.45-.61,3.71-.37,5.1,1.15.39.43.69.94.84,1.48.02.09.04.17.04.25Z"/>
            <path class="cls-9" d="m107.27,194.91c.14,3.33.27,6.66.41,9.99-3.76-3.43-7.51-6.86-11.26-10.28,3.62.1,7.24.2,10.85.29Z"/>
            <path class="cls-6" d="m205.25,178.72l-46.84,19.93c.06-.09.06-.09.05-.14-3.95,1.7-8.24,4.25-12.33,5.48-3.73,1.12-7.16,3.19-11.14,3.69-1.29.16-2.7,1.77-4.06,2.74,0,.06,0,.12.02.18,8.91-3.72,26.69-11.12,26.69-11.12.43-.07,9.78-4.08,10.19-4.23l5.98-2.17,14.09-5.69,8.6-3.13c.86-.31,1.7-.67,2.52-1.06l3.57-1.73c.39-.19.76-.42,1.11-.68l1.01-.76c.37-.28.63-.69.73-1.14.03-.12-.09-.21-.2-.17Zm-69.32,29.42s-.04-.08-.06-.12c.09-.01.09-.02.14.06-.03.02-.05.03-.08.05Z"/>
            <path class="cls-6" d="m129.96,210.95c-5.14,2.14-10.29,4.27-15.43,6.41,0,0,.02-.12.02-.12,5.06-2.16,10.12-4.31,15.18-6.47.08.06.16.12.24.18Z"/>
            <path class="cls-10" d="m87.2,210.95c2.15,1.17,4.3,2.35,6.45,3.52-2.15-1.17-4.3-2.35-6.45-3.52Z"/>
            <path class="cls-6" d="m108.85,219.55s-.03-.08-.03-.08c1.41-.64,2.82-1.29,4.23-1.93.07.11.15.22.22.33-1.47.56-2.94,1.13-4.42,1.69Z"/>
            <path class="cls-10" d="m83.41,208.77c1.27.73,2.53,1.45,3.8,2.18-1.27-.73-2.53-1.45-3.8-2.18Z"/>
            <path class="cls-10" d="m78.15,205.49c1.02.68,2.05,1.35,3.07,2.03-1.02-.68-2.05-1.35-3.07-2.03Z"/>
            <path class="cls-10" d="m81.2,207.52c.74.43,1.48.85,2.23,1.28-.74-.43-1.48-.85-2.23-1.28Z"/>
            <path class="cls-6" d="m113.27,217.86c-.07-.11-.15-.22-.22-.33.25-.08.51-.17.76-.25,0,.12,0,.24-.01.36-.18.07-.35.15-.53.22Z"/>
            <path class="cls-6" d="m129.96,210.95c-.08-.06-.16-.12-.24-.18.41-.12.82-.23,1.22-.35,0,.06,0,.12.02.18-.34.12-.67.23-1.01.35Z"/>
            <path class="cls-6" d="m113.8,217.64c0-.12,0-.24.01-.36.25-.01.49-.03.74-.04,0,0-.02.12-.02.12-.24.09-.49.19-.73.28Z"/>
            <path class="cls-9" d="m103.15,218.86c.3-.31.61-.62.91-.93.96,2.43,2.93,1.78,4.76,1.54l.03.08c-3.74,1.59-6.77-.17-9.76-2.09,1.33.49,2.66.99,3.98,1.48.28.18.55.35.84.52,0,0,.11-.16.16-.25-.31-.12-.61-.23-.92-.35Z"/>
            <path class="cls-9" d="m93.63,214.46c2.44-.12,3.63,2.03,5.48,3.01-1.83-1-3.65-2-5.48-3.01Z"/>
            <path class="cls-4" d="m204.46,179.77c-.13.07-.26.09-.3.11,0,0-45.34,18.67-46.14,19.12-3.95,1.7-7.79,3.77-11.88,5-3.73,1.12-6.92,3.19-11.13,3.89-1.28.21-2.71,1.58-4.07,2.54-.41.11-.81.23-1.22.34-5.06,2.16-10.12,4.31-15.18,6.47-.14,0-.27.02-.41.03-.31.07-.79.2-1.09.27-1.41.64-2.82,1.29-4.23,1.93-1.83.24-3.79.88-4.76-1.54-.09-.24.06-.2.09-.29.07-4.12.34-8.25.16-12.36-.21-4.74,1.47-7.7,6.25-9.02,4.25-1.17,8.41-2.72,12.49-4.39,9.28-3.79,19.09-6.22,27.97-11.1,1.43-.79,1.27-.62,1.63-1.96l-28.58,8.88-9.54-15.05,56.9-17.62c4.29-1.27,6.53-1.51,9.81-.28l3.23,1.21,10.78,4,3.84,1.39c1.29.47,2.51,1.11,3.62,1.91l.95.68c.38.27.68.64.87,1.07.43.97.66,2.01.65,3.07v2.17s.12,2.17.12,2.17v1.8c.13,1.61,1.5,4.2-.83,5.57Z"/>
            <path class="cls-4" d="m157.01,178.13s.02.03.02.03c-13.49,4.91-27.04,9.67-40.43,14.82-3.23,1.24-6.94,1.61-9.94,3.46-1.68,1.04-3.78,1.01-5.43-.08-1.54-1.02-3.61-1.44-4.96-2.71l.13-.09c.25-.08.5-.17.75-.25h0c6.58-2.31,13.1-4.79,19.74-6.9,8.84-2.82,17.39-6.6,26.64-8.05.43-.07,4.85-1.69,6.96-2.49.68-.26,1.4-.35,2.12-.28,2.04.21,4.66,1.36,4.4,2.55Z"/>
            <path class="cls-1" d="m203.79,165.5h-.3c-.19,0-.38-.03-.56-.1-1.31-.5-1.86-.49-1.91-.49l-2.22.2c-.67.06-1.33.21-1.96.44l-6.54,2.35-9.09,3.03-10,3.29-8.19,2.66-5.66,1.71c-.34.1-.6.35-.87.58-1.57,1.32-3.88.71-5.48,1.59-8.88,4.88-18.68,7.32-27.97,11.11-4.09,1.67-8.25,3.21-12.49,4.39-4.78,1.32-6.46,4.28-6.25,9.02.18,4.11.13,11.94-.16,12.36-.41.75-.18.05-.18-.5,0-.18-.09-.35-.09-.53-.02-5.19-.04-10.38-.05-15.57-.01-.5-.03-1.01-.04-1.51,0-.28.08-.57.26-.79,3.18-3.99,8.28-4.11,12.54-5.74,13.4-5.15,26.95-9.91,40.43-14.82l9.88-3.16,16.8-6.2,14.27-4.46.25-.07,2.19-.49c.05-.01.1-.03.15-.03.25.01.57.04.83.16.69.34,2.64,1.33,2.39,1.58Z"/>
            <path class="cls-8" d="m77.52,202.76c-.07-4.79-.14-9.59-.2-14.38.07,4.79.14,9.59.2,14.38Z"/>
            <path class="cls-4" d="m94.09,190.98c-.26.18-.82,1.54-.9,1.5-.81-.44-1.81-1.19-2.6-1.66-.18-.11-.96-.5-.85-.68.04-.06.75-.37.75-.36.97.5,2.5.6,3.6,1.2Z"/>
            <path class="cls-4" d="m96.27,193.88c-.62-.28-1.86-.28-2.47-.56.05-.09,1.19-1.5,1.2-1.5.82.28,4.58-.29,5.4,0,0,0,.54.32-2.7,1.5-.25.09-.96.57-1.21.66l-.21-.1Z"/>
            <path class="cls-6" d="m136,208.08s-.05.04-.08.05c-.02-.04-.04-.08-.06-.12.09-.01.09-.02.14.06Z"/>
            <path class="cls-9" d="m103.15,218.86l.92.35c-.06.09-.16.25-.16.25-.28-.16-.56-.34-.84-.52,0,0,.08-.08.08-.08Z"/>
            <rect class="cls-9" x="103.01" y="218.6" width=".6" height=".6"/>
            <path class="cls-6" d="m78.09,205.46c-.89-.59-.58-2.7-.58-2.7l-.2-14.38c.45-.94.68-2.1,1.38-2.77,3.39-3.22,8.13-3.28,12.21-4.87,6.58-2.56,13.43-4.42,20.17-6.58.03.02.05.03.08.05-.03-.02-.05-.03-.08-.05,6.01-1.3,11.47-5.89,18.18-2.99,5.29,2.17,14.54,5.76,14.29,7.17-.05,1.29-17.81,5.23-26.64,8.05-5.8,1.85-11.28,4.87-17.26,6.03-1.49.29-2.52-.29-3.63-.39-.53-.05-.98.03-1.29.41h0c-.15.19-.03.36.16.5.15.12.23.18.47.23.6.14,1.2.53,1.7.89,2.19,1.57,5.34,1.93,6.35,5.02l.21.57c.13.36.24.97.24,1.35-.05,5.25.14,15.51.09,15.98-.06.52.05,1.04-.32,1.41-.07.07-.15.18-.25.3-.18.24-.5.32-.78.2-.81-.35-2.51-1.06-3.5-1.43,0,0,.02,0,.02,0-1.84-.97-3.03-3.13-5.48-3.01,0,0,.02,0,.02,0-2.15-1.17-4.3-2.35-6.45-3.52h0c-1.27-.72-2.53-1.45-3.8-2.17v.02c-.73-.43-1.47-.85-2.21-1.28,0,0,.02,0,.02,0-1.04-.69-2.08-1.37-3.13-2.06Zm15.61-14.15c-.07-.84-2.15-1.17-3.03-1.17-.47,0-.08.42,0,.47.77.45,1.37.77,2.15,1.2.15.08.34.1.51.06s.31-.2.37-.56Z"/>
            <path class="cls-13" d="m129.16,180.49c.54.21-20.98.6-32.67,3-.39.08-6.89,2.1-8.69,2.1-.43,0-4.85-.36-4.8-.9.09-1,11.67-5.71,12.55-5.99,3.42-1.11,6.85-2.2,10.28-3.3,3.4-1.09,6.81-2.17,10.22-3.26,1.55-.49,3.1-.99,4.66-1.49.4-.13.81.15.79.54-.01.43-.03.87-.05,1.3-.09,1.85.29,2.41,2.11,3.07,1.77.64,3.54,1.31,5.33,1.95.31.11.61.16.9.17.06,0,.12,0,.18,0,.05,0,.11,0,.16-.02.01,0,.03,0,.04,0,.04,0,.09-.01.13-.02.02,0,.03,0,.05,0,.04,0,.08-.02.12-.03.02,0,.04-.01.06-.02.04-.01.09-.03.13-.04.06-.02.11-.04.16-.07.05-.02.11-.05.16-.08.05-.02.09-.05.14-.08,0,0,.01,0,.02-.01.05-.03.1-.06.15-.1.15-.11.29-.23.42-.37,0,0,0,0,.01-.01.08-.09.16-.19.24-.29.04-.05.08-.11.12-.17.04-.06.07-.12.11-.18h0c.07-.23.13-.45.2-.68.1-2.78.19-5.54.29-8.26,0-.06.36-.65.59-.68.39-.06.73.21.72.57-.07,2.23-.13,4.49-.19,6.76-.06,2.31,1.78,3.61,4.19,2.88,1.15-.35-2.77,1.03-.42,1.94l-8.39,1.8Z"/>
            <path class="cls-6" d="m153.66,161.69c-.53,1.52-1.17,3.18-1.81,4.97-.45,1.24-1.12,2.14-2.09,2.6-1.61.77-3.51.22-4.55,2.18-.19.36.7,2.77.7,2.77.39.74,1.16.99,2.1.62,4.43-1.73,9.73-3.8,16.2-6.33,4.2-1.64,8.95-3.53,14.39-5.68,1.86-.73,2.73-1.78,2.06-3.12-.59-1.18-1.99-1.6-3.77-1.58-.44,0-.86-.01-1.28,0-7.66.13-7.27-.96-12.01-.72-.74.04-5.72,2.15-6.43,2.46-.83.37-2.1,0-2.85.41-.27.14-.49.43-.51.66,0,0,0,0,0,0-.03.24-.06.48-.15.74Z"/>
            <path class="cls-13" d="m153.81,161.38c-.29,1.32-.66,2.76-1.02,4.32-.25,1.08-.72,1.86-1.48,2.27-1.28.69-2.95.25-3.64,1.98-.13.32.89,2.39.89,2.39.41.62,1.08.81,1.83.46,3.47-1.61,7.48-3.48,12.15-5.65,2.92-1.36,6.12-2.87,9.67-4.54,1.18-.55,1.69-1.36,1.19-2.42-.44-.94-1.39-1.3-2.58-1.33-.29,0-.58-.03-.87-.04-5.38-.09-5.17-.98-8.68-.92-.56.01-4.26,1.69-4.8,1.95-.63.3-1.69-.04-2.26.3-.2.12-.36.37-.36.57,0,0,0,0,0,0,0,.21,0,.42-.05.65Z"/>
            <path class="cls-4" d="m133.36,177.35v-15.26c0-.8,1.15-1.67,2.95-2.25,2.52-.81,5.02-1.62,7.49-2.41,2.9-.93,5.26-5.49,8.15-6.32,5.92-1.71,11.28-5.14,11.39-2.1.12,3.34-.13,14.83-.03,18.21-.04.53-.16,1-.33,1.44-.64,1.57-2.24,2.62-5.59,3.78-.08.03-.15.05-.22.08-3.07,1.05-6.2,2.1-9.37,3.18-2.33.79-4.68,1.58-7.06,2.39-3.47,1.17-7.36.79-7.36-.74Z"/>
            <path class="cls-6" d="m163.3,152.38c-.48,1.82-1.42,3.09-1.99,4.19-.93,1.79-2.46,3.19-4.31,4l-2.36,1.03-4.7,2.37c-1.96.99-4.04,1.73-6.19,2.21l-1.3.29c-2.27.5-4.63-.3-6.12-2.09l-1.36-1.63c-.46-.55-.72-1.25-.72-1.98v-7.87l19.11-5.96c2.48-.77,5.18-.25,7.19,1.39l2.47-.23c.71.58.5,3.37.27,4.26Z"/>
            <path class="cls-13" d="m158.22,150.54c-.38,1.43-1.11,2.42-1.56,3.29-.73,1.4-1.93,2.5-3.38,3.14l-1.85.81-3.68,1.86c-1.54.78-3.17,1.36-4.85,1.73l-1.02.23c-1.78.39-3.63-.24-4.79-1.64l-1.06-1.28c-.36-.43-.56-.98-.56-1.55v-6.17l14.98-4.67c1.94-.61,4.06-.2,5.64,1.09l1.54,1.26c.56.46.79,1.2.6,1.9Z"/>
          </g>
          <path class="cls-1" d="m134.71,166.53v7.29c0,.78.13,1.56.38,2.3l.12.36c.15.44.44.83.82,1.1l.2.15c.37.27.84.38,1.3.31l1.51-.24-.84-.56c-.63-.42-1.12-1-1.44-1.69l-.2-.45c-.17-.39-.3-.79-.39-1.21l-1.47-7.36Z"/>
          <path class="cls-1" d="m167.46,167.65l-2.91.75c-.47.12-.92.29-1.36.5l-6.21,2.98c-.42.2-.84.38-1.28.53l-.52.18c-.46.16-.84.48-1.08.9l-.17.29c-.1.17.05.37.24.33l2.13-.48c.83-.19,1.63-.45,2.41-.78l3.64-1.57,4.5-2.1,2.04-.9c.22-.1.19-.41-.04-.47l-.64-.16c-.24-.06-.5-.06-.74,0Z"/>
        </g>
        <path class="cls-4" d="m97.25,192.28l2.05,3s-4.1-1.99-4.67-2.33c-1.17-.7-1.45-.6-2.1-1.17-.49-.42-.56-.42-.56-.43l1.1-.72s.39.21,1.09.44c2.13.71,2.8,1.17,3.08,1.2Z"/>
      </g>
      <g>
        <g>
          <path class="cls-6" d="m155.67,24.33c1.65-.15,3.31-.29,4.96-.44.17.08.34.15.51.23-1.82.16-3.64.31-5.46.47v-.25Z"/>
          <path class="cls-6" d="m154.19,24.62c-.26-.08-.51-.16-.77-.24.75-.02,1.5-.04,2.25-.06,0,.08,0,.17.01.25-.5.01-1,.02-1.49.04Z"/>
          <path class="cls-6" d="m161.15,24.11c-.17-.08-.34-.15-.51-.23.59-.02,1.17-.04,1.76-.05.08.08.16.17.24.25-.5.01-.99.02-1.49.03Z"/>
          <path class="cls-6" d="m148.77,24.82c1.55-.14,3.1-.29,4.65-.43.26.08.51.16.77.24-1.66.15-3.31.3-4.97.45-.15-.08-.3-.17-.45-.25Z"/>
          <path class="cls-6" d="m147.22,25.11c-.09-.08-.18-.17-.28-.25.61-.02,1.22-.03,1.83-.05.15.08.3.17.45.25-.67.01-1.34.03-2,.04Z"/>
          <path class="cls-6" d="m142.27,25.36c-.3-.02-.6-.04-.9-.06.7-.06,1.4-.13,2.09-.19-.4.09-.79.17-1.19.26Z"/>
          <g>
            <path class="cls-2" d="m97.51,99.6c-.15.02-.3.03-.45.05.02-.08.04-.16.06-.24l.39.2Z"/>
            <path class="cls-1" d="m194.62,26.77s.03,0,.03,0c2.81.73,6.04,1.31,8.75,2.1,1.44.42,1.13.43.7.47-12.33,1-25.71,1.88-38.04,2.88-6.36.44-12.72.88-19.07,1.32h.02c-6.2.41-12.4.82-18.59,1.25-.05,0-.1.14-.15.22.04.01.08.03.12.04-1.35.14-2.71.27-4.06.41-3.05.2-6.09.4-9.14.6-.18.05-.37.09-.55.14-3.79.27-6.61.48-10.4.75l-1.2,1.5c-2.89.31-5.54-.82-8.43-.51-.2,0-.97.51-1.16.51-1.48.11-2.38-.28-3.85-.16-.19.05-.37.1-.56.15-4.66.27-10,2.29-14.48,1.51-6.97-1.21-13.18-4.6-20.02-6.57-.59-.17-1.13-.52-1.69-.79.5-.02.99-.03,1.49-.05,3.72-.32,7.43-.65,11.15-.97,2.4-.18,4.81-.36,7.21-.54,1.41-.15,2.81-.31,4.22-.46.58-.01,1.16-.03,1.74-.04,1.57-.15,3.14-.3,4.72-.45.26-.01.52-.02.78-.03,1.82-.16,3.63-.31,5.45-.47,2.48-.18,4.96-.36,7.44-.55,1.5-.14,2.99-.29,4.49-.43.5-.02.99-.04,1.49-.06,1.49-.15,2.97-.31,4.46-.46.51,0,1.02-.01,1.53-.02,3.64-.32,7.28-.63,10.92-.95.91-.1,1.82-.2,2.73-.31,4.3-.25,8.61-.5,12.91-.75,1.74-.15,3.49-.29,5.23-.44.5-.02,1-.04,1.5-.06,1.65-.15,3.31-.3,4.96-.45.67-.01,1.34-.03,2-.04,1.66-.15,3.31-.3,4.97-.45.5-.01,1-.02,1.49-.04,1.82-.16,3.64-.31,5.46-.47.5-.01.99-.02,1.49-.03,4.22-.35,8.44-.69,12.67-1.04l1.24.07c6.02,1.22,12.05,2.44,18.07,3.66Z"/>
            <path class="cls-4" d="m170.02,145.8c-.08.05-.58.21-.66.26-.26-.06-.51-.12-.77-.18,2.98-2.13,6.07-12.1,5.41-12.44.03-.03.06-.06.08-.08.77-.85,1.38-1.83,1.88-2.86.98-2.01,1.97-4.02,2.88-6.07,1.92-4.3-1.82-13.92-5.74-14.91-.31-.15-.63-.3-.94-.44-3.35-1.17-6.71-2.34-10.06-3.51,0-.02-.01-.06-.02-.06-1.04-.13-1.38.52-2.42.38-1.27.24-2.92,1.26-4.2,1.5l-.4-.79c-.19-.38-.64-.55-1.04-.4-.36.14-.71.28-1.07.42-.06-.03-.12-.04-.19-.03-.03-3.38-.06-6.76-.09-10.13-.08-2.2-.73-4.05-3-4.9-.15-.11-.29-.22-.44-.33l-.4-.05c-3.31-.92-6.25-.55-9.56-1.47-1.22.07-2.73-1.17-3.95-1.1h-.02c-.67.05-1.34.09-2.01.12-2.46.34-4.92.69-7.38,1.03.22-.86.44-1.71.66-2.57l.14.11.1-.82c.54-9.53-3.74-16.96-9.9-17.17-.27-.15-.54-.3-.81-.45-.31-.1-.63-.16-.93-.29-8.51-3.71-18.47-1.39-22.14,5.16-.16.18.32.47.16.66l-.6.3c-.15.18-.15.12-.3.3l-1.07,1.42-.21.22c-.38.28-.88.49-1.1.86-3.84,6.35-4.92,13.33-4.57,20.61-1.44.25-2.88.49-4.31.74-1.33.23-2.51.99-3.26,2.1l-.53.77c-1.17.2-3.32-1.75-4.34-1.21h-1.05c-.73-.44-.66-.56-1.01-.84s-.6-.66-.74-1.08h0c-.09-.28-.14-.57-.14-.87-.04-12.93-.08-25.86-.12-38.78.12-4.5.23-8.99.35-13.49.01-.42.1-.83.26-1.21h0s0,.01,0,.01c.08-.17.17-.34.25-.51h0c.09-.17.18-.33.27-.5l-.02.02c.08-.09.15-.18.23-.27l.02-.03c.11-.16.22-.31.32-.47,2.24-3.3,5.74-3.12,9.12-3.3.26-.05.51-.1.77-.15,2.54-.19,8-.68,8.18-.73.83-.04,3.84-.27,4.35-.33l.66-.02,5.66-.49c.16-.01.32-.04.48-.09l.07-.02c.15-.04.29-.07.45-.09.67-.08,1.34-.16,2.01-.24h-.02c3.79-.26,11.93-.95,11.93-.95,3.05-.2,6.09-.4,9.14-.6,1.35-.14,2.71-.27,4.06-.41,6.21-.51,12.42-1.01,18.63-1.52h-.02c6.36-.43,12.72-.87,19.07-1.31,11.87-.96,23.73-1.92,35.6-2.88.57-.03,1.15-.06,1.72-.09l.54-.12.25-.02c.5.04,1,.09,1.5.13.34.03.67.09.99.19,1.14.35,2.66,1,3.45,1.34.34.15.65.36.91.62.12.12.24.24.36.36h0c.09.08.17.17.26.25l.24.24c.17.25.34.5.51.75,0,0,.9,2.07.96,3.13.24,4.59.34,9.18.49,13.77-.07,5.54-.44,9.73-.44,9.98,0,4.14-.01,8.28-.02,12.42-.16,10.03-.22,20.07-.52,30.1-.25,8.3,1.03,16.95-.86,24.91-.08.34-.2.67-.35.99-.08.17-.17.33-.24.4,0,0-.85,1.37-.99,1.49,0,0-.08.12-.18.26-.22.32-.47.62-.74.9l-.56.56c-12.05,5.96-25.28,8.54-37.81,13.15l-.23.28s-.4.24-.82.42Z"/>
            <path class="cls-13" d="m168.76,143.1c-.21.13-.43.26-.64.39l-.29-.44c2.87-2.03,4.23-4.85,3.6-5.18.03-.03,8.84-1.6,8.87-1.63.76-.85,4.17-.61,4.67-1.63.92-1.88,4.74.27,5.6-1.63,3.97-1.87,17.54-3.72,13.77-4.67-.3-.14-32.79-20.2-33.09-20.34-3.23-1.12-6.46-2.23-9.69-3.35,0-.02,0-.05-.02-.05-1-.13-1.33.5-2.33.36-1.23.23-2.81,1.2-4.04,1.43l-.39-.75c-.25-.48-.92-.61-1.34-.14l-.69.16c-.06-.03-.12-.04-.18-.02-.03-3.22-.06-6.45-.09-9.67-.08-2.09-.7-3.86-2.89-4.68-.14-.11-.28-.21-.42-.32l-.38-.05c-3.19-.88-6.01-.52-9.2-1.4-1.18.06-2.63-1.11-3.81-1.05h-.02c-.64.04-1.29.08-1.93.12-2.37.33-4.74.65-7.11.98.21-.82.42-1.64.63-2.45l.13.1.1-.79c.52-9.09-3.6-16.18-9.53-16.38-.26-.14-.52-.29-.78-.43-.3-.09-.61-.16-.9-.28-8.19-3.54-17.78-1.33-21.32,4.92-.15.18.31.45.15.63l-.58.29c-.14.17-.15.12-.29.29l-1.03,1.35-.21.21c-.36.27-.84.46-1.06.82-3.69,6.06-4.74,12.71-4.4,19.67-1.38.23-2.77.47-4.15.7-1.28.22-2.41.94-3.14,2l-.51.74c-1.08.18-3-1.5-4.03-1.21l-1.03.1c-.86-.16-1.24-.6-1.37-.91-.1-.25-.27-.43-.35-.69l-.11-.33c-.08-.24-.12-.49-.12-.74-.04-12.35-.08-24.7-.12-37.04.11-4.29.22-8.58.34-12.87.01-.4.09-.79.25-1.16h0s0,0,0,0c.08-.16.16-.32.24-.48h0c.09-.16.17-.32.26-.48l-.02.02c.07-.08.15-.17.22-.25l.02-.03c.1-.15.21-.3.31-.45,2.16-3.15,5.53-2.98,8.78-3.15.25-.05.49-.1.74-.15,2.45-.18,7.7-.64,7.88-.69.8-.04,3.69-.26,4.19-.32l.64-.02,5.45-.46c.16-.01.31-.04.46-.09l.07-.02c.14-.04.28-.07.43-.09.64-.08,1.29-.15,1.93-.23h-.02c3.65-.25,11.49-.9,11.49-.9,2.93-.19,5.87-.38,8.8-.58,1.3-.13,2.61-.26,3.91-.39,5.98-.48,11.96-.97,17.94-1.45h-.02c6.12-.41,12.24-.83,18.37-1.25,11.43-.92,22.85-1.83,34.28-2.75.55-.03,1.11-.05,1.66-.08,0,0,.16,0,.41,0,1.4,0,2.67,0,4.04.34.92.23.93.23,1.61.69.5.34.97.72,1.4,1.14l.23.23c.08.08.24.24.24.24.03.03.05.05.08.08.11.11.22.24.31.37l.08.12c.16.24.29.47.38.72.32.88.76,1.76.81,2.66.24,4.38.32,8.76.47,13.14-.07,5.29-.43,9.29-.43,9.52,0,3.95-.01,7.9-.02,11.85-.16,9.57-.22,19.15-.5,28.72-.24,8.05.91,16.15-.92,24.13,0,0-.53,1.77-.69,2.09,0,0-.47.93-.93,1.4,0,0-.47.23-.93.7l-1.17.7c-11.6,5.69-23.48,7.28-35.54,11.68-.07.09-.15.18-.22.27h.01c-.41.17-.81.34-1.22.52Z"/>
            <path class="cls-4" d="m166.84,141.7c-.07.04-.15.09-.22.13-.24-.06-.48-.12-.72-.18,2.83-1.93,5.81-11.09,5.19-11.41.03-.03.06-.06.09-.09.75-.81,1.35-1.75,1.85-2.74.92-1.81,1.85-3.61,2.7-5.45,1.84-3.96-1.66-12.87-5.37-13.82-.3-.14-.6-.28-.89-.42-3.18-1.1-6.35-2.2-9.53-3.31,0-.02,0-.05-.02-.05-.98-.13-1.31.47-2.3.34-1.21.22-2.77,1.14-3.98,1.36l-.38-.73c-.21-.41-.76-.56-1.17-.27l-.92.25s-.06,0-.09,0c-.02-3.12-.03-6.24-.05-9.36-.07-2.03-.67-3.74-2.82-4.54-.14-.1-.28-.21-.42-.31l-.37-.05c-3.13-.87-5.91-.54-9.03-1.4-1.16.06-2.57-1.09-3.73-1.03h-.02c-.63.04-1.26.07-1.89.11-2.32.3-4.65.61-6.97.91.21-.79.42-1.58.63-2.37l.13.1.1-.76c.54-8.8-3.48-15.67-9.29-15.89-.25-.14-.51-.28-.76-.42-.29-.09-.6-.15-.88-.27-8-3.45-17.36-1.34-20.82,4.69-.15.17.3.44.15.61l-.56.27c-.14.16-.14.11-.28.27l-1,1.3-.2.2c-.35.26-.82.44-1.03.79-3.6,5.83-3.7,16.15-3.37,22.84-1.35.22-3.95-.02-5.29.2-1.24.2-2-2.57-2.71-1.55l-.49.71c-.84.13-1.45-.2-2.1-.13s-1.31.04-1.94-.16c-.98-.3-1.24-.4-1.41-.66-.08-.13-.19-.24-.29-.36-.11-.12-.2-.24-.29-.35-.34-.45-.52-.99-.53-1.55-.05-3.95-.31-25.25-.35-36.14.11-4.14.22-8.28.33-12.42.01-.39.09-.77.24-1.12h0s0,0,0,0c.08-.16.15-.31.23-.47h0c.08-.15.17-.31.25-.46l-.02.02c.07-.08.14-.16.21-.25v-.03c.12-.14.22-.29.32-.43,2.1-3.04,5.38-2.88,8.54-3.04.24-.05.48-.09.72-.14,2.39-.18,7.51-.62,7.68-.66.78-.03,3.61-.25,4.09-.3l.63-.02,5.33-.45c.15-.01.31-.04.45-.08l.07-.02c.14-.04.28-.07.42-.08.63-.07,1.26-.15,1.89-.22h-.02c3.57-.24,11.24-.87,11.24-.87,2.88-.18,5.75-.37,8.63-.56,1.28-.13,2.56-.25,3.84-.38,5.88-.47,11.76-.93,17.65-1.4h-.02c6.04-.4,12.08-.8,18.14-1.21,11.32-.89,22.66-1.78,34.02-2.68.55-.03,1.1-.05,1.65-.08l.52-.11.24-.02c.63.05,1.26.11,1.89.16,1.43.54,2.86,1.08,4.29,1.62h0c.24.23.48.46.72.69h0c.08.08.16.16.25.24h0c.08.07.16.15.24.24,0,0,0,0,0,0,.16.23.32.47.48.7h0c.31.97.86,1.94.9,2.93.2,4.29.26,8.58.37,12.86-.1,5.17-.49,9.08-.5,9.3-.04,3.86-.07,7.72-.1,11.57-.23,9.34-.35,18.67-.71,27.98-.3,7.82.79,15.7-1.09,23.44,0,0-.13.78-.43,1.57-.22.57-.59,1.07-1.06,1.45-.16.13-.32.26-.48.39-.3.25-.64.44-1,.58-.27.11-.55.21-.6.24-11.33,5.17-23.67,7.4-35.32,11.45-.07.08-.15.17-.22.25h.01c-.4.16-.8.32-1.2.49Z"/>
            <path class="cls-6" d="m69.84,58.91h0c.04,12.95.08,25.89.12,38.83,0,.26.03.53.17.75.24.4,1.4,1.35,2.06,1.95v.12s-1.45.07-1.45.07h0c-.9-.25-1.82-.45-2.7-.76-7.31-2.57-21.93-7.76-21.94-7.76-.27-.06-.92-.55-1.48-.83-.13-.06-.25-.15-.35-.25l-.07-.07c-.08-.08-.14-.17-.18-.27-.09-.22-.21-.5-.21-.5-.03-16.3-.07-32.6-.11-48.9.02-.1,0-.64.06-.99.11-.76.18-1.39.47-2.1l1.04-2h0c.04-.06.38-.49.54-.71h0c.16-.17.33-.33.49-.5.3-.26.91-.71.97-.76h0c1.84-.55,3.68-1.1,5.52-1.64h.03c.56.27,1.09.61,1.67.78,6.84,1.97,13.58,4.46,20.55,5.66,4.48.77-1.33.12-3.57,3.42-.11.16-.21.31-.32.47v.03c-.07.06-.12.12-.17.18l-.25.4c-.1.22-.21.44-.31.65-.16.39-.25.8-.26,1.21-.12,4.49-.23,8.99-.35,13.48h0Z"/>
            <path class="cls-6" d="m194.62,26.77c-6.02-1.22-12.04-2.44-18.06-3.66-.75,0-1.49,0-2.24,0h0c-3.89.32-7.78.64-11.68.96-.08-.08-.16-.17-.24-.25,3.8-.31,7.6-.63,11.41-.94,1.12-.08,2.05-.08,3.03,0,5.89,1.23,11.78,2.46,17.67,3.69.03.07.07.13.11.19Z"/>
            <path class="cls-6" d="m108.76,27.81c3.54-.31,7.08-.62,10.63-.93.17.08.34.16.51.24-3.64.32-7.28.63-10.92.95-.07-.09-.15-.17-.22-.26Z"/>
            <path class="cls-6" d="m61.49,31.59c.58-.03,1.17-.05,1.75-.08.47,0,.93.01,1.4.02.28.02.55.04.83.05-3.72.32-7.43.65-11.15.97,0-.09-.02-.18-.03-.28,1.99-.17,3.98-.34,5.97-.51.41-.06.82-.12,1.23-.18Z"/>
            <path class="cls-6" d="m209.46,30.51c-.47-.23-1.91-.75-2.84-1.05-.32-.11-.65-.17-.99-.2-.4-.04-.81-.07-1.21-.11-.17,0-.39-.03-.56-.03-.16-.03-.27-.03-.44-.06-.02,0-.04,0-.06-.01-.45-.12-5.92-1.54-8.72-2.26.24,0,.49,0,.73.01,3.01.67,6.01,1.34,9.02,2,.25.03.49.06.74.09,0,0,.65.14.97.22.25.05.5.1.74.15.14.03,1.22.33,2.62,1.26Z"/>
            <path class="cls-6" d="m122.66,26.6c1.82-.11,3.63-.22,5.45-.33.34-.05.68-.1,1.02-.15,1.9-.1,3.79-.2,5.69-.31.24.08.48.16.73.24-4.3.25-8.61.5-12.91.75h0c0-.07.02-.14.03-.21Z"/>
            <path class="cls-6" d="m92.09,29.09c1.41-.1,2.83-.19,4.24-.29.23.08.46.16.68.23-2.48.18-4.96.36-7.44.55-.33-.06-.66-.12-.99-.19.9-.07,1.8-.14,2.7-.21.27-.03.53-.06.8-.1Z"/>
            <path class="cls-6" d="m54.29,32.27c0,.09.02.18.03.28-.5.02-.99.03-1.49.05-1.85.55-3.69,1.1-5.54,1.64,1.97-1.94,4.51-1.85,7-1.97Z"/>
            <path class="cls-6" d="m65.46,31.58c-.28-.02-.55-.04-.83-.05.03-.08.07-.15.11-.22.65-.03,1.31-.05,1.96-.08.26-.04.52-.09.78-.13,1.57-.1,3.14-.2,4.71-.3.16.08.31.17.47.25-2.4.18-4.81.36-7.21.54Z"/>
            <path class="cls-6" d="m88.59,29.4c.33.06.66.12.99.19-1.82.16-3.63.31-5.45.47,0-.08,0-.17,0-.25,1.49-.13,2.98-.27,4.47-.4Z"/>
            <path class="cls-6" d="m135.54,26.06c-.24-.08-.48-.16-.73-.24,1.32-.08,2.65-.17,3.97-.25.66.02,1.32.04,1.98.05-1.74.15-3.49.29-5.23.44Z"/>
            <path class="cls-6" d="m78.18,30.29c1.4-.14,2.81-.27,4.21-.41.32.07.64.14.97.2-1.57.15-3.14.3-4.72.45-.15-.08-.31-.17-.46-.25Z"/>
            <path class="cls-6" d="m102.54,28.31c1.42-.12,2.83-.24,4.25-.36.22.05.44.09.66.14-1.49.15-2.97.31-4.46.46l-.45-.24Z"/>
            <path class="cls-6" d="m97.01,29.04c-.23-.08-.46-.16-.68-.23,1.56-.14,3.11-.29,4.67-.43.17.08.34.16.51.24-1.5.14-2.99.28-4.49.43Z"/>
            <path class="cls-6" d="m72.67,31.04c-.16-.08-.31-.17-.47-.25,1.47-.15,2.95-.29,4.42-.44.09.08.18.16.27.23-1.41.15-2.81.31-4.22.46Z"/>
            <path class="cls-6" d="m143.46,25.1c1.16-.08,2.33-.16,3.49-.24.09.08.18.17.28.25-1.65.15-3.31.3-4.96.45.01-.07.02-.14,0-.21.4-.09.79-.17,1.19-.26Z"/>
            <path class="cls-3" d="m43.72,41.23h0c0,.07-.01.14-.01.21.03,16.26.07,32.52.1,48.77-.23-1.12-.66-2.24-.66-3.36.03-15.22.25-46.36.35-46.7,0,0,0,0,0-.01.26-1.92,1.16-2.91,1.77-3.92-.34.84-.42.48-1.27,3.17-.15.46-.2,1.37-.28,1.85Z"/>
            <path class="cls-6" d="m142.27,25.36c.01.07,0,.14,0,.21-.5.02-1,.04-1.5.06-.66-.02-1.32-.04-1.98-.05.86-.09,1.72-.18,2.58-.27.3.02.6.04.9.06Z"/>
            <path class="cls-6" d="m119.9,27.12c-.17-.08-.34-.16-.51-.24.75-.04,1.5-.08,2.26-.12.33.02.66.04.99.06,0,0,0,0,0,0-.91.1-1.82.2-2.73.31Z"/>
            <path class="cls-6" d="m107.45,28.09c-.22-.05-.44-.09-.66-.14.66-.05,1.31-.09,1.97-.14.07.09.15.17.22.26-.51,0-1.02.01-1.53.02Z"/>
            <path class="cls-6" d="m101.51,28.61c-.17-.08-.34-.16-.51-.24.52-.02,1.03-.04,1.55-.06.15.08.3.16.45.24-.5.02-.99.04-1.49.06Z"/>
            <path class="cls-6" d="m76.89,30.58c-.09-.08-.18-.16-.27-.23.52-.02,1.03-.04,1.55-.06.15.08.31.17.46.25-.58.01-1.16.03-1.74.04Z"/>
            <path class="cls-6" d="m83.35,30.09c-.32-.07-.64-.14-.97-.2.58-.03,1.15-.06,1.73-.08,0,.08,0,.17,0,.25-.26.01-.52.02-.78.03Z"/>
            <path class="cls-14" d="m47.25,34.19c-.31.27-.63.54-.94.81.31-.27.63-.54.94-.81Z"/>
            <path class="cls-6" d="m64.75,31.3c-.04.07-.08.15-.11.22-.47,0-.94-.01-1.4-.02.5-.07,1.01-.14,1.51-.21Z"/>
            <path class="cls-12" d="m61.49,31.59c-.41.06-.82.12-1.23.18.41-.06.82-.12,1.23-.18Z"/>
            <path class="cls-12" d="m129.12,26.12c-.34.05-.68.1-1.02.15.34-.05.68-.1,1.02-.15Z"/>
            <path class="cls-6" d="m122.63,26.82c-.33-.02-.66-.04-.99-.06.34-.05.68-.1,1.02-.15-.01.07-.02.14-.03.21Z"/>
            <path class="cls-6" d="m195.37,26.79c-.24,0-.76-.01-.76-.01-.04-.06-.08-.12-.11-.19.29.07.58.13.87.2Z"/>
            <path class="cls-12" d="m212.37,33.02c-.17-.25-.34-.5-.51-.75.17.25.34.5.51.75Z"/>
            <path class="cls-14" d="m46.32,35c-.17.17-.33.33-.5.5.17-.17.33-.33.5-.5Z"/>
            <path class="cls-12" d="m92.09,29.09c-.27.03-.53.06-.8.1.27-.03.53-.06.8-.1Z"/>
            <path class="cls-12" d="m67.49,31.09c-.26.04-.52.09-.78.13.26-.04.52-.09.78-.13Z"/>
            <path class="cls-12" d="m211.62,32.02c-.09-.09-.17-.17-.26-.26.09.09.17.17.26.26Z"/>
            <path class="cls-13" d="m91.03,76.6s0,0,0,.01c-.58.88-.96,1.87-1.11,2.91-.11.73-.22,1.45-.33,2.18-.88,1.34-.42,2.68,0,4.02.42,1.38.83,2.76,1.25,4.15,3.52,6.32-.07,7.88-5.49,8.22-.36-7.29.73-14.26,4.57-20.61.23-.38.74-.59,1.12-.87Z"/>
            <path class="cls-1" d="m128.37,35.05s-.08-.03-.12-.04c.05-.08.1-.21.15-.22,6.2-.43,12.4-.84,18.59-1.26-6.21.51-12.42,1.01-18.63,1.52Z"/>
            <path class="cls-1" d="m94.59,37.94c2.89-.31,5.78-.62,8.67-.93-.75.09-1.49.18-2.24.27-.18.05-.35.1-.53.16-1.97.17-3.94.34-5.91.51Z"/>
            <path class="cls-1" d="m89.57,38.29c1.48-.11,2.95-.22,4.43-.33-.39.02-.79.04-1.18.06-.26.05-.51.11-.77.16-.83.04-1.65.08-2.48.11Z"/>
            <path class="cls-14" d="m73.6,100.39c-.47.06-.93.12-1.4.18,0,0-.01-.12-.01-.12"/>
            <path class="cls-16" d="m149.23,91.23c-.24,0-.47,0-.71.01.1-.02.21-.04.31-.06.13.02.26.03.4.05Z"/>
            <path class="cls-14" d="m71.18,42.94c.11-.16.22-.31.32-.47-.11.16-.22.31-.32.47Z"/>
            <path class="cls-14" d="m70.44,44.22c.08-.17.17-.34.25-.51-.08.17-.17.34-.25.51Z"/>
            <path class="cls-14" d="m70.2,44.79c.08-.19.16-.39.24-.58-.08.19-.16.39-.24.58Z"/>
            <path class="cls-14" d="m70.69,43.71c.09-.17.18-.33.27-.5-.09.17-.18.33-.27.5Z"/>
            <path class="cls-14" d="m70.93,43.23c.08-.09.15-.18.23-.27-.08.09-.15.18-.23.27Z"/>
            <path class="cls-7" d="m98.79,90.17c-.1-.24-.19-.48-.29-.71.01-.09.03-.17.04-.26.08.32.17.65.25.97Z"/>
            <path class="cls-7" d="m125.87,93.83c.17.11.34.22.5.33-.17-.11-.34-.22-.5-.33Z"/>
            <path class="cls-8" d="m55.23,98.47c-.25.06-.4.15-.53.12-.1-.03-.16-.2-.24-.31.15-.03.3-.1.45-.09.08,0,.15.13.32.28Z"/>
            <path class="cls-2" d="m72.23,105.61c-.1.08-.19.16-.29.25.1-.08.19-.16.29-.25Z"/>
            <path class="cls-13" d="m89.58,85.72c-.43-1.34-.89-2.68,0-4.02,0,1.34,0,2.68,0,4.02Z"/>
            <path class="cls-12" d="m90.08,78.38c.17-.37.34-.74.51-1.11-.17.37-.34.74-.51,1.11Z"/>
            <path class="cls-2" d="m157.55,111.82c-.13.08-.25.17-.38.25.13-.08.25-.17.38-.25Z"/>
            <path class="cls-7" d="m110.83,70.02c-.3.09-.44.15-.59.17-.02,0-.06-.16-.09-.25.11-.04.22-.09.34-.1.08,0,.15.07.35.18Z"/>
            <path class="cls-3" d="m64.42,98.66c-3.9-1.5-6.59-2.05-9.89-3.9-.46-.26-2.7-1.8-2.4-2.1.3-1.2,4.8.34,5.99.9,1.55.73,2.96,1.34,4.5,2.1,1.56.78,3.1,1.34,4.7,2,.97.4,1.05.45,1.4.55.46.13.9.34,1.31.58.82.48,1.04.8,2.93.88,1.2,0,5.92-.16,6.14-.11-.27.14-5.85.91-6.14,1.01-2.67.95-6.15-1.01-8.55-1.91Z"/>
            <path class="cls-4" d="m68.67,43.96c-.62.35-.74.26-1.23.39-.8.21-2.22-.43-3.58-.9-4.09-1.41-8.77-2.23-13.07-3.47-1.99-.58-5.19-2.64-2.8-4.11.84-.11,2.04.13,2.7.3,2.66.68,5.15,2.28,7.82,2.93,3.57.87,5.59,3.52,9.83,2.77.61-.11,3.58-1.81,4.24-1.81.6,0-1.5,1.2-1.8,1.5-.9.9-1.62,2.12-2.1,2.4Z"/>
            <path class="cls-1" d="m186.46,34.51l5.57-.63h0s4.86-.35,4.86-.35c1.54-.11,6.36.04,6.36.04.9,0,1.83.45,3.03,1.19,0,0,2.16,1.39,2.88,4.44.06.23.25,7.55.25,7.55.44,24.99-1-.87-1.1-1.31l-.98-4.41c-.1-.46-.17-.68-.51-1.21-.16-.25-.33-.48-.5-.72l-.67-.87c-.4-.52-2.26-1.54-3.41-2.14-.61-.32-1.31-.58-2.07-.77l-.43-.1c-1.79-.44-3.66-.59-5.51-.44l-2.42.19c-.92.07-1.86.08-2.78.03l-2.55-.14c-3.74.1-.36-.3-.03-.34Z"/>
            <polygon class="cls-7" points="98.48 88.8 98.62 89.53 98.5 89.45 98.19 87.82 98.48 88.8"/>
            <path class="cls-4" d="m107.68,64.17l67.63,23.65,17.4,24.13-13.29,18.04s-14.34,5.54-14.96,5.29-44.38-16.44-44.38-16.44l-28.09-18.01,5.05-22.3,10.63-14.36Z"/>
            <polygon class="cls-1" points="205.43 126.17 205.43 126.17 205.43 126.17 205.43 126.17"/>
            <polygon class="cls-1" points="197.03 127.92 197.03 127.93 197.02 127.93 197.03 127.92"/>
            <polygon class="cls-13" points="167.99 142.14 168 142.13 167.99 142.14 167.99 142.14"/>
            <path class="cls-4" d="m170.02,145.33c12.52-4.61,26.81-7.42,38.86-13.39-6.5,4.81-14.56,5.59-21.85,8.36-5.06,1.92-10.32,3.35-15.48,5-3.17,1.2-1.37.1-1.53.04Z"/>
            <path class="cls-13" d="m188.93,133.33s-.07.03-.11.04l.06-.02.05-.02Z"/>
            <path class="cls-1" d="m205.65,128.3c-.16.13-.32.26-.48.39-.3.25-.64.44-1,.58-.27.11-.55.21-.6.24-10.53,4.8-21.93,7.07-32.84,10.62-.64.93-1.17,2.62-.76,2.45.07-.09.15-.18.22-.26,12.06-4.4,23.94-5.99,35.54-11.68l.93-.47c.56-.22,1.17-.93,1.17-.93.47-.47.93-1.4.93-1.4.06-.12.17-.43.28-.78-.84.34-1.74.26-2.46.09-.22.45-.54.84-.93,1.16Z"/>
            <path class="cls-1" d="m77.48,49.06c-.07.19-.15.39-.22.57-.14.36-.29,1.72-.29,1.78-1.36,11.49-.04,23.04-.08,34.52-.19,2.58.52,3.43-.76,3.11-.36-.09-.62-.41-.63-.78-.28-11.79-2.09-25.98-.25-38.56l.26-1.22c.08-.52.43-1.21.43-1.21.3-.59,1.05-1.32,1.05-1.32.09-.09.36-.29.66-.51.6-.31.94-.49,1.22-.39.25.1.34.41.2.65-.48.8-1.41,2.95-1.57,3.35Z"/>
            <path class="cls-6" d="m168.6,145.88c-5.28,1.73-10.57,3.46-15.85,5.18,0-3.38,0-6.77,0-10.15.16,1.02.33,2.03.51,3.05.19,1.07,1.36,1.65,2.33,1.14,3.87-2.04,7.38-4.58,10.55-7.64,1.72-.73,5.34-2.36,6.56-2.95.25-.12.47-.27.67-.46.22-.2.44-.4.65-.61.66.34-2.44,10.31-5.41,12.44Z"/>
            <path class="cls-13" d="m171.43,141.87l-.71,1.59c-.32.56-.73,1.15-1.16,1.63l-.47.47c-.45.37-.77.4-1.33.59l-6.44,2.12-8.57,2.78v-4.59s18.68-4.59,18.68-4.59Z"/>
            <path class="cls-4" d="m152.76,151.41c0-.11-.01-.23-.02-.34,5.28-1.73,10.57-3.46,15.85-5.18.26.06.51.12.77.18-5.53,1.78-11.07,3.56-16.6,5.34Z"/>
            <path class="cls-4" d="m158.44,143.45c-1.03.64-2.09,1.25-3.18,1.81-.63.33-1.37.09-1.74-.46l-.78.21v1.47s18.69-4.63,18.69-4.63l.51-1.1.5-1.18-14,3.87Z"/>
            <path class="cls-13" d="m166.12,137.46l-4.54-.03c-.63,0-1.23-.24-1.76-.58-.05-.03-.1-.06-.16-.07-4.58-2.49-7.87-2.34-6.92,4.15.18,1.13.37,2.25.57,3.37.03.2.11.37.21.52l4.92-1.36c2.76-1.72,5.32-3.71,7.69-6Z"/>
          </g>
        </g>
        <path class="cls-6" d="m155.26,145.27c1.09-.56,2.15-1.17,3.18-1.81l-4.92,1.36c.37.55,1.11.78,1.74.46Z"/>
      </g>
      <g>
        <g>
          <path class="cls-10" d="m152.95,106.63c.91,2.2-2.11,5.87,2.49,6.69-.97,1.1-1.54.26-2.31-.27,0,0-.3-.3-.3-.3-.08-.17-.04-.04-.12-.21,0,0,0,.02,0,.02-.02-1.82-.04-3.64-.06-5.45.01-.17.02-.33.03-.5h.07c.07-.02.13,0,.19.02Z"/>
          <g>
            <path class="cls-2" d="m99.88,97.93c-.69.54-1.38,1.08-2.08,1.61-.01,0-.03.01-.04,0-1.21-.37-2.41-.75-3.62-1.12-.04-.01-.04-.06,0-.08,1.82-1.07,3.79-.58,5.72-.49.04,0,.06.05.02.08Z"/>
            <g>
              <path class="cls-8" d="m49.13,98.66c.6-3.3,1.5-3.9,3-3.6,6.9,1.94,8.63,5.83,16.08,6.02.84.02,1.68-.29,2.52-.44.49-.02.98-.05,1.47-.07.47-.06.93-.12,1.4-.18,1.34-.27,2.69-.54,4.03-.81.45,0,.9-.01,1.34-.02,5-.71,9.96-2.02,15.08-1.16,1.25.39,2.49.77,3.74,1.16-.09.01-.19.03-.28.04l-.39-.2c-.02.08-.04.16-.06.24-2.91.49-5.87.77-8.71,1.52-5.39,1.41-11.57,0-16.11,4.44-.1.08-.19.16-.29.25,0,0,0,0,0,0-.36.09-.8.35-1.08.24-6.87-2.76-9.21-3.08-16.04-5.93-3,1.8-6.29,1.2-5.7-1.5Z"/>
              <path class="cls-10" d="m85.34,98.09c5.42-.34,9.01-1.9,5.49-8.22,1.96-1.74,3.76-.12,5.46.46,1.3.45,1.78.23,2.21-.87.1.24.19.48.29.71.53,1.17,1.05,2.34,1.58,3.51.06.42.13.83.19,1.25,0,.41,0,.81,0,1.22-.2.57-.39,1.15-.59,1.72-2-.07-4.04-.62-5.92.54-5.12-.86-10.08.45-15.08,1.16-.43.04-1.36.16-1.37.04,2.13-.36,5.6-1.14,7.74-1.51Z"/>
              <path class="cls-10" d="m53.62,94.76c7.31,2.58,7.09,2.55,14.41,5.12.88.31,1.8.51,2.7.76-.84.16-1.69.46-2.52.44-7.39.28-7.68-2.87-14.58-4.82-1.52-.43-1.8-.6-2.7-.3s-1.5,1.5-1.5,1.5c0-.9.6-2.1,1.5-2.7.35-.24,1.8-.3,2.7,0Z"/>
              <path class="cls-8" d="m90.79,77.08c.9-1.5,2.1-3.3,2.1-3.3,3.6-6.59,13.78-8.93,22.29-5.22.3.13.62.2.93.29-7.22-.05-13.07,2.35-16.46,9.17-.12.17-.33.53-.33.53-3.12.07-4.72-3.91-8.52-1.47Z"/>
              <path class="cls-2" d="m91.4,76.22c3.26-1.35,5.03,2.4,7.92,2.33-.99,3.43-2.02,6.86-.8,10.46-.01.06,0,.13.03.18-.01.09-.03.17-.04.26-.43,1.1-.91,1.32-2.21.87-1.7-.58-3.5-2.2-5.46-.46-.42-1.4-.84-2.81-1.27-4.21l-.19-2.64c.22-1.44.44-2.89.66-4.33l.52-1.37.57-.87c.07-.1.16-.19.28-.23Z"/>
              <path class="cls-8" d="m160.65,105.33q.89-.08,1.78.22c3.35,1.17,6.38,2.36,9.74,3.53-5.39-1.86-10.17-.43-14.61,2.74l-.38.25h0c-.5-.34-1.14-.57-1.47-1.03-1.04-1.45.29-3.66-1.51-4.91.2-.02,4.64-.63,6.44-.8Z"/>
              <path class="cls-2" d="m125.87,93.83c-1.36-1.37-.6-2.66.05-4.06,2.46-.34,4.92-.69,7.38-1.03,1.4.58,2.58,1.22.83,2.75.31.33.64.95.94.93,2.23-.11,4.46-.34,6.68-.53-5.13.75-10.26,1.5-15.39,2.26,0,0,0,0,0,0-.17-.11-.34-.22-.5-.33Z"/>
              <path class="cls-8" d="m141.75,91.89c-2.23.19-4.45.42-6.68.53-.3.01-.62-.61-.94-.93,1.75-1.52.57-2.17-.83-2.75.67-.04,1.34-.08,2.01-.12,1.35.01,2.71.03,4.06.04.13,0,.26,0,.39,0,3.02.84,6.05,1.68,9.07,2.52-.1.02-.21.04-.31.06-2.26.22-4.52.43-6.78.65Z"/>
              <path class="cls-2" d="m157.19,112.07c-.41.33-.81.66-1.22.99-.18.08-.35.17-.53.25,0,0,0,0,0,0-4.6-.82-1.59-4.49-2.49-6.69.42-.16.83-.33,1.25-.49,1.81,1.25.47,3.46,1.51,4.91.33.46.97.69,1.47,1.03Z"/>
              <g>
                <path class="cls-10" d="m65.91,179.29c.2.08.69-.04.9,0,1.96.37,3.68,1.17,5.64,1.54-3.67.41-6.97-.64-10.02-2.61,0,0,.06-.07.06-.07,1.15.46,2.27.68,3.42,1.14Z"/>
                <path class="cls-10" d="m53.21,173.44c-2.6-1.35.01,0-2.59-1.35-.3-.3-.35-.52-.3-.6,2.56,1.41.37.48,2.94,1.89l-.05.06Z"/>
                <path class="cls-10" d="m62.43,178.22c-1.32-.67-2.65-1.33-3.97-2,0,0,.05-.06.05-.06,1.33.66,2.65,1.33,3.98,1.99l-.06.07Z"/>
                <path class="cls-10" d="m57.47,175.73c-1.33-.66-2.82-1.47-4.14-2.13,0,0,.3-.3.3-.3,1.33.66,2.58,1.71,3.9,2.37l-.06.06Z"/>
                <path class="cls-10" d="m58.47,176.22c-.33-.17-.66-.33-1-.5,0,0,.06-.06.06-.06.33.17.66.33.99.5l-.05.06Z"/>
                <path class="cls-10" d="m70.19,178.41c0,.17,0,.33,0,.5,0-.24-.01-.48-.02-.72,0,0,.04-.03.04-.03,0,.09-.01.17-.02.26Z"/>
              </g>
              <g>
                <g>
                  <path class="cls-10" d="m70.15,178.24c-1.54-1.65-.3-7.34.26-9.15,0,1.81-.26,7.34-.26,9.15Z"/>
                  <path class="cls-8" d="m70.19,178.41c2.78,3.98,5.69.91,8.55.14,1.63-.44,3.24-.93,4.85-1.39-.04.04-.07.07-.11.11.04-.03.08-.06.13-.09,5.01-1.77,9.97-3.71,15.05-5.25,5.27-1.6,10.67-2.82,16-4.21-14.07,4.37-28.15,8.74-42.22,13.11-2.07-.39-4.14-.77-6.21-1.16,1.28-.44,2.9.91,3.94-.76,0-.17,0-.33,0-.5Z"/>
                  <g>
                    <path class="cls-7" d="m157.55,111.82c4.45-3.17,9.22-4.59,14.61-2.74.32.15.63.3.94.44-4.27-.11-8.49-.16-12.46,1.98-2.07,1.11-3.42,3.92-6.38,3-.53-.17-1.13-1.16-1.43-1.75.77.52,1.64,1.67,2.61.57h0c.18-.08,1.34-.91,1.75-1.24,0,0,0,0,0,0,.13-.08.25-.17.38-.25Z"/>
                    <path class="cls-7" d="m98.51,89.01c-1.22-3.6-.18-7.03.8-10.46,0,0,.21-.36.33-.53,3.39-6.82,9.24-9.22,16.46-9.17.27.15.54.3.81.45-.99.17-1.99.31-2.97.51-1.12.22-2.26.42-3.35.73-5.22,1.52-8.34,5.19-10.64,9.96-1.34,2.79-1.91,5.51-1.45,8.5Zm12.31-18.99c-.2-.11-.28-.18-.35-.18-.11,0-.23.06-.34.1.03.09.08.26.09.25.15-.02.3-.08.59-.17Z"/>
                    <path class="cls-7" d="m141.75,91.89c2.26-.22,4.52-.43,6.78-.65.24,0,.47,0,.71-.01.15.11.29.22.44.33-7.14.95-14.28,1.91-21.42,2.83-.61.08-1.26-.16-1.89-.25,5.13-.75,10.26-1.51,15.39-2.26Z"/>
                    <path class="cls-7" d="m100.54,94.77c-.06-.36-.11-.73-.17-1.09,1.43.58.39,3.72.39,3.72-3.65,6.31-10.32,4.32-15.57,4.98-11.25,1.42-13.02,2.64-13.01,13.83,0,4.83.33,9.7.33,14.53l-.6.3c-.24-.65-.43-1.63-.42-2.27.11-7.64.29-15.27.45-22.9h0c.1-.08.19-.16.29-.24,4.55-4.44,10.73-3.03,16.11-4.44,2.84-.74,5.8-1.03,8.71-1.52,0,0,0,0,0,0l1.27-.51c.35-.28.71-.55,1.06-.83.38-.29.66-.69.82-1.14.05-.15.1-.3.15-.45l.17-1.95Z"/>
                    <path class="cls-7" d="m70.2,152.84c.21-1.72.63-3.1,2-3.82.08-.1.73-.41.73-.41,1.53-.42,2.96-.37,4.38.5,6.95,4.24,13.48,1.97,16.71-5.76,1.7-3.88,1.37-7.77,0-11.66,2.78,5.71,2.25,11.32-1.54,16.17-3.35,4.28-7.72,6.81-13.32,3.26-1.5-.95-2.94-2.58-5.01-1.39-2.67,1.54-3.07,4.26-3.19,6.95-.32,7.15-.51,14.31-.75,21.47,0,0-.04.03-.04.03,0-.18-.01-.36-.02-.54,0-1.81,0-3.61,0-5.42,0-.68,0-1.36,0-2.05,0-2.71,0-5.43,0-8.14,0-2.59,0-5.18-.01-7.77.02-.48.04-.96.05-1.44Z"/>
                  </g>
                  <path class="cls-7" d="m75.4,131.39c-.32.12-.65.23-.97.35-.25,0-.51,0-.76,0-.15-.02-.3-.05-.45-.07-.01-.07-.02-.14-.04-.22h0c.74-.02,1.48-.04,2.22-.06Z"/>
                  <path class="cls-7" d="m93.79,131.22c-.16-.26-.31-.52-.47-.78.16.26.31.52.47.78Z"/>
                  <path class="cls-7" d="m72.43,130.94c.25.16.5.33.75.49,0,0,0,0,0,0-.25-.17-.5-.33-.74-.5h0Z"/>
                  <path class="cls-7" d="m93.31,130.43c-.09-.16-.19-.32-.28-.48.09.16.19.32.28.48Z"/>
                  <path class="cls-7" d="m92.8,129.71c-.08-.09-.16-.18-.25-.27.08.09.16.18.25.27Z"/>
                  <path class="cls-7" d="m94.04,131.71c-.09-.17-.18-.34-.27-.51.09.17.18.34.27.51Z"/>
                  <path class="cls-7" d="m93.05,129.97c-.08-.09-.17-.18-.25-.27.08.09.17.18.25.27Z"/>
                  <path class="cls-7" d="m72.18,130.69c.08.08.16.17.25.25,0,0,0,0,0,0-.08-.08-.16-.17-.25-.25h0Z"/>
                  <path class="cls-2" d="m73.66,131.73c.25,0,.51,0,.76,0-.25,0-.51,0-.76,0Z"/>
                  <path class="cls-10" d="m70.15,154.27c-.07-.24-.14-.48-.21-.71.09-.24.17-.48.26-.72-.02.48-.03.96-.05,1.44Z"/>
                  <path class="cls-10" d="m70.16,170.18c0-2.71,0-5.43,0-8.14,0,2.71,0,5.43,0,8.14Z"/>
                  <path class="cls-2" d="m72.51,130.73l.3.3s.43.46.43.46c.08.05.04.18-.06.17-4.15-.35-7.49-2.7-11.13-4.36-6.35-2.88-3.38-.94-9.62-4.06-1.2-.6-.82-1.05-1.8-3-.6-1.2-1.5-18.28-.3-20.38.63-1.1,3.09-.94,3.9-.6,6.83,2.85,9.77,4.07,16.64,6.83.28.11.71-.15,1.08-.24-.16,7.63-.34,15.27-.45,22.9,0,.48.25.97.48,1.46.11.23.37.32.54.52Z"/>
                </g>
                <g>
                  <path class="cls-10" d="m49.38,141.19s.05.04.05.07c0,.89-.3,2.09-.3,4.16.3,3.6,0,4.2,0,7.49.24,3.53-.3,9.59-.17,14.07.05,1.75.62,3.33,1.38,4.61l.29.5q-.9-.6-1.5-1.5c-.9-1.5-.58-2.88-.6-4.2-.11-7.06.3-9.29,0-16.49,0,0,0-3.26,0-5.09,0-.86.1-1.73.29-2.57.25-1.06.35-1.15.56-1.07Z"/>
                  <g>
                    <path class="cls-8" d="m51.83,141.22c3.59.6.9.3,4.69,1.52,1.86.6,3.8.95,5.7,1.42,1.42,2.25,3.93,2.42,6.11,3.17,1.51.52,3.07.86,4.61,1.28h0c-.15.17-.31.36-.47.54l-2.52,4.38v.02c-.37.19-.96.62-1.07.52-2.97-2.7-6.95-3.19-10.4-4.82-5.48-2.58-3.81-1.69-9.35-4.14.08-.36-.3-2.1,0-3.3,0-.3,0-.6.6-1.2.47-.47,2.09.6,2.1.6Z"/>
                    <path class="cls-2" d="m94.02,143.35c-3.22,7.73-9.76,10-16.71,5.76-1.42-.87-2.86-.91-4.38-.5-1.54-.42-3.11-.76-4.61-1.28-2.18-.75-4.69-.92-6.11-3.17,5.27-.03,10.57-.3,15.6,1.84,2.36,1,2.43-1.01,3.36-2.4,3.06-4.61,7.34-7.69,12.95-8.54.06,0,.64,1.98.6,3.02-.07,1.77-.44,3.52-.68,5.28Z"/>
                    <path class="cls-2" d="m70.17,178.18c0,.24.01.48.02.72-.85,1.37-2.1.7-3.23.67l-3.08-.73c-1.79-.89-3.57-1.79-5.36-2.68-.33-.17-.66-.33-.99-.5-1.33-.66-2.65-1.33-3.98-1.99-.99-.5-.9-.55-1.72-.98-.98-.51-2.1-1.2-2.4-2.4-.92-3.68-.3-6.89-.3-16.79-.03-3.94.04-4.73,0-8.39,5.55,2.45,3.87,1.56,9.35,4.14,3.45,1.62,7.44,2.12,10.4,4.82.11.1.7-.33,1.06-.52l.21.13c0,2.78,0,5.56.01,8.35,0,2.71,0,5.43,0,8.14l-.35,3.37c-.29,1.36-.32,2.73.34,4.09,0,.18.01.36.02.54Z"/>
                    <path class="cls-11" d="m94.71,138.07c.04-1.04-.54-3.02-.6-3.02-5.6.85-9.89,3.92-12.95,8.54-.93,1.4-.99,3.41-3.35,2.4-5.03-2.14-10.22-1.81-15.49-1.78-1.9-.47-2.02-.35-3.9-.9-5.1-1.5-4.5-1.5-8.69-2.7,2.46-2.22,3.6-2.1,6.59-1.8,6.29.6,7.91-3.51,7.11-9.98-.04-.35-.62-.73-1.03-.92-10.75-4.76-9.08-3.49-11.47-5.29-1.2-1.2-1.98-2.67-2.1-6.59-.12-3.75-.67-12.42.3-16.19,0,0,1.2,0,.9,1.2-.3,4.2-.3,7.82,0,11.69.3,3.9-.3,6.59,2.1,10.19l.15.15c5.15,2.2,3.8,1.5,9.77,4.21,3.65,1.66,7,4.02,11.17,4.36.15.02.3.05.45.07.25,0,.51,0,.76,0,.33-.12.65-.23.97-.35,5.27-4.59,10.7-7.77,17.16-1.95.08.09.16.18.24.27.08.08.16.16.23.25h0c.09.16.18.32.28.48h0c.15.26.3.51.46.76v.02c.1.16.18.33.27.49v-.02c1.35,3.89,1.68,7.77-.02,11.66.24-1.76.61-3.51.68-5.28Z"/>
                    <path class="cls-16" d="m179.59,122.57c0,.56-.02,1.13-.06,1.71,0,.11-.02.21-.05.32-1.49,6.44-3.21,6.78-4.76,8.24l-1.21,1.12c-.08.07-.16.13-.25.19-.89.59-6.07,3.94-8.68,4.03-.11,0-.21,0-.31-.02l-5.64-.82c-.06,0-.12-.02-.18-.03-3.22-.76-6.56-2.6-5.72,3.48.01.09.02.18.02.26,0,3.34,0,6.68,0,10.02v.17c.02.12,0,.23,0,.35-.09.73-1.02,4.6-1.02,4.6-.01.07-.05.14-.1.19-.08.08-.21.2-.32.31-.06.06-.13.1-.22.13-.78.25-9.35,3.04-10.18,3.35-.05.02-.09.03-.14.05-1.29.37-17.72,5.13-26.1,7.56v-.05c-5.34,1.38-10.73,2.6-16,4.21-5.08,1.54-10.04,3.48-15.05,5.25l-.02-.02c-1.62.46-3.23.95-4.85,1.39-2.86.77-5.77,3.84-8.55-.14,0-.09,0-.17.02-.26.24-7.15.43-14.31.75-21.46.12-2.69.52-5.41,3.19-6.96,2.07-1.2,3.52.44,5.01,1.39,5.6,3.55,9.97,1.02,13.32-3.26,3.79-4.84,4.33-10.46,1.54-16.17v.02c-.07-.16-.16-.33-.24-.49v-.02c-.16-.25-.31-.5-.47-.76h0c-.09-.16-.18-.33-.28-.48h0c-.08-.09-.16-.17-.23-.25l-.17-.19c-.05-.05-.1-.11-.16-.15-2.46-2.19-4.77-3.08-6.99-3.08-3.49,0-6.73,2.2-9.91,4.95-.7.6-1.71.66-2.47.16-.29-.19-.52-.45-.68-.74-.16-.3-.25-.63-.25-.97,0-4.49,0-8.98,0-13.48,0-11.19,1.76-12.41,13.01-13.82,4.16-.53,11.52-3.33,14.38-4.48.61-.24,1.07-.76,1.24-1.4.24-.88.43-1.88-.47-2.87-.54-.59-1.11-1.75-1.31-2.52l-.49-1.9c-.03-.06-.04-.12-.02-.19-.46-2.99.1-5.71,1.44-8.5,2.3-4.77,5.41-8.44,10.64-9.96,1.62-.47,3.32-.67,4.94-1.08.24-.06.48-.1.73-.12l.52-.03c.09,0,.17,0,.26,0,6.03.31,10.45,7.43,10.01,16.76,0,.19,0,.9-.9,3.6-.28,1.11-1.45,2.57-.54,3.86.13.18.3.33.49.45.09.06.17.11.26.17h0c.63.08,1.28.32,1.89.24,6.96-.89,13.92-1.83,20.88-2.76.41-.05.82.02,1.18.22.78.42,1.32.98,1.68,1.66.46.84.64,1.86.68,2.95.03,3.38.13,6.61.16,9.99l.12,5.96c0,.37.12.72.32,1.03.3.45.59.93.99,1.06,2.96.93,4.31-1.88,6.38-3,3.89-2.1,8.02-2.09,12.21-1.99.17,0,.33.03.49.07,3.48,1.09,6.24,6.46,6.24,12.98Z"/>
                  </g>
                </g>
              </g>
            </g>
          </g>
        </g>
        <polygon class="cls-8" points="82.64 99.09 74.17 102.28 82.99 101.27 82.64 99.09"/>
      </g>
    </g>
    <g>
      <g>
        <rect class="cls-16" x="567.95" y="66.51" width="18.33" height="109.98"/>
        <path class="cls-16" d="m607.74,103.17c-2.03,5.73-3.13,11.9-3.13,18.33s1.1,12.6,3.13,18.33c1.02,2.88,2.27,5.66,3.74,8.29,2,3.62,4.4,6.98,7.13,10.04,1.36,1.52,2.81,2.97,4.33,4.33v14h-11.83c-1.46-1.28-2.86-2.61-4.2-4.01-.79-.81-1.56-1.64-2.31-2.49-3.21-3.64-6.07-7.6-8.52-11.83-.22-.38-.44-.77-.65-1.16h0c-2.96-5.35-5.28-11.11-6.84-17.17-.01-.05-.03-.09-.04-.14-1.49-5.81-2.28-11.91-2.28-18.19s.79-12.37,2.28-18.19c.01-.05.03-.1.04-.14,1.56-6.06,3.88-11.83,6.84-17.17h0c.21-.39.43-.77.65-1.16,2.45-4.23,5.31-8.19,8.52-11.83.74-.85,1.51-1.68,2.31-2.49,1.34-1.4,2.74-2.73,4.2-4.01h11.83v14c-1.52,1.36-2.97,2.81-4.33,4.33-2.73,3.05-5.13,6.42-7.13,10.04-1.47,2.64-2.72,5.41-3.74,8.29Z"/>
        <path class="cls-16" d="m691.35,103.17c-3.22-5.57-7.86-10.2-13.43-13.43-5.39-3.12-11.65-4.9-18.33-4.9-3.16,0-6.23.4-9.15,1.16h0c-3.25.84-6.33,2.11-9.17,3.75-2.49,1.44-4.79,3.17-6.87,5.13-2.56,2.43-4.78,5.22-6.56,8.29-3.12,5.39-4.9,11.65-4.9,18.33s1.79,12.94,4.9,18.33c1.78,3.08,4,5.87,6.56,8.29,2.08,1.97,4.38,3.69,6.87,5.13,2.84,1.64,5.92,2.91,9.17,3.75h0c2.93.75,5.99,1.16,9.15,1.16,6.68,0,12.94-1.79,18.33-4.9,5.57-3.22,10.2-7.86,13.43-13.43,3.12-5.39,4.9-11.65,4.9-18.33s-1.79-12.94-4.9-18.33Zm-34.03,36.52c-9.05-1.12-16.05-8.84-16.05-18.19s7.01-17.07,16.05-18.19c-.01-.05,2.28-.14,2.28-.14,10.12,0,18.33,8.21,18.33,18.33s-8.21,18.33-18.33,18.33c0,0-2.29-.09-2.28-.14Z"/>
        <path class="cls-16" d="m785.36,66.51v109.98h-18.33v-86.75c-2.49,1.44-4.79,3.17-6.87,5.13-2.56,2.43-4.78,5.22-6.56,8.29h-9.81c-1.78-3.08-4-5.87-6.56-8.29-2.08-1.97-4.38-3.69-6.87-5.13v86.75h-18.33v-109.98c6.43,0,12.6,1.1,18.33,3.13.78.27,1.55.57,2.31.88,5.93,2.4,11.34,5.8,16.02,9.99,4.68-4.2,10.1-7.6,16.02-9.99.76-.31,1.53-.6,2.31-.88,5.73-2.03,11.9-3.13,18.33-3.13Z"/>
        <polygon class="cls-16" points="858.68 66.51 858.68 176.49 840.35 176.49 840.35 84.84 822.02 84.84 822.02 176.49 803.69 176.49 803.69 66.51 858.68 66.51"/>
      </g>
      <g>
        <path class="cls-15" d="m988.75,138.34s-.01-.05-.02-.07c-.82-3.17-2.02-6.16-3.57-8.96-.11-.2-.22-.4-.34-.6-1.27-2.21-2.76-4.27-4.44-6.17-.39-.44-.79-.88-1.2-1.3-.7-.72-1.43-1.42-2.19-2.08h-12.33c-.76.67-1.49,1.36-2.19,2.08-.41.43-.81.86-1.2,1.3-1.67,1.9-3.17,3.96-4.43,6.17-.12.2-.23.4-.34.6-1.55,2.79-2.75,5.79-3.57,8.96,0,.02-.01.05-.02.07-.78,3.03-1.19,6.21-1.19,9.48v28.67h9.55v-19.11h19.11v19.11h9.56v-28.67c0-3.27-.41-6.45-1.19-9.48Zm-27.48,9.48c0-3.35.57-6.57,1.63-9.55.53-1.51,1.18-2.95,1.95-4.33,1.05-1.89,2.3-3.64,3.72-5.23h4.51c1.42,1.59,2.68,3.35,3.73,5.23.77,1.37,1.42,2.82,1.94,4.33,1.06,2.99,1.63,6.2,1.63,9.55h-19.11Z"/>
        <path class="cls-15" d="m1036.85,119.15v57.33h-9.56v-45.22c-1.3.75-2.5,1.65-3.58,2.68-1.34,1.26-2.5,2.72-3.42,4.33h-5.11c-.93-1.6-2.08-3.06-3.42-4.33-1.08-1.03-2.28-1.93-3.58-2.68v45.22h-9.56v-57.33c3.35,0,6.57.57,9.56,1.63.41.14.8.29,1.2.45,3.09,1.25,5.91,3.03,8.36,5.22,2.44-2.19,5.26-3.97,8.36-5.22.39-.16.79-.31,1.2-.45,2.99-1.06,6.2-1.63,9.56-1.63Z"/>
        <path class="cls-15" d="m943.03,126.46v11.81h-2.55c-.93-1.6-2.08-3.06-3.42-4.33-1.08-1.03-2.28-1.93-3.58-2.68-1.48-.86-3.08-1.52-4.78-1.95-1.53-.39-3.13-.6-4.78-.6-3.48,0-6.75.93-9.56,2.55-2.9,1.68-5.32,4.1-7,7-1.63,2.81-2.55,6.08-2.55,9.56s.93,6.75,2.55,9.56c1.68,2.9,4.1,5.32,7,7,2.81,1.63,6.08,2.55,9.56,2.55,1.65,0,3.25-.21,4.78-.6,1.7-.43,3.3-1.09,4.78-1.95,1.3-.75,2.5-1.65,3.58-2.68,1.34-1.26,2.5-2.72,3.42-4.33h2.55v11.81c-2.44,2.19-5.26,3.97-8.36,5.22-.39.16-.79.31-1.2.45-2.99,1.06-6.2,1.63-9.56,1.63s-6.57-.57-9.56-1.63c-3.56-1.26-6.8-3.2-9.56-5.67-.79-.71-1.55-1.46-2.25-2.25-2.47-2.76-4.41-5.99-5.67-9.56-1.06-2.99-1.63-6.2-1.63-9.56s.57-6.57,1.63-9.56c1.26-3.56,3.2-6.8,5.67-9.56.71-.79,1.46-1.55,2.25-2.25,2.76-2.47,5.99-4.41,9.56-5.67,2.99-1.06,6.2-1.63,9.56-1.63s6.57.57,9.56,1.63c.41.14.8.29,1.2.45,3.09,1.25,5.91,3.03,8.36,5.22Z"/>
      </g>
      <g>
        <path class="cls-15" d="m518.56,119.16v57.33h-9.56v-12.94c-.39.45-.79.88-1.2,1.3-.7.72-1.43,1.42-2.19,2.08-1.9,1.67-3.96,3.17-6.17,4.44-2.96,1.71-6.17,3.04-9.56,3.91-3.05.79-6.25,1.2-9.56,1.2v-57.33h9.56v46.15c.41-.14.8-.29,1.2-.45,3.09-1.25,5.91-3.03,8.36-5.22.79-.71,1.55-1.46,2.25-2.25,1.42-1.59,2.68-3.35,3.72-5.23.76-1.38,1.42-2.82,1.95-4.33,1.06-2.99,1.63-6.2,1.63-9.56v-19.11h9.56Z"/>
        <path class="cls-15" d="m427.34,119.16v3.39c-1.67,1.9-3.17,3.96-4.44,6.17h-14.68v9.56h9.56c.41,0,.8.02,1.19.08-.78,3.03-1.19,6.21-1.19,9.48h-9.56v19.11h14.68c1.27,2.21,2.76,4.27,4.44,6.17v3.39h-28.67v-57.33h28.67Z"/>
        <path class="cls-15" d="m303.12,126.46v11.81h-2.55c-.93-1.6-2.08-3.06-3.42-4.33-1.08-1.03-2.28-1.93-3.58-2.68-1.48-.86-3.08-1.52-4.78-1.95-1.53-.39-3.13-.6-4.78-.6-3.48,0-6.75.93-9.56,2.55-2.9,1.68-5.32,4.1-7,7-1.63,2.81-2.55,6.08-2.55,9.56s.93,6.75,2.55,9.56c1.68,2.9,4.1,5.32,7,7,2.81,1.63,6.08,2.55,9.56,2.55,1.65,0,3.25-.21,4.78-.6,1.7-.43,3.3-1.09,4.78-1.95,1.3-.75,2.5-1.65,3.58-2.68,1.34-1.26,2.5-2.72,3.42-4.33h2.55v11.81c-2.44,2.19-5.26,3.97-8.36,5.22-.39.16-.79.31-1.2.45-2.99,1.06-6.2,1.63-9.56,1.63s-6.57-.57-9.56-1.63c-3.56-1.26-6.8-3.2-9.56-5.67-.79-.71-1.55-1.46-2.25-2.25-2.47-2.76-4.41-5.99-5.67-9.56-1.06-2.99-1.63-6.2-1.63-9.56s.57-6.57,1.63-9.56c1.26-3.56,3.2-6.8,5.67-9.56.71-.79,1.46-1.55,2.25-2.25,2.76-2.47,5.99-4.41,9.56-5.67,2.99-1.06,6.2-1.63,9.56-1.63s6.57.57,9.56,1.63c.41.14.8.29,1.2.45,3.09,1.25,5.91,3.03,8.36,5.22Z"/>
        <path class="cls-15" d="m338.74,120.79c-2.99-1.06-6.2-1.63-9.56-1.63s-6.57.57-9.56,1.63c0,0-7.11,3.48-9.56,5.67v42.73c2.44,2.19,5.26,3.97,8.36,5.22.39.16.79.31,1.2.45,2.99,1.06,6.2,1.63,9.56,1.63s6.57-.57,9.56-1.63c3.56-1.26,6.8-3.2,9.56-5.67v-42.73c-2.76-2.47-5.99-4.41-9.56-5.67Zm0,43.59c-2.81,1.63-6.08,2.55-9.56,2.55-1.65,0-3.25-.21-4.78-.6-1.7-.43-3.3-1.09-4.78-1.95v-33.11c1.48-.86,3.08-1.52,4.78-1.95,1.53-.39,3.13-.6,4.78-.6,3.48,0,6.75.93,9.56,2.55v33.11Z"/>
        <path class="cls-15" d="m390.91,147.82c-.93-1.61-2.09-3.07-3.43-4.33-1.08-1.03-2.28-1.93-3.58-2.68-1.48-.86-3.08-1.52-4.78-1.95-1.53-.39-3.13-.6-4.78-.6-3.48,0-6.74.93-9.56,2.55v-12.11h13.9l9.56-9.56h-33.01v57.33h19.11c1.65,0,3.25-.21,4.78-.6,1.7-.43,3.3-1.1,4.78-1.95,1.3-.75,2.49-1.65,3.58-2.68,1.34-1.26,2.5-2.72,3.43-4.33,1.63-2.81,2.55-6.07,2.55-9.56s-.93-6.74-2.55-9.55Zm-15.37,19.03s.01.05.02.08h-1.2c-5.28,0-9.56-4.28-9.56-9.56s4.28-9.55,9.56-9.55h1.2s0,.05-.02.07c4.72.59,8.37,4.61,8.37,9.48s-3.65,8.9-8.37,9.48Z"/>
        <path class="cls-15" d="m471.7,128.71c-.93-1.6-2.08-3.06-3.42-4.33-1.08-1.03-2.28-1.93-3.58-2.68-1.48-.86-3.08-1.52-4.78-1.95-1.53-.39-3.13-.6-4.78-.6h-19.11v57.33h9.56v-21.67c2.81,1.63,6.08,2.55,9.56,2.55,1.65,0,3.25-.21,4.78-.6,1.7-.43,3.3-1.09,4.78-1.95,1.3-.75,2.5-1.65,3.58-2.68,1.34-1.26,2.5-2.72,3.42-4.33,1.63-2.81,2.55-6.08,2.55-9.56s-.93-6.75-2.55-9.56Zm-16.56,19.11c-5.22,0-9.46-4.18-9.55-9.38-.1-5.35,4.45-9.73,9.8-9.73h.95s-.01.05-.02.08c4.71.58,8.37,4.6,8.37,9.48s-3.65,8.9-8.37,9.48c0,.02.01.05.02.08h-1.2Z"/>
      </g>
    </g>
  </g>
</svg>