<?xml version="1.0" encoding="UTF-8"?>
<svg id="_Слой_1" data-name="Слой 1" xmlns="http://www.w3.org/2000/svg" viewBox="0 0 1920 768">
  <defs>
    <style>
      .cls-1 {
        fill: #a5d6f2;
      }

      .cls-1, .cls-2, .cls-3, .cls-4, .cls-5, .cls-6, .cls-7, .cls-8, .cls-9, .cls-10, .cls-11, .cls-12, .cls-13, .cls-14, .cls-15, .cls-16 {
        stroke-width: 0px;
      }

      .cls-2 {
        fill: #bb1736;
      }

      .cls-3 {
        fill: #275c8e;
      }

      .cls-4 {
        fill: #74afd7;
      }

      .cls-5 {
        fill: #fff;
      }

      .cls-6 {
        fill: #1e79ab;
      }

      .cls-7 {
        fill: #f2ced6;
      }

      .cls-8 {
        fill: #e85f79;
      }

      .cls-9 {
        fill: #17648f;
      }

      .cls-10 {
        fill: #ab233d;
      }

      .cls-11 {
        fill: #871c31;
      }

      .cls-12 {
        fill: #2381c4;
      }

      .cls-13 {
        fill: #196b98;
      }

      .cls-14 {
        fill: #194f8d;
      }

      .cls-15 {
        fill: #2295d3;
      }

      .cls-16 {
        fill: #e72f51;
      }
    </style>
  </defs>
  <rect class="cls-5" width="1920" height="768"/>
  <g>
    <g>
      <path class="cls-10" d="m259.73,552.46c.08.05.16.09.24.14-.08-.05-.15-.1-.23-.15,0,0-.01.01-.01.01Z"/>
      <path class="cls-16" d="m219.13,548.05l-.38.26c.11-.11.21-.22.31-.32,0,0,.06.06.06.06Z"/>
      <g>
        <g>
          <g>
            <path class="cls-9" d="m352.45,528.52c.77.56,1.54,1.12,2.31,1.67-19.92-8.62-36.17,5.02-54.04,8.9h.01c-20.03,6.4-40.39,11.94-59.95,19.55-12.14,4.72-26.23,4.91-36.3,14.48-2.09,1.99-2.78,5.45-4.11,8.23.2,14.25.4,28.51.6,42.76-.46.72-2.28-28.84-1.22-44.24.84-12.24,12.53-13.31,21.4-16.25,39.3-13.02,78.64-25.95,118.16-38.29,3.69-1.15,8.72,2.02,13.13,3.19Z"/>
            <path class="cls-6" d="m383.04,509.12c0,12.04,0,24.08,0,36.12,0,.81-.07,1.62-.29,2.38-1.75,6.18-9.32,9.57-15.91,6.66-8.53-3.36-16.91-6.84-25.25-10.18-8.55-3.42-10.46-5.98-10.5-14.09-.06-13.08-2.49-21.46,12.73-24.05.28-.05.57-.11.84-.18,6.81-1.74,13.65-3.52,20.59-5.25,7.29-1.81,11.03-1.11,15.16,3.43,1.17,1.29,2.06,2.79,2.51,4.41.07.25.12.5.12.74Z"/>
            <path class="cls-9" d="m289.45,600.77c.41,9.9.81,19.8,1.21,29.7-11.16-10.19-22.32-20.38-33.48-30.57,10.76.29,21.51.58,32.27.87Z"/>
            <path class="cls-6" d="m580.74,552.63l-139.25,59.26c.17-.26.17-.26.16-.41-11.74,5.07-24.49,12.63-36.65,16.29-11.09,3.33-21.28,9.47-33.11,10.96-3.84.48-8.03,5.27-12.07,8.15,0,.17,0,.35.06.52,26.48-11.05,79.35-33.06,79.35-33.06,1.28-.22,29.08-12.13,30.3-12.57l17.77-6.46,41.89-16.93,25.57-9.3c2.55-.93,5.05-1.98,7.5-3.16l10.62-5.13c1.17-.56,2.26-1.24,3.29-2.01l2.99-2.26c1.1-.83,1.87-2.04,2.17-3.39.08-.35-.27-.63-.6-.49Zm-206.1,87.46c-.06-.12-.12-.24-.18-.35.27-.04.28-.05.41.19-.08.06-.15.1-.23.16Z"/>
            <path class="cls-6" d="m356.89,648.45c-15.29,6.35-30.58,12.7-45.87,19.05,0,0,.06-.35.06-.36,15.04-6.41,30.08-12.82,45.12-19.23.23.18.47.35.7.53Z"/>
            <path class="cls-10" d="m229.78,648.45c6.4,3.49,12.79,6.97,19.19,10.46-6.4-3.49-12.79-6.97-19.19-10.46Z"/>
            <path class="cls-6" d="m294.15,674.02s-.1-.25-.1-.25c4.19-1.92,8.38-3.83,12.57-5.74.22.32.44.65.66.97-4.38,1.67-8.75,3.35-13.13,5.02Z"/>
            <path class="cls-10" d="m218.51,641.99c3.76,2.16,7.53,4.31,11.29,6.47-3.76-2.16-7.53-4.31-11.29-6.47Z"/>
            <path class="cls-10" d="m202.86,632.23c3.05,2.01,6.09,4.02,9.14,6.02-3.05-2.01-6.09-4.02-9.14-6.02Z"/>
            <path class="cls-10" d="m211.93,638.25c2.21,1.27,4.41,2.54,6.62,3.81-2.21-1.27-4.41-2.54-6.62-3.81Z"/>
            <path class="cls-6" d="m307.28,669c-.22-.32-.44-.65-.66-.97.76-.25,1.51-.5,2.27-.75-.01.36-.03.71-.04,1.07-.52.22-1.04.44-1.57.66Z"/>
            <path class="cls-6" d="m356.89,648.45c-.23-.18-.47-.35-.7-.53,1.21-.34,2.42-.68,3.64-1.03-.01.18,0,.36.06.53-1,.34-2,.69-2.99,1.03Z"/>
            <path class="cls-6" d="m308.85,668.35c.01-.36.03-.71.04-1.07.73-.04,1.46-.09,2.19-.13,0,0-.06.35-.06.35-.72.28-1.45.56-2.17.84Z"/>
            <path class="cls-9" d="m277.2,671.96c.9-.93,1.81-1.85,2.71-2.78,2.87,7.21,8.7,5.29,14.14,4.59l.1.25c-11.13,4.73-20.13-.52-29.03-6.21,3.95,1.47,7.9,2.93,11.84,4.4.82.52,1.65,1.05,2.49,1.54.01,0,.31-.48.48-.73-.91-.35-1.82-.7-2.74-1.05Z"/>
            <path class="cls-9" d="m248.9,658.9c7.26-.37,10.81,6.05,16.28,8.93-5.43-2.98-10.86-5.96-16.28-8.93Z"/>
            <path class="cls-4" d="m578.4,555.75c-.38.22-.78.27-.9.31,0,0-134.81,55.51-137.19,56.84-11.74,5.07-23.15,11.22-35.32,14.88-11.09,3.33-20.59,9.47-33.08,11.55-3.82.64-8.07,4.68-12.1,7.56-1.21.34-2.42.68-3.64,1.02-15.04,6.41-30.08,12.82-45.12,19.23-.4.03-.8.05-1.21.08-.91.22-2.34.58-3.24.8-4.19,1.92-8.38,3.83-12.57,5.75-5.44.7-11.27,2.63-14.14-4.59-.26-.71.17-.58.26-.87.21-12.25,1.01-24.52.47-36.74-.62-14.08,4.36-22.88,18.59-26.81,12.62-3.49,25-8.09,37.14-13.04,27.59-11.25,56.76-18.5,83.14-33.01,4.26-2.35,3.78-1.85,4.84-5.84l-84.97,26.4-28.36-44.75,169.16-52.38c12.77-3.77,19.43-4.5,29.18-.84l9.6,3.61,32.04,11.89,11.43,4.14c3.83,1.39,7.45,3.3,10.75,5.68l2.82,2.03c1.13.81,2.03,1.91,2.59,3.17,1.29,2.87,1.95,5.98,1.93,9.12l-.03,6.44.4,6.45v5.35c.38,4.79,4.45,12.48-2.47,16.57Z"/>
            <path class="cls-4" d="m437.33,550.87s.05.09.05.09c-40.1,14.6-80.38,28.75-120.21,44.06-9.61,3.7-20.65,4.79-29.55,10.28-4.99,3.08-11.24,2.99-16.13-.24-4.58-3.03-10.73-4.28-14.73-8.06l.39-.28c.74-.25,1.49-.5,2.23-.75h-.01c19.55-6.88,38.94-14.23,58.68-20.53,26.27-8.38,51.7-19.61,79.21-23.94,1.28-.2,14.42-5.03,20.7-7.4,2.01-.76,4.16-1.05,6.3-.83,6.06.62,13.84,4.05,13.09,7.59Z"/>
            <path class="cls-1" d="m576.41,513.33h-.88c-.57,0-1.14-.1-1.68-.3-3.9-1.48-5.54-1.47-5.67-1.46l-6.59.6c-2,.19-3.96.62-5.84,1.3l-19.44,7-27.02,9.01-29.72,9.78-24.35,7.92-16.83,5.09c-1.01.31-1.78,1.03-2.58,1.71-4.66,3.91-11.54,2.1-16.31,4.73-26.39,14.52-55.54,21.76-83.14,33.02-12.15,4.95-24.52,9.55-37.14,13.04-14.22,3.93-19.21,12.73-18.59,26.81.54,12.22.4,35.5-.46,36.73-1.22,2.24-.53.16-.52-1.49,0-.53-.26-1.03-.27-1.57-.05-15.43-.1-30.87-.15-46.3-.04-1.5-.08-3-.12-4.5-.02-.85.24-1.68.77-2.35,9.46-11.85,24.6-12.21,37.28-17.07,39.83-15.31,80.11-29.46,120.21-44.06l29.37-9.38,49.96-18.45,42.42-13.26.75-.2,6.52-1.44c.15-.03.3-.08.45-.08.75.03,1.7.1,2.46.48,2.05,1.01,7.85,3.96,7.11,4.69Z"/>
            <path class="cls-8" d="m200.98,624.11c-.2-14.25-.4-28.51-.6-42.76.2,14.25.4,28.51.6,42.76Z"/>
            <path class="cls-4" d="m250.26,589.08c-.77.53-2.44,4.58-2.67,4.46-2.41-1.31-5.37-3.53-7.74-4.92-.54-.32-2.87-1.49-2.52-2.02.11-.18,2.22-1.09,2.24-1.08,2.87,1.48,7.43,1.79,10.69,3.56Z"/>
            <path class="cls-4" d="m256.75,597.7c-1.83-.83-5.52-.83-7.36-1.66.14-.28,3.53-4.47,3.56-4.46,2.45.83,13.61-.87,16.04,0,0,0,1.61.95-8.02,4.46-.74.27-2.85,1.71-3.59,1.96l-.64-.29Z"/>
            <path class="cls-6" d="m374.86,639.93c-.07.05-.15.11-.22.16-.06-.12-.12-.23-.18-.35.27-.04.28-.05.41.19Z"/>
            <path class="cls-9" d="m277.2,671.96c.91.35,1.82.7,2.74,1.05-.17.25-.46.74-.48.73-.85-.49-1.67-1.01-2.49-1.54,0,0,.23-.24.23-.24Z"/>
            <rect class="cls-9" x="276.79" y="671.19" width="1.78" height="1.78"/>
            <path class="cls-6" d="m202.71,632.13c-2.64-1.74-1.72-8.02-1.72-8.02l-.6-42.76c1.33-2.78,2.02-6.25,4.11-8.23,10.06-9.56,24.16-9.75,36.3-14.48,19.56-7.61,39.93-13.15,59.95-19.56.08.05.15.1.23.15-.08-.05-.16-.09-.24-.14,17.86-3.88,34.12-17.53,54.04-8.9,15.72,6.45,43.22,17.13,42.48,21.31-.15,3.83-52.94,15.56-79.21,23.94-17.25,5.5-33.52,14.46-51.31,17.92-4.42.86-7.48-.86-10.78-1.16-1.57-.15-2.92.09-3.82,1.23h0c-.44.56-.09,1.06.47,1.49.45.35.7.54,1.39.69,1.79.41,3.56,1.57,5.05,2.64,6.53,4.68,15.89,5.74,18.88,14.92l.63,1.69c.4,1.07.71,2.88.7,4.02-.16,15.6.41,46.12.26,47.5-.17,1.54.14,3.09-.94,4.19-.2.2-.46.54-.73.88-.55.71-1.5.95-2.32.6-2.41-1.03-7.47-3.16-10.4-4.24,0,0,.06.03.06.03-5.48-2.89-9.02-9.3-16.28-8.93,0,0,.07,0,.07,0-6.4-3.49-12.79-6.97-19.19-10.46h.02c-3.76-2.15-7.53-4.3-11.29-6.46l.04.07c-2.2-1.27-4.41-2.54-6.62-3.81,0,0,.07,0,.07,0-3.1-2.04-6.2-4.08-9.3-6.13Zm46.41-42.06c-.2-2.5-6.4-3.47-9.02-3.47-1.39,0-.25,1.24,0,1.39,2.3,1.35,4.06,2.29,6.4,3.57.46.25,1,.3,1.51.19s.91-.59,1.11-1.68Z"/>
            <path class="cls-13" d="m354.52,557.89c1.62.63-62.38,1.78-97.13,8.91-1.16.24-20.5,6.24-25.84,6.24-1.27,0-14.41-1.07-14.26-2.67.28-2.96,34.7-16.97,37.31-17.82,10.16-3.31,20.36-6.55,30.57-9.81,10.11-3.23,20.23-6.46,30.37-9.7,4.61-1.47,9.22-2.95,13.84-4.42,1.2-.38,2.4.43,2.36,1.61-.04,1.29-.09,2.58-.15,3.88-.28,5.51.87,7.17,6.29,9.14,5.26,1.91,10.51,3.9,15.84,5.79.91.32,1.81.48,2.68.49.18,0,.35,0,.53-.02.16,0,.32-.02.47-.05.04,0,.08,0,.12-.01.13-.02.26-.04.39-.07.05,0,.1-.02.14-.03.12-.02.24-.05.36-.09.06-.02.12-.03.18-.05.13-.04.26-.08.39-.13.17-.06.33-.13.49-.2.16-.07.32-.15.47-.23.14-.07.27-.15.41-.24.02,0,.04-.02.06-.04.15-.09.3-.19.44-.3.44-.31.86-.69,1.24-1.11.01,0,.02-.02.03-.03.25-.27.49-.56.71-.87.12-.16.24-.33.34-.5.12-.17.22-.35.32-.53h0c.2-.69.4-1.33.6-2.01.29-8.27.58-16.46.86-24.57,0-.17,1.08-1.92,1.76-2.03,1.15-.19,2.18.62,2.15,1.7-.19,6.64-.4,13.34-.57,20.09-.17,6.88,5.3,10.73,12.45,8.57,3.42-1.03-8.23,3.05-1.25,5.77l-24.95,5.35Z"/>
            <path class="cls-6" d="m427.36,502.01c-1.57,4.52-3.47,9.45-5.38,14.79-1.33,3.7-3.34,6.35-6.2,7.72-4.8,2.29-10.45.66-13.53,6.47-.57,1.08,2.09,8.25,2.09,8.25,1.17,2.21,3.44,2.94,6.24,1.85,13.17-5.14,28.94-11.3,48.15-18.82,12.47-4.88,26.61-10.48,42.8-16.89,5.52-2.18,8.11-5.3,6.11-9.28-1.75-3.49-5.92-4.75-11.2-4.69-1.3.01-2.56-.04-3.81-.02-22.76.38-21.6-2.86-35.71-2.13-2.21.11-17,6.38-19.12,7.33-2.46,1.1-6.24,0-8.47,1.22-.79.43-1.45,1.29-1.53,1.98,0,0,0,0,0,.01-.08.71-.17,1.43-.44,2.21Z"/>
            <path class="cls-13" d="m427.82,501.07c-.87,3.92-1.97,8.21-3.05,12.84-.74,3.21-2.15,5.52-4.4,6.74-3.8,2.06-8.78.74-10.82,5.9-.38.96,2.66,7.11,2.66,7.11,1.22,1.86,3.21,2.4,5.45,1.36,10.32-4.8,22.23-10.33,36.12-16.81,8.68-4.04,18.21-8.54,28.74-13.5,3.5-1.65,5.03-4.04,3.55-7.18-1.32-2.78-4.13-3.87-7.67-3.95-.88-.02-1.73-.09-2.58-.1-16.01-.26-15.38-2.92-25.79-2.73-1.67.03-12.66,5.02-14.26,5.79-1.87.9-5.02-.13-6.72.89-.61.36-1.07,1.1-1.07,1.7,0,0,0,0,0,.01,0,.62,0,1.25-.16,1.93Z"/>
            <path class="cls-4" d="m367,548.58v-45.36c0-2.37,3.41-4.97,8.77-6.69,7.5-2.42,14.92-4.8,22.26-7.17,8.61-2.78,15.65-16.32,24.23-18.79,17.59-5.07,33.53-15.28,33.86-6.24.35,9.93-.39,44.1-.1,54.15-.13,1.58-.46,2.98-.99,4.28-1.9,4.66-6.67,7.79-16.63,11.25-.22.08-.44.15-.66.23-9.13,3.11-18.43,6.26-27.86,9.44-6.92,2.34-13.92,4.71-21,7.1-10.31,3.49-21.89,2.36-21.89-2.19Z"/>
            <path class="cls-6" d="m456.01,474.32c-1.44,5.41-4.21,9.19-5.91,12.46-2.77,5.32-7.32,9.49-12.81,11.9l-7.02,3.07-13.97,7.06c-5.84,2.95-12.02,5.16-18.4,6.57l-3.88.86c-6.74,1.5-13.76-.9-18.18-6.2l-4.04-4.85c-1.37-1.65-2.13-3.73-2.13-5.88v-23.41l56.81-17.71c7.37-2.3,15.41-.74,21.39,4.14l7.35-.7c2.12,1.73,1.5,10.03.79,12.67Z"/>
            <path class="cls-13" d="m440.93,468.87c-1.13,4.24-3.3,7.2-4.63,9.77-2.17,4.17-5.74,7.44-10.04,9.33l-5.51,2.41-10.95,5.53c-4.57,2.31-9.42,4.04-14.42,5.15l-3.04.67c-5.29,1.17-10.79-.7-14.26-4.86l-3.17-3.8c-1.08-1.29-1.67-2.92-1.67-4.61v-18.35l44.54-13.88c5.78-1.8,12.08-.58,16.77,3.25l4.59,3.75c1.66,1.36,2.35,3.57,1.8,5.64Z"/>
          </g>
          <path class="cls-1" d="m371.03,516.39v21.68c0,2.33.39,4.63,1.14,6.83l.37,1.07c.45,1.31,1.3,2.46,2.42,3.27l.6.44c1.11.81,2.5,1.14,3.86.92l4.5-.72-2.49-1.66c-1.87-1.24-3.34-2.99-4.27-5.03l-.6-1.33c-.52-1.15-.91-2.35-1.15-3.58l-4.38-21.88Z"/>
          <path class="cls-1" d="m468.39,519.74l-8.64,2.24c-1.39.36-2.75.86-4.04,1.48l-18.47,8.87c-1.24.59-2.5,1.12-3.8,1.57l-1.56.55c-1.35.48-2.49,1.43-3.21,2.67l-.49.86c-.28.5.16,1.1.72.97l6.32-1.43c2.45-.55,4.85-1.33,7.16-2.33l10.83-4.66,13.37-6.24,6.05-2.69c.65-.29.57-1.23-.12-1.4l-1.9-.48c-.72-.18-1.48-.18-2.21,0Z"/>
        </g>
        <path class="cls-4" d="m259.67,592.94l6.11,8.92s-12.19-5.93-13.88-6.94c-3.47-2.08-4.3-1.8-6.24-3.47-1.45-1.24-1.67-1.26-1.67-1.27l3.28-2.13s1.16.62,3.24,1.32c6.33,2.11,8.33,3.47,9.16,3.57Z"/>
      </g>
      <g>
        <g>
          <path class="cls-6" d="m433.35,93.62c4.92-.44,9.84-.88,14.76-1.31.51.23,1.02.46,1.53.68-5.42.46-10.83.92-16.25,1.38-.01-.25-.02-.5-.04-.75Z"/>
          <path class="cls-6" d="m428.95,94.48c-.76-.23-1.52-.47-2.28-.7,2.23-.05,4.46-.11,6.69-.16.01.25.02.5.03.75-1.48.04-2.96.07-4.44.11Z"/>
          <path class="cls-6" d="m449.63,92.99c-.51-.23-1.02-.46-1.53-.68,1.74-.05,3.49-.11,5.23-.16.24.25.48.5.72.75-1.48.03-2.95.06-4.43.09Z"/>
          <path class="cls-6" d="m412.84,95.08c4.61-.43,9.22-.86,13.83-1.29.76.23,1.52.47,2.28.7-4.92.45-9.85.9-14.77,1.35-.45-.25-.89-.5-1.34-.76Z"/>
          <path class="cls-6" d="m408.22,95.96c-.27-.25-.54-.5-.82-.74,1.81-.05,3.62-.09,5.44-.14.45.25.89.5,1.34.76-1.98.04-3.97.09-5.95.13Z"/>
          <path class="cls-6" d="m393.49,96.68c-.89-.06-1.79-.12-2.68-.18,2.08-.19,4.15-.39,6.22-.58-1.18.25-2.36.51-3.54.76Z"/>
          <g>
            <path class="cls-2" d="m260.42,317.42c-.45.05-.9.1-1.35.15.06-.24.12-.48.19-.73l1.17.58Z"/>
            <path class="cls-1" d="m549.13,100.9s.08,0,.08,0c8.35,2.17,17.96,3.91,26.02,6.25,4.27,1.24,3.37,1.28,2.08,1.39-36.66,2.96-76.44,5.59-113.1,8.55-18.9,1.3-37.81,2.61-56.71,3.91l.06-.03c-18.43,1.24-36.86,2.47-55.28,3.74-.16.01-.3.42-.45.65.11.04.23.09.34.13-4.03.41-8.05.81-12.08,1.22-9.06.6-18.11,1.2-27.17,1.8-.55.14-1.1.28-1.65.42-11.27.81-19.65,1.43-30.92,2.23l-3.56,4.46c-8.59.92-16.46-2.45-25.06-1.53-.58.02-2.88,1.51-3.46,1.53-4.39.33-7.07-.82-11.45-.49-.55.15-1.1.3-1.65.45-13.85.8-29.73,6.8-43.04,4.5-20.72-3.59-39.19-13.67-59.52-19.53-1.75-.5-3.35-1.55-5.02-2.34,1.47-.05,2.95-.1,4.42-.15,11.05-.96,22.1-1.92,33.14-2.88,7.14-.53,14.29-1.06,21.43-1.59,4.18-.45,8.37-.91,12.55-1.36,1.73-.04,3.46-.09,5.19-.13,4.67-.45,9.35-.9,14.02-1.35.77-.03,1.54-.06,2.3-.09,5.4-.47,10.8-.93,16.19-1.4,7.37-.54,14.74-1.08,22.11-1.63,4.45-.42,8.9-.85,13.35-1.27,1.47-.06,2.95-.12,4.42-.18,4.42-.46,8.84-.91,13.26-1.37,1.51-.02,3.03-.04,4.54-.06,10.82-.94,21.63-1.88,32.45-2.82,2.71-.3,5.41-.61,8.12-.91,12.8-.74,25.59-1.49,38.39-2.23,5.18-.43,10.36-.87,15.54-1.3,1.48-.06,2.96-.12,4.44-.17,4.91-.45,9.83-.89,14.74-1.34,1.98-.04,3.97-.09,5.95-.13,4.92-.45,9.85-.9,14.77-1.35,1.48-.04,2.96-.07,4.44-.11,5.42-.46,10.83-.92,16.25-1.38,1.48-.03,2.95-.06,4.43-.09,12.55-1.03,25.11-2.07,37.66-3.1l3.68.22c17.91,3.63,35.82,7.26,53.73,10.89Z"/>
            <path class="cls-4" d="m476,454.77c-.23.14-1.73.63-1.96.77-.76-.18-1.52-.36-2.28-.54,8.85-6.33,18.06-35.96,16.1-36.97.09-.08.16-.17.24-.25,2.28-2.52,4.09-5.43,5.58-8.49,2.92-5.99,5.86-11.96,8.57-18.04,5.7-12.8-5.41-41.37-17.06-44.34-.94-.44-1.87-.88-2.81-1.32-9.97-3.48-19.94-6.96-29.92-10.43-.02-.06-.03-.17-.06-.17-3.09-.39-4.11,1.54-7.2,1.14-3.79.72-8.69,3.74-12.48,4.46l-1.2-2.35c-.58-1.13-1.92-1.64-3.1-1.18-1.06.42-2.12.83-3.18,1.25-.18-.1-.37-.12-.56-.07-.09-10.04-.18-20.09-.27-30.13-.24-6.53-2.16-12.03-8.91-14.57-.44-.33-.87-.66-1.31-1l-1.17-.15c-9.84-2.74-18.57-1.63-28.41-4.37-3.64.2-8.11-3.47-11.75-3.27l-.05.02c-1.99.12-3.98.23-5.96.35-7.32,1.02-14.64,2.04-21.95,3.05.65-2.55,1.3-5.1,1.95-7.65l.41.33c.1-.82.21-1.63.31-2.45,1.61-28.34-11.12-50.42-29.43-51.05-.8-.45-1.61-.9-2.41-1.35-.92-.29-1.89-.48-2.77-.87-25.3-11.03-54.9-4.14-65.83,15.35-.48.55.94,1.41.46,1.96l-1.78.89c-.44.52-.45.37-.89.89l-3.18,4.21-.64.65c-1.12.83-2.6,1.44-3.27,2.55-11.4,18.89-14.64,39.62-13.58,61.29-4.27.73-8.55,1.46-12.82,2.19-3.95.67-7.45,2.93-9.7,6.24l-1.56,2.3c-3.49.59-9.87-5.21-12.89-3.59-1.01.01-2.12.02-3.14.03-2.18-1.33-1.98-1.69-2.99-2.54s-1.79-1.96-2.2-3.22h0c-.27-.83-.41-1.7-.42-2.57-.12-38.44-.24-76.87-.36-115.31.35-13.37.69-26.73,1.04-40.1.03-1.24.29-2.46.76-3.61h0s-.02.03-.02.03c.25-.5.49-1,.74-1.5h0c.26-.49.53-.99.79-1.48l-.05.06c.23-.26.45-.53.68-.79l.05-.09c.32-.46.64-.93.96-1.39,6.67-9.81,17.08-9.29,27.1-9.82.76-.15,1.52-.31,2.28-.46,7.56-.57,23.78-2.01,24.33-2.16,2.46-.11,11.41-.81,12.94-.99l1.98-.05,16.84-1.45c.49-.04.97-.13,1.43-.27l.21-.06c.43-.13.88-.22,1.33-.27,1.99-.24,3.98-.47,5.97-.71l-.05.03c11.27-.81,35.46-2.84,35.46-2.84,9.06-.6,18.11-1.2,27.17-1.8,4.03-.41,8.05-.81,12.08-1.22,18.46-1.51,36.92-3.01,55.39-4.52l-.06.03c18.9-1.3,37.81-2.61,56.71-3.91,35.28-2.85,70.56-5.7,105.84-8.56,1.71-.09,3.42-.17,5.13-.26l1.6-.35.75-.05c1.48.13,2.97.26,4.45.39,1,.09,1.98.27,2.94.56,3.4,1.03,7.92,2.96,10.25,4,1.01.45,1.92,1.07,2.7,1.85.36.36.72.72,1.08,1.08h-.02c.25.24.51.5.76.75l.72.72c.5.75,1,1.49,1.51,2.24,0,0,2.67,6.16,2.84,9.32.73,13.64,1,27.3,1.44,40.95-.2,16.48-1.32,28.94-1.32,29.66-.03,12.31-.04,24.62-.05,36.93-.49,29.83-.67,59.67-1.56,89.5-.74,24.67,3.07,50.39-2.57,74.05-.24,1.01-.58,2-1.03,2.94-.24.51-.51.98-.73,1.19,0,0-2.51,4.08-2.95,4.44,0,0-.23.34-.53.78-.65.96-1.39,1.86-2.21,2.68l-1.68,1.68c-35.83,17.73-75.17,25.38-112.4,39.1l-.69.83s-1.2.71-2.45,1.26Z"/>
            <path class="cls-13" d="m472.25,446.73c-.63.38-1.26.77-1.92,1.16-.56-.85-.31-.48-.87-1.32,8.54-6.03,12.59-14.43,10.71-15.39.1-.1,26.28-4.77,26.37-4.86,2.26-2.53,12.38-1.82,13.88-4.86,2.74-5.58,14.11.81,16.65-4.86,11.8-5.55,52.16-11.05,40.94-13.88-.9-.42-97.48-60.07-98.38-60.48-9.6-3.32-19.2-6.64-28.81-9.95-.02-.06-.03-.16-.05-.16-2.97-.37-3.96,1.47-6.93,1.08-3.65.69-8.37,3.56-12.01,4.25l-1.15-2.24c-.73-1.42-2.75-1.82-4-.41l-2.05.47c-.17-.09-.35-.11-.54-.07-.09-9.58-.17-19.16-.26-28.74-.23-6.23-2.08-11.48-8.58-13.9-.42-.32-.84-.63-1.26-.95l-1.13-.15c-9.48-2.61-17.88-1.56-27.36-4.17-3.51.19-7.81-3.31-11.32-3.12l-.05.02c-1.91.11-3.83.22-5.74.33-7.05.97-14.09,1.94-21.14,2.91.63-2.43,1.25-4.86,1.88-7.29l.4.31c.1-.78.2-1.56.3-2.34,1.55-27.03-10.7-48.1-28.34-48.7-.77-.43-1.55-.86-2.32-1.28-.89-.27-1.82-.46-2.66-.83-24.36-10.52-52.86-3.95-63.39,14.64-.46.52.91,1.34.45,1.87l-1.72.85c-.42.5-.44.35-.86.85l-3.06,4.01-.61.62c-1.08.79-2.51,1.38-3.15,2.43-10.98,18.02-14.1,37.79-13.07,58.47-4.12.7-8.23,1.39-12.35,2.09-3.8.64-7.18,2.79-9.34,5.96l-1.51,2.2c-3.2.54-8.93-4.46-11.98-3.6l-3.05.29c-2.56-.48-3.69-1.79-4.07-2.7-.31-.74-.8-1.29-1.05-2.04l-.32-.97c-.23-.71-.35-1.45-.36-2.19-.12-36.71-.23-73.42-.35-110.14.33-12.75.67-25.5,1-38.25.03-1.18.28-2.35.73-3.45h0s-.01.03-.01.03c.24-.48.47-.96.71-1.44h0c.25-.47.51-.94.76-1.41l-.05.06c.22-.25.44-.5.65-.75l.05-.08c.31-.44.62-.88.93-1.32,6.42-9.36,16.44-8.86,26.1-9.36.73-.15,1.46-.29,2.19-.44,7.28-.54,22.9-1.92,23.43-2.06,2.37-.11,10.98-.77,12.46-.94l1.9-.05,16.21-1.38c.47-.04.93-.13,1.38-.26l.2-.06c.42-.12.84-.21,1.28-.26,1.92-.23,3.83-.45,5.75-.68l-.05.02c10.85-.77,34.15-2.71,34.15-2.71,8.72-.57,17.44-1.14,26.16-1.71,3.88-.39,7.75-.78,11.63-1.16,17.78-1.44,35.55-2.87,53.33-4.31l-.06.03c18.2-1.24,36.4-2.49,54.6-3.73,33.97-2.72,67.94-5.44,101.91-8.16,1.65-.08,3.29-.16,4.94-.24,0,0,.48,0,1.21,0,4.17-.02,7.95,0,12,1.01,2.75.69,2.78.69,4.79,2.04,1.49,1,2.89,2.13,4.17,3.4l.69.68c.25.24.71.71.71.71.07.07.15.15.22.22.34.34.64.71.91,1.1l.25.36c.48.7.85,1.41,1.13,2.15.96,2.62,2.26,5.23,2.4,7.89.7,13.01.97,26.04,1.39,39.06-.2,15.73-1.27,27.61-1.27,28.3-.03,11.74-.04,23.49-.05,35.23-.47,28.46-.64,56.93-1.5,85.38-.72,23.92,2.71,48.01-2.75,71.75,0,0-1.58,5.26-2.06,6.21,0,0-1.39,2.78-2.78,4.16,0,0-1.39.69-2.78,2.08l-3.47,2.08c-34.5,16.92-69.82,21.65-105.67,34.74-.22.26-.44.53-.66.79l.03-.02c-1.2.52-2.41,1.04-3.61,1.56Z"/>
            <path class="cls-4" d="m466.56,442.58c-.22.13-.44.25-.65.38-.72-.17-1.44-.35-2.15-.52,8.42-5.75,17.29-32.97,15.43-33.92.1-.09.19-.18.27-.27,2.24-2.42,4.01-5.21,5.5-8.13,2.73-5.37,5.49-10.73,8.03-16.19,5.48-11.78-4.93-38.26-15.98-41.08-.89-.41-1.77-.82-2.66-1.23-9.45-3.28-18.89-6.55-28.33-9.83-.02-.05-.03-.15-.05-.16-2.92-.38-3.91,1.4-6.83,1.01-3.59.64-8.24,3.4-11.83,4.04l-1.12-2.18c-.63-1.23-2.26-1.67-3.48-.81-.95.26-1.79.49-2.74.75-.08,0-.17,0-.26.01-.05-9.27-.09-18.55-.14-27.82-.21-6.03-2-11.13-8.38-13.51-.41-.31-.82-.62-1.24-.93l-1.11-.15c-9.3-2.58-17.56-1.6-26.85-4.18-3.44.16-7.65-3.24-11.09-3.07l-.05.02c-1.88.1-3.75.2-5.63.29-6.91.9-13.82,1.81-20.72,2.71.62-2.35,1.24-4.7,1.86-7.04l.39.3c.1-.75.2-1.51.3-2.26,1.6-26.15-10.35-46.59-27.62-47.24-.76-.42-1.51-.83-2.27-1.25-.87-.27-1.78-.45-2.6-.81-23.79-10.26-51.62-3.99-61.91,13.93-.45.5.88,1.3.43,1.8l-1.67.81c-.41.48-.43.34-.84.82l-2.99,3.86-.6.6c-1.05.76-2.44,1.32-3.07,2.33-10.7,17.33-11.01,48-10.03,67.91-4,.65-11.74-.05-15.74.6-3.69.6-5.96-7.63-8.06-4.6l-1.46,2.1c-2.49.4-4.32-.6-6.25-.39-1.94.2-3.91.11-5.78-.47-2.92-.9-3.69-1.2-4.19-1.97-.25-.38-.55-.73-.85-1.07-.32-.36-.6-.71-.85-1.04-1-1.33-1.54-2.95-1.56-4.62-.15-11.75-.94-75.07-1.04-107.43.32-12.31.65-24.62.97-36.94.03-1.15.27-2.28.71-3.34h0s-.01.03-.01.03c.23-.46.46-.92.69-1.39h0c.25-.45.5-.91.74-1.37l-.05.05c.21-.24.42-.49.64-.73l.04-.08c.3-.43.6-.85.9-1.28,6.24-9.04,16-8.55,25.4-9.03.71-.14,1.42-.28,2.14-.42,7.09-.52,22.32-1.84,22.84-1.97,2.31-.1,10.72-.74,12.15-.91l1.86-.05,15.84-1.33c.46-.04.91-.12,1.35-.25l.2-.06c.41-.12.83-.2,1.25-.25,1.87-.22,3.75-.44,5.63-.66l-.05.02c10.62-.74,33.43-2.61,33.43-2.61,8.55-.55,17.1-1.1,25.66-1.65,3.81-.37,7.62-.75,11.42-1.13,17.47-1.39,34.97-2.78,52.48-4.17l-.06.03c17.95-1.21,35.93-2.41,53.92-3.62,33.64-2.65,67.36-5.3,101.14-7.96,1.64-.08,3.28-.16,4.92-.24l1.53-.33.71-.05c1.87.16,3.74.32,5.61.48,4.25,1.6,8.5,3.21,12.76,4.81v-.02c.7.7,1.41,1.39,2.12,2.09h-.02c.24.23.49.46.73.7l-.03-.02c.24.24.48.48.72.72,0,0,0-.02,0-.02.48.7.95,1.39,1.43,2.09l-.02-.03c.93,2.91,2.55,5.79,2.69,8.74.6,12.74.77,25.5,1.1,38.24-.31,15.38-1.47,26.99-1.47,27.66-.11,11.47-.21,22.94-.31,34.4-.67,27.76-1.05,55.5-2.11,83.18-.89,23.26,2.34,46.69-3.24,69.69,0,0-.37,2.32-1.28,4.68-.65,1.69-1.76,3.17-3.16,4.3-.46.37-.97.78-1.42,1.15-.89.73-1.89,1.32-2.97,1.73-.81.31-1.63.64-1.8.71-33.68,15.36-70.37,22-105.01,34.04-.22.25-.44.51-.66.76l.03-.02c-1.19.49-2.38.98-3.56,1.47Z"/>
            <path class="cls-6" d="m178.15,196.44h0c.12,38.49.24,76.98.36,115.46,0,.77.09,1.57.5,2.23.72,1.18,4.15,4.01,6.12,5.8l.04.36-4.34.2h-.02c-2.68-.74-5.41-1.33-8.03-2.25-21.73-7.64-65.19-23.06-65.21-23.06-.79-.18-2.73-1.64-4.4-2.46-.39-.19-.73-.45-1.04-.75l-.2-.2c-.23-.23-.42-.51-.55-.81-.28-.66-.61-1.48-.61-1.48-.1-48.46-.21-96.92-.31-145.37.05-.31.01-1.9.17-2.96.34-2.26.53-4.12,1.39-6.24l3.09-5.95.02-.03c.12-.15,1.13-1.41,1.61-2.09h0c.49-.5.98-.99,1.46-1.48.89-.77,2.71-2.12,2.88-2.25h.03c5.47-1.64,10.95-3.26,16.42-4.88h.08c1.65.8,3.24,1.83,4.98,2.32,20.32,5.86,40.39,13.25,61.11,16.84,13.31,2.3-3.95.37-10.62,10.18-.32.46-.64.92-.96,1.39l-.04.08c-.16.18-.32.37-.47.55l-.74,1.2c-.29.67-.63,1.3-.94,1.95-.47,1.14-.73,2.37-.76,3.61-.35,13.36-.69,26.73-1.04,40.09h0Z"/>
            <path class="cls-6" d="m549.13,100.9c-17.9-3.62-35.8-7.25-53.69-10.87-2.22,0-4.43,0-6.66.01h0c-11.57.95-23.14,1.91-34.71,2.86-.24-.25-.48-.5-.72-.75,11.3-.93,22.61-1.86,33.91-2.79,3.32-.24,6.1-.24,9,.02,17.51,3.66,35.03,7.31,52.54,10.96.1.19.21.38.33.56Z"/>
            <path class="cls-6" d="m293.88,103.97c10.53-.92,21.06-1.84,31.59-2.77.5.24,1.01.47,1.51.71-10.82.94-21.63,1.88-32.45,2.82-.22-.26-.43-.51-.65-.77Z"/>
            <path class="cls-6" d="m153.33,115.21c1.74-.08,3.47-.16,5.2-.24,1.39.02,2.78.03,4.17.05.82.05,1.64.1,2.46.16-11.05.96-22.09,1.92-33.14,2.88-.03-.27-.06-.55-.08-.82,5.91-.5,11.82-1,17.74-1.5,1.22-.18,2.44-.35,3.66-.53Z"/>
            <path class="cls-6" d="m593.26,112.01c-1.39-.69-5.68-2.22-8.45-3.13-.95-.32-1.93-.52-2.93-.61-1.2-.11-2.41-.22-3.61-.33-.5,0-1.16-.09-1.66-.1-.49-.08-.81-.09-1.3-.17-.06-.01-.12-.03-.18-.04-1.35-.35-17.61-4.57-25.93-6.73.72.01,1.45.02,2.17.03,8.94,1.98,17.87,3.98,26.8,5.96.74.09,1.47.18,2.21.28,0,0,1.93.43,2.89.65.74.15,1.48.3,2.21.44.4.08,3.61.97,7.78,3.75Z"/>
            <path class="cls-6" d="m335.2,100.39c5.4-.33,10.79-.66,16.19-.98,1.01-.15,2.02-.3,3.03-.45,5.64-.3,11.27-.61,16.91-.91.72.24,1.44.48,2.16.72-12.8.74-25.59,1.49-38.39,2.23h0c.03-.2.05-.41.09-.62Z"/>
            <path class="cls-6" d="m244.3,107.79c4.21-.29,8.41-.57,12.61-.86.68.23,1.36.46,2.04.69-7.37.54-14.74,1.08-22.11,1.63-.98-.18-1.96-.37-2.94-.55,2.68-.21,5.35-.41,8.03-.62.79-.09,1.58-.19,2.37-.28Z"/>
            <path class="cls-6" d="m131.93,117.23c.03.27.06.55.08.82-1.47.05-2.95.1-4.42.15-5.49,1.63-10.98,3.26-16.47,4.89,5.86-5.77,13.42-5.51,20.81-5.86Z"/>
            <path class="cls-6" d="m165.16,115.18c-.82-.05-1.64-.1-2.45-.16.1-.23.2-.45.32-.66,1.94-.07,3.89-.15,5.83-.22.78-.13,1.55-.26,2.32-.39,4.67-.3,9.34-.6,14-.9.47.25.93.5,1.4.75-7.14.53-14.29,1.06-21.43,1.59Z"/>
            <path class="cls-6" d="m233.9,108.7c.98.18,1.96.37,2.94.55-5.4.47-10.8.93-16.19,1.4,0-.25-.02-.5-.03-.76,4.43-.4,8.85-.8,13.28-1.19Z"/>
            <path class="cls-6" d="m373.49,98.78c-.72-.24-1.44-.48-2.16-.72,3.93-.25,7.87-.49,11.8-.74,1.97.05,3.93.11,5.9.16-5.18.43-10.36.87-15.54,1.3Z"/>
            <path class="cls-6" d="m202.95,111.35c4.17-.4,8.35-.81,12.52-1.21.96.2,1.92.4,2.87.6-4.67.45-9.35.9-14.02,1.35-.46-.25-.92-.49-1.37-.74Z"/>
            <path class="cls-6" d="m275.4,105.46c4.21-.36,8.42-.71,12.62-1.07.66.14,1.31.28,1.97.41-4.42.46-8.84.91-13.26,1.37-.44-.24-.89-.48-1.33-.72Z"/>
            <path class="cls-6" d="m258.95,107.63c-.68-.23-1.36-.46-2.04-.69,4.63-.43,9.25-.85,13.88-1.28.5.23,1.01.47,1.51.7-4.45.42-8.9.85-13.35,1.27Z"/>
            <path class="cls-6" d="m186.59,113.58c-.47-.25-.93-.5-1.4-.75,4.38-.44,8.76-.87,13.14-1.31.27.23.54.46.81.69-4.18.45-8.37.91-12.55,1.36Z"/>
            <path class="cls-6" d="m397.03,95.92c3.46-.23,6.91-.47,10.37-.7.27.25.55.5.82.74-4.91.45-9.83.89-14.74,1.34.04-.2.05-.41.01-.62,1.18-.25,2.36-.51,3.54-.76Z"/>
            <path class="cls-3" d="m100.51,143.87v.03c-.03.19-.05.39-.05.58.1,48.33.21,96.67.31,145-.68-3.32-1.96-6.65-1.96-9.98.1-45.25.75-137.84,1.03-138.86,0-.01,0-.02.01-.04.78-5.7,3.44-8.64,5.26-11.66-1.01,2.5-1.26,1.43-3.79,9.44-.44,1.38-.6,4.06-.82,5.49Z"/>
            <path class="cls-6" d="m393.49,96.68c.03.21.03.41-.01.62-1.48.06-2.96.12-4.45.17-1.97-.05-3.93-.11-5.9-.16,2.56-.27,5.12-.54,7.68-.81.89.06,1.79.12,2.68.18Z"/>
            <path class="cls-6" d="m326.98,101.92c-.5-.24-1.01-.47-1.51-.71,2.23-.12,4.47-.24,6.71-.36.98.06,1.96.12,2.94.18,0,0,0-.01,0-.01-2.71.3-5.42.61-8.12.91Z"/>
            <path class="cls-6" d="m289.98,104.81c-.66-.14-1.31-.28-1.97-.41,1.95-.14,3.91-.28,5.86-.42.22.26.43.51.65.77-1.52.02-3.03.04-4.54.06Z"/>
            <path class="cls-6" d="m272.31,106.36c-.5-.23-1.01-.47-1.51-.7,1.53-.06,3.07-.13,4.6-.19.44.24.89.48,1.33.72-1.47.06-2.95.12-4.42.18Z"/>
            <path class="cls-6" d="m199.13,112.22c-.27-.23-.54-.46-.81-.69,1.54-.06,3.08-.12,4.62-.18.46.25.92.49,1.38.74-1.73.04-3.46.09-5.19.13Z"/>
            <path class="cls-6" d="m218.34,110.74c-.96-.2-1.92-.4-2.87-.6,1.72-.08,3.43-.16,5.15-.25,0,.25.02.5.03.76-.77.03-1.54.06-2.3.09Z"/>
            <path class="cls-14" d="m111.02,122.94c-.93.8-1.86,1.61-2.79,2.41.93-.8,1.86-1.61,2.79-2.41Z"/>
            <path class="cls-6" d="m163.02,114.36c-.12.21-.23.44-.32.66-1.39-.02-2.78-.03-4.17-.05,1.5-.2,3-.41,4.49-.61Z"/>
            <path class="cls-12" d="m153.33,115.21c-1.22.18-2.44.35-3.66.53,1.22-.18,2.44-.35,3.66-.53Z"/>
            <path class="cls-12" d="m354.42,98.96c-1.01.15-2.02.3-3.03.45,1.01-.15,2.02-.3,3.03-.45Z"/>
            <path class="cls-6" d="m335.11,101.02c-.98-.06-1.96-.12-2.94-.18,1.01-.15,2.02-.3,3.03-.45-.03.21-.06.42-.09.63Z"/>
            <path class="cls-6" d="m551.38,100.94c-.72-.01-2.25-.04-2.25-.04-.12-.18-.23-.36-.33-.56.86.2,1.72.4,2.58.6Z"/>
            <path class="cls-12" d="m601.9,119.47c-.5-.75-1-1.49-1.51-2.24.5.75,1,1.49,1.51,2.24Z"/>
            <path class="cls-14" d="m108.23,125.34c-.49.5-.98.99-1.48,1.49.49-.5.98-.99,1.48-1.49Z"/>
            <path class="cls-12" d="m244.3,107.79c-.79.09-1.58.19-2.37.28.79-.09,1.58-.19,2.37-.28Z"/>
            <path class="cls-12" d="m171.18,113.74c-.77.13-1.55.26-2.32.39.77-.13,1.55-.26,2.32-.39Z"/>
            <path class="cls-12" d="m599.67,116.5c-.25-.25-.51-.51-.76-.76.25.25.51.51.76.76Z"/>
            <path class="cls-13" d="m241.15,249.03s-.02.03-.03.04c-1.71,2.61-2.84,5.55-3.31,8.64-.33,2.16-.65,4.32-.98,6.48-2.62,3.99-1.26,7.98.02,11.96,1.24,4.11,2.47,8.22,3.71,12.32,10.48,18.78-.2,23.43-16.32,24.44-1.06-21.67,2.18-42.4,13.58-61.29.68-1.13,2.2-1.74,3.33-2.59Z"/>
            <path class="cls-1" d="m352.17,125.49c-.11-.04-.23-.09-.34-.13.15-.23.28-.64.45-.65,18.43-1.26,36.85-2.5,55.28-3.74-18.46,1.51-36.92,3.01-55.38,4.52Z"/>
            <path class="cls-1" d="m251.73,134.09c8.59-.92,17.19-1.84,25.78-2.77-2.22.26-4.43.53-6.65.79-.52.15-1.04.31-1.57.46-5.86.5-11.71,1.01-17.57,1.51Z"/>
            <path class="cls-1" d="m236.82,135.13c4.39-.33,8.77-.66,13.16-1-1.17.06-2.34.12-3.51.18-.76.16-1.52.32-2.28.48-2.46.11-4.92.22-7.37.34Z"/>
            <path class="cls-14" d="m189.34,319.75c-1.39.18-2.78.35-4.16.53,0,0-.04-.36-.04-.36"/>
            <path class="cls-16" d="m414.2,292.52c-.7.01-1.4.02-2.1.03.31-.06.62-.12.93-.19.39.05.78.1,1.18.15Z"/>
            <path class="cls-14" d="m182.15,148.95c.32-.46.64-.93.96-1.39-.32.46-.64.93-.96,1.39Z"/>
            <path class="cls-14" d="m179.94,152.76c.25-.5.49-1,.74-1.5-.25.5-.49,1-.74,1.5Z"/>
            <path class="cls-14" d="m179.24,154.46c.24-.58.48-1.16.71-1.73-.24.58-.48,1.16-.71,1.73Z"/>
            <path class="cls-14" d="m180.68,151.26c.26-.5.53-.99.79-1.49-.26.5-.53.99-.79,1.49Z"/>
            <path class="cls-14" d="m181.42,149.83c.23-.26.45-.53.68-.79-.23.26-.45.53-.68.79Z"/>
            <path class="cls-7" d="m264.23,289.36c-.29-.71-.58-1.42-.87-2.12.04-.26.08-.52.13-.77.25.97.5,1.93.74,2.9Z"/>
            <path class="cls-7" d="m344.73,300.24c.5.32,1,.65,1.5.97-.5-.32-1-.65-1.5-.97Z"/>
            <path class="cls-8" d="m134.74,314.06c-.73.18-1.2.44-1.57.35-.29-.08-.47-.59-.7-.91.45-.1.9-.29,1.34-.27.24.01.46.39.94.83Z"/>
            <path class="cls-2" d="m185.27,335.27c-.29.24-.58.49-.86.73.29-.24.58-.49.86-.73Z"/>
            <path class="cls-13" d="m236.86,276.15c-1.28-3.99-2.64-7.97-.02-11.96,0,3.99.01,7.98.02,11.96Z"/>
            <path class="cls-12" d="m238.33,254.31c.51-1.1,1.02-2.21,1.53-3.31-.51,1.1-1.02,2.21-1.53,3.31Z"/>
            <path class="cls-2" d="m438.94,353.73c-.37.25-.74.5-1.12.75.37-.25.74-.5,1.12-.75Z"/>
            <path class="cls-7" d="m300.02,229.45c-.88.27-1.32.44-1.77.51-.05,0-.18-.49-.28-.75.33-.1.67-.28,1-.29.22,0,.45.22,1.04.53Z"/>
            <path class="cls-3" d="m162.04,314.61c-11.58-4.46-19.59-6.1-29.41-11.58-1.37-.76-8.02-5.35-7.13-6.24.89-3.56,14.26,1,17.82,2.67,4.59,2.16,8.8,3.97,13.37,6.24,4.64,2.31,9.22,3.99,13.98,5.94,2.89,1.19,3.13,1.34,4.16,1.64,1.37.39,2.66,1,3.9,1.72,2.45,1.42,3.09,2.39,8.72,2.62,3.56,0,17.59-.46,18.25-.33-.79.43-17.41,2.71-18.25,3.01-7.95,2.83-18.29-3.01-25.42-5.68Z"/>
            <path class="cls-4" d="m174.69,151.98c-1.83,1.05-2.21.77-3.67,1.16-2.38.64-6.61-1.28-10.66-2.68-12.15-4.2-26.08-6.62-38.84-10.32-5.91-1.71-15.44-7.84-8.32-12.23,2.49-.34,6.07.39,8.02.89,7.9,2.01,15.32,6.78,23.25,8.72,10.61,2.6,16.62,10.48,29.21,8.23,1.81-.32,10.64-5.37,12.59-5.37,1.78,0-4.46,3.56-5.35,4.46-2.67,2.67-4.8,6.31-6.24,7.13Z"/>
            <path class="cls-1" d="m524.88,123.91l16.56-1.88h.02s14.46-1.04,14.46-1.04c4.57-.33,18.9.11,18.9.11,2.67.01,5.44,1.34,9.01,3.54,0,0,6.42,4.15,8.57,13.21.16.69.73,22.45.73,22.45,1.32,74.28-2.97-2.58-3.27-3.9l-2.92-13.12c-.31-1.38-.52-2.04-1.5-3.6-.46-.73-.97-1.44-1.49-2.13l-1.98-2.58c-1.18-1.54-6.73-4.57-10.14-6.37-1.82-.96-3.9-1.73-6.15-2.29l-1.27-.31c-5.31-1.3-10.89-1.75-16.38-1.32l-7.21.57c-2.75.22-5.53.25-8.28.09l-7.57-.43c-11.1.29-1.06-.89-.1-1Z"/>
            <polygon class="cls-7" points="263.32 285.3 263.74 287.46 263.36 287.24 262.44 282.38 263.32 285.3"/>
            <path class="cls-4" d="m290.67,212.06l201.07,70.32,51.74,71.73-39.52,53.65s-42.65,16.48-44.47,15.72-131.93-48.88-131.93-48.88l-83.5-53.54,15.02-66.29,31.59-42.69Z"/>
            <polygon class="cls-1" points="581.29 396.41 581.29 396.41 581.29 396.41 581.29 396.41"/>
            <polygon class="cls-1" points="556.31 401.6 556.29 401.63 556.29 401.64 556.31 401.6"/>
            <path class="cls-13" d="m469.96,443.88l.03-.02s-.01,0-.02,0c0,0,0,0,0,.01Z"/>
            <path class="cls-4" d="m476,453.38c37.23-13.72,79.71-22.07,115.54-39.8-19.33,14.3-43.29,16.61-64.95,24.84-15.05,5.72-30.67,9.96-46.03,14.85-9.41,3.57-4.09.3-4.56.11Z"/>
            <path class="cls-13" d="m532.23,417.7c-.11.04-.21.08-.32.13l.18-.06.14-.07Z"/>
            <path class="cls-1" d="m581.94,402.74c-.46.37-.97.78-1.42,1.15-.89.73-1.89,1.32-2.97,1.73-.81.31-1.63.64-1.8.71-31.3,14.28-65.21,21.03-97.65,31.57-1.89,2.77-3.47,7.79-2.27,7.28.22-.26.44-.52.66-.78,35.85-13.09,71.17-17.82,105.67-34.74l2.78-1.39c1.66-.66,3.47-2.78,3.47-2.78,1.39-1.39,2.78-4.16,2.78-4.16.18-.35.5-1.28.84-2.32-2.48,1-5.17.77-7.3.27-.67,1.33-1.62,2.51-2.78,3.45Z"/>
            <path class="cls-1" d="m200.88,167.16c-.21.55-.45,1.16-.66,1.7-.43,1.07-.85,5.11-.87,5.29-4.04,34.17-.11,68.51-.24,102.62-.56,7.68,1.54,10.2-2.27,9.25-1.08-.27-1.85-1.21-1.87-2.32-.84-35.04-6.22-77.25-.74-114.64l.78-3.63c.24-1.53,1.28-3.58,1.28-3.58.9-1.75,3.12-3.91,3.12-3.91.28-.27,1.07-.87,1.95-1.51,1.78-.93,2.8-1.46,3.62-1.15.75.28,1,1.23.59,1.92-1.43,2.37-4.2,8.76-4.66,9.97Z"/>
            <path class="cls-6" d="m471.77,455c-15.71,5.14-31.42,10.28-47.13,15.41,0-10.06,0-20.12,0-30.17.49,3.03.99,6.04,1.51,9.06.55,3.19,4.06,4.9,6.92,3.39,11.49-6.07,21.95-13.63,31.36-22.73,5.13-2.18,15.88-7.03,19.5-8.77.73-.35,1.41-.81,2-1.36.65-.6,1.3-1.2,1.94-1.8,1.96,1.01-7.24,30.64-16.1,36.98Z"/>
            <path class="cls-13" d="m480.2,443.09l-2.11,4.74c-.95,1.67-2.17,3.43-3.45,4.86l-1.39,1.39c-1.35,1.09-2.3,1.2-3.95,1.74l-19.15,6.31-25.49,8.28.02-13.66,55.52-13.66Z"/>
            <path class="cls-4" d="m424.69,471.43c-.02-.34-.03-.68-.05-1.02,15.71-5.14,31.42-10.28,47.13-15.41.76.18,1.52.36,2.28.54-16.45,5.3-32.9,10.59-49.35,15.89Z"/>
            <path class="cls-4" d="m441.57,447.79c-3.07,1.91-6.22,3.72-9.45,5.39-1.88.98-4.08.28-5.17-1.35l-2.31.64.02,4.38,55.54-13.76,1.51-3.28,1.47-3.51-41.61,11.5Z"/>
            <path class="cls-13" d="m464.42,429.96l-13.51-.1c-1.88-.01-3.66-.7-5.24-1.73-.15-.1-.3-.17-.46-.21-13.62-7.4-23.39-6.97-20.58,12.33.54,3.35,1.09,6.69,1.68,10.03.1.58.33,1.11.63,1.56l14.62-4.04c8.2-5.1,15.83-11.03,22.85-17.83Z"/>
          </g>
        </g>
        <path class="cls-6" d="m432.12,453.18c3.23-1.68,6.38-3.48,9.45-5.39l-14.62,4.04c1.09,1.63,3.29,2.33,5.17,1.35Z"/>
      </g>
      <g>
        <g>
          <path class="cls-10" d="m425.26,338.3c2.7,6.54-6.28,17.44,7.41,19.88-2.88,3.27-4.57.77-6.86-.79,0,0-.89-.89-.89-.89-.25-.51-.12-.12-.37-.63,0,0,.02.05.02.05-.06-5.41-.11-10.81-.17-16.22.03-.49.07-.98.1-1.47h.2c.2-.05.38-.02.56.07Z"/>
          <g>
            <path class="cls-2" d="m267.48,312.45c-2.06,1.6-4.11,3.2-6.17,4.79-.03.03-.08.03-.12.02-3.58-1.11-7.17-2.23-10.75-3.34-.11-.03-.13-.19-.03-.25,5.42-3.18,11.27-1.71,17-1.46.12,0,.17.16.07.23Z"/>
            <g>
              <path class="cls-8" d="m116.59,314.61c1.78-9.8,4.46-11.58,8.91-10.69,20.51,5.78,25.64,17.32,47.82,17.89,2.49.06,5-.85,7.5-1.31,1.45-.07,2.91-.14,4.36-.2,1.39-.18,2.78-.35,4.16-.53,3.99-.81,7.99-1.61,11.98-2.42,1.33-.02,2.66-.04,3.99-.06,14.87-2.11,29.61-6,44.84-3.44,3.7,1.15,7.4,2.3,11.11,3.45-.28.04-.55.08-.83.12l-1.17-.58c-.06.24-.12.48-.19.73-8.64,1.46-17.45,2.3-25.9,4.51-16.02,4.2-34.39,0-47.91,13.2-.29.24-.58.49-.86.73,0,0,.02,0,.02,0-1.08.26-2.36,1.04-3.2.7-20.43-8.21-27.38-9.15-47.7-17.63-8.91,5.35-18.71,3.56-16.93-4.46Z"/>
              <path class="cls-10" d="m224.24,312.91c16.12-1.01,26.8-5.66,16.32-24.44,5.81-5.17,11.18-.37,16.23,1.37,3.85,1.32,5.31.67,6.57-2.6.29.71.58,1.42.87,2.12,1.57,3.47,3.14,6.95,4.7,10.42.19,1.24.38,2.48.58,3.71,0,1.21,0,2.42,0,3.63-.58,1.7-1.17,3.41-1.75,5.11-5.94-.21-12.01-1.85-17.61,1.6-15.23-2.56-29.96,1.33-44.83,3.44-1.29.11-4.04.48-4.07.11,6.33-1.08,16.66-3.4,23-4.48Z"/>
              <path class="cls-10" d="m129.95,303.03c21.73,7.68,21.09,7.57,42.84,15.21,2.62.92,5.35,1.51,8.02,2.25-2.5.46-5.01,1.38-7.5,1.31-21.97.83-22.85-8.55-43.36-14.32-4.52-1.27-5.35-1.78-8.02-.89-2.67.89-4.46,4.46-4.46,4.46,0-2.67,1.78-6.24,4.46-8.02,1.05-.7,5.35-.89,8.02,0Z"/>
              <path class="cls-8" d="m240.46,250.45c2.67-4.46,6.24-9.8,6.24-9.8,10.69-19.61,40.96-26.55,66.26-15.52.88.38,1.84.58,2.77.87-21.45-.14-38.86,6.97-48.93,27.25-.36.49-.99,1.57-.99,1.57-9.28.22-14.02-11.61-25.34-4.37Z"/>
              <path class="cls-2" d="m242.26,247.89c9.69-4.02,14.96,7.13,23.53,6.92-2.93,10.2-6.01,20.39-2.39,31.1-.03.19,0,.37.08.55-.04.26-.08.52-.13.77-1.26,3.27-2.72,3.92-6.57,2.6-5.05-1.73-10.41-6.54-16.23-1.37-1.25-4.17-2.51-8.34-3.76-12.51-.19-2.65-.37-5.2-.56-7.84.65-4.29,1.3-8.59,1.95-12.88.44-1.14,1.12-2.92,1.56-4.06l1.7-2.58c.2-.3.48-.55.82-.69Z"/>
              <path class="cls-8" d="m448.13,334.46q2.63-.24,5.3.65c9.97,3.48,18.98,7,28.95,10.48-16.03-5.52-30.22-1.27-43.45,8.14l-1.12.75h.03c-1.48-1-3.38-1.69-4.36-3.05-3.1-4.3.87-10.89-4.5-14.59.59-.06,13.79-1.88,19.15-2.38Z"/>
              <path class="cls-2" d="m344.73,300.24c-4.03-4.08-1.8-7.91.16-12.08,7.32-1.02,14.64-2.04,21.95-3.06,4.15,1.72,7.66,3.64,2.46,8.17.93.97,1.9,2.81,2.79,2.77,6.63-.31,13.25-1,19.87-1.57-15.25,2.24-30.5,4.47-45.75,6.71,0,0,.03.03.03.03-.5-.32-1-.65-1.5-.97Z"/>
              <path class="cls-8" d="m391.96,294.48c-6.62.57-13.23,1.25-19.87,1.57-.88.04-1.86-1.8-2.79-2.77,5.2-4.53,1.7-6.45-2.46-8.17,1.99-.12,3.97-.23,5.96-.35,4.03.04,8.05.08,12.08.12.39,0,.78,0,1.17,0,8.99,2.5,17.98,5,26.96,7.5-.31.06-.62.13-.92.19-6.72.64-13.43,1.28-20.15,1.92Z"/>
              <path class="cls-2" d="m437.85,354.49c-1.21.98-2.42,1.96-3.62,2.95-.53.25-1.05.5-1.58.76,0,0,.03,0,.03,0-13.69-2.45-4.71-13.34-7.41-19.88,1.24-.49,2.48-.97,3.72-1.46,5.37,3.71,1.4,10.29,4.5,14.59.98,1.36,2.88,2.06,4.36,3.06Z"/>
              <g>
                <path class="cls-10" d="m166.49,554.33c.6.24,2.04-.12,2.67,0,5.83,1.09,10.95,3.48,16.78,4.57-10.92,1.21-20.72-1.89-29.8-7.75,0,0,.19-.22.19-.22,3.42,1.38,6.74,2.01,10.16,3.39Z"/>
                <path class="cls-10" d="m128.73,536.95c-7.72-4.02.03.01-7.69-4.01-.89-.89-1.04-1.55-.89-1.78,7.62,4.2,1.11,1.42,8.73,5.61l-.15.17Z"/>
                <path class="cls-10" d="m156.14,551.15c-3.93-1.98-7.86-3.96-11.8-5.94,0,0,.16-.18.16-.18,3.94,1.97,7.88,3.94,11.82,5.91l-.19.22Z"/>
                <path class="cls-10" d="m141.39,543.74c-3.94-1.97-8.38-4.37-12.32-6.34,0,0,.89-.89.89-.89,3.94,1.97,7.66,5.07,11.6,7.04l-.17.19Z"/>
                <path class="cls-10" d="m144.35,545.21c-.99-.49-1.97-.98-2.96-1.47,0,0,.17-.19.17-.19.98.49,1.97.99,2.95,1.48l-.16.18Z"/>
                <path class="cls-10" d="m179.21,551.71c0,.49,0,.98-.01,1.48-.02-.72-.04-1.43-.07-2.15,0,0,.12-.09.12-.09-.01.25-.03.51-.05.76Z"/>
              </g>
              <g>
                <g>
                  <path class="cls-10" d="m179.09,551.22c-4.58-4.91-.88-21.83.77-27.19,0,5.37-.76,21.82-.77,27.19Z"/>
                  <path class="cls-8" d="m179.21,551.71c8.28,11.84,16.92,2.7,25.42.41,4.83-1.3,9.62-2.75,14.43-4.14-.1.11-.21.22-.31.32.13-.09.25-.17.38-.26,14.9-5.25,29.65-11.02,44.75-15.61,15.68-4.76,31.71-8.38,47.58-12.5-41.84,12.99-83.68,25.98-125.52,38.97-6.15-1.15-12.3-2.3-18.45-3.45,3.79-1.32,8.62,2.71,11.71-2.26,0-.49,0-.98.01-1.48Z"/>
                  <g>
                    <path class="cls-7" d="m438.94,353.73c13.23-9.42,27.42-13.66,43.45-8.14.94.44,1.87.88,2.81,1.32-12.71-.32-25.25-.46-37.05,5.9-6.14,3.31-10.17,11.66-18.96,8.91-1.59-.5-3.37-3.43-4.26-5.22,2.3,1.56,4.87,4.95,7.75,1.69h-.03c.53-.24,3.99-2.71,5.2-3.69,0,0-.03,0-.03,0,.37-.25.74-.5,1.12-.75Z"/>
                    <path class="cls-7" d="m263.41,285.92c-3.62-10.71-.54-20.9,2.39-31.1,0,0,.63-1.08.99-1.57,10.08-20.28,27.48-27.4,48.93-27.25.8.45,1.61.9,2.41,1.35-2.95.5-5.9.93-8.84,1.51-3.34.65-6.7,1.24-9.96,2.18-15.53,4.52-24.79,15.43-31.63,29.61-4,8.29-5.67,16.37-4.3,25.27Zm36.61-56.46c-.59-.31-.82-.54-1.04-.53-.34.01-.67.19-1,.29.1.26.23.76.28.75.45-.07.89-.24,1.77-.51Z"/>
                    <path class="cls-7" d="m391.96,294.48c6.72-.64,13.43-1.28,20.15-1.92.7-.01,1.4-.02,2.1-.03.44.33.87.66,1.31,1-21.23,2.82-42.45,5.69-63.69,8.41-1.81.23-3.74-.47-5.62-.74,15.25-2.24,30.5-4.47,45.75-6.71Z"/>
                    <path class="cls-7" d="m269.44,303.04c-.17-1.08-.34-2.17-.5-3.25,4.26,1.73,1.16,11.06,1.16,11.06-10.84,18.76-30.69,12.84-46.29,14.8-33.46,4.22-38.7,7.85-38.69,41.1,0,14.36.98,28.85.99,43.21l-1.78.89c-.72-1.92-1.27-4.85-1.24-6.76.33-22.7.87-45.4,1.35-68.1h-.02c.29-.24.58-.48.86-.72,13.52-13.2,31.89-9,47.91-13.2,8.45-2.21,17.25-3.05,25.89-4.51,0,0,.01,0,.02,0,1.28-.52,2.5-1.01,3.78-1.53,1.05-.82,2.11-1.64,3.16-2.46,1.12-.87,1.97-2.05,2.43-3.4.15-.45.31-.89.46-1.34.17-1.96.34-3.84.51-5.8Z"/>
                    <path class="cls-7" d="m179.24,475.68c.61-5.12,1.86-9.22,5.96-11.36.25-.3,2.16-1.21,2.16-1.21,4.54-1.24,8.8-1.11,13.03,1.47,20.66,12.61,40.08,5.86,49.67-17.11,5.06-11.55,4.08-23.1.02-34.65,8.28,16.96,6.69,33.66-4.59,48.06-9.97,12.73-22.96,20.24-39.61,9.69-4.45-2.82-8.74-7.68-14.91-4.12-7.94,4.59-9.13,12.68-9.48,20.68-.95,21.26-1.51,42.55-2.23,63.82,0,0-.12.09-.12.09-.02-.54-.03-1.07-.05-1.61,0-5.37.02-10.74.03-16.1,0-2.03,0-4.06,0-6.09,0-8.07,0-16.14,0-24.21-.01-7.7-.03-15.39-.04-23.09.05-1.42.1-2.85.16-4.27Z"/>
                  </g>
                  <path class="cls-7" d="m194.69,411.92c-.97.35-1.93.69-2.9,1.04-.76,0-1.51,0-2.27-.01-.45-.07-.9-.15-1.34-.22-.03-.21-.07-.43-.12-.64l.02-.03c2.2-.05,4.4-.09,6.6-.14Z"/>
                  <path class="cls-7" d="m249.36,411.4c-.46-.77-.93-1.54-1.39-2.31.46.77.93,1.54,1.39,2.31Z"/>
                  <path class="cls-7" d="m185.87,410.58c.74.49,1.48.98,2.22,1.47,0,0-.02.03-.02.03-.74-.49-1.47-.99-2.21-1.48v-.02Z"/>
                  <path class="cls-7" d="m247.94,409.07c-.28-.47-.55-.95-.83-1.42.28.47.55.95.83,1.42Z"/>
                  <path class="cls-7" d="m246.43,406.93c-.24-.27-.49-.54-.73-.82.24.27.49.54.73.82Z"/>
                  <path class="cls-7" d="m250.11,412.87c-.26-.51-.53-1.02-.79-1.52.26.51.53,1.02.79,1.52Z"/>
                  <path class="cls-7" d="m247.17,407.71c-.25-.27-.5-.53-.75-.8.25.27.5.53.75.8Z"/>
                  <path class="cls-7" d="m185.13,409.85c.24.25.49.49.73.74,0,0-.01.02-.01.02-.24-.25-.49-.5-.73-.74h.01Z"/>
                  <path class="cls-2" d="m189.53,412.94c.75,0,1.51,0,2.27.01-.75,0-1.51,0-2.27-.01Z"/>
                  <path class="cls-10" d="m179.09,479.95c-.21-.71-.41-1.41-.62-2.12.26-.72.52-1.44.78-2.15-.05,1.42-.1,2.85-.16,4.27Z"/>
                  <path class="cls-10" d="m179.12,527.25c0-8.07,0-16.14,0-24.21,0,8.07,0,16.14,0,24.21Z"/>
                  <path class="cls-2" d="m186.1,409.96l.89.89c.08.09,1.27,1.36,1.27,1.36.23.16.11.53-.17.5-12.32-1.03-22.27-8.04-33.1-12.95-18.88-8.56-10.05-2.81-28.6-12.08-3.56-1.78-2.45-3.11-5.35-8.91-1.78-3.56-4.46-54.36-.89-60.6,1.88-3.28,9.19-2.78,11.58-1.78,20.32,8.49,29.05,12.1,49.48,20.31.84.34,2.13-.44,3.2-.7-.48,22.7-1.02,45.4-1.35,68.1-.02,1.43.74,2.88,1.43,4.33.33.69,1.11.95,1.6,1.54Z"/>
                </g>
                <g>
                  <path class="cls-10" d="m117.34,441.06c.08.03.14.13.14.21-.03,2.66-.89,6.21-.89,12.36.89,10.69,0,12.48,0,22.28.71,10.5-.89,28.52-.52,41.84.15,5.2,1.84,9.91,4.1,13.71l.87,1.48q-2.67-1.78-4.46-4.46c-2.67-4.46-1.72-8.57-1.78-12.48-.34-20.98.89-27.63,0-49.01,0-.01,0-9.69,0-15.13,0-2.57.29-5.13.88-7.64.73-3.14,1.03-3.43,1.66-3.17Z"/>
                  <g>
                    <path class="cls-8" d="m124.61,441.15c10.68,1.79,2.67.89,13.94,4.51,5.54,1.78,11.29,2.81,16.93,4.22,4.21,6.68,11.67,7.18,18.16,9.41,4.48,1.54,9.14,2.56,13.72,3.8v-.03c-.45.55-.91,1.1-1.37,1.65-2.09,3.64-5.4,9.39-7.5,13.03l-.03.07c-1.08.55-2.83,1.83-3.15,1.54-8.82-8.02-20.66-9.49-30.93-14.32-16.31-7.67-11.31-5.04-27.8-12.32.25-1.08-.89-6.24,0-9.8,0-.89,0-1.78,1.78-3.56,1.41-1.41,6.23,1.78,6.24,1.78Z"/>
                    <path class="cls-2" d="m250.06,447.47c-9.58,22.97-29.01,29.72-49.67,17.11-4.24-2.59-8.49-2.72-13.03-1.47-4.58-1.25-9.24-2.26-13.72-3.8-6.49-2.23-13.95-2.73-18.16-9.41,15.68-.09,31.41-.89,46.38,5.46,7.02,2.98,7.22-3,9.98-7.15,9.1-13.72,21.83-22.86,38.49-25.39.18-.03,1.89,5.88,1.77,8.97-.21,5.25-1.31,10.46-2.03,15.69Z"/>
                    <path class="cls-2" d="m179.14,551.04c.02.72.04,1.43.07,2.15-2.54,4.08-6.25,2.09-9.6,1.98-3.09-.74-6.07-1.44-9.16-2.18-5.31-2.66-10.62-5.31-15.94-7.97-.98-.49-1.97-.99-2.95-1.48-3.94-1.97-7.88-3.94-11.82-5.91-2.96-1.47-2.68-1.64-5.13-2.91-2.91-1.51-6.24-3.56-7.13-7.13-2.73-10.94-.89-20.5-.89-49.9-.08-11.71.11-14.05,0-24.95,16.49,7.28,11.5,4.65,27.8,12.32,10.27,4.83,22.11,6.3,30.93,14.32.32.29,2.07-.99,3.15-1.54l.62.39c.01,8.27.03,16.54.04,24.82,0,8.07,0,16.14,0,24.21-.29,2.77-.76,7.25-1.05,10.02-.87,4.05-.95,8.11,1.02,12.17.02.54.03,1.07.05,1.61Z"/>
                    <path class="cls-11" d="m252.09,431.78c.12-3.09-1.6-8.99-1.77-8.96-16.66,2.53-29.39,11.67-38.49,25.39-2.75,4.15-2.95,10.13-9.97,7.15-14.96-6.35-30.38-5.37-46.06-5.28-5.64-1.41-6-1.03-11.58-2.67-15.15-4.46-13.37-4.46-25.84-8.02,7.33-6.59,10.69-6.24,19.61-5.35,18.71,1.78,23.52-10.44,21.13-29.66-.12-1.04-1.84-2.18-3.06-2.74-31.96-14.16-26.98-10.38-34.11-15.73-3.56-3.56-5.88-7.94-6.24-19.61-.35-11.15-2-36.92.89-48.12,0,0,3.56,0,2.67,3.56-.89,12.48-.88,23.25,0,34.75.89,11.58-.89,19.61,6.24,30.3l.45.45c15.3,6.55,11.29,4.47,29.03,12.51,10.85,4.93,20.83,11.96,33.19,12.97.45.07.9.14,1.35.21.76,0,1.51,0,2.26.02.97-.35,1.93-.7,2.9-1.04,15.68-13.63,31.82-23.09,51.01-5.8.24.27.47.53.72.79.23.25.46.49.7.74v.02c.29.46.55.94.83,1.41l.03.03c.45.75.9,1.49,1.35,2.25l.04.06c.25.49.5.97.76,1.46l-.04-.05c4.06,11.56,5.04,23.11-.02,34.66.72-5.23,1.83-10.44,2.03-15.69Z"/>
                    <path class="cls-16" d="m504.46,385.71c0,1.67-.06,3.36-.19,5.07-.02.31-.07.63-.14.94-4.43,19.15-9.54,20.14-14.15,24.49l-3.61,3.33c-.23.21-.47.4-.73.57-2.66,1.76-18.03,11.72-25.8,11.99-.31.01-.62-.02-.93-.06l-16.78-2.42c-.18-.03-.36-.06-.54-.1-9.57-2.25-19.51-7.74-17,10.34.04.26.06.52.06.78,0,9.93,0,19.86,0,29.78l.02.5c.03.35,0,.7-.04,1.05-.26,2.17-3.03,13.67-3.03,13.67-.04.22-.14.43-.3.58-.24.23-.62.6-.94.91-.18.17-.4.3-.64.38-2.33.75-27.8,9.05-30.26,9.97-.14.05-.27.1-.41.14-3.85,1.11-52.67,15.25-77.58,22.48v-.14c-15.86,4.12-31.89,7.74-47.58,12.5-15.1,4.59-29.84,10.36-44.75,15.61l-.06-.06c-4.8,1.38-9.6,2.83-14.43,4.13-8.5,2.28-17.15,11.42-25.42-.41,0-.26.03-.51.04-.77.71-21.27,1.27-42.55,2.23-63.81.36-8,1.54-16.09,9.48-20.68,6.17-3.56,10.45,1.3,14.91,4.13,16.65,10.54,29.64,3.03,39.61-9.7,11.28-14.4,12.87-31.1,4.59-48.07l.04.05c-.26-.49-.51-.97-.76-1.46l-.04-.06c-.45-.76-.9-1.5-1.35-2.25l-.03-.03c-.28-.46-.54-.94-.82-1.41v-.02c-.24-.25-.47-.49-.7-.74l-.5-.55c-.15-.16-.3-.32-.46-.46-7.32-6.51-14.19-9.15-20.77-9.15-10.38,0-20.01,6.55-29.45,14.7-2.07,1.78-5.08,1.97-7.35.46-.86-.56-1.54-1.33-2.01-2.2-.47-.88-.73-1.87-.73-2.9,0-13.36-.03-26.71-.03-40.07,0-33.26,5.23-36.88,38.69-41.1,12.36-1.56,34.26-9.92,42.76-13.33,1.81-.73,3.17-2.26,3.67-4.15.7-2.62,1.29-5.6-1.4-8.54-1.61-1.76-3.3-5.2-3.89-7.5l-1.45-5.66c-.08-.18-.11-.36-.07-.55-1.37-8.9.3-16.98,4.3-25.27,6.84-14.19,16.09-25.09,31.64-29.61,4.8-1.4,9.86-2.01,14.69-3.21.71-.18,1.43-.3,2.17-.36l1.55-.1c.26-.02.51-.03.77,0,17.92.91,31.07,22.1,29.76,49.82-.03.58,0,2.67-2.67,10.69-.83,3.31-4.32,7.64-1.62,11.49.38.55.91.98,1.47,1.35.26.17.52.33.77.5l-.03-.03c1.87.27,3.81.97,5.61.74,20.71-2.66,41.39-5.44,62.08-8.2,1.21-.16,2.44.07,3.51.64,2.32,1.25,3.92,2.93,5,4.93,1.35,2.5,1.9,5.52,2.02,8.78.09,10.04.4,19.65.49,29.69l.36,17.72c.02,1.09.36,2.16.96,3.07.89,1.34,1.74,2.78,2.93,3.14,8.79,2.75,12.81-5.6,18.95-8.91,11.58-6.23,23.85-6.22,36.31-5.91.5.01.99.07,1.46.22,10.34,3.24,18.55,19.21,18.55,38.6Z"/>
                  </g>
                </g>
              </g>
            </g>
          </g>
        </g>
        <polygon class="cls-8" points="216.22 315.88 191.04 325.38 217.27 322.37 216.22 315.88"/>
      </g>
    </g>
    <g>
      <g>
        <rect class="cls-16" x="708.18" y="201.4" width="60.09" height="360.52"/>
        <path class="cls-16" d="m838.62,321.57c-6.64,18.79-10.26,39.02-10.26,60.09s3.62,41.29,10.26,60.09c3.34,9.45,7.44,18.54,12.25,27.19,6.56,11.85,14.42,22.88,23.38,32.9,4.46,4.99,9.2,9.73,14.19,14.19v45.9h-38.77c-4.77-4.19-9.36-8.56-13.75-13.14-2.6-2.67-5.12-5.39-7.56-8.18-10.53-11.92-19.9-24.9-27.92-38.77-.72-1.25-1.44-2.52-2.14-3.79h-.02c-9.71-17.53-17.31-36.42-22.43-56.3-.03-.15-.08-.3-.12-.47-4.87-19.06-7.46-39.04-7.46-59.62s2.59-40.56,7.46-59.62c.03-.17.08-.32.12-.47,5.12-19.88,12.72-38.77,22.43-56.3h.02c.7-1.27,1.42-2.54,2.14-3.79,8.03-13.87,17.39-26.86,27.92-38.77,2.44-2.79,4.96-5.51,7.56-8.18,4.39-4.57,8.98-8.95,13.75-13.14h38.77v45.9c-4.99,4.46-9.73,9.2-14.19,14.19-8.96,10.01-16.82,21.05-23.38,32.9-4.81,8.65-8.91,17.74-12.25,27.19Z"/>
      </g>
      <path class="cls-16" d="m1580.83,201.4v360.52h-60.09v-284.36c-8.16,4.72-15.71,10.38-22.52,16.82-8.4,7.96-15.66,17.11-21.5,27.19h-32.15c-5.84-10.08-13.1-19.23-21.5-27.19-6.81-6.44-14.35-12.1-22.52-16.82v284.36h-60.09V201.4c21.06,0,41.29,3.62,60.09,10.26,2.55.9,5.07,1.85,7.56,2.87,19.43,7.86,37.17,19.01,52.53,32.76,15.36-13.75,33.1-24.9,52.53-32.76,2.49-1.02,5.01-1.97,7.56-2.87,18.79-6.64,39.02-10.26,60.09-10.26Z"/>
      <polygon class="cls-16" points="1821.18 201.4 1821.18 561.92 1761.09 561.92 1761.09 261.48 1701.01 261.48 1701.01 561.92 1640.92 561.92 1640.92 201.4 1821.18 201.4"/>
      <path class="cls-16" d="m1277.71,337.24c-4.14-16.05-10.43-31.26-18.55-45.28-6.01-10.46-13.09-20.23-21.02-29.23-4.99-5.68-10.37-11.06-16.05-16.05-9-7.93-18.77-15.01-29.23-21.02-14.02-8.12-29.23-14.41-45.28-18.55-14.46-3.73-29.64-5.71-45.28-5.71s-30.82,1.98-45.28,5.71c-16.05,4.14-31.26,10.43-45.28,18.55-10.46,6.01-20.23,13.09-29.23,21.02-3.59,3.16-7.05,6.45-10.37,9.88-1.95,2-3.84,4.06-5.68,6.17-7.93,9-15.01,18.77-21.02,29.23-.58.96-1.1,1.89-1.62,2.85-7.35,13.23-13.06,27.44-16.93,42.43-.03.11-.05.25-.08.36-3.68,14.35-5.63,29.42-5.63,44.92s1.95,30.57,5.63,44.92c.03.11.05.25.08.36,3.87,14.98,9.58,29.2,16.93,42.43.52.96,1.04,1.89,1.62,2.85,6.01,10.46,13.09,20.23,21.02,29.23,1.84,2.11,3.73,4.17,5.68,6.17,3.32,3.43,6.78,6.72,10.37,9.88,9,7.93,18.77,15.01,29.23,21.02,14.02,8.12,29.23,14.41,45.28,18.55,14.46,3.73,29.64,5.71,45.28,5.71s30.82-1.98,45.28-5.71c16.05-4.14,31.26-10.43,45.28-18.55,10.46-6.01,20.23-13.09,29.23-21.02,5.68-4.99,11.06-10.37,16.05-16.05,7.93-9,15.01-18.77,21.02-29.23,8.12-14.02,14.41-29.23,18.55-45.28,3.73-14.46,5.71-29.64,5.71-45.28s-1.98-30.82-5.71-45.28Zm-47.31,90.56c-5.96,16.88-15.18,32.22-26.87,45.28-3.35,3.76-6.92,7.33-10.68,10.68-13.06,11.69-28.4,20.91-45.28,26.87-14.16,5.02-29.39,7.74-45.28,7.74s-31.12-2.72-45.28-7.74c-1.92-.66-3.81-1.37-5.68-2.14-14.65-5.93-28.02-14.35-39.6-24.73-3.76-3.35-7.33-6.92-10.68-10.68-6.75-7.55-12.68-15.86-17.65-24.78-3.62-6.53-6.72-13.36-9.22-20.5-5.02-14.16-7.74-29.39-7.74-45.28s2.72-31.12,7.74-45.28c2.5-7.14,5.6-13.97,9.22-20.5,4.97-8.92,10.89-17.23,17.65-24.78,3.35-3.76,6.92-7.33,10.68-10.68,11.58-10.37,24.95-18.8,39.6-24.73,1.87-.77,3.76-1.48,5.68-2.14,14.16-5.02,29.39-7.74,45.28-7.74s31.12,2.72,45.28,7.74c16.88,5.96,32.22,15.18,45.28,26.87,3.76,3.35,7.33,6.92,10.68,10.68,11.69,13.06,20.91,28.4,26.87,45.28,5.02,14.16,7.74,29.39,7.74,45.28s-2.72,31.12-7.74,45.28Z"/>
      <g>
        <path class="cls-15" d="m1121.02,416.86s0-.04-.01-.06c-.67-2.61-1.67-5.08-2.95-7.38-.09-.17-.18-.33-.28-.5-1.05-1.82-2.28-3.52-3.66-5.09-.32-.36-.65-.72-.99-1.08-.58-.6-1.18-1.17-1.8-1.72h-10.17c-.63.55-1.23,1.12-1.8,1.72-.34.35-.67.71-.99,1.08-1.38,1.57-2.61,3.27-3.66,5.09-.1.17-.19.33-.28.5-1.28,2.3-2.27,4.78-2.95,7.38,0,.02,0,.04-.01.06-.64,2.5-.98,5.12-.98,7.81v23.64h7.88v-15.76h15.76v15.76h7.88v-23.64c0-2.7-.33-5.32-.98-7.81Zm-22.66,7.81c0-2.76.47-5.41,1.35-7.88.43-1.25.97-2.43,1.6-3.57.86-1.56,1.9-3,3.07-4.31h3.72c1.17,1.31,2.21,2.76,3.07,4.31.63,1.14,1.17,2.32,1.6,3.57.88,2.46,1.35,5.11,1.35,7.88h-15.76Z"/>
        <path class="cls-15" d="m1160.68,401.04v47.28h-7.88v-37.29c-1.07.62-2.06,1.36-2.95,2.21-1.1,1.04-2.06,2.24-2.82,3.57h-4.21c-.76-1.32-1.72-2.53-2.82-3.57-.89-.85-1.88-1.59-2.95-2.21v37.29h-7.88v-47.28c2.77,0,5.42.47,7.88,1.35.33.11.66.24.99.37,2.55,1.03,4.88,2.5,6.89,4.3,2.02-1.81,4.34-3.27,6.89-4.3.32-.13.65-.26.99-.37,2.46-.87,5.11-1.35,7.88-1.35Z"/>
        <path class="cls-15" d="m1083.32,407.06v9.74h-2.11c-.76-1.32-1.72-2.53-2.82-3.57-.89-.85-1.88-1.59-2.95-2.21-1.22-.71-2.54-1.25-3.94-1.61-1.26-.32-2.58-.5-3.94-.5-2.87,0-5.56.76-7.88,2.11-2.39,1.38-4.39,3.38-5.77,5.77-1.34,2.32-2.11,5.01-2.11,7.88s.76,5.56,2.11,7.88c1.38,2.39,3.38,4.39,5.77,5.77,2.32,1.34,5.01,2.11,7.88,2.11,1.36,0,2.68-.17,3.94-.5,1.4-.36,2.72-.9,3.94-1.61,1.07-.62,2.06-1.36,2.95-2.21,1.1-1.04,2.06-2.24,2.82-3.57h2.11v9.74c-2.02,1.81-4.34,3.27-6.89,4.3-.32.13-.65.26-.99.37-2.46.87-5.11,1.35-7.88,1.35s-5.42-.47-7.88-1.35c-2.94-1.04-5.61-2.64-7.88-4.68-.65-.58-1.28-1.2-1.86-1.86-2.03-2.27-3.64-4.94-4.68-7.88-.87-2.46-1.35-5.11-1.35-7.88s.47-5.42,1.35-7.88c1.04-2.94,2.64-5.61,4.68-7.88.58-.65,1.2-1.28,1.86-1.86,2.27-2.03,4.94-3.64,7.88-4.68,2.46-.87,5.11-1.35,7.88-1.35s5.42.47,7.88,1.35c.33.11.66.24.99.37,2.55,1.03,4.88,2.5,6.89,4.3Z"/>
      </g>
      <g>
        <path class="cls-15" d="m1210.83,325.39v47.28h-7.88v-10.67c-.32.37-.65.73-.99,1.07-.58.6-1.18,1.17-1.81,1.72-1.57,1.38-3.27,2.61-5.09,3.66-2.44,1.41-5.09,2.51-7.88,3.23-2.52.65-5.16.99-7.88.99v-47.28h7.88v38.05c.33-.11.66-.24.99-.37,2.55-1.03,4.88-2.5,6.89-4.3.65-.58,1.28-1.2,1.86-1.86,1.17-1.31,2.21-2.76,3.07-4.31.63-1.14,1.17-2.33,1.6-3.57.87-2.46,1.35-5.11,1.35-7.88v-15.76h7.88Z"/>
        <path class="cls-15" d="m1135.61,325.39v2.79c-1.38,1.57-2.61,3.27-3.66,5.09h-12.1v7.88h7.88c.33,0,.66.02.98.06-.64,2.5-.98,5.12-.98,7.82h-7.88v15.76h12.1c1.05,1.82,2.28,3.52,3.66,5.09v2.79h-23.64v-47.28h23.64Z"/>
        <path class="cls-15" d="m1033.17,331.41v9.74h-2.11c-.76-1.32-1.72-2.53-2.82-3.57-.89-.85-1.88-1.59-2.95-2.21-1.22-.71-2.54-1.25-3.94-1.61-1.26-.32-2.58-.5-3.94-.5-2.87,0-5.56.76-7.88,2.11-2.39,1.38-4.39,3.38-5.77,5.77-1.34,2.32-2.11,5.01-2.11,7.88s.76,5.56,2.11,7.88c1.38,2.39,3.38,4.39,5.77,5.77,2.32,1.34,5.01,2.11,7.88,2.11,1.36,0,2.68-.17,3.94-.5,1.4-.36,2.72-.9,3.94-1.61,1.07-.62,2.06-1.36,2.95-2.21,1.1-1.04,2.06-2.24,2.82-3.57h2.11v9.74c-2.02,1.81-4.34,3.27-6.89,4.3-.32.13-.65.26-.99.37-2.46.87-5.11,1.35-7.88,1.35s-5.42-.47-7.88-1.35c-2.94-1.04-5.61-2.64-7.88-4.68-.65-.58-1.28-1.2-1.86-1.86-2.03-2.27-3.64-4.94-4.68-7.88-.87-2.46-1.35-5.11-1.35-7.88s.47-5.42,1.35-7.88c1.04-2.94,2.64-5.61,4.68-7.88.58-.65,1.2-1.28,1.86-1.86,2.27-2.03,4.94-3.64,7.88-4.68,2.46-.87,5.11-1.35,7.88-1.35s5.42.47,7.88,1.35c.33.11.66.24.99.37,2.55,1.03,4.88,2.5,6.89,4.3Z"/>
        <path class="cls-15" d="m1062.54,326.73c-2.46-.87-5.11-1.35-7.88-1.35s-5.42.47-7.88,1.35c0,0-5.86,2.87-7.88,4.68v35.23c2.02,1.81,4.34,3.27,6.89,4.3.32.13.65.26.99.37,2.46.87,5.11,1.35,7.88,1.35s5.42-.47,7.88-1.35c2.94-1.04,5.61-2.64,7.88-4.68v-35.23c-2.27-2.03-4.94-3.64-7.88-4.68Zm0,35.95c-2.32,1.34-5.01,2.11-7.88,2.11-1.36,0-2.68-.17-3.94-.5-1.4-.36-2.72-.9-3.94-1.61v-27.31c1.22-.71,2.54-1.25,3.94-1.61,1.26-.32,2.58-.5,3.94-.5,2.87,0,5.56.76,7.88,2.11v27.31Z"/>
        <path class="cls-15" d="m1105.57,349.03c-.77-1.32-1.72-2.53-2.83-3.57-.89-.85-1.88-1.59-2.95-2.21-1.21-.7-2.54-1.25-3.94-1.61-1.26-.32-2.58-.5-3.94-.5-2.87,0-5.57.77-7.88,2.11v-9.98h11.46l7.88-7.88h-27.22v47.28h15.76c1.36,0,2.68-.18,3.94-.5,1.4-.36,2.72-.9,3.94-1.61,1.07-.62,2.06-1.36,2.95-2.21,1.11-1.04,2.06-2.25,2.83-3.57,1.34-2.32,2.11-5.01,2.11-7.88s-.77-5.56-2.11-7.88Zm-12.68,15.7s-.98.06-.98.06c-4.35,0-7.88-3.53-7.88-7.88s3.53-7.88,7.88-7.88c0,0,.98.04.98.06,3.89.48,6.9,3.8,6.9,7.81s-3.01,7.34-6.9,7.82Z"/>
        <path class="cls-15" d="m1172.19,333.26c-.76-1.32-1.72-2.53-2.82-3.57-.89-.85-1.88-1.59-2.95-2.21-1.22-.71-2.54-1.25-3.94-1.61-1.26-.32-2.58-.5-3.94-.5h-15.76v47.28h7.88v-17.87c2.32,1.34,5.01,2.11,7.88,2.11,1.36,0,2.68-.17,3.94-.5,1.4-.36,2.72-.9,3.94-1.61,1.07-.62,2.06-1.36,2.95-2.21,1.1-1.04,2.06-2.24,2.82-3.57,1.34-2.32,2.11-5.01,2.11-7.88s-.76-5.56-2.11-7.88Zm-13.65,15.76c-4.3,0-7.8-3.45-7.88-7.73s3.67-8.03,8.09-8.03h.79s0,.04-.01.06c3.89.48,6.9,3.8,6.9,7.82s-3.01,7.34-6.9,7.82c0,.02,0,.04.01.06h-.99Z"/>
      </g>
    </g>
  </g>
</svg>