<?xml version="1.0" encoding="UTF-8"?>
<svg id="_Слой_1" data-name="Слой 1" xmlns="http://www.w3.org/2000/svg" viewBox="0 0 728 90">
  <defs>
    <style>
      .cls-1 {
        fill: #a5d6f2;
      }

      .cls-1, .cls-2, .cls-3, .cls-4, .cls-5, .cls-6, .cls-7, .cls-8, .cls-9, .cls-10, .cls-11, .cls-12, .cls-13, .cls-14, .cls-15, .cls-16 {
        stroke-width: 0px;
      }

      .cls-2 {
        fill: #bb1736;
      }

      .cls-3 {
        fill: #275c8e;
      }

      .cls-4 {
        fill: #74afd7;
      }

      .cls-5 {
        fill: #fff;
      }

      .cls-6 {
        fill: #1e79ab;
      }

      .cls-7 {
        fill: #f2ced6;
      }

      .cls-8 {
        fill: #e85f79;
      }

      .cls-9 {
        fill: #17648f;
      }

      .cls-10 {
        fill: #ab233d;
      }

      .cls-11 {
        fill: #871c31;
      }

      .cls-12 {
        fill: #2381c4;
      }

      .cls-13 {
        fill: #196b98;
      }

      .cls-14 {
        fill: #194f8d;
      }

      .cls-15 {
        fill: #2295d3;
      }

      .cls-16 {
        fill: #e72f51;
      }
    </style>
  </defs>
  
  <g>
    <g>
      <g>
        <rect class="cls-16" x="313.7" y="11.77" width="11.08" height="66.46"/>
        <path class="cls-16" d="m337.74,33.92c-1.22,3.46-1.89,7.19-1.89,11.08s.67,7.61,1.89,11.08c.62,1.74,1.37,3.42,2.26,5.01,1.21,2.18,2.66,4.22,4.31,6.06.82.92,1.7,1.79,2.62,2.62v8.46h-7.15c-.88-.77-1.73-1.58-2.54-2.42-.48-.49-.94-.99-1.39-1.51-1.94-2.2-3.67-4.59-5.15-7.15-.13-.23-.26-.46-.39-.7h0c-1.79-3.23-3.19-6.71-4.14-10.38,0-.03-.02-.06-.02-.09-.9-3.51-1.38-7.2-1.38-10.99s.48-7.48,1.38-10.99c0-.03.02-.06.02-.09.94-3.66,2.34-7.15,4.14-10.38h0c.13-.23.26-.47.39-.7,1.48-2.56,3.21-4.95,5.15-7.15.45-.51.91-1.02,1.39-1.51.81-.84,1.66-1.65,2.54-2.42h7.15v8.46c-.92.82-1.79,1.7-2.62,2.62-1.65,1.85-3.1,3.88-4.31,6.06-.89,1.59-1.64,3.27-2.26,5.01Z"/>
        <path class="cls-16" d="m388.27,33.92c-1.95-3.36-4.75-6.17-8.11-8.11-3.26-1.88-7.04-2.96-11.08-2.96-1.91,0-3.76.24-5.53.7h0c-1.97.5-3.83,1.27-5.54,2.26-1.5.87-2.9,1.91-4.15,3.1-1.55,1.47-2.89,3.15-3.96,5.01-1.88,3.26-2.96,7.04-2.96,11.08s1.08,7.82,2.96,11.08c1.08,1.86,2.42,3.54,3.96,5.01,1.26,1.19,2.65,2.23,4.15,3.1,1.71.99,3.58,1.76,5.54,2.26h0c1.77.46,3.62.7,5.53.7,4.03,0,7.82-1.08,11.08-2.96,3.36-1.95,6.17-4.75,8.11-8.11,1.88-3.26,2.96-7.04,2.96-11.08s-1.08-7.82-2.96-11.08Zm-20.57,22.07c-5.47-.68-9.7-5.34-9.7-10.99s4.23-10.31,9.7-10.99c0-.03,1.38-.09,1.38-.09,6.12,0,11.08,4.96,11.08,11.08s-4.96,11.08-11.08,11.08c0,0-1.38-.06-1.38-.09Z"/>
        <path class="cls-16" d="m445.08,11.77v66.46h-11.08V25.81c-1.5.87-2.9,1.91-4.15,3.1-1.55,1.47-2.89,3.15-3.96,5.01h-5.93c-1.08-1.86-2.42-3.54-3.96-5.01-1.26-1.19-2.65-2.23-4.15-3.1v52.42h-11.08V11.77c3.88,0,7.61.67,11.08,1.89.47.17.94.34,1.39.53,3.58,1.45,6.85,3.5,9.68,6.04,2.83-2.54,6.1-4.59,9.68-6.04.46-.19.92-.36,1.39-.53,3.46-1.22,7.19-1.89,11.08-1.89Z"/>
        <polygon class="cls-16" points="489.39 11.77 489.39 78.23 478.31 78.23 478.31 22.85 467.24 22.85 467.24 78.23 456.16 78.23 456.16 11.77 489.39 11.77"/>
      </g>
      <g>
        <path class="cls-15" d="m568,55.18s0-.03-.01-.04c-.5-1.91-1.22-3.72-2.16-5.41-.07-.12-.13-.24-.21-.36-.77-1.33-1.67-2.58-2.68-3.73-.24-.27-.48-.53-.73-.79-.42-.44-.86-.86-1.32-1.26h-7.45c-.46.4-.9.82-1.32,1.26-.25.26-.49.52-.73.79-1.01,1.15-1.91,2.4-2.68,3.73-.07.12-.14.24-.21.36-.94,1.69-1.66,3.5-2.16,5.41,0,.01,0,.03-.01.04-.47,1.83-.72,3.75-.72,5.73v17.33h5.77v-11.55h11.55v11.55h5.78v-17.33c0-1.98-.25-3.9-.72-5.73Zm-16.61,5.73c0-2.02.35-3.97.99-5.77.32-.91.71-1.78,1.18-2.61.63-1.14,1.39-2.2,2.25-3.16h2.72c.86.96,1.62,2.02,2.25,3.16.46.83.86,1.7,1.17,2.61.64,1.81.99,3.75.99,5.77h-11.55Z"/>
        <path class="cls-15" d="m597.07,43.58v34.65h-5.77v-27.33c-.78.45-1.51,1-2.16,1.62-.81.76-1.51,1.64-2.07,2.61h-3.09c-.56-.97-1.26-1.85-2.07-2.61-.65-.62-1.38-1.17-2.16-1.62v27.33h-5.77v-34.65c2.03,0,3.97.35,5.77.99.24.08.49.17.72.27,1.87.76,3.57,1.83,5.05,3.15,1.48-1.32,3.18-2.4,5.05-3.15.24-.1.48-.19.72-.27,1.81-.64,3.75-.99,5.77-.99Z"/>
        <path class="cls-15" d="m540.37,48v7.14h-1.54c-.56-.97-1.26-1.85-2.07-2.61-.65-.62-1.38-1.17-2.16-1.62-.89-.52-1.86-.92-2.89-1.18-.92-.24-1.89-.36-2.89-.36-2.1,0-4.08.56-5.77,1.54-1.75,1.01-3.22,2.48-4.23,4.23-.98,1.7-1.54,3.67-1.54,5.77s.56,4.08,1.54,5.77c1.01,1.75,2.48,3.22,4.23,4.23,1.7.98,3.67,1.54,5.77,1.54,1,0,1.96-.13,2.89-.36,1.03-.26,1.99-.66,2.89-1.18.78-.45,1.51-1,2.16-1.62.81-.76,1.51-1.64,2.07-2.61h1.54v7.14c-1.48,1.32-3.18,2.4-5.05,3.15-.24.1-.48.19-.72.27-1.81.64-3.75.99-5.77.99s-3.97-.35-5.77-.99c-2.15-.76-4.11-1.94-5.77-3.43-.48-.43-.93-.88-1.36-1.36-1.49-1.67-2.67-3.62-3.43-5.77-.64-1.81-.99-3.75-.99-5.77s.35-3.97.99-5.77c.76-2.15,1.94-4.11,3.43-5.77.43-.48.88-.93,1.36-1.36,1.67-1.49,3.62-2.67,5.77-3.43,1.81-.64,3.75-.99,5.77-.99s3.97.35,5.77.99c.24.08.49.17.72.27,1.87.76,3.57,1.83,5.05,3.15Z"/>
      </g>
      <g>
        <path class="cls-15" d="m283.85,43.58v34.65h-5.77v-7.82c-.23.27-.48.53-.72.79-.42.44-.86.86-1.32,1.26-1.15,1.01-2.39,1.91-3.73,2.68-1.79,1.04-3.73,1.84-5.77,2.37-1.84.48-3.78.73-5.77.73v-34.65h5.77v27.89c.24-.08.49-.17.72-.27,1.87-.76,3.57-1.83,5.05-3.15.48-.43.93-.88,1.36-1.36.86-.96,1.62-2.02,2.25-3.16.46-.83.86-1.7,1.18-2.61.64-1.81.99-3.75.99-5.77v-11.55h5.77Z"/>
        <path class="cls-15" d="m228.73,43.58v2.05c-1.01,1.15-1.91,2.39-2.68,3.73h-8.87v5.77h5.77c.24,0,.48.01.72.05-.47,1.83-.72,3.75-.72,5.73h-5.77v11.55h8.87c.77,1.33,1.67,2.58,2.68,3.73v2.05h-17.32v-34.65h17.32Z"/>
        <path class="cls-15" d="m153.66,48v7.14h-1.54c-.56-.97-1.26-1.85-2.07-2.61-.65-.62-1.38-1.17-2.16-1.62-.89-.52-1.86-.92-2.89-1.18-.92-.24-1.89-.36-2.89-.36-2.1,0-4.08.56-5.77,1.54-1.75,1.01-3.22,2.48-4.23,4.23-.98,1.7-1.54,3.67-1.54,5.77s.56,4.08,1.54,5.77c1.01,1.75,2.48,3.22,4.23,4.23,1.7.98,3.67,1.54,5.77,1.54,1,0,1.96-.13,2.89-.36,1.03-.26,1.99-.66,2.89-1.18.78-.45,1.51-1,2.16-1.62.81-.76,1.51-1.64,2.07-2.61h1.54v7.14c-1.48,1.32-3.18,2.4-5.05,3.15-.24.1-.48.19-.72.27-1.81.64-3.75.99-5.77.99s-3.97-.35-5.77-.99c-2.15-.76-4.11-1.94-5.77-3.43-.48-.43-.93-.88-1.36-1.36-1.49-1.67-2.67-3.62-3.43-5.77-.64-1.81-.99-3.75-.99-5.77s.35-3.97.99-5.77c.76-2.15,1.94-4.11,3.43-5.77.43-.48.88-.93,1.36-1.36,1.67-1.49,3.62-2.67,5.77-3.43,1.81-.64,3.75-.99,5.77-.99s3.97.35,5.77.99c.24.08.49.17.72.27,1.87.76,3.57,1.83,5.05,3.15Z"/>
        <path class="cls-15" d="m175.18,44.57c-1.81-.64-3.75-.99-5.77-.99s-3.97.35-5.77.99c0,0-4.3,2.1-5.77,3.43v25.82c1.48,1.32,3.18,2.4,5.05,3.15.24.1.48.19.72.27,1.81.64,3.75.99,5.77.99s3.97-.35,5.77-.99c2.15-.76,4.11-1.94,5.77-3.43v-25.82c-1.67-1.49-3.62-2.67-5.77-3.43Zm0,26.34c-1.7.98-3.67,1.54-5.77,1.54-1,0-1.96-.13-2.89-.36-1.03-.26-1.99-.66-2.89-1.18v-20.01c.89-.52,1.86-.92,2.89-1.18.92-.24,1.89-.36,2.89-.36,2.1,0,4.08.56,5.77,1.54v20.01Z"/>
        <path class="cls-15" d="m206.71,60.91c-.56-.97-1.26-1.85-2.07-2.61-.65-.62-1.38-1.17-2.16-1.62-.89-.52-1.86-.92-2.89-1.18-.92-.24-1.89-.36-2.89-.36-2.1,0-4.08.56-5.78,1.54v-7.32h8.4l5.78-5.78h-19.95v34.65h11.55c1,0,1.96-.12,2.89-.36,1.03-.26,1.99-.66,2.89-1.18.78-.45,1.51-1,2.16-1.62.81-.76,1.51-1.65,2.07-2.61.98-1.7,1.54-3.67,1.54-5.78s-.56-4.08-1.54-5.77Zm-9.29,11.5s0,.03.01.05h-.73c-3.19,0-5.78-2.58-5.78-5.78s2.59-5.77,5.78-5.77h.73s0,.03-.01.04c2.85.35,5.06,2.78,5.06,5.73s-2.21,5.38-5.06,5.73Z"/>
        <path class="cls-15" d="m255.53,49.36c-.56-.97-1.26-1.85-2.07-2.61-.65-.62-1.38-1.17-2.16-1.62-.89-.52-1.86-.92-2.89-1.18-.92-.24-1.89-.36-2.89-.36h-11.55v34.65h5.77v-13.09c1.7.98,3.67,1.54,5.77,1.54,1,0,1.96-.13,2.89-.36,1.03-.26,1.99-.66,2.89-1.18.78-.45,1.51-1,2.16-1.62.81-.76,1.51-1.64,2.07-2.61.98-1.7,1.54-3.67,1.54-5.77s-.56-4.08-1.54-5.77Zm-10.01,11.55c-3.15,0-5.72-2.53-5.77-5.67-.06-3.24,2.69-5.88,5.93-5.88h.58s0,.03-.01.05c2.85.35,5.06,2.78,5.06,5.73s-2.21,5.38-5.06,5.73c0,.01,0,.03.01.05h-.73Z"/>
      </g>
    </g>
    <g>
      <g>
        <path class="cls-10" d="m54.74,64.71s.02.01.03.02c0,0-.02-.01-.03-.02,0,0,0,0,0,0Z"/>
        <path class="cls-16" d="m50.03,64.2l-.04.03s.02-.02.04-.04c0,0,0,0,0,0Z"/>
        <g>
          <g>
            <g>
              <path class="cls-9" d="m65.49,61.93c.09.06.18.13.27.19-2.31-1-4.2.58-6.27,1.03h0c-2.32.74-4.69,1.38-6.95,2.27-1.41.55-3.04.57-4.21,1.68-.24.23-.32.63-.48.95.02,1.65.05,3.31.07,4.96-.05.08-.26-3.34-.14-5.13.1-1.42,1.45-1.54,2.48-1.89,4.56-1.51,9.12-3.01,13.71-4.44.43-.13,1.01.23,1.52.37Z"/>
              <path class="cls-6" d="m69.04,59.68c0,1.4,0,2.79,0,4.19,0,.09,0,.19-.03.28-.2.72-1.08,1.11-1.85.77-.99-.39-1.96-.79-2.93-1.18-.99-.4-1.21-.69-1.22-1.63,0-1.52-.29-2.49,1.48-2.79.03,0,.07-.01.1-.02.79-.2,1.58-.41,2.39-.61.85-.21,1.28-.13,1.76.4.14.15.24.32.29.51,0,.03.01.06.01.09Z"/>
              <path class="cls-9" d="m58.19,70.31c.05,1.15.09,2.3.14,3.44-1.29-1.18-2.59-2.36-3.88-3.55,1.25.03,2.5.07,3.74.1Z"/>
              <path class="cls-6" d="m91.97,64.73l-16.15,6.87s.02-.03.02-.05c-1.36.59-2.84,1.47-4.25,1.89-1.29.39-2.47,1.1-3.84,1.27-.45.06-.93.61-1.4.95,0,.02,0,.04,0,.06,3.07-1.28,9.2-3.83,9.2-3.83.15-.02,3.37-1.41,3.51-1.46l2.06-.75,4.86-1.96,2.97-1.08c.3-.11.59-.23.87-.37l1.23-.6c.14-.07.26-.14.38-.23l.35-.26c.13-.1.22-.24.25-.39,0-.04-.03-.07-.07-.06Zm-23.91,10.14s-.01-.03-.02-.04c.03,0,.03,0,.05.02,0,0-.02.01-.03.02Z"/>
              <path class="cls-6" d="m66.01,75.84c-1.77.74-3.55,1.47-5.32,2.21,0,0,0-.04,0-.04,1.74-.74,3.49-1.49,5.23-2.23.03.02.05.04.08.06Z"/>
              <path class="cls-10" d="m51.27,75.85c.74.4,1.48.81,2.23,1.21-.74-.4-1.48-.81-2.23-1.21Z"/>
              <path class="cls-6" d="m58.73,78.81s-.01-.03-.01-.03c.49-.22.97-.44,1.46-.67.03.04.05.08.08.11-.51.19-1.02.39-1.52.58Z"/>
              <path class="cls-10" d="m49.96,75.1c.44.25.87.5,1.31.75-.44-.25-.87-.5-1.31-.75Z"/>
              <path class="cls-10" d="m48.14,73.96c.35.23.71.47,1.06.7-.35-.23-.71-.47-1.06-.7Z"/>
              <path class="cls-10" d="m49.2,74.66c.26.15.51.29.77.44-.26-.15-.51-.29-.77-.44Z"/>
              <path class="cls-6" d="m60.25,78.23s-.05-.08-.08-.11c.09-.03.18-.06.26-.09,0,.04,0,.08,0,.12-.06.03-.12.05-.18.08Z"/>
              <path class="cls-6" d="m66.01,75.84s-.05-.04-.08-.06c.14-.04.28-.08.42-.12,0,.02,0,.04,0,.06-.12.04-.23.08-.35.12Z"/>
              <path class="cls-6" d="m60.44,78.15s0-.08,0-.12c.08,0,.17-.01.25-.02,0,0,0,.04,0,.04-.08.03-.17.07-.25.1Z"/>
              <path class="cls-9" d="m56.77,78.57c.1-.11.21-.21.31-.32.33.84,1.01.61,1.64.53v.03c-1.28.55-2.32-.06-3.36-.72.46.17.92.34,1.37.51.1.06.19.12.29.18,0,0,.04-.06.06-.08-.11-.04-.21-.08-.32-.12Z"/>
              <path class="cls-9" d="m53.48,77.06c.84-.04,1.25.7,1.89,1.04-.63-.35-1.26-.69-1.89-1.04Z"/>
              <path class="cls-4" d="m91.7,65.09s-.09.03-.1.04c0,0-15.64,6.44-15.91,6.59-1.36.59-2.69,1.3-4.1,1.73-1.29.39-2.39,1.1-3.84,1.34-.44.07-.94.54-1.4.88-.14.04-.28.08-.42.12-1.74.74-3.49,1.49-5.23,2.23-.05,0-.09,0-.14,0-.11.03-.27.07-.38.09-.49.22-.97.44-1.46.67-.63.08-1.31.31-1.64-.53-.03-.08.02-.07.03-.1.02-1.42.12-2.84.05-4.26-.07-1.63.51-2.65,2.16-3.11,1.46-.4,2.9-.94,4.31-1.51,3.2-1.31,6.58-2.15,9.64-3.83.49-.27.44-.21.56-.68l-9.86,3.06-3.29-5.19,19.62-6.08c1.48-.44,2.25-.52,3.38-.1l1.11.42,3.72,1.38,1.33.48c.44.16.86.38,1.25.66l.33.24c.13.09.23.22.3.37.15.33.23.69.22,1.06v.75s.04.75.04.75v.62c.04.56.52,1.45-.29,1.92Z"/>
              <path class="cls-4" d="m75.34,64.53s0,.01,0,.01c-4.65,1.69-9.32,3.33-13.94,5.11-1.12.43-2.39.56-3.43,1.19-.58.36-1.3.35-1.87-.03-.53-.35-1.25-.5-1.71-.93l.04-.03c.09-.03.17-.06.26-.09h0c2.27-.8,4.52-1.65,6.81-2.38,3.05-.97,6-2.28,9.19-2.78.15-.02,1.67-.58,2.4-.86.23-.09.48-.12.73-.1.7.07,1.61.47,1.52.88Z"/>
              <path class="cls-1" d="m91.47,60.17h-.1c-.07,0-.13-.01-.19-.04-.45-.17-.64-.17-.66-.17l-.76.07c-.23.02-.46.07-.68.15l-2.26.81-3.13,1.04-3.45,1.13-2.82.92-1.95.59c-.12.04-.21.12-.3.2-.54.45-1.34.24-1.89.55-3.06,1.68-6.44,2.52-9.64,3.83-1.41.57-2.84,1.11-4.31,1.51-1.65.46-2.23,1.48-2.16,3.11.06,1.42.05,4.12-.05,4.26-.14.26-.06.02-.06-.17,0-.06-.03-.12-.03-.18,0-1.79-.01-3.58-.02-5.37,0-.17,0-.35-.01-.52,0-.1.03-.2.09-.27,1.1-1.37,2.85-1.42,4.32-1.98,4.62-1.78,9.29-3.42,13.94-5.11l3.41-1.09,5.79-2.14,4.92-1.54.09-.02.76-.17s.03,0,.05,0c.09,0,.2.01.29.06.24.12.91.46.82.54Z"/>
              <path class="cls-8" d="m47.93,73.02c-.02-1.65-.05-3.31-.07-4.96.02,1.65.05,3.31.07,4.96Z"/>
              <path class="cls-4" d="m53.64,68.96c-.09.06-.28.53-.31.52-.28-.15-.62-.41-.9-.57-.06-.04-.33-.17-.29-.23.01-.02.26-.13.26-.13.33.17.86.21,1.24.41Z"/>
              <path class="cls-4" d="m54.39,69.96c-.21-.1-.64-.1-.85-.19.02-.03.41-.52.41-.52.28.1,1.58-.1,1.86,0,0,0,.19.11-.93.52-.09.03-.33.2-.42.23l-.07-.03Z"/>
              <path class="cls-6" d="m68.09,74.86s-.02.01-.03.02c0-.01-.01-.03-.02-.04.03,0,.03,0,.05.02Z"/>
              <path class="cls-9" d="m56.77,78.57l.32.12s-.05.09-.06.08c-.1-.06-.19-.12-.29-.18,0,0,.03-.03.03-.03Z"/>
              <rect class="cls-9" x="56.72" y="78.48" width=".21" height=".21"/>
              <path class="cls-6" d="m48.13,73.95c-.31-.2-.2-.93-.2-.93l-.07-4.96c.15-.32.23-.72.48-.95,1.17-1.11,2.8-1.13,4.21-1.68,2.27-.88,4.63-1.53,6.95-2.27,0,0,.02.01.03.02,0,0-.02-.01-.03-.02,2.07-.45,3.96-2.03,6.27-1.03,1.82.75,5.01,1.99,4.93,2.47-.02.44-6.14,1.8-9.19,2.78-2,.64-3.89,1.68-5.95,2.08-.51.1-.87-.1-1.25-.13-.18-.02-.34.01-.44.14h0c-.05.06-.01.12.05.17.05.04.08.06.16.08.21.05.41.18.59.31.76.54,1.84.67,2.19,1.73l.07.2c.05.12.08.33.08.47-.02,1.81.05,5.35.03,5.51-.02.18.02.36-.11.49-.02.02-.05.06-.08.1-.06.08-.17.11-.27.07-.28-.12-.87-.37-1.21-.49,0,0,0,0,0,0-.64-.33-1.05-1.08-1.89-1.04,0,0,0,0,0,0-.74-.4-1.48-.81-2.23-1.21h0c-.44-.25-.87-.5-1.31-.75h0c-.26-.14-.51-.29-.77-.43,0,0,0,0,0,0-.36-.24-.72-.47-1.08-.71Zm5.38-4.88c-.02-.29-.74-.4-1.05-.4-.16,0-.03.14,0,.16.27.16.47.27.74.41.05.03.12.04.18.02s.11-.07.13-.19Z"/>
              <path class="cls-13" d="m65.73,65.34c.19.07-7.24.21-11.27,1.03-.13.03-2.38.72-3,.72-.15,0-1.67-.12-1.65-.31.03-.34,4.02-1.97,4.33-2.07,1.18-.38,2.36-.76,3.55-1.14,1.17-.37,2.35-.75,3.52-1.12.53-.17,1.07-.34,1.61-.51.14-.04.28.05.27.19,0,.15,0,.3-.02.45-.03.64.1.83.73,1.06.61.22,1.22.45,1.84.67.11.04.21.06.31.06.02,0,.04,0,.06,0,.02,0,.04,0,.05,0,0,0,0,0,.01,0,.02,0,.03,0,.04,0,0,0,.01,0,.02,0,.01,0,.03,0,.04-.01,0,0,.01,0,.02,0,.01,0,.03,0,.05-.02.02,0,.04-.01.06-.02.02,0,.04-.02.05-.03.02,0,.03-.02.05-.03,0,0,0,0,0,0,.02-.01.03-.02.05-.03.05-.04.1-.08.14-.13,0,0,0,0,0,0,.03-.03.06-.07.08-.1.01-.02.03-.04.04-.06.01-.02.03-.04.04-.06h0c.02-.08.05-.15.07-.23.03-.96.07-1.91.1-2.85,0-.02.13-.22.2-.24.13-.02.25.07.25.2-.02.77-.05,1.55-.07,2.33-.02.8.61,1.24,1.44.99.4-.12-.95.35-.15.67l-2.89.62Z"/>
              <path class="cls-6" d="m74.18,58.86c-.18.52-.4,1.1-.62,1.72-.15.43-.39.74-.72.9-.56.27-1.21.08-1.57.75-.07.13.24.96.24.96.14.26.4.34.72.21,1.53-.6,3.36-1.31,5.58-2.18,1.45-.57,3.09-1.22,4.96-1.96.64-.25.94-.61.71-1.08-.2-.41-.69-.55-1.3-.54-.15,0-.3,0-.44,0-2.64.04-2.51-.33-4.14-.25-.26.01-1.97.74-2.22.85-.28.13-.72,0-.98.14-.09.05-.17.15-.18.23,0,0,0,0,0,0,0,.08-.02.17-.05.26Z"/>
              <path class="cls-13" d="m74.24,58.75c-.1.46-.23.95-.35,1.49-.09.37-.25.64-.51.78-.44.24-1.02.09-1.26.68-.04.11.31.82.31.82.14.22.37.28.63.16,1.2-.56,2.58-1.2,4.19-1.95,1.01-.47,2.11-.99,3.33-1.57.41-.19.58-.47.41-.83-.15-.32-.48-.45-.89-.46-.1,0-.2-.01-.3-.01-1.86-.03-1.78-.34-2.99-.32-.19,0-1.47.58-1.65.67-.22.1-.58-.01-.78.1-.07.04-.12.13-.12.2,0,0,0,0,0,0,0,.07,0,.15-.02.22Z"/>
              <path class="cls-4" d="m67.18,64.26v-5.26c0-.27.4-.58,1.02-.78.87-.28,1.73-.56,2.58-.83,1-.32,1.82-1.89,2.81-2.18,2.04-.59,3.89-1.77,3.93-.72.04,1.15-.05,5.12-.01,6.28-.02.18-.05.35-.11.5-.22.54-.77.9-1.93,1.3-.03,0-.05.02-.08.03-1.06.36-2.14.73-3.23,1.1-.8.27-1.61.55-2.44.82-1.2.4-2.54.27-2.54-.25Z"/>
              <path class="cls-6" d="m77.51,55.65c-.17.63-.49,1.07-.69,1.45-.32.62-.85,1.1-1.49,1.38l-.81.36-1.62.82c-.68.34-1.39.6-2.13.76l-.45.1c-.78.17-1.6-.1-2.11-.72l-.47-.56c-.16-.19-.25-.43-.25-.68v-2.72l6.59-2.05c.86-.27,1.79-.09,2.48.48l.85-.08c.25.2.17,1.16.09,1.47Z"/>
              <path class="cls-13" d="m75.76,55.02c-.13.49-.38.84-.54,1.13-.25.48-.67.86-1.16,1.08l-.64.28-1.27.64c-.53.27-1.09.47-1.67.6l-.35.08c-.61.14-1.25-.08-1.65-.56l-.37-.44c-.12-.15-.19-.34-.19-.53v-2.13l5.17-1.61c.67-.21,1.4-.07,1.94.38l.53.43c.19.16.27.41.21.65Z"/>
            </g>
            <path class="cls-1" d="m67.65,60.53v2.52c0,.27.04.54.13.79l.04.12c.05.15.15.28.28.38l.07.05c.13.09.29.13.45.11l.52-.08-.29-.19c-.22-.14-.39-.35-.5-.58l-.07-.15c-.06-.13-.11-.27-.13-.42l-.51-2.54Z"/>
            <path class="cls-1" d="m78.94,60.92l-1,.26c-.16.04-.32.1-.47.17l-2.14,1.03c-.14.07-.29.13-.44.18l-.18.06c-.16.06-.29.17-.37.31l-.06.1c-.03.06.02.13.08.11l.73-.17c.28-.06.56-.15.83-.27l1.26-.54,1.55-.72.7-.31c.07-.03.07-.14-.01-.16l-.22-.06c-.08-.02-.17-.02-.26,0Z"/>
          </g>
          <path class="cls-4" d="m54.73,69.41l.71,1.03s-1.41-.69-1.61-.8c-.4-.24-.5-.21-.72-.4-.17-.14-.19-.15-.19-.15l.38-.25s.13.07.38.15c.73.24.97.4,1.06.41Z"/>
        </g>
        <g>
          <g>
            <path class="cls-6" d="m74.88,11.49c.57-.05,1.14-.1,1.71-.15.06.03.12.05.18.08-.63.05-1.26.11-1.88.16v-.09Z"/>
            <path class="cls-6" d="m74.37,11.59c-.09-.03-.18-.05-.26-.08.26,0,.52-.01.78-.02,0,.03,0,.06,0,.09-.17,0-.34,0-.51.01Z"/>
            <path class="cls-6" d="m76.77,11.42c-.06-.03-.12-.05-.18-.08.2,0,.4-.01.61-.02.03.03.06.06.08.09-.17,0-.34,0-.51.01Z"/>
            <path class="cls-6" d="m72.5,11.66c.53-.05,1.07-.1,1.6-.15.09.03.18.05.26.08-.57.05-1.14.1-1.71.16-.05-.03-.1-.06-.15-.09Z"/>
            <path class="cls-6" d="m71.96,11.76s-.06-.06-.09-.09c.21,0,.42-.01.63-.02.05.03.1.06.16.09-.23,0-.46,0-.69.01Z"/>
            <path class="cls-6" d="m70.25,11.85c-.1,0-.21-.01-.31-.02.24-.02.48-.04.72-.07-.14.03-.27.06-.41.09Z"/>
            <g>
              <path class="cls-2" d="m54.82,37.45c-.05,0-.1.01-.16.02,0-.03.01-.06.02-.08l.14.07Z"/>
              <path class="cls-1" d="m88.31,12.34s0,0,0,0c.97.25,2.08.45,3.02.73.5.14.39.15.24.16-4.25.34-8.87.65-13.12.99-2.19.15-4.39.3-6.58.45h0c-2.14.14-4.27.28-6.41.43-.02,0-.03.05-.05.08.01,0,.03.01.04.02-.47.05-.93.09-1.4.14-1.05.07-2.1.14-3.15.21-.06.02-.13.03-.19.05-1.31.09-2.28.17-3.59.26l-.41.52c-1,.11-1.91-.28-2.91-.18-.07,0-.33.18-.4.18-.51.04-.82-.09-1.33-.06-.06.02-.13.03-.19.05-1.61.09-3.45.79-4.99.52-2.4-.42-4.55-1.59-6.9-2.26-.2-.06-.39-.18-.58-.27.17,0,.34-.01.51-.02,1.28-.11,2.56-.22,3.84-.33.83-.06,1.66-.12,2.49-.18.49-.05.97-.11,1.46-.16.2,0,.4-.01.6-.02.54-.05,1.08-.1,1.63-.16.09,0,.18,0,.27-.01.63-.05,1.25-.11,1.88-.16.85-.06,1.71-.13,2.56-.19.52-.05,1.03-.1,1.55-.15.17,0,.34-.01.51-.02.51-.05,1.03-.11,1.54-.16.18,0,.35,0,.53,0,1.25-.11,2.51-.22,3.76-.33.31-.04.63-.07.94-.11,1.48-.09,2.97-.17,4.45-.26.6-.05,1.2-.1,1.8-.15.17,0,.34-.01.52-.02.57-.05,1.14-.1,1.71-.16.23,0,.46,0,.69-.01.57-.05,1.14-.1,1.71-.16.17,0,.34,0,.51-.01.63-.05,1.26-.11,1.88-.16.17,0,.34,0,.51-.01,1.46-.12,2.91-.24,4.37-.36l.43.03c2.08.42,4.15.84,6.23,1.26Z"/>
              <path class="cls-4" d="m79.83,53.38s-.2.07-.23.09c-.09-.02-.18-.04-.26-.06,1.03-.73,2.09-4.17,1.87-4.29,0,0,.02-.02.03-.03.26-.29.47-.63.65-.98.34-.69.68-1.39.99-2.09.66-1.48-.63-4.8-1.98-5.14-.11-.05-.22-.1-.33-.15-1.16-.4-2.31-.81-3.47-1.21,0,0,0-.02,0-.02-.36-.05-.48.18-.84.13-.44.08-1.01.43-1.45.52l-.14-.27c-.07-.13-.22-.19-.36-.14-.12.05-.25.1-.37.14-.02-.01-.04-.01-.07,0-.01-1.16-.02-2.33-.03-3.49-.03-.76-.25-1.4-1.03-1.69-.05-.04-.1-.08-.15-.12l-.14-.02c-1.14-.32-2.15-.19-3.3-.51-.42.02-.94-.4-1.36-.38h0c-.23.02-.46.03-.69.04-.85.12-1.7.24-2.55.35.08-.3.15-.59.23-.89l.05.04.04-.28c.19-3.29-1.29-5.85-3.41-5.92-.09-.05-.19-.1-.28-.16-.11-.03-.22-.06-.32-.1-2.93-1.28-6.37-.48-7.64,1.78-.06.06.11.16.05.23l-.21.1c-.05.06-.05.04-.1.1l-.37.49-.07.08c-.13.1-.3.17-.38.3-1.32,2.19-1.7,4.6-1.57,7.11-.5.08-.99.17-1.49.25-.46.08-.86.34-1.13.72l-.18.27c-.41.07-1.14-.6-1.5-.42h-.36c-.25-.15-.23-.19-.35-.29s-.21-.23-.26-.37h0c-.03-.1-.05-.2-.05-.3-.01-4.46-.03-8.92-.04-13.37.04-1.55.08-3.1.12-4.65,0-.14.03-.29.09-.42h0s0,0,0,0c.03-.06.06-.12.09-.17h0c.03-.06.06-.11.09-.17h0s.05-.05.08-.08h0c.04-.06.07-.12.11-.17.77-1.14,1.98-1.08,3.14-1.14.09-.02.18-.04.26-.05.88-.07,2.76-.23,2.82-.25.29-.01,1.32-.09,1.5-.11h.23s1.95-.17,1.95-.17c.06,0,.11-.02.17-.03h.02c.05-.02.1-.03.15-.04.23-.03.46-.06.69-.08h0c1.31-.09,4.11-.33,4.11-.33,1.05-.07,2.1-.14,3.15-.21.47-.05.93-.09,1.4-.14,2.14-.17,4.28-.35,6.42-.52h0c2.19-.15,4.39-.3,6.58-.45,4.09-.33,8.18-.66,12.28-.99.2,0,.4-.02.59-.03l.19-.04h.09c.17,0,.34.02.52.04.12.01.23.03.34.06.39.12.92.34,1.19.46.12.05.22.12.31.21.04.04.08.08.12.12h0s.06.06.09.09l.08.08c.06.09.12.17.17.26,0,0,.31.71.33,1.08.08,1.58.12,3.17.17,4.75-.02,1.91-.15,3.36-.15,3.44,0,1.43,0,2.86,0,4.28-.06,3.46-.08,6.92-.18,10.38-.09,2.86.36,5.85-.3,8.59-.03.12-.07.23-.12.34-.03.06-.06.11-.08.14,0,0-.29.47-.34.51,0,0-.03.04-.06.09-.08.11-.16.22-.26.31l-.19.19c-4.16,2.06-8.72,2.94-13.04,4.54l-.08.1s-.14.08-.28.15Z"/>
              <path class="cls-13" d="m79.39,52.45c-.07.04-.15.09-.22.13l-.1-.15c.99-.7,1.46-1.67,1.24-1.79.01-.01,3.05-.55,3.06-.56.26-.29,1.44-.21,1.61-.56.32-.65,1.64.09,1.93-.56,1.37-.64,6.05-1.28,4.75-1.61-.1-.05-11.31-6.97-11.41-7.02-1.11-.38-2.23-.77-3.34-1.15,0,0,0-.02,0-.02-.34-.04-.46.17-.8.13-.42.08-.97.41-1.39.49l-.13-.26c-.08-.17-.32-.21-.46-.05l-.24.05s-.04-.01-.06,0c-.01-1.11-.02-2.22-.03-3.33-.03-.72-.24-1.33-1-1.61-.05-.04-.1-.07-.15-.11l-.13-.02c-1.1-.3-2.07-.18-3.17-.48-.41.02-.91-.38-1.31-.36h0c-.22.02-.44.03-.67.04-.82.11-1.63.23-2.45.34.07-.28.15-.56.22-.85l.05.04.03-.27c.18-3.14-1.24-5.58-3.29-5.65-.09-.05-.18-.1-.27-.15-.1-.03-.21-.05-.31-.1-2.83-1.22-6.13-.46-7.35,1.7-.05.06.11.16.05.22l-.2.1c-.05.06-.05.04-.1.1l-.36.47-.07.07c-.13.09-.29.16-.37.28-1.27,2.09-1.64,4.38-1.52,6.78-.48.08-.95.16-1.43.24-.44.07-.83.32-1.08.69l-.17.25c-.37.06-1.04-.52-1.39-.42l-.35.03c-.3-.06-.43-.21-.47-.31-.04-.09-.09-.15-.12-.24l-.04-.11c-.03-.08-.04-.17-.04-.25-.01-4.26-.03-8.52-.04-12.77.04-1.48.08-2.96.12-4.44,0-.14.03-.27.09-.4h0s0,0,0,0c.03-.06.05-.11.08-.17h0c.03-.05.06-.11.09-.16h0s.05-.05.08-.08h0c.04-.06.07-.11.11-.16.74-1.09,1.91-1.03,3.03-1.09.08-.02.17-.03.25-.05.84-.06,2.66-.22,2.72-.24.27-.01,1.27-.09,1.44-.11h.22s1.88-.17,1.88-.17c.05,0,.11-.01.16-.03h.02s.1-.03.15-.04c.22-.03.44-.05.67-.08h0c1.26-.09,3.96-.31,3.96-.31,1.01-.07,2.02-.13,3.03-.2.45-.04.9-.09,1.35-.13,2.06-.17,4.12-.33,6.19-.5h0c2.11-.14,4.22-.29,6.33-.43,3.94-.32,7.88-.63,11.82-.95.19,0,.38-.02.57-.03,0,0,.06,0,.14,0,.48,0,.92,0,1.39.12.32.08.32.08.56.24.17.12.34.25.48.39l.08.08s.08.08.08.08c0,0,.02.02.03.03.04.04.07.08.11.13l.03.04c.06.08.1.16.13.25.11.3.26.61.28.92.08,1.51.11,3.02.16,4.53-.02,1.82-.15,3.2-.15,3.28,0,1.36,0,2.72,0,4.09-.05,3.3-.07,6.6-.17,9.9-.08,2.77.31,5.57-.32,8.32,0,0-.18.61-.24.72,0,0-.16.32-.32.48,0,0-.16.08-.32.24l-.4.24c-4,1.96-8.1,2.51-12.26,4.03-.03.03-.05.06-.08.09h0c-.14.06-.28.12-.42.18Z"/>
              <path class="cls-4" d="m78.73,51.97s-.05.03-.08.04c-.08-.02-.17-.04-.25-.06.98-.67,2.01-3.82,1.79-3.93.01-.01.02-.02.03-.03.26-.28.47-.6.64-.94.32-.62.64-1.24.93-1.88.64-1.37-.57-4.44-1.85-4.76-.1-.05-.21-.1-.31-.14-1.1-.38-2.19-.76-3.29-1.14,0,0,0-.02,0-.02-.34-.04-.45.16-.79.12-.42.07-.96.39-1.37.47l-.13-.25c-.07-.14-.26-.19-.4-.09l-.32.09s-.02,0-.03,0c0-1.08-.01-2.15-.02-3.23-.02-.7-.23-1.29-.97-1.57-.05-.04-.1-.07-.14-.11l-.13-.02c-1.08-.3-2.04-.19-3.11-.48-.4.02-.89-.38-1.29-.36h0c-.22.01-.44.02-.65.04-.8.1-1.6.21-2.4.31.07-.27.14-.54.22-.82l.04.04.03-.26c.19-3.03-1.2-5.4-3.2-5.48-.09-.05-.18-.1-.26-.15-.1-.03-.21-.05-.3-.09-2.76-1.19-5.99-.46-7.18,1.62-.05.06.1.15.05.21l-.19.09c-.05.06-.05.04-.1.09l-.35.45-.07.07c-.12.09-.28.15-.36.27-1.24,2.01-1.28,5.57-1.16,7.88-.46.07-1.36,0-1.83.07-.43.07-.69-.88-.94-.53l-.17.24c-.29.05-.5-.07-.73-.05s-.45.01-.67-.05c-.34-.1-.43-.14-.49-.23-.03-.04-.06-.08-.1-.12-.04-.04-.07-.08-.1-.12-.12-.15-.18-.34-.18-.54-.02-1.36-.11-8.71-.12-12.46.04-1.43.08-2.86.11-4.28,0-.13.03-.26.08-.39h0s0,0,0,0c.03-.05.05-.11.08-.16h0c.03-.05.06-.11.09-.16h0s.05-.05.07-.08h0c.03-.06.07-.11.1-.16.72-1.05,1.86-.99,2.95-1.05.08-.02.17-.03.25-.05.82-.06,2.59-.21,2.65-.23.27-.01,1.24-.09,1.41-.11h.22s1.84-.16,1.84-.16c.05,0,.11-.01.16-.03h.02s.1-.03.14-.04c.22-.03.43-.05.65-.08h0c1.23-.08,3.88-.3,3.88-.3.99-.06,1.98-.13,2.98-.19.44-.04.88-.09,1.33-.13,2.03-.16,4.06-.32,6.09-.48h0c2.08-.14,4.17-.28,6.25-.42,3.9-.31,7.81-.62,11.73-.92.19,0,.38-.02.57-.03l.18-.04h.08c.22.01.43.03.65.05.49.19.99.37,1.48.56h0c.08.08.16.16.25.24h0s.06.05.08.08h0s.06.05.08.08c0,0,0,0,0,0,.06.08.11.16.17.24h0c.11.33.3.67.31,1.01.07,1.48.09,2.96.13,4.44-.04,1.78-.17,3.13-.17,3.21-.01,1.33-.02,2.66-.04,3.99-.08,3.22-.12,6.44-.24,9.65-.1,2.7.27,5.42-.38,8.08,0,0-.04.27-.15.54-.08.2-.2.37-.37.5-.05.04-.11.09-.16.13-.1.09-.22.15-.34.2-.09.04-.19.07-.21.08-3.91,1.78-8.16,2.55-12.18,3.95-.03.03-.05.06-.08.09h0c-.14.05-.28.11-.41.17Z"/>
              <path class="cls-6" d="m45.28,23.42h0c.01,4.46.03,8.93.04,13.39,0,.09.01.18.06.26.08.14.48.47.71.67v.04s-.5.02-.5.02h0c-.31-.09-.63-.15-.93-.26-2.52-.89-7.56-2.67-7.56-2.67-.09-.02-.32-.19-.51-.29-.04-.02-.08-.05-.12-.09l-.02-.02s-.05-.06-.06-.09c-.03-.08-.07-.17-.07-.17-.01-5.62-.02-11.24-.04-16.86,0-.04,0-.22.02-.34.04-.26.06-.48.16-.72l.36-.69h0s.13-.17.19-.25h0c.06-.06.11-.12.17-.17.1-.09.31-.25.33-.26h0c.63-.19,1.27-.38,1.9-.57h0c.19.09.38.21.58.27,2.36.68,4.68,1.54,7.09,1.95,1.54.27-.46.04-1.23,1.18-.04.05-.07.11-.11.16h0s-.04.05-.05.07l-.09.14c-.03.08-.07.15-.11.23-.05.13-.08.28-.09.42-.04,1.55-.08,3.1-.12,4.65h0Z"/>
              <path class="cls-6" d="m88.31,12.33c-2.08-.42-4.15-.84-6.23-1.26-.26,0-.51,0-.77,0h0c-1.34.11-2.68.22-4.03.33-.03-.03-.06-.06-.08-.09,1.31-.11,2.62-.22,3.93-.32.39-.03.71-.03,1.04,0,2.03.42,4.06.85,6.09,1.27.01.02.02.04.04.06Z"/>
              <path class="cls-6" d="m58.7,12.69c1.22-.11,2.44-.21,3.66-.32.06.03.12.06.18.08-1.25.11-2.51.22-3.76.33-.03-.03-.05-.06-.08-.09Z"/>
              <path class="cls-6" d="m42.4,13.99c.2,0,.4-.02.6-.03.16,0,.32,0,.48,0,.09,0,.19.01.29.02-1.28.11-2.56.22-3.84.33,0-.03,0-.06,0-.1.69-.06,1.37-.12,2.06-.17.14-.02.28-.04.42-.06Z"/>
              <path class="cls-6" d="m93.43,13.62c-.16-.08-.66-.26-.98-.36-.11-.04-.22-.06-.34-.07-.14-.01-.28-.03-.42-.04-.06,0-.13-.01-.19-.01-.06,0-.09-.01-.15-.02,0,0-.01,0-.02,0-.16-.04-2.04-.53-3.01-.78.08,0,.17,0,.25,0,1.04.23,2.07.46,3.11.69.09.01.17.02.26.03,0,0,.22.05.33.07.09.02.17.03.26.05.05,0,.42.11.9.43Z"/>
              <path class="cls-6" d="m63.49,12.28c.63-.04,1.25-.08,1.88-.11.12-.02.23-.03.35-.05.65-.04,1.31-.07,1.96-.11.08.03.17.06.25.08-1.48.09-2.97.17-4.45.26h0s0-.05,0-.07Z"/>
              <path class="cls-6" d="m52.95,13.14c.49-.03.98-.07,1.46-.1.08.03.16.05.24.08-.85.06-1.71.13-2.56.19-.11-.02-.23-.04-.34-.06.31-.02.62-.05.93-.07.09-.01.18-.02.28-.03Z"/>
              <path class="cls-6" d="m39.92,14.23s0,.06,0,.1c-.17,0-.34.01-.51.02-.64.19-1.27.38-1.91.57.68-.67,1.56-.64,2.41-.68Z"/>
              <path class="cls-6" d="m43.77,13.99c-.09,0-.19-.01-.28-.02.01-.03.02-.05.04-.08.23,0,.45-.02.68-.03.09-.02.18-.03.27-.05.54-.03,1.08-.07,1.62-.1.05.03.11.06.16.09-.83.06-1.66.12-2.49.18Z"/>
              <path class="cls-6" d="m51.74,13.24c.11.02.23.04.34.06-.63.05-1.25.11-1.88.16,0-.03,0-.06,0-.09.51-.05,1.03-.09,1.54-.14Z"/>
              <path class="cls-6" d="m67.93,12.09c-.08-.03-.17-.06-.25-.08.46-.03.91-.06,1.37-.09.23,0,.46.01.68.02-.6.05-1.2.1-1.8.15Z"/>
              <path class="cls-6" d="m48.15,13.55c.48-.05.97-.09,1.45-.14.11.02.22.05.33.07-.54.05-1.08.1-1.63.16-.05-.03-.11-.06-.16-.09Z"/>
              <path class="cls-6" d="m56.56,12.86c.49-.04.98-.08,1.46-.12.08.02.15.03.23.05-.51.05-1.03.11-1.54.16l-.15-.08Z"/>
              <path class="cls-6" d="m54.65,13.12c-.08-.03-.16-.05-.24-.08.54-.05,1.07-.1,1.61-.15.06.03.12.05.18.08-.52.05-1.03.1-1.55.15Z"/>
              <path class="cls-6" d="m46.26,13.81c-.05-.03-.11-.06-.16-.09.51-.05,1.02-.1,1.52-.15.03.03.06.05.09.08-.49.05-.97.11-1.46.16Z"/>
              <path class="cls-6" d="m70.66,11.76c.4-.03.8-.05,1.2-.08.03.03.06.06.09.09-.57.05-1.14.1-1.71.16,0-.02,0-.05,0-.07.14-.03.27-.06.41-.09Z"/>
              <path class="cls-3" d="m36.27,17.32h0s0,.05,0,.07c.01,5.61.02,11.21.04,16.82-.08-.39-.23-.77-.23-1.16.01-5.25.09-15.99.12-16.11,0,0,0,0,0,0,.09-.66.4-1,.61-1.35-.12.29-.15.17-.44,1.09-.05.16-.07.47-.09.64Z"/>
              <path class="cls-6" d="m70.25,11.85s0,.05,0,.07c-.17,0-.34.01-.52.02-.23,0-.46-.01-.68-.02.3-.03.59-.06.89-.09.1,0,.21.01.31.02Z"/>
              <path class="cls-6" d="m62.54,12.45c-.06-.03-.12-.06-.18-.08.26-.01.52-.03.78-.04.11,0,.23.01.34.02,0,0,0,0,0,0-.31.04-.63.07-.94.11Z"/>
              <path class="cls-6" d="m58.25,12.79c-.08-.02-.15-.03-.23-.05.23-.02.45-.03.68-.05.03.03.05.06.08.09-.18,0-.35,0-.53,0Z"/>
              <path class="cls-6" d="m56.2,12.97c-.06-.03-.12-.05-.18-.08.18,0,.36-.01.53-.02.05.03.1.06.15.08-.17,0-.34.01-.51.02Z"/>
              <path class="cls-6" d="m47.71,13.65s-.06-.05-.09-.08c.18,0,.36-.01.54-.02.05.03.11.06.16.09-.2,0-.4.01-.6.02Z"/>
              <path class="cls-6" d="m49.94,13.48c-.11-.02-.22-.05-.33-.07.2,0,.4-.02.6-.03,0,.03,0,.06,0,.09-.09,0-.18,0-.27.01Z"/>
              <path class="cls-14" d="m37.49,14.89c-.11.09-.22.19-.32.28.11-.09.22-.19.32-.28Z"/>
              <path class="cls-6" d="m43.52,13.9s-.03.05-.04.08c-.16,0-.32,0-.48,0,.17-.02.35-.05.52-.07Z"/>
              <path class="cls-12" d="m42.4,13.99c-.14.02-.28.04-.42.06.14-.02.28-.04.42-.06Z"/>
              <path class="cls-12" d="m65.72,12.11c-.12.02-.23.03-.35.05.12-.02.23-.03.35-.05Z"/>
              <path class="cls-6" d="m63.48,12.35c-.11,0-.23-.01-.34-.02.12-.02.23-.03.35-.05,0,.02,0,.05,0,.07Z"/>
              <path class="cls-6" d="m88.57,12.34c-.08,0-.26,0-.26,0-.01-.02-.03-.04-.04-.06.1.02.2.05.3.07Z"/>
              <path class="cls-12" d="m94.43,14.49c-.06-.09-.12-.17-.17-.26.06.09.12.17.17.26Z"/>
              <path class="cls-14" d="m37.17,15.17c-.06.06-.11.11-.17.17.06-.06.11-.11.17-.17Z"/>
              <path class="cls-12" d="m52.95,13.14c-.09.01-.18.02-.28.03.09-.01.18-.02.28-.03Z"/>
              <path class="cls-12" d="m44.47,13.82c-.09.02-.18.03-.27.05.09-.02.18-.03.27-.05Z"/>
              <path class="cls-12" d="m94.17,14.15s-.06-.06-.09-.09c.03.03.06.06.09.09Z"/>
              <path class="cls-13" d="m52.58,29.52h0c-.2.31-.33.65-.38,1.01-.04.25-.08.5-.11.75-.3.46-.15.93,0,1.39.14.48.29.95.43,1.43,1.21,2.18-.02,2.72-1.89,2.83-.12-2.51.25-4.92,1.57-7.11.08-.13.26-.2.39-.3Z"/>
              <path class="cls-1" d="m65.46,15.19s-.03-.01-.04-.02c.02-.03.03-.07.05-.08,2.14-.15,4.27-.29,6.41-.43-2.14.17-4.28.35-6.42.52Z"/>
              <path class="cls-1" d="m53.81,16.18c1-.11,1.99-.21,2.99-.32-.26.03-.51.06-.77.09-.06.02-.12.04-.18.05-.68.06-1.36.12-2.04.18Z"/>
              <path class="cls-1" d="m52.08,16.31c.51-.04,1.02-.08,1.53-.12-.14,0-.27.01-.41.02-.09.02-.18.04-.26.06-.29.01-.57.03-.86.04Z"/>
              <path class="cls-14" d="m46.57,37.72c-.16.02-.32.04-.48.06,0,0,0-.04,0-.04"/>
              <path class="cls-16" d="m72.66,34.56c-.08,0-.16,0-.24,0,.04,0,.07-.01.11-.02.05,0,.09.01.14.02Z"/>
              <path class="cls-14" d="m45.74,17.91c.04-.05.07-.11.11-.16-.04.05-.07.11-.11.16Z"/>
              <path class="cls-14" d="m45.49,18.35c.03-.06.06-.12.09-.17-.03.06-.06.12-.09.17Z"/>
              <path class="cls-14" d="m45.4,18.55c.03-.07.06-.13.08-.2-.03.07-.06.13-.08.2Z"/>
              <path class="cls-14" d="m45.57,18.18c.03-.06.06-.11.09-.17-.03.06-.06.11-.09.17Z"/>
              <path class="cls-14" d="m45.66,18.01s.05-.06.08-.09c-.03.03-.05.06-.08.09Z"/>
              <path class="cls-7" d="m55.26,34.2c-.03-.08-.07-.16-.1-.25,0-.03,0-.06.01-.09.03.11.06.22.09.34Z"/>
              <path class="cls-7" d="m64.6,35.46c.06.04.12.08.17.11-.06-.04-.12-.08-.17-.11Z"/>
              <path class="cls-8" d="m40.24,37.06c-.09.02-.14.05-.18.04-.03,0-.05-.07-.08-.11.05-.01.1-.03.16-.03.03,0,.05.04.11.1Z"/>
              <path class="cls-2" d="m46.1,39.52s-.07.06-.1.08c.03-.03.07-.06.1-.08Z"/>
              <path class="cls-13" d="m52.09,32.66c-.15-.46-.31-.92,0-1.39,0,.46,0,.93,0,1.39Z"/>
              <path class="cls-12" d="m52.26,30.13c.06-.13.12-.26.18-.38-.06.13-.12.26-.18.38Z"/>
              <path class="cls-2" d="m75.53,41.66s-.09.06-.13.09c.04-.03.09-.06.13-.09Z"/>
              <path class="cls-7" d="m59.41,27.25c-.1.03-.15.05-.21.06,0,0-.02-.06-.03-.09.04-.01.08-.03.12-.03.03,0,.05.03.12.06Z"/>
              <path class="cls-3" d="m43.41,37.12c-1.34-.52-2.27-.71-3.41-1.34-.16-.09-.93-.62-.83-.72.1-.41,1.65.12,2.07.31.53.25,1.02.46,1.55.72.54.27,1.07.46,1.62.69.34.14.36.16.48.19.16.05.31.12.45.2.28.16.36.28,1.01.3.41,0,2.04-.05,2.12-.04-.09.05-2.02.31-2.12.35-.92.33-2.12-.35-2.95-.66Z"/>
              <path class="cls-4" d="m44.88,18.26c-.21.12-.26.09-.43.13-.28.07-.77-.15-1.24-.31-1.41-.49-3.02-.77-4.51-1.2-.69-.2-1.79-.91-.97-1.42.29-.04.7.05.93.1.92.23,1.78.79,2.7,1.01,1.23.3,1.93,1.22,3.39.95.21-.04,1.23-.62,1.46-.62.21,0-.52.41-.62.52-.31.31-.56.73-.72.83Z"/>
              <path class="cls-1" d="m85.49,15l1.92-.22h0s1.68-.12,1.68-.12c.53-.04,2.19.01,2.19.01.31,0,.63.16,1.05.41,0,0,.74.48.99,1.53.02.08.09,2.6.09,2.6.15,8.62-.35-.3-.38-.45l-.34-1.52c-.04-.16-.06-.24-.17-.42-.05-.09-.11-.17-.17-.25l-.23-.3c-.14-.18-.78-.53-1.18-.74-.21-.11-.45-.2-.71-.27l-.15-.04c-.62-.15-1.26-.2-1.9-.15l-.84.07c-.32.03-.64.03-.96.01l-.88-.05c-1.29.03-.12-.1-.01-.12Z"/>
              <polygon class="cls-7" points="55.16 33.72 55.2 33.97 55.16 33.95 55.05 33.38 55.16 33.72"/>
              <path class="cls-4" d="m58.33,25.23l23.32,8.16,6,8.32-4.58,6.22s-4.95,1.91-5.16,1.82-15.3-5.67-15.3-5.67l-9.68-6.21,1.74-7.69,3.66-4.95Z"/>
              <polygon class="cls-1" points="92.04 46.61 92.04 46.61 92.04 46.61 92.04 46.61"/>
              <polygon class="cls-1" points="89.14 47.21 89.14 47.22 89.14 47.22 89.14 47.21"/>
              <polygon class="cls-13" points="79.12 52.12 79.13 52.11 79.13 52.12 79.12 52.12"/>
              <path class="cls-4" d="m79.83,53.22c4.32-1.59,9.25-2.56,13.4-4.62-2.24,1.66-5.02,1.93-7.53,2.88-1.75.66-3.56,1.15-5.34,1.72-1.09.41-.47.04-.53.01Z"/>
              <path class="cls-13" d="m86.35,49.08s-.02,0-.04.01h.02s.02-.01.02-.01Z"/>
              <path class="cls-1" d="m92.11,47.35c-.05.04-.11.09-.16.13-.1.09-.22.15-.34.2-.09.04-.19.07-.21.08-3.63,1.66-7.56,2.44-11.33,3.66-.22.32-.4.9-.26.84.03-.03.05-.06.08-.09,4.16-1.52,8.25-2.07,12.26-4.03l.32-.16c.19-.08.4-.32.4-.32.16-.16.32-.48.32-.48.02-.04.06-.15.1-.27-.29.12-.6.09-.85.03-.08.15-.19.29-.32.4Z"/>
              <path class="cls-1" d="m47.91,20.02c-.02.06-.05.13-.08.2-.05.12-.1.59-.1.61-.47,3.96-.01,7.95-.03,11.9-.07.89.18,1.18-.26,1.07-.12-.03-.21-.14-.22-.27-.1-4.06-.72-8.96-.09-13.3l.09-.42c.03-.18.15-.42.15-.42.1-.2.36-.45.36-.45.03-.03.12-.1.23-.17.21-.11.33-.17.42-.13.09.03.12.14.07.22-.17.27-.49,1.02-.54,1.16Z"/>
              <path class="cls-6" d="m79.33,53.41c-1.82.6-3.64,1.19-5.47,1.79,0-1.17,0-2.33,0-3.5.06.35.11.7.18,1.05.06.37.47.57.8.39,1.33-.7,2.55-1.58,3.64-2.64.59-.25,1.84-.81,2.26-1.02.09-.04.16-.09.23-.16.08-.07.15-.14.23-.21.23.12-.84,3.55-1.87,4.29Z"/>
              <path class="cls-13" d="m80.31,52.03l-.25.55c-.11.19-.25.4-.4.56l-.16.16c-.16.13-.27.14-.46.2l-2.22.73-2.96.96v-1.58s6.44-1.58,6.44-1.58Z"/>
              <path class="cls-4" d="m73.87,55.31s0-.08,0-.12c1.82-.6,3.64-1.19,5.47-1.79.09.02.18.04.26.06-1.91.61-3.82,1.23-5.72,1.84Z"/>
              <path class="cls-4" d="m75.83,52.57c-.36.22-.72.43-1.1.63-.22.11-.47.03-.6-.16l-.27.07v.51s6.44-1.6,6.44-1.6l.18-.38.17-.41-4.83,1.33Z"/>
              <path class="cls-13" d="m78.48,50.5h-1.57c-.22-.01-.42-.09-.61-.21-.02-.01-.03-.02-.05-.02-1.58-.86-2.71-.81-2.39,1.43.06.39.13.78.19,1.16.01.07.04.13.07.18l1.7-.47c.95-.59,1.84-1.28,2.65-2.07Z"/>
            </g>
          </g>
          <path class="cls-6" d="m74.73,53.2c.38-.19.74-.4,1.1-.63l-1.7.47c.13.19.38.27.6.16Z"/>
        </g>
        <g>
          <g>
            <path class="cls-10" d="m73.94,39.87c.31.76-.73,2.02.86,2.31-.33.38-.53.09-.8-.09,0,0-.1-.1-.1-.1-.03-.06-.01-.01-.04-.07,0,0,0,0,0,0,0-.63-.01-1.25-.02-1.88,0-.06,0-.11.01-.17h.02s.04,0,.07,0Z"/>
            <g>
              <path class="cls-2" d="m55.64,36.87c-.24.19-.48.37-.72.56,0,0,0,0-.01,0-.42-.13-.83-.26-1.25-.39-.01,0-.01-.02,0-.03.63-.37,1.31-.2,1.97-.17.01,0,.02.02,0,.03Z"/>
              <g>
                <path class="cls-8" d="m38.14,37.12c.21-1.14.52-1.34,1.03-1.24,2.38.67,2.97,2.01,5.55,2.07.29,0,.58-.1.87-.15.17,0,.34-.02.51-.02.16-.02.32-.04.48-.06.46-.09.93-.19,1.39-.28.15,0,.31,0,.46,0,1.72-.25,3.43-.7,5.2-.4.43.13.86.27,1.29.4-.03,0-.06,0-.1.01l-.14-.07s-.01.06-.02.08c-1,.17-2.02.27-3,.52-1.86.49-3.99,0-5.56,1.53-.03.03-.07.06-.1.08,0,0,0,0,0,0-.13.03-.27.12-.37.08-2.37-.95-3.18-1.06-5.53-2.05-1.03.62-2.17.41-1.96-.52Z"/>
                <path class="cls-10" d="m50.62,36.93c1.87-.12,3.11-.66,1.89-2.83.67-.6,1.3-.04,1.88.16.45.15.62.08.76-.3.03.08.07.16.1.25.18.4.36.81.55,1.21.02.14.04.29.07.43,0,.14,0,.28,0,.42-.07.2-.14.4-.2.59-.69-.02-1.39-.21-2.04.19-1.77-.3-3.48.15-5.2.4-.15.01-.47.06-.47.01.73-.13,1.93-.39,2.67-.52Z"/>
                <path class="cls-10" d="m39.69,35.78c2.52.89,2.45.88,4.97,1.76.3.11.62.18.93.26-.29.05-.58.16-.87.15-2.55.1-2.65-.99-5.03-1.66-.52-.15-.62-.21-.93-.1s-.52.52-.52.52c0-.31.21-.72.52-.93.12-.08.62-.1.93,0Z"/>
                <path class="cls-8" d="m52.5,29.68c.31-.52.72-1.14.72-1.14,1.24-2.27,4.75-3.08,7.69-1.8.1.04.21.07.32.1-2.49-.02-4.51.81-5.68,3.16-.04.06-.11.18-.11.18-1.08.03-1.63-1.35-2.94-.51Z"/>
                <path class="cls-2" d="m52.71,29.38c1.12-.47,1.74.83,2.73.8-.34,1.18-.7,2.37-.28,3.61,0,.02,0,.04,0,.06,0,.03,0,.06-.01.09-.15.38-.32.45-.76.3-.59-.2-1.21-.76-1.88-.16-.15-.48-.29-.97-.44-1.45l-.06-.91c.08-.5.15-1,.23-1.49l.18-.47.2-.3s.06-.06.09-.08Z"/>
                <path class="cls-8" d="m76.59,39.43q.31-.03.62.08c1.16.4,2.2.81,3.36,1.22-1.86-.64-3.51-.15-5.04.94l-.13.09h0c-.17-.12-.39-.2-.51-.35-.36-.5.1-1.26-.52-1.69.07,0,1.6-.22,2.22-.28Z"/>
                <path class="cls-2" d="m64.6,35.46c-.47-.47-.21-.92.02-1.4.85-.12,1.7-.24,2.55-.35.48.2.89.42.28.95.11.11.22.33.32.32.77-.04,1.54-.12,2.3-.18-1.77.26-3.54.52-5.31.78,0,0,0,0,0,0-.06-.04-.12-.08-.17-.11Z"/>
                <path class="cls-8" d="m70.08,34.79c-.77.07-1.54.15-2.3.18-.1,0-.22-.21-.32-.32.6-.53.2-.75-.28-.95.23-.01.46-.03.69-.04.47,0,.93,0,1.4.01.05,0,.09,0,.14,0,1.04.29,2.09.58,3.13.87-.04,0-.07.01-.11.02-.78.07-1.56.15-2.34.22Z"/>
                <path class="cls-2" d="m75.4,41.75c-.14.11-.28.23-.42.34-.06.03-.12.06-.18.09,0,0,0,0,0,0-1.59-.28-.55-1.55-.86-2.31.14-.06.29-.11.43-.17.62.43.16,1.19.52,1.69.11.16.33.24.51.35Z"/>
                <g>
                  <path class="cls-10" d="m43.93,64.93c.07.03.24-.01.31,0,.68.13,1.27.4,1.95.53-1.27.14-2.4-.22-3.46-.9,0,0,.02-.03.02-.03.4.16.78.23,1.18.39Z"/>
                  <path class="cls-10" d="m39.55,62.91c-.9-.47,0,0-.89-.46-.1-.1-.12-.18-.1-.21.88.49.13.16,1.01.65l-.02.02Z"/>
                  <path class="cls-10" d="m42.72,64.56c-.46-.23-.91-.46-1.37-.69,0,0,.02-.02.02-.02.46.23.91.46,1.37.69l-.02.03Z"/>
                  <path class="cls-10" d="m41.01,63.7c-.46-.23-.97-.51-1.43-.74,0,0,.1-.1.1-.1.46.23.89.59,1.35.82l-.02.02Z"/>
                  <path class="cls-10" d="m41.36,63.87c-.11-.06-.23-.11-.34-.17,0,0,.02-.02.02-.02.11.06.23.11.34.17l-.02.02Z"/>
                  <path class="cls-10" d="m45.4,64.62c0,.06,0,.11,0,.17,0-.08,0-.17,0-.25,0,0,.01-.01.01-.01,0,.03,0,.06,0,.09Z"/>
                </g>
                <g>
                  <g>
                    <path class="cls-10" d="m45.39,64.57c-.53-.57-.1-2.53.09-3.15,0,.62-.09,2.53-.09,3.15Z"/>
                    <path class="cls-8" d="m45.4,64.62c.96,1.37,1.96.31,2.95.05.56-.15,1.12-.32,1.67-.48-.01.01-.02.03-.04.04.01-.01.03-.02.04-.03,1.73-.61,3.44-1.28,5.19-1.81,1.82-.55,3.68-.97,5.52-1.45-4.85,1.51-9.71,3.01-14.56,4.52-.71-.13-1.43-.27-2.14-.4.44-.15,1,.31,1.36-.26,0-.06,0-.11,0-.17Z"/>
                    <g>
                      <path class="cls-7" d="m75.53,41.66c1.53-1.09,3.18-1.58,5.04-.94.11.05.22.1.33.15-1.47-.04-2.93-.05-4.3.68-.71.38-1.18,1.35-2.2,1.03-.18-.06-.39-.4-.49-.61.27.18.56.57.9.2h0c.06-.03.46-.31.6-.43,0,0,0,0,0,0,.04-.03.09-.06.13-.09Z"/>
                      <path class="cls-7" d="m55.17,33.8c-.42-1.24-.06-2.42.28-3.61,0,0,.07-.13.12-.18,1.17-2.35,3.19-3.18,5.68-3.16.09.05.19.1.28.16-.34.06-.68.11-1.02.17-.39.08-.78.14-1.16.25-1.8.52-2.88,1.79-3.67,3.43-.46.96-.66,1.9-.5,2.93Zm4.25-6.55c-.07-.04-.1-.06-.12-.06-.04,0-.08.02-.12.03.01.03.03.09.03.09.05,0,.1-.03.21-.06Z"/>
                      <path class="cls-7" d="m70.08,34.79c.78-.07,1.56-.15,2.34-.22.08,0,.16,0,.24,0,.05.04.1.08.15.12-2.46.33-4.92.66-7.39.98-.21.03-.43-.05-.65-.09,1.77-.26,3.54-.52,5.31-.78Z"/>
                      <path class="cls-7" d="m55.87,35.78c-.02-.13-.04-.25-.06-.38.49.2.13,1.28.13,1.28-1.26,2.18-3.56,1.49-5.37,1.72-3.88.49-4.49.91-4.49,4.77,0,1.67.11,3.35.11,5.01l-.21.1c-.08-.22-.15-.56-.14-.78.04-2.63.1-5.27.16-7.9h0s.07-.06.1-.08c1.57-1.53,3.7-1.04,5.56-1.53.98-.26,2-.35,3-.52,0,0,0,0,0,0l.44-.18c.12-.1.24-.19.37-.29.13-.1.23-.24.28-.39.02-.05.04-.1.05-.16l.06-.67Z"/>
                      <path class="cls-7" d="m45.4,55.81c.07-.59.22-1.07.69-1.32.03-.03.25-.14.25-.14.53-.14,1.02-.13,1.51.17,2.4,1.46,4.65.68,5.76-1.98.59-1.34.47-2.68,0-4.02.96,1.97.78,3.9-.53,5.57-1.16,1.48-2.66,2.35-4.59,1.12-.52-.33-1.01-.89-1.73-.48-.92.53-1.06,1.47-1.1,2.4-.11,2.47-.18,4.93-.26,7.4,0,0-.01.01-.01.01,0-.06,0-.12,0-.19,0-.62,0-1.25,0-1.87,0-.24,0-.47,0-.71,0-.94,0-1.87,0-2.81,0-.89,0-1.79,0-2.68,0-.17.01-.33.02-.5Z"/>
                    </g>
                    <path class="cls-7" d="m47.2,48.41c-.11.04-.22.08-.34.12-.09,0-.18,0-.26,0-.05,0-.1-.02-.16-.03,0-.02,0-.05-.01-.07h0c.26,0,.51-.01.77-.02Z"/>
                    <path class="cls-7" d="m53.54,48.35c-.05-.09-.11-.18-.16-.27.05.09.11.18.16.27Z"/>
                    <path class="cls-7" d="m46.17,48.25c.09.06.17.11.26.17,0,0,0,0,0,0-.09-.06-.17-.11-.26-.17h0Z"/>
                    <path class="cls-7" d="m53.37,48.08c-.03-.05-.06-.11-.1-.16.03.05.06.11.1.16Z"/>
                    <path class="cls-7" d="m53.2,47.83s-.06-.06-.09-.09c.03.03.06.06.09.09Z"/>
                    <path class="cls-7" d="m53.62,48.52c-.03-.06-.06-.12-.09-.18.03.06.06.12.09.18Z"/>
                    <path class="cls-7" d="m53.28,47.92s-.06-.06-.09-.09c.03.03.06.06.09.09Z"/>
                    <path class="cls-7" d="m46.09,48.17s.06.06.08.09c0,0,0,0,0,0-.03-.03-.06-.06-.08-.09h0Z"/>
                    <path class="cls-2" d="m46.6,48.53c.09,0,.18,0,.26,0-.09,0-.18,0-.26,0Z"/>
                    <path class="cls-10" d="m45.39,56.3c-.02-.08-.05-.16-.07-.25.03-.08.06-.17.09-.25,0,.17-.01.33-.02.5Z"/>
                    <path class="cls-10" d="m45.39,61.79c0-.94,0-1.87,0-2.81,0,.94,0,1.87,0,2.81Z"/>
                    <path class="cls-2" d="m46.2,48.18l.1.1s.15.16.15.16c.03.02.01.06-.02.06-1.43-.12-2.58-.93-3.84-1.5-2.19-.99-1.17-.33-3.32-1.4-.41-.21-.28-.36-.62-1.03-.21-.41-.52-6.31-.1-7.03.22-.38,1.07-.32,1.34-.21,2.36.98,3.37,1.4,5.74,2.36.1.04.25-.05.37-.08-.06,2.63-.12,5.27-.16,7.9,0,.17.09.33.17.5.04.08.13.11.19.18Z"/>
                  </g>
                  <g>
                    <path class="cls-10" d="m38.22,51.79s.02.01.02.02c0,.31-.1.72-.1,1.43.1,1.24,0,1.45,0,2.58.08,1.22-.1,3.31-.06,4.85.02.6.21,1.15.48,1.59l.1.17q-.31-.21-.52-.52c-.31-.52-.2-.99-.21-1.45-.04-2.43.1-3.2,0-5.68,0,0,0-1.12,0-1.75,0-.3.03-.6.1-.89.08-.36.12-.4.19-.37Z"/>
                    <g>
                      <path class="cls-8" d="m39.07,51.8c1.24.21.31.1,1.62.52.64.21,1.31.33,1.96.49.49.77,1.35.83,2.11,1.09.52.18,1.06.3,1.59.44h0c-.05.06-.11.12-.16.19l-.87,1.51h0c-.13.07-.33.22-.37.19-1.02-.93-2.4-1.1-3.59-1.66-1.89-.89-1.31-.58-3.22-1.43.03-.13-.1-.72,0-1.14,0-.1,0-.21.21-.41.16-.16.72.21.72.21Z"/>
                      <path class="cls-2" d="m53.62,52.53c-1.11,2.66-3.36,3.45-5.76,1.98-.49-.3-.99-.32-1.51-.17-.53-.14-1.07-.26-1.59-.44-.75-.26-1.62-.32-2.11-1.09,1.82-.01,3.64-.1,5.38.63.81.35.84-.35,1.16-.83,1.06-1.59,2.53-2.65,4.46-2.94.02,0,.22.68.21,1.04-.02.61-.15,1.21-.24,1.82Z"/>
                      <path class="cls-2" d="m45.39,64.55c0,.08,0,.17,0,.25-.29.47-.73.24-1.11.23l-1.06-.25c-.62-.31-1.23-.62-1.85-.92-.11-.06-.23-.11-.34-.17-.46-.23-.91-.46-1.37-.69-.34-.17-.31-.19-.59-.34-.34-.18-.72-.41-.83-.83-.32-1.27-.1-2.38-.1-5.79,0-1.36.01-1.63,0-2.89,1.91.84,1.33.54,3.22,1.43,1.19.56,2.56.73,3.59,1.66.04.03.24-.12.37-.18l.07.05c0,.96,0,1.92,0,2.88,0,.94,0,1.87,0,2.81l-.12,1.16c-.1.47-.11.94.12,1.41,0,.06,0,.12,0,.19Z"/>
                      <path class="cls-11" d="m53.85,50.71c.01-.36-.19-1.04-.21-1.04-1.93.29-3.41,1.35-4.46,2.94-.32.48-.34,1.18-1.16.83-1.74-.74-3.52-.62-5.34-.61-.65-.16-.7-.12-1.34-.31-1.76-.52-1.55-.52-3-.93.85-.76,1.24-.72,2.27-.62,2.17.21,2.73-1.21,2.45-3.44-.01-.12-.21-.25-.35-.32-3.71-1.64-3.13-1.2-3.96-1.82-.41-.41-.68-.92-.72-2.27-.04-1.29-.23-4.28.1-5.58,0,0,.41,0,.31.41-.1,1.45-.1,2.7,0,4.03.1,1.34-.1,2.27.72,3.51l.05.05c1.77.76,1.31.52,3.37,1.45,1.26.57,2.42,1.39,3.85,1.5.05,0,.1.02.16.02.09,0,.18,0,.26,0,.11-.04.22-.08.34-.12,1.82-1.58,3.69-2.68,5.92-.67.03.03.05.06.08.09.03.03.05.06.08.09h0c.03.06.06.11.1.17h0c.05.09.1.18.16.26h0c.03.06.06.12.09.18h0c.47,1.33.59,2.67,0,4.01.08-.61.21-1.21.24-1.82Z"/>
                      <path class="cls-16" d="m83.13,45.37c0,.19,0,.39-.02.59,0,.04,0,.07-.02.11-.51,2.22-1.11,2.34-1.64,2.84l-.42.39s-.05.05-.08.07c-.31.2-2.09,1.36-2.99,1.39-.04,0-.07,0-.11,0l-1.95-.28s-.04,0-.06-.01c-1.11-.26-2.26-.9-1.97,1.2,0,.03,0,.06,0,.09,0,1.15,0,2.3,0,3.45v.06s0,.08,0,.12c-.03.25-.35,1.59-.35,1.59,0,.03-.02.05-.04.07-.03.03-.07.07-.11.11-.02.02-.05.04-.07.04-.27.09-3.22,1.05-3.51,1.16-.02,0-.03.01-.05.02-.45.13-6.11,1.77-9,2.61v-.02c-1.84.48-3.7.9-5.52,1.45-1.75.53-3.46,1.2-5.19,1.81h0c-.56.15-1.11.32-1.67.47-.99.26-1.99,1.33-2.95-.05,0-.03,0-.06,0-.09.08-2.47.15-4.94.26-7.4.04-.93.18-1.87,1.1-2.4.72-.41,1.21.15,1.73.48,1.93,1.22,3.44.35,4.59-1.12,1.31-1.67,1.49-3.61.53-5.58h0c-.03-.05-.06-.11-.09-.16h0c-.05-.1-.1-.18-.16-.27h0c-.03-.06-.06-.11-.1-.17h0s-.05-.06-.08-.09l-.06-.06s-.04-.04-.05-.05c-.85-.76-1.65-1.06-2.41-1.06-1.2,0-2.32.76-3.42,1.71-.24.21-.59.23-.85.05-.1-.07-.18-.15-.23-.26-.05-.1-.08-.22-.08-.34,0-1.55,0-3.1,0-4.65,0-3.86.61-4.28,4.49-4.77,1.43-.18,3.97-1.15,4.96-1.55.21-.08.37-.26.43-.48.08-.3.15-.65-.16-.99-.19-.2-.38-.6-.45-.87l-.17-.66s-.01-.04,0-.06c-.16-1.03.04-1.97.5-2.93.79-1.65,1.87-2.91,3.67-3.43.56-.16,1.14-.23,1.7-.37.08-.02.17-.04.25-.04h.18s.06-.01.09-.01c2.08.11,3.6,2.56,3.45,5.78,0,.07,0,.31-.31,1.24-.1.38-.5.89-.19,1.33.04.06.11.11.17.16.03.02.06.04.09.06h0c.22.03.44.11.65.08,2.4-.31,4.8-.63,7.2-.95.14-.02.28,0,.41.07.27.14.45.34.58.57.16.29.22.64.23,1.02.01,1.16.05,2.28.06,3.44l.04,2.06c0,.13.04.25.11.36.1.16.2.32.34.36,1.02.32,1.49-.65,2.2-1.03,1.34-.72,2.77-.72,4.21-.69.06,0,.11,0,.17.03,1.2.38,2.15,2.23,2.15,4.48Z"/>
                    </g>
                  </g>
                </g>
              </g>
            </g>
          </g>
          <polygon class="cls-8" points="49.69 37.27 46.77 38.37 49.82 38.02 49.69 37.27"/>
        </g>
      </g>
      <g>
        <path class="cls-10" d="m651.74,64.71s.02.01.03.02c0,0-.02-.01-.03-.02,0,0,0,0,0,0Z"/>
        <path class="cls-16" d="m647.03,64.2l-.04.03s.02-.02.04-.04c0,0,0,0,0,0Z"/>
        <g>
          <g>
            <g>
              <path class="cls-9" d="m662.49,61.93c.09.06.18.13.27.19-2.31-1-4.2.58-6.27,1.03h0c-2.32.74-4.69,1.38-6.95,2.27-1.41.55-3.04.57-4.21,1.68-.24.23-.32.63-.48.95.02,1.65.05,3.31.07,4.96-.05.08-.26-3.34-.14-5.13.1-1.42,1.45-1.54,2.48-1.89,4.56-1.51,9.12-3.01,13.71-4.44.43-.13,1.01.23,1.52.37Z"/>
              <path class="cls-6" d="m666.04,59.68c0,1.4,0,2.79,0,4.19,0,.09,0,.19-.03.28-.2.72-1.08,1.11-1.85.77-.99-.39-1.96-.79-2.93-1.18-.99-.4-1.21-.69-1.22-1.63,0-1.52-.29-2.49,1.48-2.79.03,0,.07-.01.1-.02.79-.2,1.58-.41,2.39-.61.85-.21,1.28-.13,1.76.4.14.15.24.32.29.51,0,.03.01.06.01.09Z"/>
              <path class="cls-9" d="m655.19,70.31c.05,1.15.09,2.3.14,3.44-1.29-1.18-2.59-2.36-3.88-3.55,1.25.03,2.5.07,3.74.1Z"/>
              <path class="cls-6" d="m688.97,64.73l-16.15,6.87s.02-.03.02-.05c-1.36.59-2.84,1.47-4.25,1.89-1.29.39-2.47,1.1-3.84,1.27-.45.06-.93.61-1.4.95,0,.02,0,.04,0,.06,3.07-1.28,9.2-3.83,9.2-3.83.15-.02,3.37-1.41,3.51-1.46l2.06-.75,4.86-1.96,2.97-1.08c.3-.11.59-.23.87-.37l1.23-.6c.14-.07.26-.14.38-.23l.35-.26c.13-.1.22-.24.25-.39,0-.04-.03-.07-.07-.06Zm-23.91,10.14s-.01-.03-.02-.04c.03,0,.03,0,.05.02,0,0-.02.01-.03.02Z"/>
              <path class="cls-6" d="m663.01,75.84c-1.77.74-3.55,1.47-5.32,2.21,0,0,0-.04,0-.04,1.74-.74,3.49-1.49,5.23-2.23.03.02.05.04.08.06Z"/>
              <path class="cls-10" d="m648.27,75.85c.74.4,1.48.81,2.23,1.21-.74-.4-1.48-.81-2.23-1.21Z"/>
              <path class="cls-6" d="m655.73,78.81s-.01-.03-.01-.03c.49-.22.97-.44,1.46-.67.03.04.05.08.08.11-.51.19-1.02.39-1.52.58Z"/>
              <path class="cls-10" d="m646.96,75.1c.44.25.87.5,1.31.75-.44-.25-.87-.5-1.31-.75Z"/>
              <path class="cls-10" d="m645.14,73.96c.35.23.71.47,1.06.7-.35-.23-.71-.47-1.06-.7Z"/>
              <path class="cls-10" d="m646.2,74.66c.26.15.51.29.77.44-.26-.15-.51-.29-.77-.44Z"/>
              <path class="cls-6" d="m657.25,78.23s-.05-.08-.08-.11c.09-.03.18-.06.26-.09,0,.04,0,.08,0,.12-.06.03-.12.05-.18.08Z"/>
              <path class="cls-6" d="m663.01,75.84s-.05-.04-.08-.06c.14-.04.28-.08.42-.12,0,.02,0,.04,0,.06-.12.04-.23.08-.35.12Z"/>
              <path class="cls-6" d="m657.44,78.15s0-.08,0-.12c.08,0,.17-.01.25-.02,0,0,0,.04,0,.04-.08.03-.17.07-.25.1Z"/>
              <path class="cls-9" d="m653.77,78.57c.1-.11.21-.21.31-.32.33.84,1.01.61,1.64.53v.03c-1.28.55-2.32-.06-3.36-.72.46.17.92.34,1.37.51.1.06.19.12.29.18,0,0,.04-.06.06-.08-.11-.04-.21-.08-.32-.12Z"/>
              <path class="cls-9" d="m650.48,77.06c.84-.04,1.25.7,1.89,1.04-.63-.35-1.26-.69-1.89-1.04Z"/>
              <path class="cls-4" d="m688.7,65.09s-.09.03-.1.04c0,0-15.64,6.44-15.91,6.59-1.36.59-2.69,1.3-4.1,1.73-1.29.39-2.39,1.1-3.84,1.34-.44.07-.94.54-1.4.88-.14.04-.28.08-.42.12-1.74.74-3.49,1.49-5.23,2.23-.05,0-.09,0-.14,0-.11.03-.27.07-.38.09-.49.22-.97.44-1.46.67-.63.08-1.31.31-1.64-.53-.03-.08.02-.07.03-.1.02-1.42.12-2.84.05-4.26-.07-1.63.51-2.65,2.16-3.11,1.46-.4,2.9-.94,4.31-1.51,3.2-1.31,6.58-2.15,9.64-3.83.49-.27.44-.21.56-.68l-9.86,3.06-3.29-5.19,19.62-6.08c1.48-.44,2.25-.52,3.38-.1l1.11.42,3.72,1.38,1.33.48c.44.16.86.38,1.25.66l.33.24c.13.09.23.22.3.37.15.33.23.69.22,1.06v.75s.04.75.04.75v.62c.04.56.52,1.45-.29,1.92Z"/>
              <path class="cls-4" d="m672.34,64.53s0,.01,0,.01c-4.65,1.69-9.32,3.33-13.94,5.11-1.12.43-2.39.56-3.43,1.19-.58.36-1.3.35-1.87-.03-.53-.35-1.25-.5-1.71-.93l.04-.03c.09-.03.17-.06.26-.09h0c2.27-.8,4.52-1.65,6.81-2.38,3.05-.97,6-2.28,9.19-2.78.15-.02,1.67-.58,2.4-.86.23-.09.48-.12.73-.1.7.07,1.61.47,1.52.88Z"/>
              <path class="cls-1" d="m688.47,60.17h-.1c-.07,0-.13-.01-.19-.04-.45-.17-.64-.17-.66-.17l-.76.07c-.23.02-.46.07-.68.15l-2.26.81-3.13,1.04-3.45,1.13-2.82.92-1.95.59c-.12.04-.21.12-.3.2-.54.45-1.34.24-1.89.55-3.06,1.68-6.44,2.52-9.64,3.83-1.41.57-2.84,1.11-4.31,1.51-1.65.46-2.23,1.48-2.16,3.11.06,1.42.05,4.12-.05,4.26-.14.26-.06.02-.06-.17,0-.06-.03-.12-.03-.18,0-1.79-.01-3.58-.02-5.37,0-.17,0-.35-.01-.52,0-.1.03-.2.09-.27,1.1-1.37,2.85-1.42,4.32-1.98,4.62-1.78,9.29-3.42,13.94-5.11l3.41-1.09,5.79-2.14,4.92-1.54.09-.02.76-.17s.03,0,.05,0c.09,0,.2.01.29.06.24.12.91.46.82.54Z"/>
              <path class="cls-8" d="m644.93,73.02c-.02-1.65-.05-3.31-.07-4.96.02,1.65.05,3.31.07,4.96Z"/>
              <path class="cls-4" d="m650.64,68.96c-.09.06-.28.53-.31.52-.28-.15-.62-.41-.9-.57-.06-.04-.33-.17-.29-.23.01-.02.26-.13.26-.13.33.17.86.21,1.24.41Z"/>
              <path class="cls-4" d="m651.39,69.96c-.21-.1-.64-.1-.85-.19.02-.03.41-.52.41-.52.28.1,1.58-.1,1.86,0,0,0,.19.11-.93.52-.09.03-.33.2-.42.23l-.07-.03Z"/>
              <path class="cls-6" d="m665.09,74.86s-.02.01-.03.02c0-.01-.01-.03-.02-.04.03,0,.03,0,.05.02Z"/>
              <path class="cls-9" d="m653.77,78.57l.32.12s-.05.09-.06.08c-.1-.06-.19-.12-.29-.18,0,0,.03-.03.03-.03Z"/>
              <rect class="cls-9" x="653.72" y="78.48" width=".21" height=".21"/>
              <path class="cls-6" d="m645.13,73.95c-.31-.2-.2-.93-.2-.93l-.07-4.96c.15-.32.23-.72.48-.95,1.17-1.11,2.8-1.13,4.21-1.68,2.27-.88,4.63-1.53,6.95-2.27,0,0,.02.01.03.02,0,0-.02-.01-.03-.02,2.07-.45,3.96-2.03,6.27-1.03,1.82.75,5.01,1.99,4.93,2.47-.02.44-6.14,1.8-9.19,2.78-2,.64-3.89,1.68-5.95,2.08-.51.1-.87-.1-1.25-.13-.18-.02-.34.01-.44.14h0c-.05.06-.01.12.05.17.05.04.08.06.16.08.21.05.41.18.59.31.76.54,1.84.67,2.19,1.73l.07.2c.05.12.08.33.08.47-.02,1.81.05,5.35.03,5.51-.02.18.02.36-.11.49-.02.02-.05.06-.08.1-.06.08-.17.11-.27.07-.28-.12-.87-.37-1.21-.49,0,0,0,0,0,0-.64-.33-1.05-1.08-1.89-1.04,0,0,0,0,0,0-.74-.4-1.48-.81-2.23-1.21h0c-.44-.25-.87-.5-1.31-.75h0c-.26-.14-.51-.29-.77-.43,0,0,0,0,0,0-.36-.24-.72-.47-1.08-.71Zm5.38-4.88c-.02-.29-.74-.4-1.05-.4-.16,0-.03.14,0,.16.27.16.47.27.74.41.05.03.12.04.18.02s.11-.07.13-.19Z"/>
              <path class="cls-13" d="m662.73,65.34c.19.07-7.24.21-11.27,1.03-.13.03-2.38.72-3,.72-.15,0-1.67-.12-1.65-.31.03-.34,4.02-1.97,4.33-2.07,1.18-.38,2.36-.76,3.55-1.14,1.17-.37,2.35-.75,3.52-1.12.53-.17,1.07-.34,1.61-.51.14-.04.28.05.27.19,0,.15,0,.3-.02.45-.03.64.1.83.73,1.06.61.22,1.22.45,1.84.67.11.04.21.06.31.06.02,0,.04,0,.06,0,.02,0,.04,0,.05,0,0,0,0,0,.01,0,.02,0,.03,0,.04,0,0,0,.01,0,.02,0,.01,0,.03,0,.04-.01,0,0,.01,0,.02,0,.01,0,.03,0,.05-.02.02,0,.04-.01.06-.02.02,0,.04-.02.05-.03.02,0,.03-.02.05-.03,0,0,0,0,0,0,.02-.01.03-.02.05-.03.05-.04.1-.08.14-.13,0,0,0,0,0,0,.03-.03.06-.07.08-.1.01-.02.03-.04.04-.06.01-.02.03-.04.04-.06h0c.02-.08.05-.15.07-.23.03-.96.07-1.91.1-2.85,0-.02.13-.22.2-.24.13-.02.25.07.25.2-.02.77-.05,1.55-.07,2.33-.02.8.61,1.24,1.44.99.4-.12-.95.35-.15.67l-2.89.62Z"/>
              <path class="cls-6" d="m671.18,58.86c-.18.52-.4,1.1-.62,1.72-.15.43-.39.74-.72.9-.56.27-1.21.08-1.57.75-.07.13.24.96.24.96.14.26.4.34.72.21,1.53-.6,3.36-1.31,5.58-2.18,1.45-.57,3.09-1.22,4.96-1.96.64-.25.94-.61.71-1.08-.2-.41-.69-.55-1.3-.54-.15,0-.3,0-.44,0-2.64.04-2.51-.33-4.14-.25-.26.01-1.97.74-2.22.85-.28.13-.72,0-.98.14-.09.05-.17.15-.18.23,0,0,0,0,0,0,0,.08-.02.17-.05.26Z"/>
              <path class="cls-13" d="m671.24,58.75c-.1.46-.23.95-.35,1.49-.09.37-.25.64-.51.78-.44.24-1.02.09-1.26.68-.04.11.31.82.31.82.14.22.37.28.63.16,1.2-.56,2.58-1.2,4.19-1.95,1.01-.47,2.11-.99,3.33-1.57.41-.19.58-.47.41-.83-.15-.32-.48-.45-.89-.46-.1,0-.2-.01-.3-.01-1.86-.03-1.78-.34-2.99-.32-.19,0-1.47.58-1.65.67-.22.1-.58-.01-.78.1-.07.04-.12.13-.12.2,0,0,0,0,0,0,0,.07,0,.15-.02.22Z"/>
              <path class="cls-4" d="m664.18,64.26v-5.26c0-.27.4-.58,1.02-.78.87-.28,1.73-.56,2.58-.83,1-.32,1.82-1.89,2.81-2.18,2.04-.59,3.89-1.77,3.93-.72.04,1.15-.05,5.12-.01,6.28-.02.18-.05.35-.11.5-.22.54-.77.9-1.93,1.3-.03,0-.05.02-.08.03-1.06.36-2.14.73-3.23,1.1-.8.27-1.61.55-2.44.82-1.2.4-2.54.27-2.54-.25Z"/>
              <path class="cls-6" d="m674.51,55.65c-.17.63-.49,1.07-.69,1.45-.32.62-.85,1.1-1.49,1.38l-.81.36-1.62.82c-.68.34-1.39.6-2.13.76l-.45.1c-.78.17-1.6-.1-2.11-.72l-.47-.56c-.16-.19-.25-.43-.25-.68v-2.72l6.59-2.05c.86-.27,1.79-.09,2.48.48l.85-.08c.25.2.17,1.16.09,1.47Z"/>
              <path class="cls-13" d="m672.76,55.02c-.13.49-.38.84-.54,1.13-.25.48-.67.86-1.16,1.08l-.64.28-1.27.64c-.53.27-1.09.47-1.67.6l-.35.08c-.61.14-1.25-.08-1.65-.56l-.37-.44c-.12-.15-.19-.34-.19-.53v-2.13l5.17-1.61c.67-.21,1.4-.07,1.94.38l.53.43c.19.16.27.41.21.65Z"/>
            </g>
            <path class="cls-1" d="m664.65,60.53v2.52c0,.27.04.54.13.79l.04.12c.05.15.15.28.28.38l.07.05c.13.09.29.13.45.11l.52-.08-.29-.19c-.22-.14-.39-.35-.5-.58l-.07-.15c-.06-.13-.11-.27-.13-.42l-.51-2.54Z"/>
            <path class="cls-1" d="m675.94,60.92l-1,.26c-.16.04-.32.1-.47.17l-2.14,1.03c-.14.07-.29.13-.44.18l-.18.06c-.16.06-.29.17-.37.31l-.06.1c-.03.06.02.13.08.11l.73-.17c.28-.06.56-.15.83-.27l1.26-.54,1.55-.72.7-.31c.07-.03.07-.14-.01-.16l-.22-.06c-.08-.02-.17-.02-.26,0Z"/>
          </g>
          <path class="cls-4" d="m651.73,69.41l.71,1.03s-1.41-.69-1.61-.8c-.4-.24-.5-.21-.72-.4-.17-.14-.19-.15-.19-.15l.38-.25s.13.07.38.15c.73.24.97.4,1.06.41Z"/>
        </g>
        <g>
          <g>
            <path class="cls-6" d="m671.88,11.49c.57-.05,1.14-.1,1.71-.15.06.03.12.05.18.08-.63.05-1.26.11-1.88.16v-.09Z"/>
            <path class="cls-6" d="m671.37,11.59c-.09-.03-.18-.05-.26-.08.26,0,.52-.01.78-.02,0,.03,0,.06,0,.09-.17,0-.34,0-.51.01Z"/>
            <path class="cls-6" d="m673.77,11.42c-.06-.03-.12-.05-.18-.08.2,0,.4-.01.61-.02.03.03.06.06.08.09-.17,0-.34,0-.51.01Z"/>
            <path class="cls-6" d="m669.5,11.66c.53-.05,1.07-.1,1.6-.15.09.03.18.05.26.08-.57.05-1.14.1-1.71.16-.05-.03-.1-.06-.15-.09Z"/>
            <path class="cls-6" d="m668.96,11.76s-.06-.06-.09-.09c.21,0,.42-.01.63-.02.05.03.1.06.16.09-.23,0-.46,0-.69.01Z"/>
            <path class="cls-6" d="m667.25,11.85c-.1,0-.21-.01-.31-.02.24-.02.48-.04.72-.07-.14.03-.27.06-.41.09Z"/>
            <g>
              <path class="cls-2" d="m651.82,37.45c-.05,0-.1.01-.16.02,0-.03.01-.06.02-.08l.14.07Z"/>
              <path class="cls-1" d="m685.31,12.34s0,0,0,0c.97.25,2.08.45,3.02.73.5.14.39.15.24.16-4.25.34-8.87.65-13.12.99-2.19.15-4.39.3-6.58.45h0c-2.14.14-4.27.28-6.41.43-.02,0-.03.05-.05.08.01,0,.03.01.04.02-.47.05-.93.09-1.4.14-1.05.07-2.1.14-3.15.21-.06.02-.13.03-.19.05-1.31.09-2.28.17-3.59.26l-.41.52c-1,.11-1.91-.28-2.91-.18-.07,0-.33.18-.4.18-.51.04-.82-.09-1.33-.06-.06.02-.13.03-.19.05-1.61.09-3.45.79-4.99.52-2.4-.42-4.55-1.59-6.9-2.26-.2-.06-.39-.18-.58-.27.17,0,.34-.01.51-.02,1.28-.11,2.56-.22,3.84-.33.83-.06,1.66-.12,2.49-.18.49-.05.97-.11,1.46-.16.2,0,.4-.01.6-.02.54-.05,1.08-.1,1.63-.16.09,0,.18,0,.27-.01.63-.05,1.25-.11,1.88-.16.85-.06,1.71-.13,2.56-.19.52-.05,1.03-.1,1.55-.15.17,0,.34-.01.51-.02.51-.05,1.03-.11,1.54-.16.18,0,.35,0,.53,0,1.25-.11,2.51-.22,3.76-.33.31-.04.63-.07.94-.11,1.48-.09,2.97-.17,4.45-.26.6-.05,1.2-.1,1.8-.15.17,0,.34-.01.52-.02.57-.05,1.14-.1,1.71-.16.23,0,.46,0,.69-.01.57-.05,1.14-.1,1.71-.16.17,0,.34,0,.51-.01.63-.05,1.26-.11,1.88-.16.17,0,.34,0,.51-.01,1.46-.12,2.91-.24,4.37-.36l.43.03c2.08.42,4.15.84,6.23,1.26Z"/>
              <path class="cls-4" d="m676.83,53.38s-.2.07-.23.09c-.09-.02-.18-.04-.26-.06,1.03-.73,2.09-4.17,1.87-4.29,0,0,.02-.02.03-.03.26-.29.47-.63.65-.98.34-.69.68-1.39.99-2.09.66-1.48-.63-4.8-1.98-5.14-.11-.05-.22-.1-.33-.15-1.16-.4-2.31-.81-3.47-1.21,0,0,0-.02,0-.02-.36-.05-.48.18-.84.13-.44.08-1.01.43-1.45.52l-.14-.27c-.07-.13-.22-.19-.36-.14-.12.05-.25.1-.37.14-.02-.01-.04-.01-.07,0-.01-1.16-.02-2.33-.03-3.49-.03-.76-.25-1.4-1.03-1.69-.05-.04-.1-.08-.15-.12l-.14-.02c-1.14-.32-2.15-.19-3.3-.51-.42.02-.94-.4-1.36-.38h0c-.23.02-.46.03-.69.04-.85.12-1.7.24-2.55.35.08-.3.15-.59.23-.89l.05.04.04-.28c.19-3.29-1.29-5.85-3.41-5.92-.09-.05-.19-.1-.28-.16-.11-.03-.22-.06-.32-.1-2.93-1.28-6.37-.48-7.64,1.78-.06.06.11.16.05.23l-.21.1c-.05.06-.05.04-.1.1l-.37.49-.07.08c-.13.1-.3.17-.38.3-1.32,2.19-1.7,4.6-1.57,7.11-.5.08-.99.17-1.49.25-.46.08-.86.34-1.13.72l-.18.27c-.41.07-1.14-.6-1.5-.42h-.36c-.25-.15-.23-.19-.35-.29s-.21-.23-.26-.37h0c-.03-.1-.05-.2-.05-.3-.01-4.46-.03-8.92-.04-13.37.04-1.55.08-3.1.12-4.65,0-.14.03-.29.09-.42h0s0,0,0,0c.03-.06.06-.12.09-.17h0c.03-.06.06-.11.09-.17h0s.05-.05.08-.08h0c.04-.06.07-.12.11-.17.77-1.14,1.98-1.08,3.14-1.14.09-.02.18-.04.26-.05.88-.07,2.76-.23,2.82-.25.29-.01,1.32-.09,1.5-.11h.23s1.95-.17,1.95-.17c.06,0,.11-.02.17-.03h.02c.05-.02.1-.03.15-.04.23-.03.46-.06.69-.08h0c1.31-.09,4.11-.33,4.11-.33,1.05-.07,2.1-.14,3.15-.21.47-.05.93-.09,1.4-.14,2.14-.17,4.28-.35,6.42-.52h0c2.19-.15,4.39-.3,6.58-.45,4.09-.33,8.18-.66,12.28-.99.2,0,.4-.02.59-.03l.19-.04h.09c.17,0,.34.02.52.04.12.01.23.03.34.06.39.12.92.34,1.19.46.12.05.22.12.31.21.04.04.08.08.12.12h0s.06.06.09.09l.08.08c.06.09.12.17.17.26,0,0,.31.71.33,1.08.08,1.58.12,3.17.17,4.75-.02,1.91-.15,3.36-.15,3.44,0,1.43,0,2.86,0,4.28-.06,3.46-.08,6.92-.18,10.38-.09,2.86.36,5.85-.3,8.59-.03.12-.07.23-.12.34-.03.06-.06.11-.08.14,0,0-.29.47-.34.51,0,0-.03.04-.06.09-.08.11-.16.22-.26.31l-.19.19c-4.16,2.06-8.72,2.94-13.04,4.54l-.08.1s-.14.08-.28.15Z"/>
              <path class="cls-13" d="m676.39,52.45c-.07.04-.15.09-.22.13l-.1-.15c.99-.7,1.46-1.67,1.24-1.79.01-.01,3.05-.55,3.06-.56.26-.29,1.44-.21,1.61-.56.32-.65,1.64.09,1.93-.56,1.37-.64,6.05-1.28,4.75-1.61-.1-.05-11.31-6.97-11.41-7.02-1.11-.38-2.23-.77-3.34-1.15,0,0,0-.02,0-.02-.34-.04-.46.17-.8.13-.42.08-.97.41-1.39.49l-.13-.26c-.08-.17-.32-.21-.46-.05l-.24.05s-.04-.01-.06,0c-.01-1.11-.02-2.22-.03-3.33-.03-.72-.24-1.33-1-1.61-.05-.04-.1-.07-.15-.11l-.13-.02c-1.1-.3-2.07-.18-3.17-.48-.41.02-.91-.38-1.31-.36h0c-.22.02-.44.03-.67.04-.82.11-1.63.23-2.45.34.07-.28.15-.56.22-.85l.05.04.03-.27c.18-3.14-1.24-5.58-3.29-5.65-.09-.05-.18-.1-.27-.15-.1-.03-.21-.05-.31-.1-2.83-1.22-6.13-.46-7.35,1.7-.05.06.11.16.05.22l-.2.1c-.05.06-.05.04-.1.1l-.36.47-.07.07c-.13.09-.29.16-.37.28-1.27,2.09-1.64,4.38-1.52,6.78-.48.08-.95.16-1.43.24-.44.07-.83.32-1.08.69l-.17.25c-.37.06-1.04-.52-1.39-.42l-.35.03c-.3-.06-.43-.21-.47-.31-.04-.09-.09-.15-.12-.24l-.04-.11c-.03-.08-.04-.17-.04-.25-.01-4.26-.03-8.52-.04-12.77.04-1.48.08-2.96.12-4.44,0-.14.03-.27.09-.4h0s0,0,0,0c.03-.06.05-.11.08-.17h0c.03-.05.06-.11.09-.16h0s.05-.05.08-.08h0c.04-.06.07-.11.11-.16.74-1.09,1.91-1.03,3.03-1.09.08-.02.17-.03.25-.05.84-.06,2.66-.22,2.72-.24.27-.01,1.27-.09,1.44-.11h.22s1.88-.17,1.88-.17c.05,0,.11-.01.16-.03h.02s.1-.03.15-.04c.22-.03.44-.05.67-.08h0c1.26-.09,3.96-.31,3.96-.31,1.01-.07,2.02-.13,3.03-.2.45-.04.9-.09,1.35-.13,2.06-.17,4.12-.33,6.19-.5h0c2.11-.14,4.22-.29,6.33-.43,3.94-.32,7.88-.63,11.82-.95.19,0,.38-.02.57-.03,0,0,.06,0,.14,0,.48,0,.92,0,1.39.12.32.08.32.08.56.24.17.12.34.25.48.39l.08.08s.08.08.08.08c0,0,.02.02.03.03.04.04.07.08.11.13l.03.04c.06.08.1.16.13.25.11.3.26.61.28.92.08,1.51.11,3.02.16,4.53-.02,1.82-.15,3.2-.15,3.28,0,1.36,0,2.72,0,4.09-.05,3.3-.07,6.6-.17,9.9-.08,2.77.31,5.57-.32,8.32,0,0-.18.61-.24.72,0,0-.16.32-.32.48,0,0-.16.08-.32.24l-.4.24c-4,1.96-8.1,2.51-12.26,4.03-.03.03-.05.06-.08.09h0c-.14.06-.28.12-.42.18Z"/>
              <path class="cls-4" d="m675.73,51.97s-.05.03-.08.04c-.08-.02-.17-.04-.25-.06.98-.67,2.01-3.82,1.79-3.93.01-.01.02-.02.03-.03.26-.28.47-.6.64-.94.32-.62.64-1.24.93-1.88.64-1.37-.57-4.44-1.85-4.76-.1-.05-.21-.1-.31-.14-1.1-.38-2.19-.76-3.29-1.14,0,0,0-.02,0-.02-.34-.04-.45.16-.79.12-.42.07-.96.39-1.37.47l-.13-.25c-.07-.14-.26-.19-.4-.09l-.32.09s-.02,0-.03,0c0-1.08-.01-2.15-.02-3.23-.02-.7-.23-1.29-.97-1.57-.05-.04-.1-.07-.14-.11l-.13-.02c-1.08-.3-2.04-.19-3.11-.48-.4.02-.89-.38-1.29-.36h0c-.22.01-.44.02-.65.04-.8.1-1.6.21-2.4.31.07-.27.14-.54.22-.82l.04.04.03-.26c.19-3.03-1.2-5.4-3.2-5.48-.09-.05-.18-.1-.26-.15-.1-.03-.21-.05-.3-.09-2.76-1.19-5.99-.46-7.18,1.62-.05.06.1.15.05.21l-.19.09c-.05.06-.05.04-.1.09l-.35.45-.07.07c-.12.09-.28.15-.36.27-1.24,2.01-1.28,5.57-1.16,7.88-.46.07-1.36,0-1.83.07-.43.07-.69-.88-.94-.53l-.17.24c-.29.05-.5-.07-.73-.05s-.45.01-.67-.05c-.34-.1-.43-.14-.49-.23-.03-.04-.06-.08-.1-.12-.04-.04-.07-.08-.1-.12-.12-.15-.18-.34-.18-.54-.02-1.36-.11-8.71-.12-12.46.04-1.43.08-2.86.11-4.28,0-.13.03-.26.08-.39h0s0,0,0,0c.03-.05.05-.11.08-.16h0c.03-.05.06-.11.09-.16h0s.05-.05.07-.08h0c.03-.06.07-.11.1-.16.72-1.05,1.86-.99,2.95-1.05.08-.02.17-.03.25-.05.82-.06,2.59-.21,2.65-.23.27-.01,1.24-.09,1.41-.11h.22s1.84-.16,1.84-.16c.05,0,.11-.01.16-.03h.02s.1-.03.14-.04c.22-.03.43-.05.65-.08h0c1.23-.08,3.88-.3,3.88-.3.99-.06,1.98-.13,2.98-.19.44-.04.88-.09,1.33-.13,2.03-.16,4.06-.32,6.09-.48h0c2.08-.14,4.17-.28,6.25-.42,3.9-.31,7.81-.62,11.73-.92.19,0,.38-.02.57-.03l.18-.04h.08c.22.01.43.03.65.05.49.19.99.37,1.48.56h0c.08.08.16.16.25.24h0s.06.05.08.08h0s.06.05.08.08c0,0,0,0,0,0,.06.08.11.16.17.24h0c.11.33.3.67.31,1.01.07,1.48.09,2.96.13,4.44-.04,1.78-.17,3.13-.17,3.21-.01,1.33-.02,2.66-.04,3.99-.08,3.22-.12,6.44-.24,9.65-.1,2.7.27,5.42-.38,8.08,0,0-.04.27-.15.54-.08.2-.2.37-.37.5-.05.04-.11.09-.16.13-.1.09-.22.15-.34.2-.09.04-.19.07-.21.08-3.91,1.78-8.16,2.55-12.18,3.95-.03.03-.05.06-.08.09h0c-.14.05-.28.11-.41.17Z"/>
              <path class="cls-6" d="m642.28,23.42h0c.01,4.46.03,8.93.04,13.39,0,.09.01.18.06.26.08.14.48.47.71.67v.04s-.5.02-.5.02h0c-.31-.09-.63-.15-.93-.26-2.52-.89-7.56-2.67-7.56-2.67-.09-.02-.32-.19-.51-.29-.04-.02-.08-.05-.12-.09l-.02-.02s-.05-.06-.06-.09c-.03-.08-.07-.17-.07-.17-.01-5.62-.02-11.24-.04-16.86,0-.04,0-.22.02-.34.04-.26.06-.48.16-.72l.36-.69h0s.13-.17.19-.25h0c.06-.06.11-.12.17-.17.1-.09.31-.25.33-.26h0c.63-.19,1.27-.38,1.9-.57h0c.19.09.38.21.58.27,2.36.68,4.68,1.54,7.09,1.95,1.54.27-.46.04-1.23,1.18-.04.05-.07.11-.11.16h0s-.04.05-.05.07l-.09.14c-.03.08-.07.15-.11.23-.05.13-.08.28-.09.42-.04,1.55-.08,3.1-.12,4.65h0Z"/>
              <path class="cls-6" d="m685.31,12.33c-2.08-.42-4.15-.84-6.23-1.26-.26,0-.51,0-.77,0h0c-1.34.11-2.68.22-4.03.33-.03-.03-.06-.06-.08-.09,1.31-.11,2.62-.22,3.93-.32.39-.03.71-.03,1.04,0,2.03.42,4.06.85,6.09,1.27.01.02.02.04.04.06Z"/>
              <path class="cls-6" d="m655.7,12.69c1.22-.11,2.44-.21,3.66-.32.06.03.12.06.18.08-1.25.11-2.51.22-3.76.33-.03-.03-.05-.06-.08-.09Z"/>
              <path class="cls-6" d="m639.4,13.99c.2,0,.4-.02.6-.03.16,0,.32,0,.48,0,.09,0,.19.01.29.02-1.28.11-2.56.22-3.84.33,0-.03,0-.06,0-.1.69-.06,1.37-.12,2.06-.17.14-.02.28-.04.42-.06Z"/>
              <path class="cls-6" d="m690.43,13.62c-.16-.08-.66-.26-.98-.36-.11-.04-.22-.06-.34-.07-.14-.01-.28-.03-.42-.04-.06,0-.13-.01-.19-.01-.06,0-.09-.01-.15-.02,0,0-.01,0-.02,0-.16-.04-2.04-.53-3.01-.78.08,0,.17,0,.25,0,1.04.23,2.07.46,3.11.69.09.01.17.02.26.03,0,0,.22.05.33.07.09.02.17.03.26.05.05,0,.42.11.9.43Z"/>
              <path class="cls-6" d="m660.49,12.28c.63-.04,1.25-.08,1.88-.11.12-.02.23-.03.35-.05.65-.04,1.31-.07,1.96-.11.08.03.17.06.25.08-1.48.09-2.97.17-4.45.26h0s0-.05,0-.07Z"/>
              <path class="cls-6" d="m649.95,13.14c.49-.03.98-.07,1.46-.1.08.03.16.05.24.08-.85.06-1.71.13-2.56.19-.11-.02-.23-.04-.34-.06.31-.02.62-.05.93-.07.09-.01.18-.02.28-.03Z"/>
              <path class="cls-6" d="m636.92,14.23s0,.06,0,.1c-.17,0-.34.01-.51.02-.64.19-1.27.38-1.91.57.68-.67,1.56-.64,2.41-.68Z"/>
              <path class="cls-6" d="m640.77,13.99c-.09,0-.19-.01-.28-.02.01-.03.02-.05.04-.08.23,0,.45-.02.68-.03.09-.02.18-.03.27-.05.54-.03,1.08-.07,1.62-.1.05.03.11.06.16.09-.83.06-1.66.12-2.49.18Z"/>
              <path class="cls-6" d="m648.74,13.24c.11.02.23.04.34.06-.63.05-1.25.11-1.88.16,0-.03,0-.06,0-.09.51-.05,1.03-.09,1.54-.14Z"/>
              <path class="cls-6" d="m664.93,12.09c-.08-.03-.17-.06-.25-.08.46-.03.91-.06,1.37-.09.23,0,.46.01.68.02-.6.05-1.2.1-1.8.15Z"/>
              <path class="cls-6" d="m645.15,13.55c.48-.05.97-.09,1.45-.14.11.02.22.05.33.07-.54.05-1.08.1-1.63.16-.05-.03-.11-.06-.16-.09Z"/>
              <path class="cls-6" d="m653.56,12.86c.49-.04.98-.08,1.46-.12.08.02.15.03.23.05-.51.05-1.03.11-1.54.16l-.15-.08Z"/>
              <path class="cls-6" d="m651.65,13.12c-.08-.03-.16-.05-.24-.08.54-.05,1.07-.1,1.61-.15.06.03.12.05.18.08-.52.05-1.03.1-1.55.15Z"/>
              <path class="cls-6" d="m643.26,13.81c-.05-.03-.11-.06-.16-.09.51-.05,1.02-.1,1.52-.15.03.03.06.05.09.08-.49.05-.97.11-1.46.16Z"/>
              <path class="cls-6" d="m667.66,11.76c.4-.03.8-.05,1.2-.08.03.03.06.06.09.09-.57.05-1.14.1-1.71.16,0-.02,0-.05,0-.07.14-.03.27-.06.41-.09Z"/>
              <path class="cls-3" d="m633.27,17.32h0s0,.05,0,.07c.01,5.61.02,11.21.04,16.82-.08-.39-.23-.77-.23-1.16.01-5.25.09-15.99.12-16.11,0,0,0,0,0,0,.09-.66.4-1,.61-1.35-.12.29-.15.17-.44,1.09-.05.16-.07.47-.09.64Z"/>
              <path class="cls-6" d="m667.25,11.85s0,.05,0,.07c-.17,0-.34.01-.52.02-.23,0-.46-.01-.68-.02.3-.03.59-.06.89-.09.1,0,.21.01.31.02Z"/>
              <path class="cls-6" d="m659.54,12.45c-.06-.03-.12-.06-.18-.08.26-.01.52-.03.78-.04.11,0,.23.01.34.02,0,0,0,0,0,0-.31.04-.63.07-.94.11Z"/>
              <path class="cls-6" d="m655.25,12.79c-.08-.02-.15-.03-.23-.05.23-.02.45-.03.68-.05.03.03.05.06.08.09-.18,0-.35,0-.53,0Z"/>
              <path class="cls-6" d="m653.2,12.97c-.06-.03-.12-.05-.18-.08.18,0,.36-.01.53-.02.05.03.1.06.15.08-.17,0-.34.01-.51.02Z"/>
              <path class="cls-6" d="m644.71,13.65s-.06-.05-.09-.08c.18,0,.36-.01.54-.02.05.03.11.06.16.09-.2,0-.4.01-.6.02Z"/>
              <path class="cls-6" d="m646.94,13.48c-.11-.02-.22-.05-.33-.07.2,0,.4-.02.6-.03,0,.03,0,.06,0,.09-.09,0-.18,0-.27.01Z"/>
              <path class="cls-14" d="m634.49,14.89c-.11.09-.22.19-.32.28.11-.09.22-.19.32-.28Z"/>
              <path class="cls-6" d="m640.52,13.9s-.03.05-.04.08c-.16,0-.32,0-.48,0,.17-.02.35-.05.52-.07Z"/>
              <path class="cls-12" d="m639.4,13.99c-.14.02-.28.04-.42.06.14-.02.28-.04.42-.06Z"/>
              <path class="cls-12" d="m662.72,12.11c-.12.02-.23.03-.35.05.12-.02.23-.03.35-.05Z"/>
              <path class="cls-6" d="m660.48,12.35c-.11,0-.23-.01-.34-.02.12-.02.23-.03.35-.05,0,.02,0,.05,0,.07Z"/>
              <path class="cls-6" d="m685.57,12.34c-.08,0-.26,0-.26,0-.01-.02-.03-.04-.04-.06.1.02.2.05.3.07Z"/>
              <path class="cls-12" d="m691.43,14.49c-.06-.09-.12-.17-.17-.26.06.09.12.17.17.26Z"/>
              <path class="cls-14" d="m634.17,15.17c-.06.06-.11.11-.17.17.06-.06.11-.11.17-.17Z"/>
              <path class="cls-12" d="m649.95,13.14c-.09.01-.18.02-.28.03.09-.01.18-.02.28-.03Z"/>
              <path class="cls-12" d="m641.47,13.82c-.09.02-.18.03-.27.05.09-.02.18-.03.27-.05Z"/>
              <path class="cls-12" d="m691.17,14.15s-.06-.06-.09-.09c.03.03.06.06.09.09Z"/>
              <path class="cls-13" d="m649.58,29.52h0c-.2.31-.33.65-.38,1.01-.04.25-.08.5-.11.75-.3.46-.15.93,0,1.39.14.48.29.95.43,1.43,1.21,2.18-.02,2.72-1.89,2.83-.12-2.51.25-4.92,1.57-7.11.08-.13.26-.2.39-.3Z"/>
              <path class="cls-1" d="m662.46,15.19s-.03-.01-.04-.02c.02-.03.03-.07.05-.08,2.14-.15,4.27-.29,6.41-.43-2.14.17-4.28.35-6.42.52Z"/>
              <path class="cls-1" d="m650.81,16.18c1-.11,1.99-.21,2.99-.32-.26.03-.51.06-.77.09-.06.02-.12.04-.18.05-.68.06-1.36.12-2.04.18Z"/>
              <path class="cls-1" d="m649.08,16.31c.51-.04,1.02-.08,1.53-.12-.14,0-.27.01-.41.02-.09.02-.18.04-.26.06-.29.01-.57.03-.86.04Z"/>
              <path class="cls-14" d="m643.57,37.72c-.16.02-.32.04-.48.06,0,0,0-.04,0-.04"/>
              <path class="cls-16" d="m669.66,34.56c-.08,0-.16,0-.24,0,.04,0,.07-.01.11-.02.05,0,.09.01.14.02Z"/>
              <path class="cls-14" d="m642.74,17.91c.04-.05.07-.11.11-.16-.04.05-.07.11-.11.16Z"/>
              <path class="cls-14" d="m642.49,18.35c.03-.06.06-.12.09-.17-.03.06-.06.12-.09.17Z"/>
              <path class="cls-14" d="m642.4,18.55c.03-.07.06-.13.08-.2-.03.07-.06.13-.08.2Z"/>
              <path class="cls-14" d="m642.57,18.18c.03-.06.06-.11.09-.17-.03.06-.06.11-.09.17Z"/>
              <path class="cls-14" d="m642.66,18.01s.05-.06.08-.09c-.03.03-.05.06-.08.09Z"/>
              <path class="cls-7" d="m652.26,34.2c-.03-.08-.07-.16-.1-.25,0-.03,0-.06.01-.09.03.11.06.22.09.34Z"/>
              <path class="cls-7" d="m661.6,35.46c.06.04.12.08.17.11-.06-.04-.12-.08-.17-.11Z"/>
              <path class="cls-8" d="m637.24,37.06c-.09.02-.14.05-.18.04-.03,0-.05-.07-.08-.11.05-.01.1-.03.16-.03.03,0,.05.04.11.1Z"/>
              <path class="cls-2" d="m643.1,39.52s-.07.06-.1.08c.03-.03.07-.06.1-.08Z"/>
              <path class="cls-13" d="m649.09,32.66c-.15-.46-.31-.92,0-1.39,0,.46,0,.93,0,1.39Z"/>
              <path class="cls-12" d="m649.26,30.13c.06-.13.12-.26.18-.38-.06.13-.12.26-.18.38Z"/>
              <path class="cls-2" d="m672.53,41.66s-.09.06-.13.09c.04-.03.09-.06.13-.09Z"/>
              <path class="cls-7" d="m656.41,27.25c-.1.03-.15.05-.21.06,0,0-.02-.06-.03-.09.04-.01.08-.03.12-.03.03,0,.05.03.12.06Z"/>
              <path class="cls-3" d="m640.41,37.12c-1.34-.52-2.27-.71-3.41-1.34-.16-.09-.93-.62-.83-.72.1-.41,1.65.12,2.07.31.53.25,1.02.46,1.55.72.54.27,1.07.46,1.62.69.34.14.36.16.48.19.16.05.31.12.45.2.28.16.36.28,1.01.3.41,0,2.04-.05,2.12-.04-.09.05-2.02.31-2.12.35-.92.33-2.12-.35-2.95-.66Z"/>
              <path class="cls-4" d="m641.88,18.26c-.21.12-.26.09-.43.13-.28.07-.77-.15-1.24-.31-1.41-.49-3.02-.77-4.51-1.2-.69-.2-1.79-.91-.97-1.42.29-.04.7.05.93.1.92.23,1.78.79,2.7,1.01,1.23.3,1.93,1.22,3.39.95.21-.04,1.23-.62,1.46-.62.21,0-.52.41-.62.52-.31.31-.56.73-.72.83Z"/>
              <path class="cls-1" d="m682.49,15l1.92-.22h0s1.68-.12,1.68-.12c.53-.04,2.19.01,2.19.01.31,0,.63.16,1.05.41,0,0,.74.48.99,1.53.02.08.09,2.6.09,2.6.15,8.62-.35-.3-.38-.45l-.34-1.52c-.04-.16-.06-.24-.17-.42-.05-.09-.11-.17-.17-.25l-.23-.3c-.14-.18-.78-.53-1.18-.74-.21-.11-.45-.2-.71-.27l-.15-.04c-.62-.15-1.26-.2-1.9-.15l-.84.07c-.32.03-.64.03-.96.01l-.88-.05c-1.29.03-.12-.1-.01-.12Z"/>
              <polygon class="cls-7" points="652.16 33.72 652.2 33.97 652.16 33.95 652.05 33.38 652.16 33.72"/>
              <path class="cls-4" d="m655.33,25.23l23.32,8.16,6,8.32-4.58,6.22s-4.95,1.91-5.16,1.82-15.3-5.67-15.3-5.67l-9.68-6.21,1.74-7.69,3.66-4.95Z"/>
              <polygon class="cls-1" points="689.04 46.61 689.04 46.61 689.04 46.61 689.04 46.61"/>
              <polygon class="cls-1" points="686.14 47.21 686.14 47.22 686.14 47.22 686.14 47.21"/>
              <polygon class="cls-13" points="676.12 52.12 676.13 52.11 676.13 52.12 676.12 52.12"/>
              <path class="cls-4" d="m676.83,53.22c4.32-1.59,9.25-2.56,13.4-4.62-2.24,1.66-5.02,1.93-7.53,2.88-1.75.66-3.56,1.15-5.34,1.72-1.09.41-.47.04-.53.01Z"/>
              <path class="cls-13" d="m683.35,49.08s-.02,0-.04.01h.02s.02-.01.02-.01Z"/>
              <path class="cls-1" d="m689.11,47.35c-.05.04-.11.09-.16.13-.1.09-.22.15-.34.2-.09.04-.19.07-.21.08-3.63,1.66-7.56,2.44-11.33,3.66-.22.32-.4.9-.26.84.03-.03.05-.06.08-.09,4.16-1.52,8.25-2.07,12.26-4.03l.32-.16c.19-.08.4-.32.4-.32.16-.16.32-.48.32-.48.02-.04.06-.15.1-.27-.29.12-.6.09-.85.03-.08.15-.19.29-.32.4Z"/>
              <path class="cls-1" d="m644.91,20.02c-.02.06-.05.13-.08.2-.05.12-.1.59-.1.61-.47,3.96-.01,7.95-.03,11.9-.07.89.18,1.18-.26,1.07-.12-.03-.21-.14-.22-.27-.1-4.06-.72-8.96-.09-13.3l.09-.42c.03-.18.15-.42.15-.42.1-.2.36-.45.36-.45.03-.03.12-.1.23-.17.21-.11.33-.17.42-.13.09.03.12.14.07.22-.17.27-.49,1.02-.54,1.16Z"/>
              <path class="cls-6" d="m676.33,53.41c-1.82.6-3.64,1.19-5.47,1.79,0-1.17,0-2.33,0-3.5.06.35.11.7.18,1.05.06.37.47.57.8.39,1.33-.7,2.55-1.58,3.64-2.64.59-.25,1.84-.81,2.26-1.02.09-.04.16-.09.23-.16.08-.07.15-.14.23-.21.23.12-.84,3.55-1.87,4.29Z"/>
              <path class="cls-13" d="m677.31,52.03l-.25.55c-.11.19-.25.4-.4.56l-.16.16c-.16.13-.27.14-.46.2l-2.22.73-2.96.96v-1.58s6.44-1.58,6.44-1.58Z"/>
              <path class="cls-4" d="m670.87,55.31s0-.08,0-.12c1.82-.6,3.64-1.19,5.47-1.79.09.02.18.04.26.06-1.91.61-3.82,1.23-5.72,1.84Z"/>
              <path class="cls-4" d="m672.83,52.57c-.36.22-.72.43-1.1.63-.22.11-.47.03-.6-.16l-.27.07v.51s6.44-1.6,6.44-1.6l.18-.38.17-.41-4.83,1.33Z"/>
              <path class="cls-13" d="m675.48,50.5h-1.57c-.22-.01-.42-.09-.61-.21-.02-.01-.03-.02-.05-.02-1.58-.86-2.71-.81-2.39,1.43.06.39.13.78.19,1.16.01.07.04.13.07.18l1.7-.47c.95-.59,1.84-1.28,2.65-2.07Z"/>
            </g>
          </g>
          <path class="cls-6" d="m671.73,53.2c.38-.19.74-.4,1.1-.63l-1.7.47c.13.19.38.27.6.16Z"/>
        </g>
        <g>
          <g>
            <path class="cls-10" d="m670.94,39.87c.31.76-.73,2.02.86,2.31-.33.38-.53.09-.8-.09,0,0-.1-.1-.1-.1-.03-.06-.01-.01-.04-.07,0,0,0,0,0,0,0-.63-.01-1.25-.02-1.88,0-.06,0-.11.01-.17h.02s.04,0,.07,0Z"/>
            <g>
              <path class="cls-2" d="m652.64,36.87c-.24.19-.48.37-.72.56,0,0,0,0-.01,0-.42-.13-.83-.26-1.25-.39-.01,0-.01-.02,0-.03.63-.37,1.31-.2,1.97-.17.01,0,.02.02,0,.03Z"/>
              <g>
                <path class="cls-8" d="m635.14,37.12c.21-1.14.52-1.34,1.03-1.24,2.38.67,2.97,2.01,5.55,2.07.29,0,.58-.1.87-.15.17,0,.34-.02.51-.02.16-.02.32-.04.48-.06.46-.09.93-.19,1.39-.28.15,0,.31,0,.46,0,1.72-.25,3.43-.7,5.2-.4.43.13.86.27,1.29.4-.03,0-.06,0-.1.01l-.14-.07s-.01.06-.02.08c-1,.17-2.02.27-3,.52-1.86.49-3.99,0-5.56,1.53-.03.03-.07.06-.1.08,0,0,0,0,0,0-.13.03-.27.12-.37.08-2.37-.95-3.18-1.06-5.53-2.05-1.03.62-2.17.41-1.96-.52Z"/>
                <path class="cls-10" d="m647.62,36.93c1.87-.12,3.11-.66,1.89-2.83.67-.6,1.3-.04,1.88.16.45.15.62.08.76-.3.03.08.07.16.1.25.18.4.36.81.55,1.21.02.14.04.29.07.43,0,.14,0,.28,0,.42-.07.2-.14.4-.2.59-.69-.02-1.39-.21-2.04.19-1.77-.3-3.48.15-5.2.4-.15.01-.47.06-.47.01.73-.13,1.93-.39,2.67-.52Z"/>
                <path class="cls-10" d="m636.69,35.78c2.52.89,2.45.88,4.97,1.76.3.11.62.18.93.26-.29.05-.58.16-.87.15-2.55.1-2.65-.99-5.03-1.66-.52-.15-.62-.21-.93-.1s-.52.52-.52.52c0-.31.21-.72.52-.93.12-.08.62-.1.93,0Z"/>
                <path class="cls-8" d="m649.5,29.68c.31-.52.72-1.14.72-1.14,1.24-2.27,4.75-3.08,7.69-1.8.1.04.21.07.32.1-2.49-.02-4.51.81-5.68,3.16-.04.06-.11.18-.11.18-1.08.03-1.63-1.35-2.94-.51Z"/>
                <path class="cls-2" d="m649.71,29.38c1.12-.47,1.74.83,2.73.8-.34,1.18-.7,2.37-.28,3.61,0,.02,0,.04,0,.06,0,.03,0,.06-.01.09-.15.38-.32.45-.76.3-.59-.2-1.21-.76-1.88-.16-.15-.48-.29-.97-.44-1.45l-.06-.91c.08-.5.15-1,.23-1.49l.18-.47.2-.3s.06-.06.09-.08Z"/>
                <path class="cls-8" d="m673.59,39.43q.31-.03.62.08c1.16.4,2.2.81,3.36,1.22-1.86-.64-3.51-.15-5.04.94l-.13.09h0c-.17-.12-.39-.2-.51-.35-.36-.5.1-1.26-.52-1.69.07,0,1.6-.22,2.22-.28Z"/>
                <path class="cls-2" d="m661.6,35.46c-.47-.47-.21-.92.02-1.4.85-.12,1.7-.24,2.55-.35.48.2.89.42.28.95.11.11.22.33.32.32.77-.04,1.54-.12,2.3-.18-1.77.26-3.54.52-5.31.78,0,0,0,0,0,0-.06-.04-.12-.08-.17-.11Z"/>
                <path class="cls-8" d="m667.08,34.79c-.77.07-1.54.15-2.3.18-.1,0-.22-.21-.32-.32.6-.53.2-.75-.28-.95.23-.01.46-.03.69-.04.47,0,.93,0,1.4.01.05,0,.09,0,.14,0,1.04.29,2.09.58,3.13.87-.04,0-.07.01-.11.02-.78.07-1.56.15-2.34.22Z"/>
                <path class="cls-2" d="m672.4,41.75c-.14.11-.28.23-.42.34-.06.03-.12.06-.18.09,0,0,0,0,0,0-1.59-.28-.55-1.55-.86-2.31.14-.06.29-.11.43-.17.62.43.16,1.19.52,1.69.11.16.33.24.51.35Z"/>
                <g>
                  <path class="cls-10" d="m640.93,64.93c.07.03.24-.01.31,0,.68.13,1.27.4,1.95.53-1.27.14-2.4-.22-3.46-.9,0,0,.02-.03.02-.03.4.16.78.23,1.18.39Z"/>
                  <path class="cls-10" d="m636.55,62.91c-.9-.47,0,0-.89-.46-.1-.1-.12-.18-.1-.21.88.49.13.16,1.01.65l-.02.02Z"/>
                  <path class="cls-10" d="m639.72,64.56c-.46-.23-.91-.46-1.37-.69,0,0,.02-.02.02-.02.46.23.91.46,1.37.69l-.02.03Z"/>
                  <path class="cls-10" d="m638.01,63.7c-.46-.23-.97-.51-1.43-.74,0,0,.1-.1.1-.1.46.23.89.59,1.35.82l-.02.02Z"/>
                  <path class="cls-10" d="m638.36,63.87c-.11-.06-.23-.11-.34-.17,0,0,.02-.02.02-.02.11.06.23.11.34.17l-.02.02Z"/>
                  <path class="cls-10" d="m642.4,64.62c0,.06,0,.11,0,.17,0-.08,0-.17,0-.25,0,0,.01-.01.01-.01,0,.03,0,.06,0,.09Z"/>
                </g>
                <g>
                  <g>
                    <path class="cls-10" d="m642.39,64.57c-.53-.57-.1-2.53.09-3.15,0,.62-.09,2.53-.09,3.15Z"/>
                    <path class="cls-8" d="m642.4,64.62c.96,1.37,1.96.31,2.95.05.56-.15,1.12-.32,1.67-.48-.01.01-.02.03-.04.04.01-.01.03-.02.04-.03,1.73-.61,3.44-1.28,5.19-1.81,1.82-.55,3.68-.97,5.52-1.45-4.85,1.51-9.71,3.01-14.56,4.52-.71-.13-1.43-.27-2.14-.4.44-.15,1,.31,1.36-.26,0-.06,0-.11,0-.17Z"/>
                    <g>
                      <path class="cls-7" d="m672.53,41.66c1.53-1.09,3.18-1.58,5.04-.94.11.05.22.1.33.15-1.47-.04-2.93-.05-4.3.68-.71.38-1.18,1.35-2.2,1.03-.18-.06-.39-.4-.49-.61.27.18.56.57.9.2h0c.06-.03.46-.31.6-.43,0,0,0,0,0,0,.04-.03.09-.06.13-.09Z"/>
                      <path class="cls-7" d="m652.17,33.8c-.42-1.24-.06-2.42.28-3.61,0,0,.07-.13.12-.18,1.17-2.35,3.19-3.18,5.68-3.16.09.05.19.1.28.16-.34.06-.68.11-1.02.17-.39.08-.78.14-1.16.25-1.8.52-2.88,1.79-3.67,3.43-.46.96-.66,1.9-.5,2.93Zm4.25-6.55c-.07-.04-.1-.06-.12-.06-.04,0-.08.02-.12.03.01.03.03.09.03.09.05,0,.1-.03.21-.06Z"/>
                      <path class="cls-7" d="m667.08,34.79c.78-.07,1.56-.15,2.34-.22.08,0,.16,0,.24,0,.05.04.1.08.15.12-2.46.33-4.92.66-7.39.98-.21.03-.43-.05-.65-.09,1.77-.26,3.54-.52,5.31-.78Z"/>
                      <path class="cls-7" d="m652.87,35.78c-.02-.13-.04-.25-.06-.38.49.2.13,1.28.13,1.28-1.26,2.18-3.56,1.49-5.37,1.72-3.88.49-4.49.91-4.49,4.77,0,1.67.11,3.35.11,5.01l-.21.1c-.08-.22-.15-.56-.14-.78.04-2.63.1-5.27.16-7.9h0s.07-.06.1-.08c1.57-1.53,3.7-1.04,5.56-1.53.98-.26,2-.35,3-.52,0,0,0,0,0,0l.44-.18c.12-.1.24-.19.37-.29.13-.1.23-.24.28-.39.02-.05.04-.1.05-.16l.06-.67Z"/>
                      <path class="cls-7" d="m642.4,55.81c.07-.59.22-1.07.69-1.32.03-.03.25-.14.25-.14.53-.14,1.02-.13,1.51.17,2.4,1.46,4.65.68,5.76-1.98.59-1.34.47-2.68,0-4.02.96,1.97.78,3.9-.53,5.57-1.16,1.48-2.66,2.35-4.59,1.12-.52-.33-1.01-.89-1.73-.48-.92.53-1.06,1.47-1.1,2.4-.11,2.47-.18,4.93-.26,7.4,0,0-.01.01-.01.01,0-.06,0-.12,0-.19,0-.62,0-1.25,0-1.87,0-.24,0-.47,0-.71,0-.94,0-1.87,0-2.81,0-.89,0-1.79,0-2.68,0-.17.01-.33.02-.5Z"/>
                    </g>
                    <path class="cls-7" d="m644.2,48.41c-.11.04-.22.08-.34.12-.09,0-.18,0-.26,0-.05,0-.1-.02-.16-.03,0-.02,0-.05-.01-.07h0c.26,0,.51-.01.77-.02Z"/>
                    <path class="cls-7" d="m650.54,48.35c-.05-.09-.11-.18-.16-.27.05.09.11.18.16.27Z"/>
                    <path class="cls-7" d="m643.17,48.25c.09.06.17.11.26.17,0,0,0,0,0,0-.09-.06-.17-.11-.26-.17h0Z"/>
                    <path class="cls-7" d="m650.37,48.08c-.03-.05-.06-.11-.1-.16.03.05.06.11.1.16Z"/>
                    <path class="cls-7" d="m650.2,47.83s-.06-.06-.09-.09c.03.03.06.06.09.09Z"/>
                    <path class="cls-7" d="m650.62,48.52c-.03-.06-.06-.12-.09-.18.03.06.06.12.09.18Z"/>
                    <path class="cls-7" d="m650.28,47.92s-.06-.06-.09-.09c.03.03.06.06.09.09Z"/>
                    <path class="cls-7" d="m643.09,48.17s.06.06.08.09c0,0,0,0,0,0-.03-.03-.06-.06-.08-.09h0Z"/>
                    <path class="cls-2" d="m643.6,48.53c.09,0,.18,0,.26,0-.09,0-.18,0-.26,0Z"/>
                    <path class="cls-10" d="m642.39,56.3c-.02-.08-.05-.16-.07-.25.03-.08.06-.17.09-.25,0,.17-.01.33-.02.5Z"/>
                    <path class="cls-10" d="m642.39,61.79c0-.94,0-1.87,0-2.81,0,.94,0,1.87,0,2.81Z"/>
                    <path class="cls-2" d="m643.2,48.18l.1.1s.15.16.15.16c.03.02.01.06-.02.06-1.43-.12-2.58-.93-3.84-1.5-2.19-.99-1.17-.33-3.32-1.4-.41-.21-.28-.36-.62-1.03-.21-.41-.52-6.31-.1-7.03.22-.38,1.07-.32,1.34-.21,2.36.98,3.37,1.4,5.74,2.36.1.04.25-.05.37-.08-.06,2.63-.12,5.27-.16,7.9,0,.17.09.33.17.5.04.08.13.11.19.18Z"/>
                  </g>
                  <g>
                    <path class="cls-10" d="m635.22,51.79s.02.01.02.02c0,.31-.1.72-.1,1.43.1,1.24,0,1.45,0,2.58.08,1.22-.1,3.31-.06,4.85.02.6.21,1.15.48,1.59l.1.17q-.31-.21-.52-.52c-.31-.52-.2-.99-.21-1.45-.04-2.43.1-3.2,0-5.68,0,0,0-1.12,0-1.75,0-.3.03-.6.1-.89.08-.36.12-.4.19-.37Z"/>
                    <g>
                      <path class="cls-8" d="m636.07,51.8c1.24.21.31.1,1.62.52.64.21,1.31.33,1.96.49.49.77,1.35.83,2.11,1.09.52.18,1.06.3,1.59.44h0c-.05.06-.11.12-.16.19l-.87,1.51h0c-.13.07-.33.22-.37.19-1.02-.93-2.4-1.1-3.59-1.66-1.89-.89-1.31-.58-3.22-1.43.03-.13-.1-.72,0-1.14,0-.1,0-.21.21-.41.16-.16.72.21.72.21Z"/>
                      <path class="cls-2" d="m650.62,52.53c-1.11,2.66-3.36,3.45-5.76,1.98-.49-.3-.99-.32-1.51-.17-.53-.14-1.07-.26-1.59-.44-.75-.26-1.62-.32-2.11-1.09,1.82-.01,3.64-.1,5.38.63.81.35.84-.35,1.16-.83,1.06-1.59,2.53-2.65,4.46-2.94.02,0,.22.68.21,1.04-.02.61-.15,1.21-.24,1.82Z"/>
                      <path class="cls-2" d="m642.39,64.55c0,.08,0,.17,0,.25-.29.47-.73.24-1.11.23l-1.06-.25c-.62-.31-1.23-.62-1.85-.92-.11-.06-.23-.11-.34-.17-.46-.23-.91-.46-1.37-.69-.34-.17-.31-.19-.59-.34-.34-.18-.72-.41-.83-.83-.32-1.27-.1-2.38-.1-5.79,0-1.36.01-1.63,0-2.89,1.91.84,1.33.54,3.22,1.43,1.19.56,2.56.73,3.59,1.66.04.03.24-.12.37-.18l.07.05c0,.96,0,1.92,0,2.88,0,.94,0,1.87,0,2.81l-.12,1.16c-.1.47-.11.94.12,1.41,0,.06,0,.12,0,.19Z"/>
                      <path class="cls-11" d="m650.85,50.71c.01-.36-.19-1.04-.21-1.04-1.93.29-3.41,1.35-4.46,2.94-.32.48-.34,1.18-1.16.83-1.74-.74-3.52-.62-5.34-.61-.65-.16-.7-.12-1.34-.31-1.76-.52-1.55-.52-3-.93.85-.76,1.24-.72,2.27-.62,2.17.21,2.73-1.21,2.45-3.44-.01-.12-.21-.25-.35-.32-3.71-1.64-3.13-1.2-3.96-1.82-.41-.41-.68-.92-.72-2.27-.04-1.29-.23-4.28.1-5.58,0,0,.41,0,.31.41-.1,1.45-.1,2.7,0,4.03.1,1.34-.1,2.27.72,3.51l.05.05c1.77.76,1.31.52,3.37,1.45,1.26.57,2.42,1.39,3.85,1.5.05,0,.1.02.16.02.09,0,.18,0,.26,0,.11-.04.22-.08.34-.12,1.82-1.58,3.69-2.68,5.92-.67.03.03.05.06.08.09.03.03.05.06.08.09h0c.03.06.06.11.1.17h0c.05.09.1.18.16.26h0c.03.06.06.12.09.18h0c.47,1.33.59,2.67,0,4.01.08-.61.21-1.21.24-1.82Z"/>
                      <path class="cls-16" d="m680.13,45.37c0,.19,0,.39-.02.59,0,.04,0,.07-.02.11-.51,2.22-1.11,2.34-1.64,2.84l-.42.39s-.05.05-.08.07c-.31.2-2.09,1.36-2.99,1.39-.04,0-.07,0-.11,0l-1.95-.28s-.04,0-.06-.01c-1.11-.26-2.26-.9-1.97,1.2,0,.03,0,.06,0,.09,0,1.15,0,2.3,0,3.45v.06s0,.08,0,.12c-.03.25-.35,1.59-.35,1.59,0,.03-.02.05-.04.07-.03.03-.07.07-.11.11-.02.02-.05.04-.07.04-.27.09-3.22,1.05-3.51,1.16-.02,0-.03.01-.05.02-.45.13-6.11,1.77-9,2.61v-.02c-1.84.48-3.7.9-5.52,1.45-1.75.53-3.46,1.2-5.19,1.81h0c-.56.15-1.11.32-1.67.47-.99.26-1.99,1.33-2.95-.05,0-.03,0-.06,0-.09.08-2.47.15-4.94.26-7.4.04-.93.18-1.87,1.1-2.4.72-.41,1.21.15,1.73.48,1.93,1.22,3.44.35,4.59-1.12,1.31-1.67,1.49-3.61.53-5.58h0c-.03-.05-.06-.11-.09-.16h0c-.05-.1-.1-.18-.16-.27h0c-.03-.06-.06-.11-.1-.17h0s-.05-.06-.08-.09l-.06-.06s-.04-.04-.05-.05c-.85-.76-1.65-1.06-2.41-1.06-1.2,0-2.32.76-3.42,1.71-.24.21-.59.23-.85.05-.1-.07-.18-.15-.23-.26-.05-.1-.08-.22-.08-.34,0-1.55,0-3.1,0-4.65,0-3.86.61-4.28,4.49-4.77,1.43-.18,3.97-1.15,4.96-1.55.21-.08.37-.26.43-.48.08-.3.15-.65-.16-.99-.19-.2-.38-.6-.45-.87l-.17-.66s-.01-.04,0-.06c-.16-1.03.04-1.97.5-2.93.79-1.65,1.87-2.91,3.67-3.43.56-.16,1.14-.23,1.7-.37.08-.02.17-.04.25-.04h.18s.06-.01.09-.01c2.08.11,3.6,2.56,3.45,5.78,0,.07,0,.31-.31,1.24-.1.38-.5.89-.19,1.33.04.06.11.11.17.16.03.02.06.04.09.06h0c.22.03.44.11.65.08,2.4-.31,4.8-.63,7.2-.95.14-.02.28,0,.41.07.27.14.45.34.58.57.16.29.22.64.23,1.02.01,1.16.05,2.28.06,3.44l.04,2.06c0,.13.04.25.11.36.1.16.2.32.34.36,1.02.32,1.49-.65,2.2-1.03,1.34-.72,2.77-.72,4.21-.69.06,0,.11,0,.17.03,1.2.38,2.15,2.23,2.15,4.48Z"/>
                    </g>
                  </g>
                </g>
              </g>
            </g>
          </g>
          <polygon class="cls-8" points="646.69 37.27 643.77 38.37 646.82 38.02 646.69 37.27"/>
        </g>
      </g>
    </g>
  </g>
</svg>