<?xml version="1.0" encoding="UTF-8"?>
<svg id="_Слой_1" data-name="Слой 1" xmlns="http://www.w3.org/2000/svg" viewBox="0 0 1000 1000">
  <defs>
    <style>
      .cls-1 {
        fill: #194f8b;
      }

      .cls-1, .cls-2, .cls-3, .cls-4, .cls-5, .cls-6, .cls-7, .cls-8, .cls-9, .cls-10, .cls-11, .cls-12, .cls-13, .cls-14, .cls-15, .cls-16 {
        stroke-width: 0px;
      }

      .cls-2 {
        fill: #a5d6f2;
      }

      .cls-3 {
        fill: #bb1736;
      }

      .cls-4 {
        fill: #74afd7;
      }

      .cls-5 {
        fill: #fff;
      }

      .cls-6 {
        fill: #1e79ab;
      }

      .cls-7 {
        fill: #285c8e;
      }

      .cls-8 {
        fill: #f2ced6;
      }

      .cls-9 {
        fill: #e85f79;
      }

      .cls-10 {
        fill: #17648f;
      }

      .cls-11 {
        fill: #ab233d;
      }

      .cls-12 {
        fill: #871c31;
      }

      .cls-13 {
        fill: #196b98;
      }

      .cls-14 {
        fill: #2295d3;
      }

      .cls-15 {
        fill: #2381c3;
      }

      .cls-16 {
        fill: #e72f51;
      }
    </style>
  </defs>
  <rect class="cls-5" x="0" y="0" width="1000" height="1000"/>
  <rect class="cls-5" x="0" y="-1000" width="1000" height="1000"/>
  <g>
    <g>
      <path class="cls-11" d="m407.6,585.42c.08.04.16.09.24.13-.08-.05-.15-.1-.23-.15,0,0-.01.01-.01.01Z"/>
      <path class="cls-16" d="m367.15,581.03l-.38.26c.1-.11.21-.21.31-.32,0,0,.06.06.06.06Z"/>
      <g>
        <g>
          <g>
            <path class="cls-10" d="m499.95,561.58c.77.56,1.53,1.11,2.3,1.67-19.84-8.59-36.03,5-53.83,8.87h.01c-19.95,6.38-40.24,11.89-59.72,19.47-12.09,4.7-26.13,4.89-36.15,14.42-2.08,1.98-2.77,5.43-4.09,8.2.2,14.2.4,28.4.6,42.59-.46.72-2.27-28.73-1.22-44.06.84-12.19,12.48-13.26,21.31-16.19,39.15-12.97,78.34-25.85,117.7-38.14,3.67-1.15,8.69,2.02,13.08,3.18Z"/>
            <path class="cls-6" d="m530.42,542.25c0,11.99,0,23.98,0,35.98,0,.81-.07,1.61-.29,2.37-1.75,6.16-9.29,9.53-15.85,6.63-8.5-3.35-16.85-6.81-25.15-10.14-8.52-3.41-10.42-5.96-10.45-14.03-.06-13.02-2.48-21.38,12.68-23.96.28-.05.56-.11.84-.18,6.78-1.74,13.59-3.51,20.51-5.23,7.26-1.8,10.99-1.11,15.1,3.42,1.16,1.28,2.05,2.78,2.5,4.4.07.25.12.5.12.74Z"/>
            <path class="cls-10" d="m437.2,633.54c.4,9.86.81,19.72,1.21,29.58-11.12-10.15-22.24-20.3-33.35-30.45,10.72.29,21.43.58,32.14.87Z"/>
            <path class="cls-6" d="m727.35,585.59l-138.7,59.03c.17-.26.17-.26.16-.41-11.69,5.05-24.39,12.59-36.51,16.23-11.04,3.32-21.2,9.43-32.98,10.92-3.82.48-8,5.25-12.02,8.12,0,.17,0,.35.06.52,26.37-11.01,79.04-32.93,79.04-32.93,1.28-.21,28.97-12.08,30.18-12.52l17.7-6.43,41.72-16.86,25.48-9.27c2.54-.93,5.03-1.98,7.47-3.15l10.58-5.11c1.16-.56,2.25-1.23,3.28-2l2.98-2.25c1.1-.83,1.86-2.03,2.16-3.37.08-.35-.27-.63-.59-.49Zm-205.3,87.12c-.06-.12-.12-.23-.18-.35.27-.04.28-.05.41.19-.08.06-.15.1-.23.16Z"/>
            <path class="cls-6" d="m504.37,681.03c-15.23,6.33-30.46,12.65-45.7,18.98,0,0,.06-.35.06-.36,14.98-6.39,29.96-12.77,44.94-19.15.23.18.46.35.7.53Z"/>
            <path class="cls-11" d="m377.76,681.04c6.37,3.47,12.74,6.95,19.11,10.42-6.37-3.47-12.74-6.95-19.11-10.42Z"/>
            <path class="cls-6" d="m441.88,706.51s-.1-.25-.1-.25c4.17-1.91,8.35-3.81,12.52-5.72.22.32.44.65.65.97-4.36,1.67-8.72,3.33-13.08,5Z"/>
            <path class="cls-11" d="m366.53,674.6c3.75,2.15,7.5,4.3,11.24,6.45-3.75-2.15-7.5-4.3-11.24-6.45Z"/>
            <path class="cls-11" d="m350.95,664.88c3.04,2,6.07,4,9.11,6-3.03-2-6.07-4-9.11-6Z"/>
            <path class="cls-11" d="m359.98,670.88c2.2,1.26,4.39,2.53,6.59,3.79-2.2-1.26-4.39-2.53-6.59-3.79Z"/>
            <path class="cls-6" d="m454.95,701.51c-.22-.32-.44-.65-.65-.97.75-.25,1.5-.5,2.26-.75-.01.35-.03.71-.04,1.06-.52.22-1.04.44-1.56.65Z"/>
            <path class="cls-6" d="m504.37,681.03c-.23-.18-.46-.35-.7-.53,1.21-.34,2.42-.68,3.62-1.02-.01.18,0,.35.06.53-.99.34-1.99.68-2.98,1.03Z"/>
            <path class="cls-6" d="m456.52,700.85c.01-.35.03-.71.04-1.06.73-.04,1.45-.09,2.18-.13,0,0-.06.35-.06.35-.72.28-1.44.56-2.16.84Z"/>
            <path class="cls-10" d="m424.99,704.46c.9-.92,1.8-1.85,2.7-2.77,2.86,7.19,8.67,5.27,14.08,4.57l.1.25c-11.09,4.71-20.05-.52-28.91-6.19,3.93,1.46,7.86,2.92,11.8,4.38.82.52,1.64,1.04,2.48,1.53.01,0,.31-.47.48-.73-.91-.35-1.82-.7-2.73-1.04Z"/>
            <path class="cls-10" d="m396.8,691.45c7.23-.36,10.76,6.02,16.22,8.9-5.41-2.97-10.81-5.93-16.22-8.9Z"/>
            <path class="cls-4" d="m725.02,588.7c-.38.22-.78.27-.89.31,0,0-134.28,55.3-136.65,56.62-11.69,5.05-23.06,11.18-35.18,14.82-11.04,3.32-20.51,9.43-32.95,11.51-3.8.63-8.04,4.67-12.05,7.53-1.2.34-2.41.68-3.62,1.02-14.98,6.39-29.96,12.77-44.94,19.16-.4.03-.8.05-1.2.08-.91.22-2.33.58-3.23.8-4.17,1.91-8.35,3.82-12.52,5.72-5.42.7-11.22,2.62-14.09-4.57-.26-.71.17-.58.26-.86.21-12.2,1.01-24.42.47-36.6-.62-14.02,4.35-22.79,18.52-26.71,12.57-3.48,24.9-8.06,37-12.99,27.49-11.21,56.53-18.43,82.82-32.88,4.24-2.34,3.77-1.85,4.82-5.81l-84.64,26.3-28.25-44.58,168.5-52.17c12.72-3.76,19.35-4.49,29.06-.84l9.56,3.59,31.92,11.84,11.38,4.13c3.82,1.38,7.42,3.28,10.71,5.65l2.81,2.02c1.13.81,2.02,1.9,2.58,3.16,1.29,2.86,1.94,5.96,1.92,9.09l-.03,6.41.39,6.42v5.33c.38,4.78,4.44,12.43-2.46,16.5Z"/>
            <path class="cls-4" d="m584.5,583.84s.05.09.05.09c-39.95,14.54-80.07,28.64-119.74,43.89-9.58,3.68-20.57,4.77-29.43,10.24-4.97,3.07-11.2,2.98-16.07-.24-4.56-3.02-10.69-4.27-14.68-8.03l.38-.28c.74-.25,1.48-.5,2.22-.74h-.01c19.47-6.85,38.79-14.18,58.45-20.45,26.17-8.35,51.5-19.54,78.9-23.85,1.28-.2,14.36-5.01,20.62-7.37,2-.76,4.15-1.05,6.27-.83,6.04.62,13.79,4.03,13.04,7.57Z"/>
            <path class="cls-2" d="m723.04,546.45h-.88c-.57,0-1.14-.1-1.67-.3-3.88-1.47-5.52-1.46-5.64-1.46l-6.57.59c-1.99.19-3.94.62-5.81,1.3l-19.37,6.97-26.91,8.97-29.6,9.74-24.25,7.89-16.76,5.07c-1.01.3-1.77,1.03-2.57,1.7-4.64,3.9-11.49,2.09-16.24,4.72-26.28,14.46-55.33,21.68-82.82,32.89-12.1,4.94-24.43,9.52-37,12.99-14.17,3.91-19.14,12.68-18.52,26.71.54,12.17.4,35.36-.46,36.59-1.21,2.23-.52.16-.52-1.49,0-.53-.26-1.03-.27-1.56-.05-15.37-.1-30.75-.15-46.12-.04-1.49-.08-2.99-.12-4.48-.02-.84.24-1.68.76-2.34,9.43-11.81,24.51-12.16,37.13-17.01,39.68-15.25,79.8-29.35,119.74-43.89l29.26-9.35,49.76-18.37,42.25-13.21.74-.2,6.49-1.44c.15-.03.3-.08.45-.08.75.03,1.69.1,2.45.48,2.05,1.01,7.82,3.94,7.08,4.67Z"/>
            <path class="cls-9" d="m349.08,656.79c-.2-14.2-.4-28.4-.6-42.59.2,14.2.4,28.4.6,42.59Z"/>
            <path class="cls-4" d="m398.16,621.9c-.77.53-2.43,4.56-2.66,4.44-2.4-1.3-5.35-3.52-7.71-4.91-.54-.32-2.86-1.48-2.51-2.01.11-.17,2.21-1.09,2.23-1.08,2.86,1.48,7.4,1.78,10.65,3.55Z"/>
            <path class="cls-4" d="m404.63,630.48c-1.82-.83-5.5-.83-7.33-1.66.14-.28,3.51-4.45,3.55-4.44,2.44.83,13.56-.87,15.98,0,0,0,1.61.95-7.99,4.44-.73.27-2.84,1.7-3.58,1.95l-.63-.29Z"/>
            <path class="cls-6" d="m522.27,672.55c-.07.05-.15.11-.22.16-.06-.12-.12-.23-.18-.35.27-.04.28-.05.41.19Z"/>
            <path class="cls-10" d="m424.99,704.46c.91.35,1.82.7,2.73,1.04-.17.25-.46.74-.48.73-.84-.48-1.66-1.01-2.48-1.53,0,0,.23-.24.23-.24Z"/>
            <rect class="cls-10" x="424.59" y="703.69" width="1.78" height="1.78"/>
            <path class="cls-6" d="m350.79,664.78c-2.63-1.73-1.72-7.99-1.72-7.99l-.6-42.59c1.33-2.77,2.01-6.22,4.09-8.2,10.02-9.52,24.06-9.72,36.15-14.42,19.48-7.58,39.77-13.1,59.72-19.49.08.05.15.1.23.15-.08-.04-.16-.09-.24-.13,17.79-3.86,33.98-17.46,53.83-8.87,15.66,6.42,43.05,17.06,42.32,21.23-.15,3.82-52.73,15.5-78.9,23.85-17.19,5.48-33.39,14.41-51.11,17.85-4.4.86-7.45-.85-10.74-1.16-1.57-.15-2.91.09-3.81,1.23h0c-.44.56-.09,1.05.47,1.48.45.34.7.54,1.38.69,1.78.4,3.54,1.56,5.03,2.63,6.5,4.66,15.83,5.72,18.81,14.86l.63,1.68c.4,1.07.71,2.87.7,4-.16,15.54.41,45.94.26,47.31-.16,1.53.14,3.07-.93,4.18-.2.2-.46.53-.73.88-.54.7-1.49.95-2.31.6-2.4-1.02-7.44-3.14-10.36-4.23,0,0,.06.03.06.03-5.46-2.88-8.99-9.26-16.22-8.9,0,0,.07,0,.07,0-6.37-3.47-12.74-6.95-19.11-10.42h.02c-3.75-2.14-7.5-4.29-11.24-6.44l.04.07c-2.2-1.27-4.39-2.53-6.59-3.79,0,0,.07,0,.07,0-3.09-2.03-6.17-4.07-9.26-6.1Zm46.23-41.9c-.2-2.49-6.38-3.46-8.98-3.46-1.38,0-.25,1.23,0,1.38,2.29,1.35,4.05,2.28,6.37,3.56.46.25.99.3,1.5.18s.91-.59,1.11-1.67Z"/>
            <path class="cls-13" d="m502.01,590.83c1.61.63-62.14,1.78-96.75,8.88-1.15.24-20.42,6.21-25.74,6.21-1.26,0-14.36-1.06-14.2-2.66.28-2.95,34.56-16.9,37.16-17.75,10.12-3.3,20.28-6.52,30.45-9.77,10.07-3.22,20.16-6.43,30.25-9.66,4.59-1.46,9.19-2.93,13.79-4.4,1.2-.38,2.39.43,2.35,1.61-.04,1.29-.09,2.57-.15,3.86-.28,5.49.86,7.14,6.26,9.1,5.24,1.9,10.47,3.88,15.77,5.77.91.32,1.8.48,2.67.49.18,0,.35,0,.52-.02.16,0,.31-.02.47-.05.04,0,.08,0,.12-.01.13-.02.26-.04.38-.07.05,0,.1-.02.14-.03.12-.02.24-.05.35-.09.06-.02.12-.03.17-.05.13-.04.26-.08.39-.13.16-.06.32-.13.48-.2.16-.07.31-.15.47-.23.14-.07.27-.15.41-.23.02,0,.04-.02.06-.04.14-.09.3-.19.44-.3.44-.31.85-.69,1.24-1.11.01,0,.02-.02.03-.03.25-.27.49-.56.71-.87.12-.16.24-.33.34-.5.12-.17.22-.35.32-.53h0c.2-.68.4-1.33.6-2,.29-8.24.58-16.4.86-24.47,0-.17,1.08-1.91,1.76-2.02,1.14-.19,2.17.62,2.14,1.69-.19,6.61-.4,13.28-.57,20.01-.17,6.85,5.28,10.69,12.4,8.54,3.41-1.03-8.19,3.04-1.25,5.75l-24.85,5.33Z"/>
            <path class="cls-6" d="m574.56,535.17c-1.56,4.5-3.46,9.41-5.36,14.73-1.32,3.69-3.33,6.33-6.18,7.69-4.78,2.28-10.41.65-13.48,6.44-.57,1.08,2.09,8.21,2.09,8.21,1.17,2.2,3.43,2.93,6.21,1.84,13.12-5.12,28.83-11.26,47.96-18.74,12.42-4.86,26.5-10.44,42.63-16.83,5.5-2.17,8.08-5.28,6.09-9.24-1.75-3.48-5.89-4.73-11.16-4.67-1.29.01-2.55-.04-3.79-.02-22.68.38-21.52-2.84-35.57-2.12-2.2.11-16.94,6.35-19.04,7.3-2.45,1.1-6.21,0-8.43,1.22-.79.43-1.45,1.28-1.52,1.97,0,0,0,0,0,.01-.08.71-.17,1.43-.44,2.21Z"/>
            <path class="cls-13" d="m575.03,534.23c-.86,3.91-1.96,8.17-3.03,12.79-.74,3.2-2.15,5.5-4.38,6.71-3.78,2.05-8.75.73-10.78,5.87-.38.96,2.65,7.08,2.65,7.08,1.22,1.85,3.2,2.39,5.43,1.36,10.28-4.78,22.14-10.29,35.98-16.74,8.65-4.03,18.14-8.51,28.63-13.45,3.49-1.64,5.01-4.03,3.53-7.15-1.31-2.77-4.11-3.85-7.64-3.94-.87-.02-1.73-.09-2.57-.1-15.94-.26-15.32-2.91-25.69-2.72-1.66.03-12.61,5-14.2,5.77-1.86.9-5-.13-6.7.88-.6.36-1.07,1.09-1.06,1.7,0,0,0,0,0,.01,0,.62,0,1.25-.16,1.92Z"/>
            <path class="cls-4" d="m514.44,581.55v-45.18c0-2.36,3.4-4.95,8.74-6.67,7.47-2.41,14.86-4.79,22.17-7.14,8.58-2.77,15.59-16.25,24.13-18.72,17.52-5.05,33.4-15.22,33.73-6.21.35,9.89-.39,43.93-.1,53.93-.13,1.57-.46,2.97-.98,4.26-1.9,4.64-6.65,7.76-16.56,11.21-.22.08-.43.15-.66.23-9.1,3.1-18.35,6.23-27.75,9.41-6.9,2.33-13.87,4.69-20.91,7.07-10.27,3.47-21.81,2.35-21.81-2.18Z"/>
            <path class="cls-6" d="m603.11,507.59c-1.44,5.39-4.19,9.15-5.89,12.41-2.76,5.3-7.29,9.46-12.76,11.85l-7,3.06-13.92,7.03c-5.81,2.94-11.97,5.14-18.33,6.55l-3.86.86c-6.72,1.49-13.71-.89-18.11-6.18l-4.02-4.83c-1.37-1.64-2.12-3.71-2.12-5.85v-23.32l56.59-17.64c7.34-2.29,15.35-.74,21.31,4.13l7.32-.69c2.11,1.73,1.49,9.99.79,12.62Z"/>
            <path class="cls-13" d="m588.08,502.15c-1.13,4.22-3.29,7.17-4.62,9.73-2.16,4.15-5.71,7.41-10,9.29l-5.48,2.4-10.91,5.51c-4.56,2.3-9.38,4.03-14.37,5.13l-3.03.67c-5.27,1.17-10.75-.7-14.2-4.84l-3.15-3.78c-1.07-1.29-1.66-2.91-1.66-4.59v-18.28l44.36-13.83c5.76-1.79,12.03-.58,16.7,3.24l4.57,3.73c1.66,1.35,2.34,3.55,1.79,5.62Z"/>
          </g>
          <path class="cls-2" d="m518.46,549.49v21.6c0,2.32.39,4.62,1.14,6.81l.37,1.06c.45,1.31,1.29,2.45,2.42,3.26l.6.43c1.11.8,2.49,1.13,3.84.92l4.49-.72-2.48-1.66c-1.86-1.24-3.33-2.97-4.25-5.01l-.6-1.33c-.52-1.14-.9-2.34-1.15-3.57l-4.36-21.79Z"/>
          <path class="cls-2" d="m615.43,552.83l-8.6,2.23c-1.39.36-2.74.85-4.03,1.47l-18.4,8.83c-1.23.59-2.49,1.11-3.78,1.57l-1.55.55c-1.35.48-2.48,1.42-3.19,2.66l-.49.86c-.28.5.16,1.09.71.97l6.3-1.42c2.44-.55,4.83-1.33,7.13-2.32l10.78-4.64,13.31-6.21,6.03-2.68c.64-.29.56-1.22-.12-1.4l-1.9-.48c-.72-.18-1.48-.18-2.2,0Z"/>
        </g>
        <path class="cls-4" d="m407.53,625.74l6.08,8.89s-12.15-5.91-13.82-6.91c-3.46-2.07-4.28-1.79-6.22-3.46-1.44-1.24-1.66-1.25-1.66-1.26l3.27-2.12s1.15.62,3.23,1.31c6.3,2.1,8.29,3.46,9.12,3.55Z"/>
      </g>
      <g>
        <g>
          <path class="cls-6" d="m580.53,128.37c4.9-.44,9.8-.87,14.7-1.31.51.23,1.01.45,1.52.68-5.39.46-10.79.92-16.18,1.38l-.04-.75Z"/>
          <path class="cls-6" d="m576.15,129.23c-.76-.23-1.52-.46-2.27-.7,2.22-.05,4.44-.11,6.66-.16.01.25.02.5.03.75-1.47.04-2.95.07-4.42.11Z"/>
          <path class="cls-6" d="m596.75,127.75c-.51-.23-1.01-.45-1.52-.68,1.74-.05,3.48-.11,5.21-.16.24.25.48.5.72.75-1.47.03-2.94.06-4.41.09Z"/>
          <path class="cls-6" d="m560.1,129.83c4.59-.43,9.18-.86,13.77-1.29.76.23,1.52.46,2.27.7-4.9.45-9.81.9-14.72,1.34-.44-.25-.89-.5-1.33-.75Z"/>
          <path class="cls-6" d="m555.5,130.71c-.27-.25-.54-.49-.81-.74,1.8-.05,3.61-.09,5.41-.14.44.25.89.5,1.33.75-1.98.04-3.95.09-5.93.13Z"/>
          <path class="cls-6" d="m540.83,131.43c-.89-.06-1.78-.12-2.67-.18,2.07-.19,4.13-.38,6.2-.58-1.18.25-2.35.51-3.53.76Z"/>
          <g>
            <path class="cls-3" d="m408.28,351.29c-.45.05-.9.1-1.35.15.06-.24.12-.48.18-.72l1.16.58Z"/>
            <path class="cls-2" d="m695.86,135.62s.08,0,.08,0c8.32,2.16,17.89,3.89,25.91,6.23,4.26,1.24,3.36,1.28,2.07,1.38-36.52,2.95-76.14,5.57-112.66,8.52-18.83,1.3-37.66,2.6-56.49,3.9l.06-.03c-18.36,1.23-36.71,2.46-55.07,3.72-.16.01-.3.42-.44.65.11.04.23.09.34.13-4.01.4-8.02.81-12.03,1.22-9.02.6-18.04,1.19-27.06,1.79-.55.14-1.09.28-1.64.42-11.23.8-19.57,1.42-30.8,2.23l-3.55,4.44c-8.56.92-16.4-2.44-24.96-1.52-.58.02-2.86,1.51-3.45,1.52-4.37.33-7.04-.82-11.41-.49-.55.15-1.1.3-1.65.45-13.79.79-29.61,6.78-42.87,4.48-20.64-3.58-39.04-13.62-59.29-19.45-1.75-.5-3.34-1.54-5-2.33,1.47-.05,2.93-.1,4.4-.15,11-.96,22.01-1.91,33.01-2.87,7.12-.53,14.23-1.06,21.35-1.59,4.17-.45,8.33-.9,12.5-1.36,1.72-.04,3.44-.09,5.17-.13,4.66-.45,9.31-.89,13.97-1.34.76-.03,1.53-.06,2.3-.09,5.38-.46,10.75-.93,16.13-1.39,7.34-.54,14.68-1.08,22.03-1.62,4.43-.42,8.87-.84,13.3-1.27,1.47-.06,2.93-.12,4.4-.18,4.4-.46,8.8-.91,13.21-1.36,1.51-.02,3.02-.04,4.53-.06,10.78-.94,21.55-1.88,32.32-2.81,2.7-.3,5.39-.6,8.09-.91,12.75-.74,25.49-1.48,38.24-2.22,5.16-.43,10.32-.87,15.48-1.3,1.48-.06,2.95-.11,4.43-.17,4.9-.44,9.79-.89,14.68-1.33,1.98-.04,3.95-.08,5.93-.13,4.91-.45,9.81-.9,14.72-1.34,1.47-.04,2.95-.07,4.42-.11,5.39-.46,10.79-.92,16.18-1.38,1.47-.03,2.94-.06,4.41-.09,12.5-1.03,25.01-2.06,37.51-3.09l3.66.22c17.84,3.61,35.68,7.23,53.52,10.84Z"/>
            <path class="cls-4" d="m623.02,488.11c-.23.14-1.72.63-1.95.77-.76-.18-1.51-.36-2.27-.54,8.82-6.31,17.99-35.82,16.03-36.83.09-.08.16-.17.24-.25,2.27-2.51,4.08-5.41,5.56-8.46,2.91-5.96,5.84-11.92,8.54-17.97,5.68-12.75-5.39-41.21-17-44.16-.93-.44-1.86-.87-2.8-1.31-9.93-3.46-19.87-6.93-29.8-10.39-.02-.06-.03-.17-.06-.17-3.08-.39-4.1,1.54-7.17,1.13-3.77.72-8.65,3.72-12.43,4.44l-1.19-2.34c-.57-1.13-1.91-1.64-3.09-1.17-1.06.41-2.11.83-3.17,1.24-.18-.1-.36-.12-.56-.07-.09-10-.18-20.01-.27-30.01-.24-6.5-2.15-11.98-8.88-14.51-.43-.33-.87-.66-1.3-.99l-1.17-.15c-9.81-2.73-18.5-1.63-28.3-4.35-3.63.2-8.08-3.45-11.71-3.26l-.05.02c-1.98.12-3.96.23-5.94.35-7.29,1.01-14.58,2.03-21.87,3.04.65-2.54,1.3-5.08,1.94-7.62l.41.33c.1-.81.2-1.63.31-2.44,1.61-28.23-11.07-50.22-29.32-50.85-.8-.45-1.6-.89-2.4-1.34-.92-.28-1.88-.48-2.76-.86-25.2-10.99-54.68-4.12-65.58,15.29-.48.55.94,1.4.46,1.95l-1.78.89c-.44.52-.45.37-.89.89l-3.17,4.19-.63.65c-1.12.83-2.59,1.44-3.26,2.54-11.36,18.82-14.58,39.46-13.53,61.05-4.26.73-8.51,1.45-12.77,2.18-3.93.67-7.42,2.92-9.67,6.22l-1.56,2.29c-3.48.59-9.83-5.19-12.84-3.58l-3.12.03c-2.17-1.32-1.97-1.68-2.98-2.53s-1.78-1.96-2.19-3.21h0c-.27-.83-.41-1.69-.41-2.56-.12-38.29-.24-76.57-.36-114.86.35-13.31.69-26.63,1.04-39.94.03-1.24.29-2.45.76-3.6h0s-.02.03-.02.03c.24-.5.49-1,.73-1.5h0c.26-.49.53-.98.79-1.48l-.05.06c.23-.26.45-.53.68-.79l.05-.09c.32-.46.64-.92.96-1.38,6.64-9.77,17.01-9.25,27-9.78.76-.15,1.51-.31,2.27-.46,7.53-.57,23.69-2,24.24-2.15,2.45-.11,11.36-.81,12.88-.99l1.97-.05,16.77-1.44c.48-.04.96-.13,1.43-.27l.21-.06c.43-.13.87-.22,1.32-.27,1.98-.24,3.97-.47,5.95-.71l-.05.03c11.23-.8,35.32-2.83,35.32-2.83,9.02-.6,18.04-1.19,27.06-1.79,4.01-.4,8.02-.81,12.03-1.21,18.39-1.5,36.78-3,55.17-4.5l-.06.03c18.83-1.3,37.66-2.6,56.49-3.9,35.14-2.84,70.28-5.68,105.43-8.52,1.7-.08,3.41-.17,5.11-.25l1.59-.35.74-.05c1.48.13,2.95.26,4.43.39.99.09,1.97.27,2.93.56,3.39,1.02,7.89,2.95,10.21,3.98,1,.45,1.91,1.07,2.69,1.85.36.36.71.71,1.07,1.07h-.02c.25.24.51.49.76.75l.72.72c.5.74,1,1.49,1.5,2.23,0,0,2.66,6.14,2.83,9.28.72,13.58,1,27.19,1.44,40.79-.2,16.42-1.31,28.83-1.31,29.55-.03,12.26-.04,24.52-.05,36.79-.49,29.72-.66,59.44-1.55,89.15-.73,24.57,3.06,50.2-2.56,73.76-.24,1.01-.58,1.99-1.03,2.93-.24.5-.5.97-.72,1.19,0,0-2.5,4.06-2.94,4.42,0,0-.23.34-.53.78-.65.96-1.39,1.85-2.2,2.67l-1.67,1.67c-35.69,17.66-74.88,25.28-111.96,38.95l-.69.83s-1.2.71-2.44,1.25Z"/>
            <path class="cls-13" d="m619.28,480.11c-.63.38-1.26.76-1.91,1.15l-.87-1.32c8.51-6.01,12.54-14.37,10.66-15.33.1-.1,26.18-4.75,26.26-4.84,2.25-2.52,12.34-1.82,13.82-4.84,2.73-5.55,14.05.8,16.59-4.84,11.75-5.53,51.95-11.01,40.78-13.82-.9-.42-97.1-59.83-98-60.25-9.56-3.3-19.13-6.61-28.69-9.91-.02-.06-.03-.16-.05-.16-2.96-.37-3.95,1.47-6.9,1.08-3.63.68-8.33,3.55-11.97,4.23l-1.15-2.24c-.73-1.42-2.73-1.81-3.98-.4l-2.04.47c-.17-.09-.35-.11-.54-.07-.09-9.54-.17-19.09-.26-28.63-.23-6.2-2.07-11.43-8.55-13.84-.42-.31-.84-.63-1.26-.95l-1.13-.15c-9.44-2.6-17.81-1.55-27.25-4.15-3.49.19-7.78-3.29-11.27-3.11l-.05.02c-1.91.11-3.81.22-5.72.33-7.02.97-14.04,1.94-21.06,2.9.62-2.42,1.25-4.84,1.87-7.27l.39.31c.1-.78.2-1.55.3-2.33,1.55-26.93-10.66-47.91-28.23-48.51-.77-.43-1.54-.85-2.32-1.28-.89-.27-1.81-.46-2.65-.82-24.26-10.48-52.65-3.93-63.14,14.58-.46.52.9,1.34.45,1.86l-1.71.85c-.42.5-.43.35-.85.85l-3.05,4-.61.62c-1.08.79-2.5,1.37-3.14,2.42-10.94,17.95-14.04,37.65-13.02,58.24-4.1.69-8.2,1.39-12.3,2.08-3.79.64-7.15,2.78-9.31,5.93l-1.5,2.19c-3.19.53-8.89-4.45-11.93-3.58l-3.04.29c-2.55-.47-3.68-1.79-4.05-2.69-.31-.73-.8-1.28-1.05-2.04l-.32-.97c-.23-.7-.35-1.44-.36-2.18-.12-36.57-.23-73.14-.35-109.71.33-12.7.67-25.4,1-38.1.03-1.18.28-2.34.73-3.43h0s-.01.03-.01.03c.24-.48.47-.95.71-1.43h0c.25-.47.51-.94.76-1.41l-.05.06c.22-.25.43-.5.65-.75l.05-.08c.31-.44.62-.88.92-1.32,6.39-9.32,16.38-8.83,26-9.33.73-.15,1.46-.29,2.18-.44,7.25-.54,22.81-1.91,23.34-2.05,2.36-.11,10.94-.77,12.41-.94l1.9-.05,16.15-1.37c.47-.04.93-.13,1.38-.26l.2-.06c.42-.12.84-.21,1.27-.26,1.91-.23,3.82-.45,5.73-.68l-.05.02c10.81-.77,34.01-2.7,34.01-2.7,8.69-.57,17.37-1.14,26.06-1.71,3.86-.39,7.72-.77,11.59-1.16,17.71-1.43,35.41-2.86,53.12-4.29l-.06.03c18.13-1.24,36.26-2.48,54.39-3.72,33.84-2.71,67.68-5.42,101.51-8.13,1.64-.08,3.28-.16,4.92-.24,0,0,.48,0,1.2,0,4.16-.02,7.92,0,11.95,1.01,2.73.68,2.76.69,4.77,2.03,1.49.99,2.88,2.13,4.15,3.38l.68.68c.24.24.71.71.71.71.07.07.15.15.22.22.34.34.64.7.91,1.1l.24.36c.48.7.85,1.4,1.12,2.15.96,2.61,2.25,5.21,2.39,7.86.7,12.96.96,25.94,1.38,38.91-.2,15.66-1.26,27.5-1.27,28.19-.03,11.7-.04,23.39-.05,35.09-.47,28.35-.64,56.7-1.49,85.04-.72,23.83,2.7,47.82-2.74,71.47,0,0-1.58,5.23-2.05,6.18,0,0-1.38,2.76-2.76,4.15,0,0-1.38.69-2.76,2.07l-3.46,2.07c-34.37,16.85-69.55,21.57-105.25,34.6-.22.26-.44.53-.66.79l.03-.02c-1.2.52-2.4,1.03-3.6,1.55Z"/>
            <path class="cls-4" d="m613.62,475.97c-.22.13-.43.25-.65.38-.72-.17-1.43-.35-2.15-.52,8.38-5.73,17.22-32.84,15.37-33.79.1-.09.19-.18.27-.27,2.23-2.41,4-5.19,5.48-8.1,2.72-5.35,5.46-10.69,8-16.13,5.46-11.73-4.91-38.11-15.92-40.92-.88-.41-1.77-.82-2.65-1.23-9.41-3.27-18.82-6.53-28.22-9.79-.02-.05-.03-.15-.05-.16-2.91-.38-3.89,1.4-6.8,1-3.58.64-8.21,3.38-11.79,4.02l-1.12-2.17c-.63-1.22-2.25-1.67-3.47-.81l-2.73.75c-.08,0-.17,0-.26.01-.05-9.24-.09-18.47-.14-27.71-.2-6.01-1.99-11.08-8.35-13.46-.41-.31-.82-.61-1.23-.92l-1.11-.15c-9.27-2.57-17.49-1.59-26.75-4.16-3.43.16-7.62-3.23-11.05-3.06l-.05.02c-1.87.1-3.74.2-5.61.29-6.88.9-13.76,1.8-20.64,2.7.62-2.34,1.24-4.68,1.85-7.02l.39.3.3-2.25c1.59-26.05-10.31-46.41-27.51-47.05-.75-.42-1.51-.83-2.26-1.25-.87-.27-1.77-.45-2.59-.81-23.7-10.22-51.42-3.97-61.67,13.88-.45.5.88,1.3.43,1.8l-1.67.81c-.41.48-.42.34-.83.81l-2.98,3.85-.6.6c-1.05.76-2.43,1.31-3.06,2.33-10.66,17.27-10.97,47.81-9.99,67.64-3.98.64-11.7-.05-15.68.59-3.68.59-5.94-7.6-8.03-4.58l-1.46,2.1c-2.48.4-4.31-.59-6.23-.39s-3.89.11-5.76-.46c-2.9-.89-3.68-1.2-4.18-1.96-.25-.38-.55-.72-.85-1.06-.32-.36-.6-.71-.85-1.04-1-1.33-1.54-2.94-1.56-4.6-.15-11.7-.93-74.77-1.04-107.01.32-12.26.65-24.52.97-36.79.03-1.14.27-2.27.71-3.32h0s-.01.03-.01.03c.23-.46.46-.92.69-1.38h0c.25-.45.49-.91.74-1.36l-.05.05c.21-.24.42-.48.63-.73l.04-.08c.3-.42.6-.85.9-1.27,6.22-9.01,15.93-8.52,25.3-9,.71-.14,1.42-.28,2.13-.42,7.06-.52,22.23-1.83,22.75-1.97,2.3-.1,10.68-.74,12.11-.9l1.85-.05,15.77-1.32c.46-.04.91-.12,1.35-.25l.2-.06c.41-.12.82-.2,1.24-.25,1.87-.22,3.74-.44,5.6-.65l-.05.02c10.58-.74,33.3-2.6,33.3-2.6,8.51-.55,17.03-1.1,25.56-1.64,3.79-.37,7.59-.75,11.38-1.12,17.41-1.38,34.83-2.77,52.28-4.16l-.06.03c17.88-1.2,35.78-2.4,53.71-3.61,33.51-2.64,67.09-5.28,100.75-7.93,1.63-.08,3.26-.16,4.9-.24l1.53-.33.71-.05c1.86.16,3.73.32,5.59.48,4.24,1.6,8.47,3.2,12.71,4.8v-.02c.7.69,1.4,1.39,2.11,2.08h-.02c.24.23.48.46.73.7l-.03-.02c.24.24.48.48.72.72,0,0,0-.02,0-.02.48.69.95,1.39,1.43,2.08l-.02-.03c.93,2.9,2.54,5.77,2.67,8.71.6,12.69.77,25.4,1.1,38.09-.31,15.32-1.46,26.89-1.47,27.56-.11,11.43-.21,22.85-.31,34.27-.67,27.65-1.05,55.28-2.1,82.86-.89,23.16,2.33,46.5-3.23,69.42,0,0-.37,2.31-1.28,4.66-.65,1.68-1.75,3.16-3.15,4.29-.46.37-.96.78-1.41,1.15-.89.73-1.89,1.31-2.96,1.73-.8.31-1.63.63-1.79.71-33.54,15.3-70.09,21.92-104.6,33.91-.22.25-.44.5-.66.75l.03-.02c-1.18.49-2.37.97-3.55,1.46Z"/>
            <path class="cls-6" d="m326.33,230.79h0c.12,38.34.24,76.68.36,115.01,0,.77.09,1.57.49,2.22.72,1.18,4.13,4,6.1,5.78l.04.36-4.33.2h-.02c-2.67-.74-5.39-1.32-7.99-2.24-21.65-7.61-64.93-22.97-64.96-22.97-.79-.18-2.72-1.64-4.39-2.45-.38-.19-.73-.44-1.03-.75l-.2-.2c-.23-.23-.42-.51-.54-.81-.28-.66-.61-1.47-.61-1.47-.1-48.27-.21-96.54-.31-144.8.05-.3.01-1.89.17-2.94.34-2.26.53-4.1,1.38-6.22l3.08-5.92.02-.03c.12-.15,1.12-1.41,1.61-2.08h0c.48-.5.97-.99,1.46-1.48.89-.76,2.7-2.11,2.87-2.24h.03c5.45-1.63,10.91-3.25,16.36-4.87h.08c1.65.79,3.23,1.82,4.96,2.32,20.24,5.83,40.23,13.19,60.87,16.77,13.26,2.29-3.93.37-10.57,10.14-.32.46-.64.92-.96,1.38l-.04.08c-.16.18-.32.36-.47.55l-.73,1.19c-.29.67-.62,1.3-.93,1.94-.47,1.14-.73,2.36-.76,3.59-.35,13.31-.69,26.62-1.04,39.93h0Z"/>
            <path class="cls-6" d="m695.86,135.62c-17.83-3.61-35.66-7.22-53.48-10.83-2.21,0-4.42,0-6.63.01h0c-11.53.95-23.05,1.9-34.58,2.85-.24-.25-.48-.5-.72-.75,11.26-.93,22.52-1.85,33.78-2.78,3.31-.24,6.08-.24,8.96.02,17.44,3.64,34.9,7.28,52.34,10.92.1.19.21.38.33.55Z"/>
            <path class="cls-6" d="m441.61,138.69c10.49-.92,20.98-1.84,31.47-2.75.5.24,1.01.47,1.51.71-10.77.94-21.55,1.87-32.32,2.81-.22-.26-.43-.51-.65-.77Z"/>
            <path class="cls-6" d="m301.6,149.88c1.73-.08,3.46-.16,5.18-.24,1.38.02,2.77.03,4.15.05.82.05,1.63.1,2.45.16-11,.96-22.01,1.91-33.01,2.87-.03-.27-.06-.55-.08-.82,5.89-.5,11.78-1,17.67-1.5,1.21-.17,2.43-.35,3.64-.52Z"/>
            <path class="cls-6" d="m739.82,146.69c-1.38-.69-5.66-2.21-8.42-3.12-.95-.31-1.93-.52-2.92-.61-1.2-.11-2.4-.22-3.6-.32-.5,0-1.15-.09-1.65-.1-.48-.08-.81-.09-1.29-.17-.06-.01-.12-.03-.18-.04-1.34-.35-17.54-4.55-25.83-6.7.72.01,1.44.02,2.16.03,8.9,1.98,17.8,3.96,26.7,5.94.73.09,1.47.18,2.2.28,0,0,1.92.43,2.88.64.73.15,1.47.3,2.2.44.4.08,3.6.97,7.75,3.73Z"/>
            <path class="cls-6" d="m482.77,135.12c5.37-.33,10.75-.65,16.13-.98,1.01-.15,2.01-.3,3.02-.44,5.62-.3,11.23-.6,16.85-.91.72.24,1.43.48,2.15.72-12.75.74-25.49,1.48-38.24,2.22h0c.03-.2.05-.41.09-.61Z"/>
            <path class="cls-6" d="m392.23,142.49c4.19-.29,8.38-.57,12.57-.86.68.23,1.35.46,2.03.69-7.34.54-14.68,1.08-22.03,1.62-.98-.18-1.95-.37-2.93-.55,2.67-.21,5.33-.41,8-.62.79-.09,1.58-.19,2.36-.28Z"/>
            <path class="cls-6" d="m280.29,151.9c.03.27.06.55.08.82-1.47.05-2.93.1-4.4.15-5.47,1.62-10.94,3.25-16.41,4.87,5.84-5.75,13.37-5.49,20.73-5.84Z"/>
            <path class="cls-6" d="m313.39,149.84c-.82-.05-1.63-.1-2.45-.16.1-.23.2-.45.32-.66,1.94-.07,3.87-.15,5.81-.22.77-.13,1.54-.26,2.32-.39,4.65-.3,9.3-.6,13.95-.9.46.25.93.5,1.39.74-7.12.53-14.23,1.06-21.35,1.59Z"/>
            <path class="cls-6" d="m381.86,143.39c.98.18,1.95.37,2.93.55-5.38.46-10.75.93-16.13,1.39,0-.25-.02-.5-.03-.75,4.41-.4,8.82-.79,13.23-1.19Z"/>
            <path class="cls-6" d="m520.91,133.51c-.72-.24-1.43-.48-2.15-.72,3.92-.25,7.84-.49,11.76-.74,1.96.05,3.92.11,5.88.16-5.16.43-10.32.87-15.48,1.3Z"/>
            <path class="cls-6" d="m351.03,146.03c4.16-.4,8.32-.8,12.47-1.2.95.2,1.91.4,2.86.6-4.65.45-9.31.89-13.97,1.34-.46-.25-.91-.49-1.37-.74Z"/>
            <path class="cls-6" d="m423.2,140.17c4.19-.35,8.38-.71,12.57-1.06.65.14,1.31.28,1.96.41-4.4.45-8.8.91-13.21,1.36l-1.33-.71Z"/>
            <path class="cls-6" d="m406.82,142.32c-.68-.23-1.35-.46-2.03-.69,4.61-.42,9.22-.85,13.82-1.27.5.23,1,.47,1.51.7-4.43.42-8.87.84-13.3,1.27Z"/>
            <path class="cls-6" d="m334.73,148.26c-.46-.25-.93-.5-1.39-.74,4.36-.44,8.73-.87,13.09-1.31.27.23.53.46.8.69-4.17.45-8.33.9-12.5,1.36Z"/>
            <path class="cls-6" d="m544.35,130.67c3.44-.23,6.89-.47,10.33-.7.27.25.54.49.82.74-4.89.44-9.79.89-14.68,1.33.04-.2.05-.41.01-.61,1.17-.25,2.35-.51,3.52-.76Z"/>
            <path class="cls-7" d="m249,178.42v.03c-.03.19-.05.38-.05.58.1,48.14.21,96.29.31,144.44-.68-3.31-1.96-6.63-1.95-9.95.1-45.08.74-137.31,1.02-138.31,0-.01,0-.02.01-.04.78-5.67,3.43-8.6,5.24-11.62-1.01,2.49-1.25,1.42-3.77,9.4-.43,1.37-.6,4.04-.82,5.47Z"/>
            <path class="cls-6" d="m540.83,131.43c.03.21.03.41-.01.61-1.48.06-2.95.12-4.43.17-1.96-.05-3.92-.11-5.88-.16,2.55-.27,5.1-.54,7.65-.81.89.06,1.78.12,2.67.18Z"/>
            <path class="cls-6" d="m474.58,136.64c-.5-.24-1-.47-1.51-.71,2.23-.12,4.45-.24,6.68-.36.98.06,1.95.12,2.93.18,0,0,0-.01,0-.01-2.7.3-5.39.61-8.09.91Z"/>
            <path class="cls-6" d="m437.73,139.52c-.65-.14-1.31-.27-1.96-.41,1.95-.14,3.89-.28,5.84-.42.22.26.43.51.65.77-1.51.02-3.02.04-4.53.06Z"/>
            <path class="cls-6" d="m420.12,141.06c-.5-.23-1-.47-1.51-.7,1.53-.06,3.05-.13,4.58-.19.44.24.88.48,1.33.71-1.47.06-2.93.12-4.4.18Z"/>
            <path class="cls-6" d="m347.23,146.9c-.27-.23-.53-.46-.8-.69,1.53-.06,3.06-.12,4.6-.18.46.25.91.49,1.37.74-1.72.04-3.44.09-5.17.13Z"/>
            <path class="cls-6" d="m366.36,145.43c-.95-.2-1.91-.4-2.86-.6,1.71-.08,3.42-.16,5.13-.24,0,.25.02.5.03.75-.77.03-1.53.06-2.3.09Z"/>
            <path class="cls-1" d="m259.46,157.58c-.93.8-1.85,1.6-2.78,2.4.93-.8,1.85-1.6,2.78-2.4Z"/>
            <path class="cls-6" d="m311.27,149.03c-.12.21-.23.43-.32.66-1.39-.02-2.77-.03-4.15-.05,1.49-.2,2.98-.41,4.48-.61Z"/>
            <path class="cls-15" d="m301.6,149.88c-1.22.17-2.43.35-3.64.52,1.22-.17,2.43-.35,3.64-.52Z"/>
            <path class="cls-15" d="m501.91,133.7c-1.01.15-2.01.3-3.02.44,1.01-.15,2.01-.3,3.02-.44Z"/>
            <path class="cls-6" d="m482.68,135.75c-.98-.06-1.95-.12-2.93-.18,1-.15,2.01-.3,3.01-.45-.03.21-.06.42-.09.63Z"/>
            <path class="cls-6" d="m698.1,135.67c-.72-.01-2.24-.04-2.24-.04-.12-.18-.23-.36-.33-.55.86.2,1.71.4,2.57.59Z"/>
            <path class="cls-15" d="m748.42,154.12c-.5-.74-1-1.49-1.5-2.23.5.74,1,1.49,1.5,2.23Z"/>
            <path class="cls-1" d="m256.69,159.97c-.49.49-.98.99-1.47,1.48.49-.49.98-.99,1.47-1.48Z"/>
            <path class="cls-15" d="m392.23,142.49c-.79.09-1.58.19-2.36.28.79-.09,1.58-.19,2.36-.28Z"/>
            <path class="cls-15" d="m319.39,148.42c-.77.13-1.54.26-2.32.39.77-.13,1.54-.26,2.32-.39Z"/>
            <path class="cls-15" d="m746.2,151.17c-.25-.25-.51-.51-.76-.76.25.25.51.51.76.76Z"/>
            <path class="cls-13" d="m389.09,283.17s-.02.03-.03.04c-1.71,2.6-2.83,5.53-3.3,8.6-.33,2.15-.65,4.3-.98,6.45-2.61,3.98-1.26,7.95.02,11.92,1.23,4.09,2.46,8.18,3.69,12.28,10.43,18.7-.2,23.33-16.26,24.34-1.06-21.58,2.17-42.23,13.53-61.05.68-1.12,2.19-1.73,3.32-2.58Z"/>
            <path class="cls-2" d="m499.67,160.12c-.11-.04-.23-.09-.34-.13.15-.22.28-.64.44-.65,18.35-1.26,36.71-2.49,55.07-3.72-18.39,1.5-36.78,3-55.17,4.5Z"/>
            <path class="cls-2" d="m399.63,168.68c8.56-.92,17.12-1.84,25.68-2.75-2.21.26-4.41.53-6.62.79-.52.15-1.04.31-1.56.46-5.83.5-11.66,1-17.5,1.5Z"/>
            <path class="cls-2" d="m384.77,169.72c4.37-.33,8.74-.66,13.11-.99-1.16.06-2.33.12-3.49.18-.76.16-1.51.32-2.27.47-2.45.11-4.9.22-7.34.33Z"/>
            <path class="cls-1" d="m337.47,353.62c-1.38.18-2.77.35-4.15.53,0,0-.04-.36-.04-.36"/>
            <path class="cls-16" d="m561.46,326.5c-.7.01-1.4.02-2.09.03.31-.06.61-.12.92-.19.39.05.78.1,1.17.15Z"/>
            <path class="cls-1" d="m330.31,183.49c.32-.46.64-.92.96-1.38-.32.46-.64.92-.96,1.38Z"/>
            <path class="cls-1" d="m328.12,187.28c.24-.5.49-1,.73-1.5-.24.5-.49,1-.73,1.5Z"/>
            <path class="cls-1" d="m327.42,188.98c.24-.58.47-1.15.71-1.73-.24.58-.47,1.15-.71,1.73Z"/>
            <path class="cls-1" d="m328.85,185.78c.26-.49.53-.99.79-1.48-.26.49-.53.99-.79,1.48Z"/>
            <path class="cls-1" d="m329.59,184.36c.23-.26.45-.53.68-.79-.23.26-.45.53-.68.79Z"/>
            <path class="cls-8" d="m412.07,323.35c-.29-.71-.58-1.41-.87-2.12.04-.26.08-.51.13-.77.25.96.49,1.92.74,2.89Z"/>
            <path class="cls-8" d="m492.26,334.19c.5.32,1,.65,1.49.97-.5-.32-1-.65-1.49-.97Z"/>
            <path class="cls-9" d="m283.09,347.96c-.73.18-1.19.44-1.57.34-.29-.07-.47-.59-.7-.91.44-.1.89-.29,1.33-.27.24.01.45.38.93.83Z"/>
            <path class="cls-3" d="m333.42,369.08c-.29.24-.57.49-.86.73.29-.24.57-.49.86-.73Z"/>
            <path class="cls-13" d="m384.81,310.19c-1.28-3.97-2.63-7.94-.02-11.92,0,3.97.01,7.95.02,11.92Z"/>
            <path class="cls-15" d="m386.28,288.43c.51-1.1,1.01-2.2,1.52-3.3-.51,1.1-1.01,2.2-1.52,3.3Z"/>
            <path class="cls-3" d="m586.1,387.47c-.37.25-.74.5-1.11.75.37-.25.74-.5,1.11-.75Z"/>
            <path class="cls-8" d="m447.72,263.68c-.88.27-1.31.43-1.76.51-.05,0-.18-.49-.28-.75.33-.1.66-.28,1-.29.22,0,.45.22,1.04.53Z"/>
            <path class="cls-7" d="m310.28,348.5c-11.54-4.44-19.51-6.08-29.29-11.54-1.36-.76-7.99-5.33-7.1-6.21.89-3.55,14.2.99,17.75,2.66,4.58,2.15,8.77,3.95,13.31,6.21,4.62,2.3,9.18,3.97,13.93,5.92,2.88,1.18,3.12,1.33,4.15,1.63,1.36.39,2.65,1,3.88,1.71,2.44,1.41,3.07,2.38,8.69,2.61,3.55,0,17.52-.46,18.18-.33-.79.43-17.34,2.7-18.18,2.99-7.92,2.82-18.22-2.99-25.32-5.66Z"/>
            <path class="cls-4" d="m322.89,186.5c-1.82,1.04-2.2.77-3.65,1.16-2.37.63-6.58-1.27-10.61-2.67-12.1-4.18-25.98-6.59-38.69-10.28-5.89-1.71-15.38-7.81-8.29-12.18,2.48-.34,6.04.39,7.99.89,7.87,2,15.26,6.75,23.16,8.69,10.57,2.59,16.55,10.44,29.1,8.2,1.8-.32,10.59-5.35,12.54-5.35,1.78,0-4.44,3.55-5.33,4.44-2.66,2.66-4.78,6.28-6.21,7.1Z"/>
            <path class="cls-2" d="m671.7,158.54l16.49-1.87h.02s14.4-1.03,14.4-1.03c4.55-.33,18.82.11,18.82.11,2.66.01,5.42,1.33,8.98,3.53,0,0,6.39,4.13,8.54,13.15.16.69.73,22.36.73,22.36,1.32,73.99-2.96-2.57-3.26-3.89l-2.91-13.07c-.31-1.37-.51-2.03-1.5-3.59-.46-.73-.96-1.43-1.49-2.12l-1.97-2.56c-1.18-1.54-6.7-4.55-10.1-6.34-1.82-.96-3.88-1.73-6.12-2.28l-1.26-.31c-5.29-1.3-10.85-1.75-16.31-1.32l-7.18.56c-2.74.21-5.5.24-8.24.09l-7.54-.43c-11.06.28-1.05-.89-.1-1Z"/>
            <polygon class="cls-8" points="411.17 319.3 411.58 321.46 411.21 321.24 410.29 316.4 411.17 319.3"/>
            <path class="cls-4" d="m438.41,246.35l200.28,70.04,51.54,71.45-39.36,53.44s-42.48,16.42-44.3,15.66-131.42-48.69-131.42-48.69l-83.17-53.33,14.96-66.04,31.47-42.52Z"/>
            <polygon class="cls-2" points="727.9 429.98 727.9 429.98 727.9 429.98 727.9 429.98"/>
            <polygon class="cls-2" points="703.01 435.15 702.99 435.18 702.99 435.19 703.01 435.15"/>
            <path class="cls-13" d="m617,477.26l.03-.02s-.01,0-.02,0c0,0,0,0,0,.01Z"/>
            <path class="cls-4" d="m623.02,486.73c37.08-13.67,79.4-21.98,115.09-39.65-19.25,14.25-43.12,16.54-64.7,24.75-14.99,5.7-30.55,9.92-45.85,14.8-9.38,3.56-4.07.3-4.54.11Z"/>
            <path class="cls-13" d="m679.03,451.19c-.11.04-.21.08-.31.13l.17-.06.14-.07Z"/>
            <path class="cls-2" d="m728.55,436.28c-.46.37-.96.78-1.41,1.15-.89.73-1.89,1.31-2.96,1.73-.8.31-1.63.63-1.79.71-31.18,14.22-64.95,20.94-97.27,31.45-1.89,2.76-3.46,7.76-2.26,7.25.22-.26.44-.52.65-.78,35.71-13.04,70.89-17.75,105.25-34.6l2.76-1.38c1.65-.66,3.46-2.76,3.46-2.76,1.38-1.38,2.76-4.15,2.76-4.15.17-.35.5-1.28.84-2.31-2.47.99-5.15.77-7.27.27-.66,1.33-1.61,2.5-2.77,3.43Z"/>
            <path class="cls-2" d="m348.98,201.63c-.21.55-.45,1.15-.66,1.69-.42,1.07-.85,5.09-.87,5.27-4.02,34.03-.11,68.24-.24,102.22-.56,7.65,1.53,10.16-2.26,9.22-1.07-.27-1.84-1.2-1.87-2.31-.84-34.91-6.2-76.95-.74-114.19l.78-3.62c.24-1.53,1.27-3.57,1.27-3.57.89-1.74,3.1-3.9,3.1-3.9.28-.27,1.06-.86,1.94-1.5,1.78-.93,2.79-1.45,3.6-1.15.75.28,1,1.23.58,1.91-1.42,2.36-4.18,8.72-4.64,9.93Z"/>
            <path class="cls-6" d="m618.81,488.34c-15.65,5.12-31.3,10.24-46.95,15.35,0-10.02,0-20.04,0-30.06.48,3.01.98,6.02,1.5,9.02.55,3.18,4.04,4.88,6.89,3.37,11.45-6.05,21.87-13.58,31.23-22.64,5.11-2.17,15.82-7,19.42-8.73.73-.35,1.4-.81,1.99-1.36.65-.6,1.29-1.2,1.94-1.8,1.95,1.01-7.22,30.52-16.03,36.83Z"/>
            <path class="cls-13" d="m627.2,476.48l-2.1,4.72c-.94,1.66-2.16,3.41-3.44,4.84l-1.38,1.38c-1.34,1.09-2.29,1.2-3.93,1.74l-19.07,6.29-25.39,8.25.02-13.61,55.31-13.61Z"/>
            <path class="cls-4" d="m571.91,504.71c-.02-.34-.03-.68-.05-1.02,15.65-5.12,31.3-10.24,46.95-15.35.76.18,1.51.36,2.27.54-16.39,5.28-32.77,10.55-49.16,15.83Z"/>
            <path class="cls-4" d="m588.72,481.16c-3.06,1.9-6.19,3.7-9.41,5.37-1.88.97-4.06.27-5.15-1.35l-2.3.64.02,4.37,55.32-13.71,1.5-3.27,1.47-3.5-41.45,11.45Z"/>
            <path class="cls-13" d="m611.49,463.4l-13.46-.1c-1.88-.01-3.64-.7-5.22-1.72-.15-.1-.3-.17-.46-.21-13.57-7.37-23.3-6.94-20.5,12.28.54,3.34,1.09,6.67,1.67,9.99.1.58.33,1.1.63,1.55l14.56-4.02c8.17-5.08,15.76-10.99,22.76-17.76Z"/>
          </g>
        </g>
        <path class="cls-6" d="m579.31,486.53c3.22-1.67,6.35-3.47,9.41-5.37l-14.56,4.02c1.09,1.62,3.27,2.32,5.15,1.35Z"/>
      </g>
      <g>
        <g>
          <path class="cls-11" d="m572.48,372.09c2.69,6.52-6.25,17.37,7.38,19.81-2.87,3.25-4.55.76-6.83-.79,0,0-.89-.89-.89-.89-.25-.51-.12-.12-.37-.62,0,0,.02.05.02.05-.06-5.38-.11-10.77-.17-16.15.03-.49.07-.98.1-1.47h.2c.2-.05.38-.02.56.07Z"/>
          <g>
            <path class="cls-3" d="m415.31,346.35c-2.05,1.59-4.1,3.18-6.15,4.78-.03.03-.08.03-.12.02-3.57-1.11-7.14-2.22-10.71-3.33-.11-.03-.13-.19-.03-.24,5.4-3.17,11.22-1.71,16.93-1.45.12,0,.17.16.07.23Z"/>
            <g>
              <path class="cls-9" d="m265.01,348.5c1.78-9.76,4.44-11.54,8.88-10.65,20.43,5.75,25.54,17.25,47.63,17.82,2.48.06,4.98-.85,7.47-1.31,1.45-.07,2.9-.13,4.34-.2,1.38-.18,2.77-.35,4.15-.53,3.98-.8,7.95-1.6,11.93-2.41,1.33-.02,2.65-.04,3.98-.06,14.81-2.11,29.49-5.98,44.66-3.43,3.69,1.15,7.38,2.29,11.06,3.44-.28.04-.55.08-.83.12l-1.16-.58c-.06.24-.12.48-.18.72-8.61,1.45-17.38,2.29-25.79,4.49-15.95,4.18-34.25,0-47.72,13.15-.29.24-.57.49-.86.73,0,0,.02,0,.02,0-1.07.26-2.36,1.03-3.19.7-20.35-8.17-27.28-9.11-47.51-17.56-8.88,5.33-18.64,3.55-16.87-4.44Z"/>
              <path class="cls-11" d="m372.24,346.8c16.06-1.01,26.69-5.64,16.26-24.34,5.79-5.15,11.14-.37,16.17,1.36,3.84,1.32,5.28.67,6.54-2.59.29.71.58,1.41.87,2.12,1.56,3.46,3.12,6.92,4.69,10.38.19,1.23.38,2.47.57,3.7,0,1.2,0,2.41,0,3.61-.58,1.7-1.17,3.39-1.75,5.09-5.92-.21-11.96-1.84-17.54,1.6-15.17-2.55-29.85,1.32-44.66,3.43-1.29.11-4.03.48-4.05.11,6.31-1.08,16.6-3.38,22.91-4.46Z"/>
              <path class="cls-11" d="m278.32,336.96c21.65,7.65,21.01,7.54,42.67,15.15,2.6.92,5.33,1.5,7.99,2.24-2.49.46-4.99,1.37-7.47,1.31-21.89.83-22.76-8.51-43.19-14.26-4.5-1.27-5.33-1.78-7.99-.89-2.66.89-4.44,4.44-4.44,4.44,0-2.66,1.78-6.21,4.44-7.99,1.04-.7,5.33-.89,7.99,0Z"/>
              <path class="cls-9" d="m388.39,284.59c2.66-4.44,6.21-9.76,6.21-9.76,10.65-19.53,40.8-26.45,66-15.46.88.38,1.84.58,2.76.86-21.37-.14-38.71,6.94-48.74,27.15-.36.49-.99,1.56-.99,1.56-9.24.22-13.97-11.57-25.24-4.35Z"/>
              <path class="cls-3" d="m390.19,282.04c9.65-4.01,14.9,7.1,23.44,6.9-2.92,10.16-5.99,20.32-2.38,30.98-.03.19,0,.37.08.55-.04.26-.08.51-.13.77-1.26,3.25-2.71,3.9-6.54,2.59-5.03-1.73-10.37-6.51-16.17-1.36-1.25-4.16-2.5-8.31-3.75-12.47-.19-2.64-.37-5.18-.56-7.81.65-4.28,1.29-8.55,1.94-12.83.44-1.14,1.11-2.91,1.55-4.05l1.69-2.57c.2-.3.48-.55.82-.69Z"/>
              <path class="cls-9" d="m595.26,368.27q2.62-.24,5.28.65c9.93,3.46,18.9,6.98,28.83,10.44-15.96-5.49-30.1-1.27-43.28,8.11l-1.11.75h.03c-1.47-.99-3.37-1.69-4.34-3.04-3.09-4.29.87-10.84-4.48-14.54.59-.06,13.74-1.88,19.07-2.37Z"/>
              <path class="cls-3" d="m492.26,334.19c-4.01-4.07-1.79-7.88.16-12.04,7.29-1.02,14.58-2.03,21.87-3.04,4.14,1.71,7.63,3.62,2.45,8.14.93.97,1.9,2.8,2.78,2.76,6.61-.31,13.19-.99,19.79-1.56-15.19,2.23-30.38,4.46-45.58,6.69,0,0,.03.03.03.03-.5-.32-1-.65-1.49-.97Z"/>
              <path class="cls-9" d="m539.3,328.44c-6.59.57-13.18,1.25-19.79,1.56-.88.04-1.85-1.79-2.78-2.76,5.18-4.52,1.69-6.42-2.45-8.14,1.98-.12,3.96-.23,5.94-.35,4.01.04,8.02.08,12.04.11.39,0,.78,0,1.17,0,8.95,2.49,17.91,4.98,26.86,7.47-.31.06-.61.12-.92.19-6.69.64-13.38,1.27-20.07,1.91Z"/>
              <path class="cls-3" d="m585.01,388.22c-1.2.98-2.41,1.96-3.61,2.94-.52.25-1.05.5-1.57.75,0,0,.03,0,.03,0-13.64-2.44-4.69-13.29-7.38-19.81,1.24-.48,2.47-.97,3.71-1.45,5.35,3.69,1.4,10.25,4.48,14.54.98,1.36,2.87,2.05,4.34,3.05Z"/>
              <g>
                <path class="cls-11" d="m314.72,587.28c.6.24,2.03-.12,2.66,0,5.81,1.09,10.9,3.47,16.71,4.55-10.88,1.21-20.64-1.88-29.68-7.71,0,0,.19-.22.19-.22,3.41,1.38,6.71,2,10.12,3.38Z"/>
                <path class="cls-11" d="m277.11,569.97c-7.69-4.01.03.01-7.66-3.99-.89-.89-1.04-1.54-.89-1.78,7.59,4.18,1.11,1.41,8.7,5.59l-.15.17Z"/>
                <path class="cls-11" d="m304.41,584.12c-3.92-1.97-7.83-3.95-11.75-5.92,0,0,.16-.18.16-.18,3.93,1.96,7.85,3.92,11.78,5.89l-.19.22Z"/>
                <path class="cls-11" d="m289.71,576.73c-3.92-1.96-8.35-4.36-12.27-6.32,0,0,.89-.89.89-.89,3.92,1.96,7.63,5.05,11.55,7.02l-.17.19Z"/>
                <path class="cls-11" d="m292.66,578.2c-.98-.49-1.97-.98-2.95-1.47,0,0,.17-.19.17-.19.98.49,1.96.98,2.94,1.47l-.16.18Z"/>
                <path class="cls-11" d="m327.39,584.68c0,.49,0,.98-.01,1.47-.02-.71-.04-1.43-.07-2.14,0,0,.12-.09.12-.09-.01.25-.03.51-.05.76Z"/>
              </g>
              <g>
                <g>
                  <path class="cls-11" d="m327.27,584.18c-4.56-4.89-.87-21.74.77-27.08,0,5.35-.76,21.74-.77,27.08Z"/>
                  <path class="cls-9" d="m327.39,584.68c8.24,11.79,16.85,2.69,25.32.41,4.81-1.29,9.59-2.74,14.38-4.12-.1.11-.21.21-.31.32.13-.09.25-.17.38-.26,14.84-5.23,29.53-10.98,44.58-15.55,15.62-4.75,31.58-8.35,47.4-12.45-41.68,12.94-83.35,25.88-125.03,38.81-6.13-1.15-12.25-2.29-18.38-3.44,3.78-1.31,8.58,2.7,11.66-2.25,0-.49,0-.98.01-1.47Z"/>
                  <g>
                    <path class="cls-8" d="m586.1,387.47c13.17-9.38,27.32-13.6,43.28-8.11.93.44,1.86.87,2.8,1.31-12.66-.32-25.15-.46-36.91,5.87-6.12,3.3-10.13,11.61-18.89,8.88-1.58-.49-3.35-3.42-4.24-5.2,2.29,1.55,4.85,4.93,7.72,1.68h-.03c.52-.24,3.98-2.7,5.18-3.68,0,0-.03,0-.03,0,.37-.25.74-.5,1.11-.75Z"/>
                    <path class="cls-8" d="m411.26,319.92c-3.61-10.66-.54-20.82,2.38-30.98,0,0,.63-1.07.99-1.57,10.04-20.2,27.38-27.29,48.74-27.15.8.45,1.6.89,2.4,1.34-2.93.5-5.88.93-8.8,1.5-3.32.65-6.68,1.23-9.92,2.17-15.47,4.5-24.69,15.37-31.5,29.5-3.98,8.26-5.65,16.3-4.28,25.18Zm36.46-56.24c-.59-.31-.82-.54-1.04-.53-.34.01-.67.18-1,.29.09.26.23.76.28.75.45-.07.88-.24,1.76-.51Z"/>
                    <path class="cls-8" d="m539.3,328.44c6.69-.64,13.38-1.27,20.07-1.91.7-.01,1.4-.02,2.09-.03.43.33.87.66,1.3.99-21.15,2.81-42.28,5.66-63.44,8.37-1.8.23-3.73-.47-5.6-.74,15.19-2.23,30.38-4.46,45.58-6.69Z"/>
                    <path class="cls-8" d="m417.26,336.97c-.17-1.08-.33-2.16-.5-3.24,4.24,1.72,1.15,11.02,1.15,11.02-10.79,18.69-30.57,12.79-46.11,14.75-33.33,4.2-38.55,7.82-38.54,40.94,0,14.31.98,28.73.99,43.04l-1.78.89c-.71-1.91-1.27-4.83-1.24-6.73.33-22.61.87-45.22,1.35-67.83h-.02c.29-.24.57-.48.86-.72,13.47-13.14,31.76-8.97,47.72-13.15,8.41-2.21,17.18-3.04,25.79-4.49,0,0,.01,0,.02,0,1.28-.52,2.49-1,3.77-1.52,1.05-.82,2.1-1.63,3.15-2.45,1.12-.87,1.96-2.05,2.42-3.39.15-.44.31-.89.46-1.33.17-1.95.34-3.82.51-5.78Z"/>
                    <path class="cls-8" d="m327.42,508.94c.61-5.1,1.86-9.18,5.94-11.31.25-.3,2.15-1.21,2.15-1.21,4.52-1.24,8.76-1.11,12.98,1.47,20.58,12.56,39.93,5.84,49.47-17.05,5.04-11.5,4.06-23.01.02-34.52,8.24,16.9,6.67,33.53-4.57,47.88-9.93,12.68-22.88,20.16-39.46,9.65-4.43-2.81-8.71-7.65-14.85-4.1-7.91,4.57-9.09,12.63-9.45,20.6-.94,21.18-1.5,42.38-2.22,63.57,0,0-.12.09-.12.09-.02-.53-.03-1.07-.05-1.6,0-5.35.02-10.69.03-16.04,0-2.02,0-4.04,0-6.06,0-8.04,0-16.08,0-24.12-.01-7.67-.03-15.33-.04-23,.05-1.42.1-2.84.16-4.25Z"/>
                  </g>
                  <path class="cls-8" d="m342.81,445.43c-.96.34-1.92.69-2.89,1.03-.75,0-1.5,0-2.26-.01-.45-.07-.89-.15-1.34-.22-.03-.21-.07-.43-.12-.64l.02-.03c2.19-.04,4.38-.09,6.58-.13Z"/>
                  <path class="cls-8" d="m397.26,444.92c-.46-.77-.92-1.53-1.38-2.3.46.77.92,1.53,1.38,2.3Z"/>
                  <path class="cls-8" d="m334.02,444.1c.74.49,1.48.98,2.21,1.46,0,0-.02.03-.02.03-.73-.49-1.47-.99-2.2-1.48v-.02Z"/>
                  <path class="cls-8" d="m395.85,442.59c-.28-.47-.55-.94-.83-1.42.28.47.55.94.83,1.42Z"/>
                  <path class="cls-8" d="m394.35,440.46c-.24-.27-.49-.54-.73-.81.24.27.49.54.73.81Z"/>
                  <path class="cls-8" d="m398.01,446.37c-.26-.51-.53-1.01-.79-1.52.26.51.53,1.01.79,1.52Z"/>
                  <path class="cls-8" d="m395.08,441.23c-.25-.27-.5-.53-.75-.8.25.27.5.53.75.8Z"/>
                  <path class="cls-8" d="m333.29,443.36c.24.24.49.49.73.73,0,0-.01.02-.01.02-.24-.25-.49-.49-.73-.74h.01Z"/>
                  <path class="cls-3" d="m337.66,446.45c.75,0,1.5,0,2.26.01-.75,0-1.5,0-2.26-.01Z"/>
                  <path class="cls-11" d="m327.27,513.19c-.21-.7-.41-1.41-.62-2.11.26-.72.52-1.43.77-2.14-.05,1.42-.1,2.84-.16,4.25Z"/>
                  <path class="cls-11" d="m327.3,560.31c0-8.04,0-16.08,0-24.12,0,8.04,0,16.08,0,24.12Z"/>
                  <path class="cls-3" d="m334.25,443.48l.89.89c.08.09,1.27,1.35,1.27,1.35.23.16.1.53-.17.5-12.28-1.03-22.18-8.01-32.97-12.9-18.81-8.53-10.01-2.8-28.48-12.03-3.55-1.78-2.44-3.1-5.33-8.88-1.78-3.55-4.44-54.15-.89-60.36,1.87-3.27,9.15-2.77,11.54-1.78,20.24,8.45,28.94,12.05,49.29,20.23.84.34,2.12-.44,3.19-.7-.48,22.61-1.02,45.22-1.35,67.83-.02,1.43.74,2.87,1.42,4.31.33.69,1.11.95,1.59,1.54Z"/>
                </g>
                <g>
                  <path class="cls-11" d="m265.76,474.46c.08.03.14.12.14.21-.03,2.65-.89,6.19-.89,12.31.89,10.65,0,12.43,0,22.19.71,10.45-.89,28.4-.51,41.68.15,5.18,1.84,9.87,4.08,13.66l.87,1.47q-2.66-1.78-4.44-4.44c-2.66-4.44-1.71-8.54-1.78-12.43-.34-20.9.89-27.52,0-48.82,0-.01,0-9.66,0-15.07,0-2.56.29-5.11.87-7.61.73-3.13,1.03-3.42,1.65-3.16Z"/>
                  <g>
                    <path class="cls-9" d="m273,474.55c10.63,1.78,2.66.89,13.89,4.5,5.52,1.77,11.25,2.8,16.87,4.21,4.19,6.65,11.63,7.15,18.09,9.38,4.46,1.54,9.1,2.55,13.66,3.79v-.03c-.45.55-.91,1.1-1.37,1.64-2.09,3.63-5.38,9.35-7.47,12.98l-.03.07c-1.08.55-2.82,1.83-3.14,1.54-8.78-7.99-20.58-9.46-30.8-14.26-16.24-7.64-11.27-5.02-27.69-12.27.25-1.08-.89-6.21,0-9.76,0-.89,0-1.78,1.78-3.55,1.4-1.4,6.2,1.77,6.21,1.78Z"/>
                    <path class="cls-3" d="m397.96,480.84c-9.54,22.88-28.9,29.6-49.47,17.05-4.22-2.58-8.46-2.71-12.98-1.47-4.56-1.24-9.2-2.25-13.66-3.79-6.47-2.22-13.9-2.72-18.09-9.38,15.62-.09,31.29-.89,46.2,5.44,6.99,2.97,7.19-2.99,9.94-7.12,9.06-13.67,21.75-22.77,38.34-25.29.18-.03,1.88,5.85,1.76,8.93-.21,5.23-1.3,10.42-2.02,15.63Z"/>
                    <path class="cls-3" d="m327.31,584.01c.02.71.04,1.43.07,2.14-2.53,4.06-6.23,2.08-9.56,1.97l-9.12-2.17c-5.29-2.64-10.58-5.29-15.87-7.93-.98-.49-1.96-.98-2.94-1.47-3.92-1.96-7.85-3.93-11.77-5.89-2.95-1.47-2.67-1.63-5.11-2.9-2.9-1.51-6.21-3.55-7.1-7.1-2.72-10.89-.89-20.42-.89-49.71-.08-11.67.11-14,0-24.85,16.42,7.25,11.45,4.63,27.69,12.27,10.23,4.81,22.02,6.27,30.8,14.26.32.29,2.06-.99,3.14-1.54l.62.39c.01,8.24.03,16.48.04,24.72,0,8.04,0,16.08,0,24.12-.29,2.76-.76,7.22-1.05,9.98-.86,4.04-.94,8.08,1.02,12.12.02.53.03,1.07.05,1.6Z"/>
                    <path class="cls-12" d="m399.99,465.21c.12-3.08-1.59-8.96-1.77-8.93-16.59,2.52-29.27,11.62-38.34,25.29-2.74,4.14-2.94,10.09-9.93,7.12-14.9-6.33-30.26-5.35-45.88-5.26-5.62-1.4-5.97-1.03-11.54-2.66-15.09-4.44-13.31-4.44-25.74-7.99,7.3-6.56,10.65-6.21,19.53-5.33,18.64,1.78,23.43-10.4,21.05-29.54-.12-1.04-1.84-2.17-3.04-2.73-31.83-14.1-26.88-10.34-33.98-15.67-3.55-3.55-5.86-7.91-6.21-19.53-.35-11.1-1.99-36.78.89-47.93,0,0,3.55,0,2.66,3.55-.89,12.43-.88,23.16,0,34.62.89,11.54-.89,19.53,6.21,30.18l.45.45c15.24,6.52,11.25,4.46,28.92,12.46,10.81,4.91,20.74,11.91,33.07,12.92.45.07.9.14,1.34.21.75,0,1.51,0,2.25.02.97-.35,1.93-.69,2.88-1.04,15.61-13.58,31.7-23,50.81-5.78.24.27.47.52.72.79.23.25.46.49.69.74v.02c.28.46.55.94.83,1.4l.03.03c.45.75.9,1.48,1.35,2.24l.04.06c.25.49.5.97.75,1.46l-.04-.05c4.05,11.51,5.02,23.02-.02,34.52.72-5.21,1.82-10.4,2.02-15.63Z"/>
                    <path class="cls-16" d="m651.36,419.32c0,1.66-.06,3.35-.19,5.05-.02.31-.07.63-.14.93-4.41,19.08-9.5,20.07-14.1,24.39l-3.59,3.32c-.23.21-.47.4-.73.57-2.65,1.75-17.96,11.67-25.7,11.95-.31.01-.62-.02-.93-.06l-16.71-2.41c-.18-.03-.36-.06-.54-.1-9.53-2.25-19.43-7.71-16.94,10.3.04.26.06.52.06.78,0,9.89,0,19.78,0,29.67l.02.5c.03.35,0,.69-.04,1.05-.26,2.16-3.02,13.62-3.02,13.62-.04.22-.14.43-.3.58-.24.23-.62.59-.94.91-.18.17-.4.3-.64.38-2.32.75-27.69,9.01-30.14,9.93-.14.05-.27.1-.41.14-3.83,1.11-52.47,15.19-77.28,22.39v-.14c-15.8,4.1-31.77,7.7-47.39,12.45-15.05,4.57-29.73,10.31-44.58,15.55l-.06-.06c-4.78,1.38-9.56,2.82-14.37,4.12-8.47,2.27-17.08,11.38-25.32-.41,0-.26.03-.51.04-.76.71-21.19,1.27-42.39,2.22-63.56.35-7.97,1.54-16.03,9.44-20.6,6.14-3.55,10.41,1.3,14.85,4.11,16.58,10.5,29.52,3.02,39.46-9.66,11.24-14.34,12.82-30.98,4.57-47.88l.04.05c-.26-.49-.51-.97-.75-1.46l-.04-.06c-.45-.75-.9-1.49-1.35-2.24l-.03-.03c-.28-.46-.54-.94-.82-1.4v-.02c-.24-.25-.47-.49-.7-.74l-.5-.55c-.15-.16-.3-.31-.46-.46-7.29-6.49-14.14-9.11-20.69-9.11-10.34,0-19.93,6.52-29.34,14.65-2.06,1.78-5.06,1.96-7.32.46-.85-.56-1.54-1.32-2.01-2.19-.47-.88-.73-1.86-.73-2.88,0-13.31-.03-26.6-.03-39.91,0-33.13,5.21-36.74,38.54-40.94,12.31-1.56,34.12-9.88,42.59-13.28,1.8-.72,3.16-2.25,3.66-4.13.7-2.61,1.29-5.58-1.4-8.51-1.61-1.75-3.28-5.18-3.88-7.47l-1.45-5.64c-.08-.18-.11-.36-.07-.55-1.37-8.87.3-16.91,4.28-25.17,6.82-14.13,16.03-25,31.51-29.5,4.78-1.39,9.82-2,14.63-3.2.71-.18,1.43-.3,2.17-.36l1.54-.1c.26-.02.51-.03.76,0,17.85.91,30.94,22.01,29.65,49.63-.03.58,0,2.66-2.66,10.65-.82,3.3-4.3,7.61-1.61,11.45.38.55.9.98,1.46,1.34.26.17.51.33.77.5l-.03-.03c1.86.27,3.79.97,5.59.74,20.63-2.65,41.23-5.42,61.83-8.17,1.2-.16,2.43.07,3.5.64,2.31,1.24,3.9,2.92,4.98,4.91,1.35,2.49,1.89,5.49,2.01,8.74.09,10,.4,19.57.49,29.58l.36,17.65c.02,1.09.36,2.15.96,3.05.88,1.33,1.73,2.77,2.92,3.13,8.75,2.74,12.76-5.57,18.88-8.88,11.53-6.2,23.76-6.2,36.16-5.89.49.01.99.07,1.46.22,10.3,3.23,18.48,19.13,18.48,38.45Z"/>
                  </g>
                </g>
              </g>
            </g>
          </g>
        </g>
        <polygon class="cls-9" points="364.25 349.77 339.17 359.23 365.3 356.23 364.25 349.77"/>
      </g>
    </g>
    <g>
      <g>
        <rect class="cls-16" x="415.08" y="756.55" width="19.92" height="119.51"/>
        <path class="cls-16" d="m458.32,796.38c-2.2,6.23-3.4,12.94-3.4,19.92s1.2,13.69,3.4,19.92c1.11,3.13,2.47,6.15,4.06,9.01,2.17,3.93,4.78,7.59,7.75,10.9,1.48,1.65,3.05,3.23,4.7,4.7v15.21h-12.85c-1.58-1.39-3.1-2.84-4.56-4.35-.86-.89-1.7-1.79-2.51-2.71-3.49-3.95-6.59-8.25-9.26-12.85-.24-.41-.48-.84-.71-1.26h0c-3.22-5.81-5.74-12.07-7.44-18.66-.01-.05-.03-.1-.04-.15-1.62-6.32-2.47-12.94-2.47-19.76s.86-13.44,2.47-19.76c.01-.06.03-.11.04-.15,1.7-6.59,4.22-12.85,7.44-18.66h0c.23-.42.47-.84.71-1.26,2.66-4.6,5.77-8.9,9.26-12.85.81-.92,1.64-1.83,2.51-2.71,1.46-1.52,2.98-2.97,4.56-4.35h12.85v15.21c-1.65,1.48-3.23,3.05-4.7,4.7-2.97,3.32-5.58,6.98-7.75,10.9-1.59,2.87-2.95,5.88-4.06,9.01Z"/>
        <path class="cls-16" d="m549.18,796.38c-3.5-6.05-8.54-11.09-14.59-14.59-5.86-3.39-12.66-5.33-19.92-5.33-3.44,0-6.77.44-9.95,1.26h0c-3.54.91-6.88,2.29-9.96,4.07-2.71,1.57-5.21,3.44-7.46,5.58-2.78,2.64-5.19,5.67-7.13,9.01-3.39,5.86-5.33,12.66-5.33,19.92s1.94,14.06,5.33,19.92c1.94,3.34,4.34,6.37,7.13,9.01,2.26,2.14,4.76,4.01,7.46,5.58,3.08,1.78,6.43,3.16,9.96,4.07h0c3.18.82,6.51,1.26,9.95,1.26,7.25,0,14.06-1.94,19.92-5.33,6.05-3.5,11.09-8.54,14.59-14.59,3.39-5.86,5.33-12.66,5.33-19.92s-1.94-14.06-5.33-19.92Zm-36.98,39.68c-9.83-1.22-17.44-9.6-17.44-19.76s7.61-18.55,17.44-19.76c-.01-.06,2.47-.15,2.47-.15,11,0,19.92,8.92,19.92,19.92s-8.92,19.92-19.92,19.92c0,0-2.48-.1-2.47-.15Z"/>
        <path class="cls-16" d="m651.33,756.55v119.51h-19.92v-94.26c-2.71,1.57-5.21,3.44-7.46,5.58-2.78,2.64-5.19,5.67-7.13,9.01h-10.66c-1.94-3.34-4.34-6.37-7.13-9.01-2.26-2.14-4.76-4.01-7.46-5.58v94.26h-19.92v-119.51c6.98,0,13.69,1.2,19.92,3.4.85.3,1.68.61,2.51.95,6.44,2.61,12.32,6.3,17.41,10.86,5.09-4.56,10.97-8.25,17.41-10.86.82-.34,1.66-.65,2.51-.95,6.23-2.2,12.94-3.4,19.92-3.4Z"/>
        <polygon class="cls-16" points="731 756.55 731 876.05 711.08 876.05 711.08 776.46 691.16 776.46 691.16 876.05 671.24 876.05 671.24 756.55 731 756.55"/>
      </g>
      <g>
        <path class="cls-14" d="m872.34,834.6s-.01-.05-.02-.08c-.89-3.44-2.19-6.7-3.88-9.73-.12-.22-.24-.43-.37-.65-1.38-2.4-3-4.64-4.82-6.71-.42-.48-.86-.95-1.3-1.42-.76-.78-1.55-1.54-2.38-2.26h-13.4c-.83.73-1.62,1.48-2.38,2.26-.45.46-.88.93-1.3,1.42-1.82,2.07-3.44,4.31-4.82,6.71-.13.22-.25.43-.37.65-1.68,3.04-2.99,6.29-3.88,9.73,0,.02-.01.05-.02.08-.85,3.29-1.29,6.75-1.29,10.3v31.15h10.38v-20.77h20.77v20.77h10.38v-31.15c0-3.55-.45-7.01-1.29-10.3Zm-29.86,10.3c0-3.64.62-7.13,1.78-10.38.57-1.64,1.28-3.21,2.12-4.7,1.14-2.05,2.5-3.96,4.04-5.68h4.9c1.55,1.73,2.91,3.63,4.05,5.68.83,1.49,1.54,3.06,2.11,4.7,1.15,3.25,1.78,6.74,1.78,10.38h-20.77Z"/>
        <path class="cls-14" d="m924.6,813.75v62.3h-10.38v-49.14c-1.41.81-2.71,1.79-3.89,2.91-1.45,1.37-2.71,2.96-3.72,4.7h-5.55c-1.01-1.74-2.27-3.33-3.72-4.7-1.18-1.11-2.48-2.1-3.89-2.91v49.14h-10.38v-62.3c3.64,0,7.14.62,10.38,1.77.44.15.87.31,1.3.49,3.36,1.36,6.43,3.29,9.08,5.67,2.66-2.38,5.72-4.31,9.08-5.67.43-.18.86-.34,1.3-.49,3.25-1.15,6.74-1.77,10.38-1.77Z"/>
        <path class="cls-14" d="m822.66,821.68v12.83h-2.78c-1.01-1.74-2.27-3.33-3.72-4.7-1.18-1.11-2.48-2.1-3.89-2.91-1.6-.93-3.35-1.65-5.19-2.12-1.66-.43-3.4-.65-5.19-.65-3.78,0-7.33,1.01-10.38,2.78-3.15,1.82-5.78,4.46-7.61,7.61-1.77,3.05-2.78,6.6-2.78,10.38s1.01,7.33,2.78,10.38c1.82,3.15,4.46,5.78,7.61,7.61,3.05,1.77,6.6,2.78,10.38,2.78,1.79,0,3.53-.23,5.19-.65,1.84-.47,3.59-1.19,5.19-2.12,1.41-.81,2.71-1.79,3.89-2.91,1.45-1.37,2.71-2.96,3.72-4.7h2.78v12.83c-2.66,2.38-5.72,4.31-9.08,5.67-.43.18-.86.34-1.3.49-3.25,1.15-6.74,1.77-10.38,1.77s-7.14-.62-10.38-1.77c-3.87-1.37-7.39-3.48-10.38-6.16-.86-.77-1.68-1.59-2.45-2.45-2.68-3-4.8-6.51-6.16-10.38-1.15-3.25-1.77-6.74-1.77-10.38s.62-7.14,1.77-10.38c1.37-3.87,3.48-7.39,6.16-10.38.77-.86,1.59-1.68,2.45-2.45,3-2.68,6.51-4.8,10.38-6.16,3.25-1.15,6.74-1.77,10.38-1.77s7.14.62,10.38,1.77c.44.15.87.31,1.3.49,3.36,1.36,6.43,3.29,9.08,5.67Z"/>
      </g>
      <g>
        <path class="cls-14" d="m361.41,813.75v62.3h-10.38v-14.06c-.42.48-.86.96-1.3,1.42-.76.79-1.55,1.54-2.38,2.27-2.06,1.82-4.3,3.44-6.7,4.82-3.22,1.86-6.7,3.3-10.38,4.25-3.32.86-6.8,1.31-10.38,1.31v-62.3h10.38v50.14c.44-.15.87-.31,1.3-.49,3.36-1.36,6.43-3.29,9.08-5.67.86-.77,1.68-1.59,2.45-2.45,1.55-1.73,2.91-3.64,4.05-5.68.83-1.5,1.54-3.06,2.11-4.7,1.15-3.25,1.77-6.74,1.77-10.38v-20.77h10.38Z"/>
        <path class="cls-14" d="m262.3,813.75v3.68c-1.82,2.06-3.44,4.3-4.82,6.7h-15.95v10.38h10.38c.44,0,.87.03,1.29.08-.84,3.29-1.29,6.75-1.29,10.3h-10.38v20.77h15.95c1.38,2.4,3,4.64,4.82,6.7v3.68h-31.15v-62.3h31.15Z"/>
        <path class="cls-14" d="m127.31,821.69v12.83h-2.78c-1.01-1.74-2.27-3.33-3.72-4.7-1.18-1.11-2.48-2.1-3.89-2.91-1.6-.93-3.35-1.65-5.19-2.12-1.66-.43-3.4-.65-5.19-.65-3.78,0-7.33,1.01-10.38,2.78-3.15,1.82-5.78,4.46-7.61,7.61-1.77,3.05-2.78,6.6-2.78,10.38s1.01,7.33,2.78,10.38c1.82,3.15,4.46,5.78,7.61,7.61,3.05,1.77,6.6,2.78,10.38,2.78,1.79,0,3.53-.23,5.19-.65,1.84-.47,3.59-1.19,5.19-2.12,1.41-.81,2.71-1.79,3.89-2.91,1.45-1.37,2.71-2.96,3.72-4.7h2.78v12.83c-2.66,2.38-5.72,4.31-9.08,5.67-.43.18-.86.34-1.3.49-3.25,1.15-6.74,1.77-10.38,1.77s-7.14-.62-10.38-1.77c-3.87-1.37-7.39-3.48-10.38-6.16-.86-.77-1.68-1.59-2.45-2.45-2.68-3-4.8-6.51-6.16-10.38-1.15-3.25-1.77-6.74-1.77-10.38s.62-7.14,1.77-10.38c1.37-3.87,3.48-7.39,6.16-10.38.77-.86,1.59-1.68,2.45-2.45,3-2.68,6.51-4.8,10.38-6.16,3.25-1.15,6.74-1.77,10.38-1.77s7.14.62,10.38,1.77c.44.15.87.31,1.3.49,3.36,1.36,6.43,3.29,9.08,5.67Z"/>
        <path class="cls-14" d="m166.02,815.52c-3.25-1.15-6.74-1.77-10.38-1.77s-7.14.62-10.38,1.77c0,0-7.73,3.78-10.38,6.16v46.43c2.66,2.38,5.72,4.31,9.08,5.67.43.18.86.34,1.3.49,3.25,1.15,6.74,1.77,10.38,1.77s7.14-.62,10.38-1.77c3.87-1.37,7.39-3.48,10.38-6.16v-46.43c-3-2.68-6.51-4.8-10.38-6.16Zm0,47.37c-3.05,1.77-6.6,2.78-10.38,2.78-1.79,0-3.53-.23-5.19-.65-1.84-.47-3.59-1.19-5.19-2.12v-35.98c1.6-.93,3.35-1.65,5.19-2.12,1.66-.43,3.4-.65,5.19-.65,3.78,0,7.33,1.01,10.38,2.78v35.98Z"/>
        <path class="cls-14" d="m222.71,844.9c-1.01-1.75-2.27-3.33-3.72-4.7-1.18-1.11-2.48-2.1-3.89-2.91-1.61-.93-3.35-1.65-5.19-2.12-1.66-.43-3.4-.65-5.19-.65-3.78,0-7.33,1.01-10.38,2.77v-13.16h15.1l10.38-10.38h-35.87v62.3h20.76c1.8,0,3.53-.22,5.19-.65,1.84-.47,3.59-1.19,5.19-2.12,1.41-.81,2.71-1.8,3.89-2.91,1.45-1.37,2.72-2.96,3.72-4.7,1.77-3.05,2.77-6.6,2.77-10.38s-1.01-7.33-2.77-10.38Zm-16.71,20.68s.01.06.02.08h-1.31c-5.73,0-10.38-4.65-10.38-10.38s4.65-10.38,10.38-10.38h1.31s0,.05-.02.08c5.12.64,9.09,5.01,9.09,10.3s-3.97,9.67-9.09,10.3Z"/>
        <path class="cls-14" d="m310.5,824.13c-1.01-1.74-2.27-3.33-3.72-4.7-1.18-1.11-2.48-2.1-3.89-2.91-1.6-.93-3.35-1.65-5.19-2.12-1.66-.43-3.4-.65-5.19-.65h-20.77v62.3h10.38v-23.54c3.05,1.77,6.6,2.78,10.38,2.78,1.79,0,3.53-.23,5.19-.65,1.84-.47,3.59-1.19,5.19-2.12,1.41-.81,2.71-1.79,3.89-2.91,1.45-1.37,2.71-2.96,3.72-4.7,1.77-3.05,2.78-6.6,2.78-10.38s-1.01-7.33-2.78-10.38Zm-17.99,20.77c-5.67,0-10.28-4.55-10.38-10.19-.11-5.82,4.84-10.58,10.65-10.58h1.04s-.01.06-.02.08c5.12.64,9.09,5,9.09,10.3s-3.97,9.67-9.09,10.3c0,.03.01.06.02.08h-1.31Z"/>
      </g>
    </g>
  </g>
</svg>