<?xml version="1.0" encoding="UTF-8"?>
<svg id="_Слой_1" data-name="Слой 1" xmlns="http://www.w3.org/2000/svg" viewBox="0 0 1000 1000">
  <defs>
    <style>
      .cls-1 {
        fill: #fff;
      }

      .cls-1, .cls-2, .cls-3 {
        stroke-width: 0px;
      }

      .cls-2 {
        fill: #2295d3;
      }

      .cls-3 {
        fill: #e72f51;
      }
    </style>
  </defs>
  <rect class="cls-1" x="0" y="0" width="1000" height="1000"/>
  <g>
    <g>
      <rect class="cls-3" x="150.76" y="368.76" width="44.04" height="264.23"/>
      <path class="cls-3" d="m246.36,456.83c-4.87,13.77-7.52,28.6-7.52,44.04s2.65,30.26,7.52,44.04c2.45,6.92,5.46,13.59,8.98,19.93,4.81,8.69,10.57,16.77,17.14,24.11,3.27,3.66,6.74,7.13,10.4,10.4v33.64h-28.42c-3.5-3.07-6.86-6.28-10.08-9.63-1.91-1.96-3.76-3.95-5.54-5.99-7.72-8.73-14.58-18.25-20.47-28.42-.53-.92-1.05-1.85-1.57-2.78h-.01c-7.12-12.84-12.69-26.69-16.44-41.26-.02-.11-.06-.22-.09-.34-3.57-13.97-5.47-28.61-5.47-43.69s1.9-29.73,5.47-43.7c.02-.12.06-.23.09-.34,3.76-14.57,9.32-28.42,16.44-41.26h.01c.51-.93,1.04-1.86,1.57-2.78,5.88-10.17,12.75-19.68,20.47-28.42,1.79-2.04,3.63-4.04,5.54-5.99,3.22-3.35,6.58-6.56,10.08-9.63h28.42v33.64c-3.66,3.27-7.13,6.74-10.4,10.4-6.57,7.34-12.33,15.43-17.14,24.11-3.52,6.34-6.53,13-8.98,19.93Z"/>
      <path class="cls-3" d="m447.24,456.83c-7.74-13.37-18.89-24.51-32.26-32.26-12.95-7.49-28-11.78-44.04-11.78-7.6,0-14.96.97-21.99,2.78h-.01c-7.82,2.01-15.22,5.06-22.03,9-5.98,3.46-11.51,7.61-16.5,12.33-6.15,5.83-11.47,12.54-15.76,19.93-7.49,12.95-11.78,28-11.78,44.04s4.29,31.08,11.78,44.04c4.28,7.39,9.6,14.09,15.76,19.93,4.99,4.72,10.52,8.87,16.5,12.33,6.81,3.94,14.21,7,22.03,9h.01c7.03,1.81,14.4,2.78,21.99,2.78,16.04,0,31.08-4.29,44.04-11.78,13.37-7.74,24.51-18.89,32.26-32.26,7.49-12.95,11.78-28,11.78-44.04s-4.29-31.08-11.78-44.04Zm-81.76,87.73c-21.74-2.69-38.57-21.24-38.57-43.69s16.83-41,38.57-43.7c-.02-.12,5.47-.34,5.47-.34,24.32,0,44.04,19.72,44.04,44.04s-19.72,44.04-44.04,44.04c0,0-5.49-.22-5.47-.34Z"/>
      <path class="cls-3" d="m673.09,368.76v264.23h-44.04v-208.41c-5.98,3.46-11.51,7.61-16.5,12.33-6.15,5.83-11.47,12.54-15.76,19.93h-23.56c-4.28-7.39-9.6-14.09-15.76-19.93-4.99-4.72-10.52-8.87-16.5-12.33v208.41h-44.04v-264.23c15.44,0,30.26,2.65,44.04,7.52,1.87.66,3.72,1.36,5.54,2.1,14.24,5.76,27.24,13.93,38.5,24.01,11.25-10.08,24.26-18.25,38.5-24.01,1.82-.75,3.67-1.44,5.54-2.1,13.77-4.87,28.6-7.52,44.04-7.52Z"/>
      <polygon class="cls-3" points="849.24 368.76 849.24 632.98 805.2 632.98 805.2 412.79 761.17 412.79 761.17 632.98 717.13 632.98 717.13 368.76 849.24 368.76"/>
    </g>
    <g>
      <path class="cls-2" d="m553.16,729.18c-.02-.05-.03-.11-.04-.16-1.83-7.07-4.51-13.76-7.98-20-.25-.45-.49-.89-.76-1.34-2.84-4.93-6.17-9.53-9.91-13.78-.87-.99-1.76-1.96-2.68-2.91-1.56-1.61-3.19-3.16-4.89-4.65h-27.54c-1.7,1.49-3.32,3.04-4.89,4.65-.92.95-1.81,1.92-2.68,2.91-3.73,4.25-7.07,8.85-9.9,13.78-.27.45-.52.89-.77,1.34-3.46,6.24-6.15,12.93-7.97,20-.02.05-.03.11-.04.16-1.74,6.77-2.65,13.87-2.65,21.17v64.02h21.33v-42.68h42.68v42.68h21.34v-64.02c0-7.3-.92-14.4-2.65-21.17Zm-61.37,21.17c0-7.48,1.28-14.66,3.65-21.33,1.18-3.37,2.64-6.59,4.35-9.66,2.34-4.21,5.13-8.13,8.31-11.68h10.06c3.18,3.55,5.98,7.47,8.32,11.68,1.71,3.07,3.17,6.29,4.34,9.66,2.37,6.67,3.65,13.85,3.65,21.33h-42.68Z"/>
      <path class="cls-2" d="m660.56,686.34v128.03h-21.34v-100.99c-2.9,1.67-5.57,3.69-7.99,5.97-2.99,2.82-5.57,6.08-7.64,9.66h-11.41c-2.07-3.58-4.66-6.84-7.64-9.66-2.42-2.29-5.1-4.31-7.99-5.97v100.99h-21.34v-128.03c7.49,0,14.67,1.28,21.34,3.65.91.31,1.8.65,2.68,1.01,6.91,2.79,13.2,6.76,18.66,11.65,5.46-4.89,11.76-8.86,18.66-11.65.88-.36,1.77-.7,2.68-1.01,6.67-2.37,13.85-3.65,21.34-3.65Z"/>
      <path class="cls-2" d="m451.06,702.65v26.37h-5.7c-2.07-3.58-4.66-6.84-7.64-9.66-2.42-2.29-5.1-4.31-7.99-5.97-3.3-1.91-6.88-3.39-10.67-4.36-3.41-.88-6.98-1.34-10.67-1.34-7.77,0-15.07,2.07-21.34,5.7-6.48,3.75-11.88,9.16-15.64,15.64-3.63,6.27-5.7,13.57-5.7,21.34s2.07,15.07,5.7,21.34c3.75,6.48,9.16,11.88,15.64,15.64,6.27,3.63,13.57,5.7,21.34,5.7,3.69,0,7.25-.47,10.67-1.35,3.79-.97,7.37-2.44,10.67-4.36,2.9-1.67,5.57-3.69,7.99-5.97,2.99-2.82,5.57-6.08,7.64-9.66h5.7v26.37c-5.46,4.89-11.76,8.86-18.66,11.65-.88.36-1.77.7-2.68,1.01-6.67,2.37-13.85,3.65-21.34,3.65s-14.67-1.28-21.34-3.65c-7.95-2.81-15.18-7.15-21.34-12.66-1.77-1.58-3.45-3.26-5.03-5.03-5.51-6.16-9.85-13.38-12.66-21.34-2.37-6.67-3.65-13.85-3.65-21.34s1.28-14.67,3.65-21.34c2.81-7.95,7.15-15.18,12.66-21.34,1.58-1.77,3.26-3.45,5.03-5.03,6.16-5.51,13.38-9.85,21.34-12.66,6.67-2.37,13.85-3.65,21.34-3.65s14.67,1.28,21.34,3.65c.91.31,1.8.65,2.68,1.01,6.91,2.79,13.2,6.76,18.66,11.65Z"/>
    </g>
    <g>
      <path class="cls-2" d="m793.89,185.63v128.03h-21.34v-28.9c-.87,1-1.76,1.97-2.68,2.91-1.56,1.62-3.19,3.17-4.89,4.66-4.24,3.74-8.85,7.07-13.77,9.91-6.61,3.83-13.77,6.79-21.34,8.74-6.82,1.76-13.97,2.69-21.34,2.69v-128.03h21.34v103.04c.91-.31,1.8-.65,2.68-1.01,6.91-2.79,13.2-6.76,18.66-11.65,1.77-1.58,3.45-3.26,5.03-5.03,3.18-3.56,5.97-7.47,8.32-11.68,1.71-3.08,3.17-6.3,4.35-9.66,2.37-6.67,3.65-13.85,3.65-21.34v-42.68h21.34Z"/>
      <path class="cls-2" d="m590.2,185.63v7.57c-3.74,4.24-7.07,8.85-9.91,13.77h-32.77v21.34h21.34c.91,0,1.78.05,2.65.17-1.73,6.76-2.65,13.86-2.65,21.17h-21.34v42.68h32.77c2.83,4.93,6.17,9.53,9.91,13.77v7.57h-64.01v-128.03h64.01Z"/>
      <path class="cls-2" d="m312.81,201.94v26.37h-5.7c-2.07-3.58-4.66-6.84-7.64-9.66-2.42-2.29-5.1-4.31-7.99-5.97-3.3-1.91-6.88-3.39-10.67-4.36-3.41-.88-6.98-1.34-10.67-1.34-7.77,0-15.07,2.07-21.34,5.7-6.48,3.75-11.88,9.16-15.64,15.64-3.63,6.27-5.7,13.57-5.7,21.34s2.07,15.07,5.7,21.34c3.75,6.48,9.16,11.88,15.64,15.64,6.27,3.63,13.57,5.7,21.34,5.7,3.69,0,7.25-.47,10.67-1.35,3.79-.97,7.37-2.44,10.67-4.36,2.9-1.67,5.57-3.69,7.99-5.97,2.99-2.82,5.57-6.08,7.64-9.66h5.7v26.37c-5.46,4.89-11.76,8.86-18.66,11.65-.88.36-1.77.7-2.68,1.01-6.67,2.37-13.85,3.65-21.34,3.65s-14.67-1.28-21.34-3.65c-7.95-2.81-15.18-7.15-21.34-12.66-1.77-1.58-3.45-3.26-5.03-5.03-5.51-6.16-9.85-13.38-12.66-21.34-2.37-6.67-3.65-13.85-3.65-21.34s1.28-14.67,3.65-21.34c2.81-7.95,7.15-15.18,12.66-21.34,1.58-1.77,3.26-3.45,5.03-5.03,6.16-5.51,13.38-9.85,21.34-12.66,6.67-2.37,13.85-3.65,21.34-3.65s14.67,1.28,21.34,3.65c.91.31,1.8.65,2.68,1.01,6.91,2.79,13.2,6.76,18.66,11.65Z"/>
      <path class="cls-2" d="m392.34,189.28c-6.67-2.37-13.85-3.65-21.34-3.65s-14.67,1.28-21.34,3.65c0,0-15.88,7.77-21.34,12.66v95.41c5.46,4.89,11.76,8.86,18.66,11.65.88.36,1.77.7,2.68,1.01,6.67,2.37,13.85,3.65,21.34,3.65s14.67-1.28,21.34-3.65c7.95-2.81,15.18-7.15,21.34-12.66v-95.41c-6.16-5.51-13.38-9.85-21.34-12.66Zm0,97.34c-6.27,3.63-13.57,5.7-21.34,5.7-3.69,0-7.25-.47-10.67-1.35-3.79-.97-7.37-2.44-10.67-4.36v-73.95c3.3-1.91,6.88-3.39,10.67-4.36,3.41-.88,6.98-1.34,10.67-1.34,7.77,0,15.07,2.07,21.34,5.7v73.95Z"/>
      <path class="cls-2" d="m508.85,249.65c-2.07-3.59-4.66-6.85-7.65-9.66-2.42-2.29-5.09-4.31-7.99-5.98-3.3-1.91-6.88-3.39-10.67-4.36-3.41-.88-6.98-1.34-10.67-1.34-7.77,0-15.06,2.07-21.34,5.7v-27.04h31.04l21.34-21.34h-73.71v128.03h42.67c3.69,0,7.26-.46,10.67-1.34,3.79-.97,7.37-2.45,10.67-4.36,2.9-1.67,5.57-3.69,7.99-5.98,2.99-2.82,5.58-6.08,7.65-9.66,3.63-6.27,5.7-13.56,5.7-21.34s-2.07-15.06-5.7-21.33Zm-34.33,42.5c.02.06.03.12.04.17h-2.69c-11.78,0-21.34-9.55-21.34-21.34s9.56-21.33,21.34-21.33h2.69c-.01.05-.02.11-.04.16,10.53,1.31,18.69,10.29,18.69,21.17s-8.16,19.87-18.69,21.17Z"/>
      <path class="cls-2" d="m689.25,206.97c-2.07-3.58-4.66-6.84-7.64-9.66-2.42-2.29-5.1-4.31-7.99-5.97-3.3-1.91-6.88-3.39-10.67-4.36-3.41-.88-6.98-1.34-10.67-1.34h-42.68v128.03h21.34v-48.38c6.27,3.63,13.57,5.7,21.34,5.7,3.69,0,7.25-.47,10.67-1.35,3.79-.97,7.37-2.44,10.67-4.36,2.9-1.67,5.57-3.69,7.99-5.97,2.99-2.82,5.57-6.08,7.64-9.66,3.63-6.27,5.7-13.57,5.7-21.34s-2.07-15.07-5.7-21.34Zm-36.97,42.68c-11.65,0-21.12-9.34-21.33-20.94-.22-11.95,9.94-21.74,21.89-21.74h2.13c-.01.05-.03.12-.04.17,10.53,1.31,18.69,10.28,18.69,21.17s-8.16,19.86-18.69,21.17c.01.05.03.12.04.17h-2.69Z"/>
    </g>
  </g>
</svg>