<?xml version="1.0" encoding="UTF-8"?>
<svg id="_Слой_1" data-name="Слой 1" xmlns="http://www.w3.org/2000/svg" viewBox="0 0 1000 1000">
  <defs>
    <style>
      .cls-1 {
        fill: #194f8b;
      }

      .cls-1, .cls-2, .cls-3, .cls-4, .cls-5, .cls-6, .cls-7, .cls-8, .cls-9, .cls-10, .cls-11, .cls-12, .cls-13, .cls-14, .cls-15 {
        stroke-width: 0px;
      }

      .cls-2 {
        fill: #a5d6f2;
      }

      .cls-3 {
        fill: #bb1736;
      }

      .cls-4 {
        fill: #74afd7;
      }

      .cls-5 {
        fill: #fff;
      }

      .cls-6 {
        fill: #1e79ab;
      }

      .cls-7 {
        fill: #285c8e;
      }

      .cls-8 {
        fill: #f2ced6;
      }

      .cls-9 {
        fill: #e85f79;
      }

      .cls-10 {
        fill: #17648f;
      }

      .cls-11 {
        fill: #ab233d;
      }

      .cls-12 {
        fill: #871c31;
      }

      .cls-13 {
        fill: #196b98;
      }

      .cls-14 {
        fill: #2381c3;
      }

      .cls-15 {
        fill: #e72f51;
      }
    </style>
  </defs>
  <rect class="cls-5" x="0" y="1000" width="1000" height="1000"/>
  <rect class="cls-5" x="0" width="1000" height="1000"/>
  <g>
    <path class="cls-11" d="m383.18,714c.1.06.2.11.31.17-.1-.06-.19-.13-.29-.19,0,0-.02.02-.02.02Z"/>
    <path class="cls-15" d="m332.05,708.44l-.47.33c.13-.14.26-.27.4-.41,0,0,.08.08.08.08Z"/>
    <g>
      <g>
        <g>
          <path class="cls-10" d="m499.94,683.85c.97.7,1.94,1.4,2.91,2.11-25.09-10.86-45.55,6.32-68.05,11.21l.02-.02c-25.22,8.08-50.87,15.05-75.5,24.63-15.28,5.95-33.03,6.19-45.7,18.23-2.63,2.5-3.5,6.86-5.18,10.37.25,17.95.51,35.9.76,53.85-.58.91-2.87-36.31-1.54-55.71,1.06-15.41,15.77-16.76,26.94-20.46,49.49-16.4,99.03-32.68,148.8-48.22,4.64-1.45,10.98,2.55,16.54,4.02Z"/>
          <path class="cls-6" d="m538.45,659.42c0,15.16-.01,30.32-.01,45.48,0,1.02-.09,2.03-.36,3-2.21,7.79-11.74,12.05-20.03,8.38-10.74-4.23-21.3-8.61-31.8-12.82-10.77-4.31-13.18-7.53-13.22-17.74-.08-16.47-3.14-27.03,16.03-30.28.35-.06.71-.13,1.06-.22,8.57-2.2,17.19-4.44,25.93-6.61,9.18-2.28,13.89-1.4,19.09,4.32,1.47,1.62,2.59,3.52,3.16,5.56.09.32.15.63.15.93Z"/>
          <path class="cls-10" d="m420.61,774.83c.51,12.47,1.02,24.93,1.53,37.4-14.06-12.83-28.11-25.66-42.16-38.5,13.55.37,27.09.73,40.64,1.1Z"/>
          <path class="cls-6" d="m787.41,714.22l-175.35,74.62c.21-.33.22-.33.2-.52-14.78,6.38-30.83,15.91-46.15,20.51-13.96,4.19-26.8,11.93-41.69,13.8-4.84.61-10.12,6.64-15.19,10.27,0,.22,0,.45.07.66,33.34-13.92,99.92-41.63,99.92-41.63,1.62-.27,36.62-15.27,38.16-15.83l22.38-8.13,52.75-21.32,32.21-11.72c3.22-1.17,6.36-2.5,9.44-3.98l13.38-6.47c1.47-.71,2.85-1.56,4.14-2.53l3.77-2.85c1.39-1.05,2.35-2.57,2.73-4.26.1-.44-.34-.8-.75-.62Zm-259.54,110.13c-.07-.15-.15-.3-.23-.44.34-.05.35-.06.52.24-.1.07-.19.13-.29.2Z"/>
          <path class="cls-6" d="m505.53,834.87c-19.26,8-38.51,16-57.77,23.99,0,0,.07-.45.07-.45,18.94-8.07,37.88-16.14,56.81-24.21.29.22.59.45.88.67Z"/>
          <path class="cls-11" d="m345.46,834.87c8.05,4.39,16.11,8.78,24.16,13.17-8.05-4.39-16.11-8.78-24.16-13.17Z"/>
          <path class="cls-6" d="m426.52,867.08s-.12-.31-.12-.32c5.28-2.41,10.55-4.82,15.83-7.23.28.41.55.82.83,1.22-5.51,2.11-11.02,4.22-16.53,6.32Z"/>
          <path class="cls-11" d="m331.27,826.74c4.74,2.72,9.48,5.43,14.21,8.15-4.74-2.72-9.48-5.43-14.21-8.15Z"/>
          <path class="cls-11" d="m311.57,814.45c3.84,2.53,7.67,5.06,11.51,7.58-3.84-2.53-7.67-5.06-11.51-7.58Z"/>
          <path class="cls-11" d="m322.99,822.03c2.78,1.6,5.55,3.2,8.33,4.8-2.78-1.6-5.55-3.2-8.33-4.8Z"/>
          <path class="cls-6" d="m443.05,860.75c-.28-.41-.55-.82-.83-1.22.95-.32,1.9-.63,2.85-.95-.02.45-.04.9-.05,1.34-.66.28-1.32.55-1.97.83Z"/>
          <path class="cls-6" d="m505.53,834.87c-.29-.22-.59-.45-.88-.67,1.53-.43,3.05-.86,4.58-1.29-.01.23.01.45.07.66-1.26.43-2.51.87-3.77,1.3Z"/>
          <path class="cls-6" d="m445.03,859.93c.02-.45.04-.9.05-1.34.92-.06,1.84-.11,2.76-.17,0,0-.07.45-.07.45-.91.35-1.82.71-2.74,1.06Z"/>
          <path class="cls-10" d="m405.18,864.48c1.14-1.17,2.28-2.33,3.42-3.5,3.61,9.08,10.96,6.66,17.8,5.78l.12.31c-14.02,5.96-25.35-.65-36.55-7.83,4.97,1.85,9.94,3.69,14.92,5.54,1.04.66,2.07,1.32,3.14,1.93.02.01.39-.6.6-.92-1.15-.44-2.3-.88-3.45-1.32Z"/>
          <path class="cls-10" d="m369.54,848.04c9.15-.46,13.61,7.61,20.51,11.25-6.83-3.75-13.67-7.5-20.51-11.25Z"/>
          <path class="cls-4" d="m784.47,718.14c-.48.28-.99.34-1.13.39,0,0-169.75,69.91-172.75,71.57-14.78,6.38-29.16,14.13-44.47,18.73-13.96,4.19-25.92,11.93-41.65,14.55-4.81.8-10.16,5.9-15.24,9.52-1.52.43-3.05.86-4.58,1.28-18.93,8.07-37.88,16.15-56.82,24.22-.51.03-1.01.06-1.52.1-1.14.28-2.94.73-4.08,1.01-5.28,2.41-10.55,4.82-15.83,7.23-6.85.88-14.19,3.31-17.81-5.78-.33-.9.22-.73.32-1.09.26-15.42,1.28-30.88.59-46.26-.79-17.73,5.5-28.82,23.41-33.76,15.89-4.39,31.48-10.19,46.77-16.43,34.75-14.17,71.47-23.29,104.7-41.57,5.36-2.96,4.76-2.33,6.09-7.35l-107,33.24-35.71-56.35,213.01-65.96c16.08-4.75,24.46-5.67,36.74-1.06l12.08,4.54,40.35,14.97,14.39,5.22c4.82,1.75,9.38,4.15,13.54,7.15l3.55,2.56c1.42,1.02,2.55,2.4,3.27,3.99,1.62,3.62,2.45,7.53,2.43,11.49l-.04,8.11.5,8.12v6.74c.48,6.04,5.61,15.71-3.11,20.86Z"/>
          <path class="cls-4" d="m606.82,711.99s.06.12.06.12c-50.5,18.39-101.22,36.2-151.38,55.48-12.11,4.65-26,6.04-37.21,12.95-6.28,3.88-14.16,3.77-20.32-.31-5.77-3.82-13.52-5.39-18.55-10.15l.49-.36c.94-.31,1.87-.63,2.81-.94h-.02c24.62-8.66,49.04-17.92,73.89-25.85,33.08-10.55,65.11-24.7,99.75-30.15,1.61-.25,18.16-6.34,26.06-9.32,2.53-.96,5.24-1.32,7.93-1.05,7.63.78,17.43,5.1,16.48,9.56Z"/>
          <path class="cls-2" d="m781.96,664.73h-1.11c-.72,0-1.44-.13-2.11-.38-4.91-1.86-6.98-1.85-7.14-1.84l-8.3.75c-2.51.24-4.98.79-7.35,1.64l-24.49,8.81-34.02,11.35-37.42,12.31-30.66,9.98-21.19,6.42c-1.27.39-2.24,1.3-3.25,2.15-5.87,4.93-14.53,2.65-20.53,5.96-33.23,18.28-69.94,27.4-104.7,41.58-15.3,6.24-30.88,12.03-46.77,16.42-17.91,4.95-24.19,16.04-23.41,33.77.68,15.38.5,44.71-.58,46.26-1.54,2.82-.66.2-.66-1.88,0-.67-.33-1.3-.34-1.97-.07-19.43-.13-38.87-.19-58.3-.04-1.89-.1-3.78-.15-5.67-.02-1.07.3-2.12.97-2.96,11.92-14.92,30.98-15.37,46.94-21.5,50.16-19.28,100.88-37.1,151.38-55.48l36.99-11.82,62.91-23.23,53.41-16.69.94-.25,8.21-1.82c.19-.04.38-.1.57-.1.94.04,2.14.13,3.1.61,2.59,1.27,9.88,4.98,8.96,5.91Z"/>
          <path class="cls-9" d="m309.2,804.23c-.25-17.95-.51-35.9-.76-53.85.25,17.95.51,35.9.76,53.85Z"/>
          <path class="cls-4" d="m371.25,760.11c-.97.67-3.08,5.77-3.37,5.61-3.04-1.64-6.77-4.45-9.74-6.2-.69-.4-3.61-1.87-3.18-2.54.14-.22,2.8-1.37,2.82-1.36,3.62,1.87,9.36,2.25,13.47,4.49Z"/>
          <path class="cls-4" d="m379.43,770.96c-2.31-1.05-6.96-1.05-9.26-2.09.17-.35,4.44-5.63,4.49-5.61,3.08,1.05,17.14-1.1,20.2,0,0,0,2.03,1.2-10.1,5.61-.93.34-3.59,2.15-4.53,2.46l-.8-.37Z"/>
          <path class="cls-6" d="m528.16,824.15c-.09.07-.19.13-.28.2-.08-.15-.15-.29-.23-.44.34-.05.35-.06.51.24Z"/>
          <path class="cls-10" d="m405.18,864.48c1.15.44,2.3.88,3.45,1.32-.21.32-.58.93-.6.92-1.06-.61-2.1-1.28-3.14-1.93,0,0,.29-.3.29-.3Z"/>
          <rect class="cls-10" x="404.66" y="863.51" width="2.24" height="2.24"/>
          <path class="cls-6" d="m311.37,814.32c-3.32-2.19-2.17-10.1-2.17-10.1l-.76-53.85c1.68-3.5,2.54-7.87,5.17-10.37,12.67-12.04,30.42-12.28,45.7-18.23,24.63-9.58,50.28-16.56,75.5-24.63.1.06.19.13.29.19-.1-.06-.2-.11-.31-.17,22.49-4.88,42.96-22.07,68.05-11.21,19.8,8.12,54.43,21.57,53.5,26.84-.19,4.83-66.66,19.59-99.75,30.15-21.73,6.93-42.22,18.21-64.62,22.57-5.57,1.08-9.42-1.08-13.57-1.47-1.98-.18-3.68.11-4.81,1.55h0c-.55.71-.12,1.33.59,1.87.57.44.88.68,1.75.87,2.25.51,4.48,1.98,6.35,3.32,8.22,5.89,20.01,7.23,23.78,18.78l.79,2.13c.5,1.35.9,3.62.89,5.06-.2,19.64.52,58.08.33,59.81-.21,1.94.18,3.89-1.18,5.28-.25.26-.58.67-.92,1.11-.69.89-1.88,1.2-2.92.76-3.04-1.29-9.4-3.97-13.09-5.34,0,0,.08.04.08.04-6.9-3.64-11.36-11.71-20.51-11.25,0,0,.09,0,.09,0-8.06-4.39-16.11-8.78-24.16-13.17h.03c-4.74-2.7-9.48-5.42-14.21-8.14l.05.09c-2.78-1.6-5.55-3.2-8.33-4.8,0,0,.09,0,.09,0-3.9-2.57-7.81-5.14-11.71-7.71Zm58.45-52.97c-.25-3.15-8.06-4.37-11.36-4.37-1.75,0-.32,1.56,0,1.75,2.89,1.7,5.11,2.89,8.06,4.5.58.32,1.26.38,1.9.23s1.14-.74,1.4-2.11Z"/>
          <path class="cls-13" d="m502.55,720.84c2.04.79-78.55,2.24-122.32,11.22-1.46.3-25.81,7.86-32.54,7.86-1.59,0-18.15-1.34-17.95-3.37.36-3.73,43.7-21.36,46.98-22.44,12.8-4.17,25.64-8.25,38.49-12.35,12.73-4.07,25.48-8.13,38.25-12.21,5.81-1.85,11.61-3.71,17.43-5.56,1.52-.48,3.02.55,2.97,2.03-.05,1.62-.11,3.25-.19,4.88-.36,6.94,1.09,9.03,7.92,11.51,6.62,2.41,13.23,4.91,19.94,7.29,1.15.4,2.27.61,3.38.62.22,0,.44,0,.66-.02.2-.01.4-.03.59-.06.05,0,.1-.01.15-.02.17-.02.33-.05.49-.09.06,0,.12-.02.18-.04.15-.03.3-.07.45-.11.07-.02.15-.04.22-.07.16-.05.33-.1.49-.16.21-.07.41-.16.61-.25.2-.09.4-.18.59-.3.18-.09.34-.19.51-.3.03-.01.05-.03.07-.05.18-.11.37-.24.55-.38.55-.4,1.08-.87,1.57-1.4.01-.01.03-.02.04-.04.32-.34.61-.71.89-1.1.15-.2.3-.42.43-.63.15-.22.28-.44.41-.67h0c.26-.87.5-1.68.76-2.53.36-10.42.73-20.73,1.09-30.94,0-.21,1.36-2.42,2.22-2.56,1.45-.24,2.74.78,2.7,2.14-.24,8.36-.5,16.79-.72,25.3-.21,8.66,6.67,13.52,15.68,10.8,4.31-1.3-10.36,3.84-1.58,7.27l-31.42,6.73Z"/>
          <path class="cls-6" d="m594.26,650.47c-1.97,5.69-4.37,11.9-6.78,18.62-1.67,4.66-4.21,8-7.81,9.72-6.04,2.88-13.16.83-17.04,8.15-.72,1.36,2.64,10.38,2.64,10.38,1.47,2.78,4.33,3.71,7.86,2.33,16.59-6.48,36.44-14.23,60.63-23.7,15.71-6.14,33.5-13.2,53.89-21.27,6.95-2.75,10.21-6.68,7.7-11.68-2.21-4.4-7.45-5.98-14.11-5.91-1.64.02-3.22-.05-4.79-.02-28.67.48-27.2-3.6-44.97-2.68-2.78.14-21.41,8.03-24.07,9.22-3.09,1.39-7.86.01-10.66,1.54-.99.54-1.83,1.62-1.92,2.49,0,0,0,.01,0,.02-.1.89-.22,1.81-.56,2.79Z"/>
          <path class="cls-13" d="m594.85,649.29c-1.09,4.94-2.48,10.33-3.84,16.17-.94,4.04-2.71,6.95-5.54,8.49-4.78,2.6-11.06.93-13.63,7.43-.48,1.21,3.35,8.95,3.35,8.95,1.54,2.34,4.05,3.03,6.86,1.72,12.99-6.04,27.99-13.01,45.49-21.16,10.93-5.09,22.93-10.76,36.19-17.01,4.41-2.08,6.34-5.09,4.46-9.04-1.66-3.5-5.2-4.87-9.66-4.98-1.1-.03-2.18-.11-3.25-.13-20.16-.33-19.36-3.68-32.48-3.43-2.1.04-15.94,6.32-17.96,7.3-2.35,1.14-6.32-.16-8.47,1.12-.76.45-1.35,1.38-1.35,2.14,0,0,0,0,0,.01,0,.78-.01,1.58-.2,2.43Z"/>
          <path class="cls-4" d="m518.26,709.11v-57.12c0-2.98,4.3-6.26,11.04-8.43,9.45-3.04,18.79-6.05,28.03-9.03,10.85-3.5,19.71-20.55,30.51-23.66,22.15-6.38,42.22-19.24,42.64-7.86.45,12.51-.49,55.54-.12,68.18-.17,1.98-.58,3.76-1.24,5.39-2.4,5.87-8.4,9.82-20.94,14.17-.28.1-.55.19-.83.29-11.5,3.92-23.2,7.88-35.08,11.89-8.72,2.95-17.53,5.93-26.44,8.94-12.98,4.39-27.57,2.97-27.57-2.76Z"/>
          <path class="cls-6" d="m630.35,615.6c-1.82,6.81-5.3,11.57-7.44,15.69-3.48,6.7-9.21,11.95-16.13,14.98l-8.84,3.87-17.6,8.89c-7.35,3.71-15.13,6.49-23.17,8.28l-4.88,1.08c-8.49,1.89-17.33-1.13-22.9-7.81l-5.09-6.1c-1.73-2.08-2.68-4.69-2.68-7.4v-29.48l71.54-22.3c9.28-2.89,19.4-.93,26.93,5.22l9.26-.88c2.67,2.18,1.89,12.63,1,15.96Z"/>
          <path class="cls-13" d="m611.35,608.73c-1.42,5.34-4.16,9.07-5.84,12.3-2.73,5.25-7.22,9.37-12.65,11.74l-6.93,3.03-13.79,6.97c-5.76,2.91-11.86,5.09-18.16,6.49l-3.83.85c-6.66,1.48-13.58-.89-17.95-6.12l-3.99-4.78c-1.36-1.63-2.1-3.68-2.1-5.8v-23.11l56.08-17.48c7.28-2.27,15.21-.73,21.12,4.09l5.78,4.72c2.09,1.71,2.96,4.49,2.26,7.1Z"/>
        </g>
        <path class="cls-2" d="m523.33,668.57v27.31c0,2.93.49,5.84,1.44,8.6l.46,1.34c.57,1.65,1.64,3.09,3.05,4.12l.76.55c1.4,1.02,3.15,1.43,4.86,1.16l5.67-.91-3.14-2.09c-2.35-1.57-4.21-3.76-5.38-6.33l-.76-1.68c-.65-1.44-1.14-2.96-1.45-4.51l-5.52-27.55Z"/>
        <path class="cls-2" d="m645.93,672.79l-10.88,2.82c-1.75.45-3.46,1.08-5.09,1.86l-23.26,11.17c-1.56.75-3.15,1.41-4.78,1.98l-1.96.69c-1.71.6-3.14,1.8-4.04,3.36l-.62,1.09c-.36.63.2,1.38.9,1.22l7.96-1.79c3.09-.7,6.11-1.68,9.02-2.93l13.63-5.87,16.83-7.86,7.62-3.39c.81-.36.71-1.55-.15-1.76l-2.4-.6c-.91-.23-1.87-.23-2.78,0Z"/>
      </g>
      <path class="cls-4" d="m383.1,764.97l7.69,11.24s-15.36-7.47-17.47-8.74c-4.37-2.62-5.42-2.26-7.86-4.37-1.82-1.57-2.1-1.58-2.1-1.6l4.13-2.68s1.46.79,4.08,1.66c7.97,2.66,10.48,4.37,11.53,4.49Z"/>
    </g>
    <g>
      <g>
        <path class="cls-6" d="m601.81,136.2c6.19-.55,12.39-1.1,18.58-1.66.64.29,1.28.57,1.92.86-6.82.58-13.64,1.16-20.46,1.74l-.04-.95Z"/>
        <path class="cls-6" d="m596.26,137.29c-.96-.29-1.92-.59-2.87-.88,2.81-.07,5.61-.14,8.42-.21.01.32.03.63.04.95-1.86.05-3.73.09-5.59.14Z"/>
        <path class="cls-6" d="m622.31,135.41c-.64-.29-1.28-.57-1.92-.86,2.2-.07,4.39-.13,6.59-.2.3.31.61.63.91.94-1.86.04-3.72.08-5.58.12Z"/>
        <path class="cls-6" d="m575.98,138.04c5.8-.54,11.61-1.08,17.41-1.63.96.29,1.92.59,2.87.88-6.2.57-12.4,1.13-18.6,1.7-.56-.32-1.12-.64-1.68-.95Z"/>
        <path class="cls-6" d="m570.16,139.15c-.34-.31-.69-.63-1.03-.94,2.28-.06,4.56-.12,6.84-.18.56.32,1.12.64,1.68.95-2.5.05-5,.11-7.5.16Z"/>
        <path class="cls-6" d="m551.62,140.06c-1.13-.08-2.25-.15-3.38-.23,2.61-.24,5.23-.49,7.83-.73-1.49.32-2.97.64-4.46.96Z"/>
        <g>
          <path class="cls-3" d="m384.05,418.02c-.57.06-1.13.12-1.7.18.08-.3.16-.61.23-.91.49.24.98.49,1.47.73Z"/>
          <path class="cls-2" d="m747.6,145.37s.1,0,.1,0c10.52,2.73,22.61,4.92,32.76,7.87,5.38,1.57,4.25,1.62,2.62,1.75-46.17,3.73-96.25,7.04-142.42,10.77-23.8,1.64-47.61,3.28-71.41,4.92l.08-.04c-23.21,1.56-46.41,3.11-69.61,4.71-.21.01-.38.53-.56.82.14.06.29.11.43.17-5.07.51-10.14,1.02-15.21,1.54-11.4.75-22.81,1.51-34.21,2.26-.69.18-1.38.35-2.07.53-14.19,1.02-24.74,1.8-38.94,2.81l-4.49,5.61c-10.82,1.16-20.73-3.09-31.55-1.93-.74.02-3.62,1.91-4.36,1.93-5.52.42-8.9-1.03-14.42-.61-.69.19-1.39.38-2.08.56-17.44,1-37.43,8.57-54.19,5.66-26.09-4.52-49.36-17.22-74.95-24.59-2.21-.64-4.22-1.95-6.32-2.95,1.86-.06,3.71-.13,5.56-.19,13.91-1.21,27.82-2.42,41.74-3.63,9-.67,17.99-1.34,26.99-2,5.27-.57,10.53-1.14,15.8-1.71,2.18-.05,4.35-.11,6.53-.17,5.89-.57,11.77-1.13,17.65-1.7.97-.04,1.93-.08,2.9-.12,6.8-.59,13.6-1.17,20.39-1.76,9.28-.68,18.56-1.37,27.85-2.05,5.61-.53,11.21-1.07,16.82-1.6,1.85-.07,3.71-.15,5.57-.22,5.57-.58,11.13-1.15,16.7-1.73,1.91-.03,3.81-.05,5.72-.08,13.62-1.19,27.24-2.37,40.86-3.56,3.41-.38,6.82-.76,10.23-1.15,16.11-.94,32.23-1.87,48.34-2.81,6.52-.55,13.05-1.09,19.57-1.64,1.87-.07,3.73-.14,5.6-.22,6.19-.56,12.38-1.12,18.56-1.69,2.5-.05,5-.11,7.5-.16,6.2-.57,12.4-1.13,18.6-1.7,1.86-.05,3.73-.09,5.59-.14,6.82-.58,13.64-1.16,20.46-1.74,1.86-.04,3.72-.08,5.58-.12,15.81-1.3,31.61-2.6,47.42-3.9l4.63.27c22.55,4.57,45.1,9.14,67.66,13.71Z"/>
          <path class="cls-4" d="m655.52,590.98c-.29.18-2.17.8-2.46.97-.96-.23-1.91-.46-2.87-.68,11.15-7.97,22.74-45.29,20.27-46.56.11-.11.21-.21.3-.31,2.87-3.18,5.15-6.84,7.03-10.69,3.67-7.54,7.38-15.06,10.79-22.72,7.18-16.12-6.81-52.1-21.49-55.83-1.18-.55-2.36-1.1-3.53-1.66-12.56-4.38-25.12-8.76-37.67-13.14-.02-.07-.04-.21-.07-.21-3.89-.49-5.18,1.94-9.07,1.43-4.77.91-10.94,4.7-15.71,5.61l-1.51-2.96c-.72-1.43-2.41-2.07-3.9-1.48-1.34.52-2.67,1.05-4.01,1.57-.22-.12-.46-.15-.71-.09-.11-12.65-.23-25.3-.34-37.94-.31-8.22-2.72-15.15-11.23-18.35-.55-.42-1.1-.83-1.65-1.25l-1.48-.19c-12.4-3.45-23.38-2.05-35.78-5.5-4.59.25-10.21-4.36-14.8-4.12l-.07.03c-2.5.15-5.01.29-7.51.44-9.22,1.28-18.43,2.56-27.65,3.85.82-3.21,1.64-6.42,2.46-9.63l.52.41c.13-1.03.26-2.06.39-3.08,2.03-35.68-14-63.49-37.06-64.28-1.01-.57-2.03-1.13-3.04-1.7-1.16-.36-2.37-.61-3.48-1.09-31.86-13.89-69.13-5.21-82.9,19.32-.6.69,1.19,1.77.59,2.46l-2.24,1.12c-.55.66-.57.46-1.12,1.12l-4.01,5.3-.8.82c-1.41,1.05-3.28,1.82-4.12,3.21-14.36,23.79-18.44,49.89-17.1,77.18-5.38.92-10.76,1.84-16.15,2.76-4.97.85-9.39,3.69-12.22,7.86l-1.97,2.9c-4.4.74-12.42-6.57-16.23-4.52l-3.95.04c-2.75-1.67-2.49-2.13-3.77-3.2s-2.25-2.47-2.77-4.06h0c-.34-1.05-.52-2.14-.52-3.24-.15-48.4-.3-96.8-.46-145.2.44-16.83.87-33.66,1.31-50.5.04-1.56.37-3.1.96-4.55h0s-.02.04-.02.04c.31-.63.62-1.26.93-1.89h0c.33-.62.67-1.24,1-1.87l-.07.07c.29-.33.57-.66.86-1l.06-.11c.4-.58.81-1.17,1.21-1.75,8.4-12.35,21.5-11.7,34.13-12.36.96-.19,1.91-.39,2.87-.58,9.52-.72,29.95-2.53,30.64-2.72,3.09-.14,14.36-1.02,16.29-1.25l2.49-.07,21.2-1.82c.61-.05,1.22-.17,1.81-.34l.27-.08c.55-.16,1.1-.28,1.67-.34,2.51-.3,5.01-.6,7.52-.9l-.07.03c14.19-1.02,44.66-3.57,44.66-3.57,11.4-.75,22.81-1.51,34.21-2.26,5.07-.51,10.14-1.02,15.21-1.54,23.25-1.9,46.5-3.79,69.74-5.69l-.08.04c23.8-1.64,47.61-3.28,71.41-4.92,44.43-3.59,88.85-7.18,133.28-10.77,2.15-.11,4.3-.21,6.46-.32l2.01-.45.94-.06c1.87.16,3.73.33,5.6.49,1.25.11,2.49.34,3.7.7,4.28,1.29,9.97,3.73,12.91,5.03,1.27.56,2.42,1.35,3.4,2.33.45.45.9.9,1.35,1.35l-.03-.02c.32.32.64.64.96.96l.91.91c.63.94,1.26,1.88,1.9,2.82,0,0,3.36,7.76,3.58,11.73.91,17.17,1.26,34.37,1.82,51.57-.26,20.76-1.66,36.44-1.66,37.35-.04,15.5-.05,31-.07,46.5-.61,37.57-.84,75.15-1.96,112.7-.93,31.07,3.87,63.46-3.24,93.25-.3,1.27-.74,2.52-1.3,3.7-.3.64-.64,1.23-.91,1.5,0,0-3.16,5.13-3.72,5.59,0,0-.3.43-.67.99-.82,1.21-1.75,2.34-2.78,3.37l-2.11,2.11c-45.12,22.33-94.66,31.96-141.54,49.24l-.87,1.04s-1.51.9-3.09,1.58Z"/>
          <path class="cls-13" d="m650.79,580.86c-.8.48-1.59.97-2.41,1.46l-1.1-1.66c10.76-7.59,15.85-18.17,13.48-19.38.12-.12,33.1-6,33.2-6.12,2.84-3.18,15.6-2.3,17.47-6.12,3.46-7.02,17.76,1.01,20.97-6.12,14.85-6.99,65.68-13.92,51.55-17.47-1.13-.53-122.76-75.64-123.89-76.16-12.09-4.18-24.18-8.36-36.27-12.53-.02-.07-.04-.2-.07-.2-3.74-.47-4.99,1.86-8.73,1.37-4.59.86-10.53,4.49-15.13,5.35l-1.45-2.83c-.92-1.79-3.46-2.29-5.03-.51l-2.58.59c-.22-.11-.44-.14-.68-.09-.11-12.07-.22-24.13-.33-36.2-.3-7.84-2.62-14.45-10.81-17.5-.53-.4-1.06-.8-1.59-1.2l-1.42-.19c-11.94-3.29-22.52-1.96-34.45-5.25-4.41.24-9.84-4.16-14.25-3.93l-.06.03c-2.41.14-4.82.28-7.23.42-8.87,1.22-17.75,2.45-26.62,3.67.79-3.06,1.58-6.12,2.37-9.19l.5.39c.12-.98.25-1.96.37-2.94,1.96-34.04-13.48-60.56-35.68-61.32-.98-.54-1.95-1.08-2.93-1.62-1.12-.34-2.29-.58-3.35-1.04-30.68-13.25-66.56-4.97-79.83,18.43-.58.66,1.14,1.69.56,2.35l-2.16,1.07c-.53.63-.55.44-1.08,1.07l-3.86,5.05-.77.78c-1.36,1-3.16,1.73-3.97,3.06-13.83,22.69-17.75,47.59-16.46,73.62-5.18.88-10.36,1.75-15.55,2.63-4.79.81-9.04,3.52-11.77,7.5l-1.9,2.77c-4.03.67-11.24-5.62-15.09-4.53l-3.84.37c-3.23-.6-4.65-2.26-5.12-3.4-.39-.93-1.01-1.62-1.33-2.57l-.41-1.23c-.29-.89-.45-1.82-.45-2.76-.15-46.23-.29-92.46-.44-138.69.42-16.06.84-32.11,1.26-48.17.04-1.49.35-2.96.93-4.34h0s-.02.04-.02.04c.3-.6.6-1.21.89-1.81h0c.32-.59.64-1.18.96-1.78l-.07.07c.27-.32.55-.63.82-.95l.06-.1c.39-.56.78-1.11,1.17-1.67,8.08-11.78,20.7-11.16,32.86-11.79.92-.18,1.84-.37,2.76-.55,9.17-.69,28.83-2.41,29.5-2.59,2.98-.13,13.83-.97,15.68-1.19l2.4-.06,20.41-1.74c.59-.05,1.17-.16,1.74-.33l.26-.08c.53-.15,1.06-.26,1.61-.33,2.41-.29,4.83-.57,7.24-.86l-.07.03c13.67-.97,43-3.41,43-3.41,10.98-.72,21.96-1.44,32.94-2.16,4.88-.49,9.77-.98,14.65-1.46,22.39-1.81,44.77-3.62,67.16-5.43l-.07.04c22.92-1.57,45.84-3.13,68.76-4.7,42.78-3.43,85.55-6.85,128.33-10.28,2.07-.1,4.14-.2,6.22-.31,0,0,.6,0,1.52,0,5.26-.02,10.01,0,15.11,1.27,3.46.86,3.49.87,6.03,2.56,1.88,1.25,3.64,2.69,5.25,4.28l.86.86c.31.31.89.89.89.89.09.09.19.19.28.28.42.43.81.89,1.15,1.38l.31.45c.61.89,1.07,1.77,1.42,2.71,1.21,3.3,2.85,6.58,3.03,9.94.88,16.38,1.22,32.79,1.75,49.19-.25,19.8-1.6,34.77-1.6,35.63-.03,14.79-.05,29.58-.06,44.36-.59,35.84-.81,71.69-1.89,107.51-.91,30.12,3.41,60.45-3.46,90.35,0,0-1.99,6.62-2.59,7.82,0,0-1.75,3.49-3.49,5.24,0,0-1.75.87-3.49,2.62l-4.37,2.62c-43.45,21.3-87.92,27.26-133.06,43.74-.28.33-.56.66-.84,1l.04-.03c-1.52.65-3.03,1.31-4.55,1.96Z"/>
          <path class="cls-4" d="m643.63,575.63c-.27.16-.55.32-.82.48-.9-.22-1.81-.44-2.71-.66,10.6-7.24,21.77-41.52,19.44-42.71.12-.12.23-.23.34-.34,2.82-3.05,5.05-6.56,6.92-10.24,3.44-6.76,6.91-13.52,10.11-20.39,6.91-14.83-6.2-48.18-20.12-51.73-1.12-.52-2.23-1.04-3.35-1.55-11.9-4.13-23.79-8.25-35.68-12.38-.02-.07-.04-.19-.07-.2-3.68-.48-4.92,1.76-8.6,1.27-4.52.81-10.38,4.28-14.9,5.08l-1.41-2.74c-.8-1.54-2.84-2.11-4.38-1.02l-3.45.95c-.11-.01-.21,0-.32.02-.06-11.68-.11-23.35-.17-35.04-.26-7.59-2.52-14.01-10.56-17.01-.52-.39-1.04-.78-1.56-1.17l-1.4-.19c-11.72-3.25-22.11-2.01-33.82-5.26-4.33.21-9.64-4.08-13.97-3.87l-.06.02c-2.36.12-4.73.25-7.09.37-8.7,1.14-17.4,2.28-26.09,3.42.78-2.96,1.56-5.91,2.34-8.87l.49.38.37-2.84c2.01-32.93-13.03-58.67-34.77-59.48-.95-.53-1.91-1.05-2.86-1.58-1.1-.34-2.24-.57-3.28-1.02-29.96-12.92-65.01-5.02-77.96,17.54-.57.63,1.11,1.64.55,2.27l-2.11,1.03c-.52.6-.54.42-1.05,1.03l-3.76,4.86-.76.76c-1.33.96-3.08,1.66-3.87,2.94-13.47,21.83-13.87,60.44-12.63,85.51-5.04.81-14.79-.06-19.82.75-4.65.75-7.51-9.61-10.15-5.79l-1.84,2.65c-3.13.5-5.44-.75-7.88-.5s-4.92.14-7.28-.59c-3.67-1.13-4.65-1.51-5.28-2.48-.31-.48-.69-.92-1.07-1.34-.41-.46-.76-.9-1.07-1.31-1.26-1.68-1.94-3.72-1.97-5.82-.19-14.8-1.18-94.53-1.31-135.28.41-15.5.82-31,1.23-46.51.04-1.45.34-2.87.9-4.2h0s-.02.04-.02.04c.29-.58.58-1.16.87-1.75h0c.31-.57.62-1.14.94-1.72l-.06.07c.27-.31.53-.61.8-.92l.06-.1c.38-.54.76-1.07,1.14-1.61,7.86-11.39,20.14-10.77,31.98-11.38.9-.18,1.79-.36,2.69-.53,8.93-.66,28.11-2.31,28.76-2.49,2.91-.13,13.5-.93,15.31-1.14l2.34-.06,19.94-1.67c.58-.05,1.15-.15,1.7-.31l.25-.07c.51-.15,1.04-.25,1.57-.32,2.36-.28,4.72-.55,7.08-.83l-.06.03c13.37-.93,42.1-3.28,42.1-3.28,10.76-.69,21.54-1.39,32.31-2.08,4.79-.47,9.59-.94,14.39-1.42,22-1.75,44.03-3.5,66.09-5.25l-.07.03c22.61-1.52,45.24-3.04,67.9-4.56,42.36-3.34,84.82-6.68,127.36-10.03,2.06-.1,4.13-.2,6.19-.3l1.93-.42.9-.06c2.35.2,4.71.41,7.07.61,5.35,2.02,10.71,4.04,16.06,6.06v-.03c.88.88,1.78,1.75,2.67,2.63h-.03c.31.28.61.58.92.88l-.03-.02c.3.3.61.6.91.9,0,0,0-.03,0-.03.6.88,1.2,1.76,1.8,2.63l-.03-.04c1.18,3.67,3.21,7.29,3.38,11.01.76,16.04.97,32.11,1.38,48.15-.39,19.36-1.85,33.99-1.85,34.84-.14,14.45-.26,28.89-.39,43.32-.85,34.95-1.32,69.88-2.66,104.75-1.12,29.28,2.95,58.79-4.09,87.76,0,0-.47,2.93-1.62,5.9-.82,2.13-2.21,3.99-3.98,5.42-.58.47-1.22.98-1.78,1.45-1.12.92-2.39,1.66-3.74,2.18-1.02.39-2.06.8-2.26.9-42.41,19.34-88.61,27.71-132.23,42.87-.28.32-.55.64-.83.95l.04-.02c-1.5.62-2.99,1.23-4.49,1.85Z"/>
          <path class="cls-6" d="m280.45,265.68v.02c.16,48.45.3,96.92.46,145.37,0,.97.12,1.98.63,2.81.91,1.49,5.22,5.05,7.71,7.31l.05.45-5.47.25h-.02c-3.37-.93-6.81-1.67-10.11-2.83-27.36-9.62-82.09-29.03-82.12-29.03-.99-.23-3.44-2.07-5.55-3.1-.49-.24-.92-.56-1.3-.94l-.25-.25c-.29-.29-.53-.64-.69-1.02-.35-.83-.77-1.86-.77-1.86-.13-61.02-.26-122.04-.39-183.06.06-.38.02-2.39.22-3.72.43-2.85.67-5.19,1.75-7.86l3.9-7.49.02-.04c.15-.19,1.42-1.78,2.03-2.63h0c.61-.63,1.23-1.25,1.84-1.87,1.12-.97,3.42-2.67,3.63-2.83l.04-.02c6.89-2.04,13.79-4.09,20.68-6.13h.1c2.08,1,4.08,2.3,6.27,2.93,25.59,7.37,50.86,16.68,76.95,21.21,16.77,2.9-4.97.46-13.37,12.82-.4.59-.8,1.16-1.21,1.75l-.05.1c-.2.23-.4.46-.59.69l-.93,1.51c-.37.84-.79,1.64-1.18,2.45-.59,1.44-.92,2.99-.96,4.54-.44,16.83-.87,33.66-1.31,50.48v.02Z"/>
          <path class="cls-6" d="m747.6,145.37c-22.54-4.56-45.08-9.13-67.61-13.69-2.8,0-5.58,0-8.39.02h0c-14.57,1.2-29.14,2.4-43.71,3.6-.3-.31-.6-.63-.91-.94,14.23-1.17,28.47-2.34,42.71-3.51,4.19-.31,7.68-.31,11.33.03,22.05,4.6,44.11,9.21,66.17,13.8.12.24.26.48.42.7Z"/>
          <path class="cls-6" d="m426.18,149.24c13.26-1.16,26.52-2.32,39.78-3.48.64.3,1.27.6,1.91.9-13.62,1.18-27.24,2.37-40.86,3.56-.27-.32-.55-.65-.82-.97Z"/>
          <path class="cls-6" d="m249.19,163.39c2.19-.1,4.37-.2,6.55-.3,1.75.02,3.5.04,5.25.06,1.03.07,2.06.13,3.09.2-13.91,1.21-27.82,2.42-41.73,3.63-.03-.34-.07-.69-.1-1.03,7.44-.63,14.89-1.26,22.33-1.89,1.54-.22,3.07-.44,4.61-.66Z"/>
          <path class="cls-6" d="m803.18,159.36c-1.75-.87-7.15-2.79-10.64-3.94-1.2-.4-2.44-.65-3.69-.77-1.52-.14-3.03-.27-4.55-.41-.63,0-1.46-.11-2.09-.12-.61-.1-1.02-.11-1.63-.22-.07-.02-.15-.03-.23-.05-1.7-.45-22.18-5.76-32.65-8.48.91.02,1.83.03,2.73.04,11.25,2.5,22.5,5.01,33.75,7.51.93.11,1.85.23,2.78.35,0,0,2.43.54,3.63.81.93.19,1.86.38,2.79.56.51.1,4.55,1.22,9.79,4.72Z"/>
          <path class="cls-6" d="m478.21,144.73c6.79-.41,13.59-.83,20.39-1.24,1.27-.19,2.55-.37,3.82-.56,7.1-.38,14.2-.76,21.3-1.15.91.3,1.81.61,2.72.91-16.11.94-32.23,1.87-48.34,2.81v.02c.04-.26.08-.53.12-.79Z"/>
          <path class="cls-6" d="m363.75,154.05c5.3-.36,10.59-.72,15.89-1.08.85.29,1.71.58,2.56.87-9.28.68-18.56,1.37-27.85,2.05-1.23-.23-2.47-.46-3.7-.7,3.37-.26,6.74-.52,10.11-.78,1-.12,1.99-.24,2.99-.36Z"/>
          <path class="cls-6" d="m222.25,165.94c.03.34.07.69.1,1.03-1.86.06-3.71.13-5.56.19-6.91,2.05-13.83,4.1-20.74,6.16,7.38-7.27,16.9-6.94,26.2-7.38Z"/>
          <path class="cls-6" d="m264.09,163.35c-1.03-.07-2.06-.13-3.09-.2.12-.29.26-.56.41-.83,2.45-.09,4.9-.19,7.35-.28.98-.16,1.95-.33,2.93-.49,5.88-.38,11.76-.76,17.64-1.14.59.31,1.17.63,1.76.94-9,.67-17.99,1.34-26.99,2.01Z"/>
          <path class="cls-6" d="m350.65,155.19c1.23.23,2.47.46,3.7.7-6.8.59-13.6,1.17-20.39,1.76-.01-.32-.02-.63-.04-.95,5.57-.5,11.15-1,16.72-1.5Z"/>
          <path class="cls-6" d="m526.43,142.7c-.91-.3-1.81-.61-2.72-.91,4.95-.31,9.91-.62,14.86-.93,2.48.07,4.95.13,7.43.2-6.52.55-13.05,1.09-19.57,1.64Z"/>
          <path class="cls-6" d="m311.67,158.53c5.26-.51,10.51-1.02,15.77-1.52,1.21.25,2.41.51,3.62.76-5.88.56-11.77,1.13-17.65,1.7-.58-.31-1.15-.62-1.73-.93Z"/>
          <path class="cls-6" d="m402.91,151.12c5.3-.45,10.6-.9,15.89-1.35.83.17,1.65.35,2.48.52-5.56.57-11.13,1.15-16.7,1.73l-1.68-.9Z"/>
          <path class="cls-6" d="m382.2,153.84c-.85-.29-1.71-.58-2.56-.87,5.83-.54,11.65-1.07,17.47-1.61.64.29,1.27.59,1.9.88-5.61.53-11.21,1.07-16.82,1.6Z"/>
          <path class="cls-6" d="m291.07,161.34c-.59-.31-1.17-.63-1.76-.94,5.52-.55,11.03-1.1,16.55-1.65.34.29.68.58,1.01.87-5.27.57-10.53,1.14-15.8,1.71Z"/>
          <path class="cls-6" d="m556.07,139.1c4.35-.3,8.71-.59,13.06-.89.34.31.69.63,1.03.94-6.19.56-12.38,1.12-18.56,1.69.05-.26.06-.52.02-.78,1.48-.32,2.97-.64,4.45-.96Z"/>
          <path class="cls-7" d="m182.68,199.48v.04c-.04.24-.06.49-.06.73.13,60.86.26,121.73.39,182.6-.86-4.19-2.47-8.38-2.46-12.57.12-56.98.94-173.58,1.29-174.85,0-.02.01-.03.01-.05.98-7.17,4.34-10.88,6.63-14.69-1.28,3.15-1.58,1.8-4.77,11.88-.55,1.74-.76,5.11-1.03,6.91Z"/>
          <path class="cls-6" d="m551.62,140.06c.04.26.04.52-.02.78-1.87.07-3.73.15-5.6.22-2.48-.07-4.95-.13-7.43-.2,3.22-.34,6.45-.68,9.67-1.02,1.12.08,2.25.15,3.38.23Z"/>
          <path class="cls-6" d="m467.86,146.66c-.64-.3-1.27-.6-1.91-.9,2.81-.15,5.63-.31,8.44-.46,1.23.07,2.47.15,3.7.22,0,0-.01-.02-.01-.02-3.41.38-6.82.77-10.23,1.15Z"/>
          <path class="cls-6" d="m421.28,150.29c-.83-.17-1.65-.35-2.48-.52,2.46-.18,4.92-.35,7.38-.53.27.32.55.65.82.97-1.91.03-3.82.05-5.72.08Z"/>
          <path class="cls-6" d="m399.02,152.24c-.63-.29-1.27-.59-1.9-.88,1.93-.08,3.86-.16,5.79-.24.56.3,1.12.6,1.68.9-1.86.08-3.71.15-5.57.23Z"/>
          <path class="cls-6" d="m306.87,159.63c-.34-.29-.68-.58-1.01-.88,1.94-.07,3.87-.15,5.81-.22.58.31,1.16.62,1.73.93-2.18.06-4.35.11-6.53.17Z"/>
          <path class="cls-6" d="m331.06,157.77c-1.21-.25-2.41-.51-3.62-.76,2.16-.1,4.32-.21,6.48-.31.01.32.02.63.04.95-.97.04-1.93.08-2.9.12Z"/>
          <path class="cls-1" d="m195.91,173.13c-1.17,1.01-2.34,2.02-3.51,3.03,1.17-1.01,2.34-2.02,3.51-3.03Z"/>
          <path class="cls-6" d="m261.4,162.32c-.15.27-.29.55-.41.83-1.75-.02-3.5-.04-5.25-.06,1.89-.26,3.77-.51,5.66-.77Z"/>
          <path class="cls-14" d="m249.19,163.39c-1.54.22-3.07.44-4.61.66,1.54-.22,3.07-.44,4.61-.66Z"/>
          <path class="cls-14" d="m502.42,142.93c-1.27.19-2.54.37-3.82.56,1.27-.19,2.54-.37,3.82-.56Z"/>
          <path class="cls-6" d="m478.1,145.53c-1.23-.07-2.47-.15-3.7-.22,1.27-.19,2.54-.38,3.81-.57-.04.26-.07.53-.11.79Z"/>
          <path class="cls-6" d="m750.43,145.42c-.91-.02-2.83-.05-2.83-.05-.15-.22-.29-.46-.41-.7,1.08.25,2.16.5,3.25.75Z"/>
          <path class="cls-14" d="m814.05,168.75c-.63-.94-1.26-1.88-1.9-2.82.63.94,1.26,1.88,1.9,2.82Z"/>
          <path class="cls-1" d="m192.41,176.15c-.62.62-1.24,1.25-1.86,1.87.62-.62,1.24-1.25,1.86-1.87Z"/>
          <path class="cls-14" d="m363.75,154.05c-1,.12-1.99.24-2.99.36,1-.12,1.99-.24,2.99-.36Z"/>
          <path class="cls-14" d="m271.68,161.54c-.98.16-1.95.33-2.93.49.98-.16,1.95-.33,2.93-.49Z"/>
          <path class="cls-14" d="m811.25,165.02c-.32-.32-.64-.64-.96-.96.32.32.64.64.96.96Z"/>
          <path class="cls-13" d="m359.79,331.9s-.02.03-.03.05c-2.16,3.28-3.58,6.99-4.17,10.88-.41,2.72-.82,5.44-1.23,8.16-3.3,5.03-1.59,10.05.03,15.07,1.56,5.17,3.11,10.34,4.67,15.52,13.19,23.64-.25,29.5-20.55,30.77-1.34-27.29,2.74-53.39,17.1-77.18.86-1.42,2.77-2.19,4.2-3.27Z"/>
          <path class="cls-2" d="m499.59,176.34c-.14-.06-.29-.11-.43-.17.19-.28.36-.8.56-.82,23.2-1.59,46.41-3.15,69.61-4.71-23.25,1.9-46.5,3.79-69.74,5.69Z"/>
          <path class="cls-2" d="m373.11,187.16c10.82-1.16,21.64-2.32,32.46-3.48-2.79.33-5.58.67-8.37,1-.66.19-1.31.39-1.97.58-7.37.63-14.75,1.27-22.12,1.9Z"/>
          <path class="cls-2" d="m354.33,188.47c5.52-.42,11.05-.84,16.57-1.25-1.47.08-2.94.15-4.42.23-.96.2-1.91.4-2.87.6-3.09.14-6.19.28-9.28.42Z"/>
          <path class="cls-1" d="m294.54,420.96c-1.75.22-3.5.45-5.24.67,0,0-.05-.45-.05-.45"/>
          <path class="cls-15" d="m577.7,386.67c-.88.01-1.77.03-2.65.04.39-.08.78-.16,1.17-.24.5.07.99.13,1.48.19Z"/>
          <path class="cls-1" d="m285.48,205.88c.4-.58.81-1.16,1.21-1.75-.4.58-.81,1.16-1.21,1.75Z"/>
          <path class="cls-1" d="m282.71,210.67c.31-.63.62-1.26.93-1.89-.31.63-.62,1.26-.93,1.89Z"/>
          <path class="cls-1" d="m281.83,212.82c.3-.73.6-1.46.9-2.18-.3.73-.6,1.46-.9,2.18Z"/>
          <path class="cls-1" d="m283.63,208.78c.33-.62.67-1.25,1-1.87-.33.62-.67,1.25-1,1.87Z"/>
          <path class="cls-1" d="m284.57,206.98c.29-.33.57-.66.86-1-.29.33-.57.66-.86,1Z"/>
          <path class="cls-8" d="m388.85,382.69c-.36-.89-.73-1.78-1.09-2.68.05-.32.11-.65.16-.97.31,1.22.62,2.43.94,3.65Z"/>
          <path class="cls-8" d="m490.22,396.39c.63.41,1.26.82,1.89,1.22-.63-.41-1.26-.82-1.89-1.22Z"/>
          <path class="cls-9" d="m225.78,413.8c-.92.23-1.51.56-1.98.43-.37-.09-.59-.74-.88-1.15.56-.13,1.13-.37,1.68-.34.3.01.57.49,1.18,1.05Z"/>
          <path class="cls-3" d="m289.42,440.5c-.36.31-.72.62-1.09.92.36-.31.72-.62,1.09-.92Z"/>
          <path class="cls-13" d="m354.38,366.05c-1.62-5.02-3.32-10.04-.03-15.07,0,5.02.02,10.04.03,15.07Z"/>
          <path class="cls-14" d="m356.23,338.55c.64-1.39,1.28-2.78,1.92-4.17-.64,1.39-1.28,2.78-1.92,4.17Z"/>
          <path class="cls-3" d="m608.85,463.75c-.47.32-.94.63-1.4.95.47-.32.94-.63,1.4-.95Z"/>
          <path class="cls-8" d="m433.91,307.25c-1.11.34-1.66.55-2.23.64-.06.01-.23-.61-.35-.94.42-.13.84-.35,1.27-.37.28,0,.57.27,1.31.67Z"/>
          <path class="cls-7" d="m260.16,414.49c-14.59-5.61-24.67-7.69-37.03-14.59-1.73-.96-10.1-6.73-8.98-7.86,1.12-4.49,17.96,1.25,22.44,3.37,5.79,2.72,11.09,5,16.83,7.86,5.85,2.91,11.61,5.02,17.6,7.48,3.64,1.5,3.94,1.69,5.24,2.06,1.72.5,3.35,1.26,4.91,2.16,3.09,1.78,3.89,3.01,10.99,3.3,4.49,0,22.15-.58,22.98-.42-1,.54-21.92,3.41-22.98,3.79-10.01,3.56-23.03-3.79-32.01-7.15Z"/>
          <path class="cls-4" d="m276.09,209.69c-2.3,1.32-2.78.97-4.62,1.46-3,.8-8.32-1.61-13.42-3.37-15.3-5.29-32.84-8.33-48.91-12.99-7.45-2.16-19.45-9.87-10.48-15.4,3.13-.43,7.64.5,10.1,1.12,9.95,2.53,19.29,8.54,29.28,10.98,13.36,3.27,20.93,13.2,36.78,10.37,2.27-.41,13.39-6.76,15.86-6.76,2.24,0-5.61,4.49-6.73,5.61-3.37,3.37-6.05,7.94-7.86,8.98Z"/>
          <path class="cls-2" d="m717.07,174.34l20.85-2.37h.03s18.21-1.31,18.21-1.31c5.75-.41,23.8.14,23.8.14,3.36.01,6.85,1.68,11.35,4.46,0,0,8.08,5.22,10.79,16.63.21.87.92,28.26.92,28.26,1.66,93.54-3.75-3.25-4.12-4.91l-3.68-16.53c-.39-1.74-.65-2.56-1.89-4.53-.58-.92-1.22-1.81-1.88-2.68l-2.49-3.24c-1.49-1.94-8.47-5.75-12.77-8.02-2.3-1.21-4.91-2.18-7.74-2.88l-1.6-.39c-6.69-1.64-13.72-2.21-20.62-1.66l-9.08.71c-3.46.27-6.96.31-10.42.11l-9.53-.54c-13.98.36-1.33-1.12-.13-1.26Z"/>
          <polygon class="cls-8" points="387.7 377.57 388.23 380.29 387.75 380.02 386.59 373.9 387.7 377.57"/>
          <path class="cls-4" d="m422.14,285.35l253.19,88.55,65.15,90.32-49.76,67.55s-53.7,20.75-56,19.8-166.13-61.56-166.13-61.56l-105.14-67.42,18.91-83.48,39.79-53.76Z"/>
          <polygon class="cls-2" points="788.11 517.49 788.11 517.49 788.11 517.49 788.11 517.49"/>
          <polygon class="cls-2" points="756.65 524.03 756.62 524.07 756.62 524.07 756.65 524.03"/>
          <path class="cls-13" d="m647.91,577.27l.04-.02s-.02,0-.03.01c0,0,0,0-.01.01Z"/>
          <path class="cls-4" d="m655.52,589.23c46.88-17.28,100.37-27.79,145.49-50.12-24.34,18.01-54.51,20.91-81.79,31.28-18.95,7.21-38.62,12.54-57.97,18.71-11.86,4.5-5.15.38-5.74.13Z"/>
          <path class="cls-13" d="m726.32,544.3c-.13.05-.27.11-.4.16l.22-.07.18-.09Z"/>
          <path class="cls-2" d="m788.93,525.46c-.58.47-1.22.98-1.78,1.45-1.12.92-2.39,1.66-3.74,2.18-1.02.39-2.06.8-2.26.9-39.41,17.98-82.11,26.48-122.96,39.76-2.38,3.49-4.37,9.81-2.86,9.17.28-.33.55-.66.83-.98,45.14-16.48,89.61-22.44,133.06-43.74l3.49-1.75c2.09-.84,4.37-3.49,4.37-3.49,1.75-1.75,3.49-5.24,3.49-5.24.22-.44.63-1.61,1.06-2.92-3.13,1.25-6.51.97-9.19.34-.84,1.68-2.03,3.16-3.5,4.34Z"/>
          <path class="cls-2" d="m309.08,228.81c-.27.7-.57,1.46-.84,2.14-.54,1.35-1.07,6.43-1.1,6.66-5.08,43.02-.13,86.27-.31,129.23-.71,9.68,1.94,12.85-2.86,11.65-1.36-.34-2.33-1.52-2.36-2.92-1.06-44.13-7.83-97.28-.93-144.36l.98-4.57c.3-1.93,1.61-4.51,1.61-4.51,1.13-2.2,3.92-4.93,3.92-4.93.35-.34,1.34-1.09,2.46-1.9,2.25-1.18,3.53-1.84,4.55-1.45.94.36,1.26,1.55.74,2.42-1.8,2.98-5.28,11.03-5.87,12.55Z"/>
          <path class="cls-6" d="m650.19,591.27c-19.78,6.47-39.57,12.94-59.35,19.41,0-12.67,0-25.33,0-38,.61,3.81,1.24,7.61,1.9,11.41.7,4.02,5.11,6.17,8.71,4.27,14.47-7.64,27.64-17.16,39.48-28.62,6.45-2.74,20-8.85,24.55-11.04.92-.44,1.77-1.02,2.52-1.72.82-.76,1.63-1.51,2.45-2.27,2.47,1.28-9.12,38.59-20.27,46.56Z"/>
          <path class="cls-13" d="m660.8,576.27l-2.66,5.97c-1.19,2.1-2.73,4.32-4.35,6.12l-1.75,1.75c-1.69,1.38-2.9,1.51-4.97,2.2l-24.11,7.95-32.1,10.42.02-17.2,69.92-17.2Z"/>
          <path class="cls-4" d="m590.91,611.96c-.02-.43-.04-.86-.07-1.28,19.78-6.47,39.57-12.94,59.35-19.41.96.23,1.91.46,2.87.68-20.72,6.67-41.43,13.34-62.15,20.01Z"/>
          <path class="cls-4" d="m612.16,582.19c-3.87,2.41-7.83,4.68-11.9,6.79-2.37,1.23-5.13.35-6.51-1.7l-2.91.8.03,5.52,69.94-17.33,1.9-4.14,1.86-4.42-52.4,14.48Z"/>
          <path class="cls-13" d="m640.94,559.73l-17.01-.13c-2.37-.02-4.61-.89-6.6-2.18-.19-.12-.38-.21-.58-.27-17.15-9.31-29.46-8.77-25.91,15.52.68,4.22,1.38,8.43,2.12,12.63.13.73.41,1.39.8,1.97l18.41-5.09c10.32-6.42,19.93-13.89,28.78-22.45Z"/>
        </g>
      </g>
      <path class="cls-6" d="m600.26,588.98c4.07-2.11,8.03-4.38,11.9-6.79l-18.41,5.09c1.38,2.05,4.14,2.93,6.51,1.7Z"/>
    </g>
    <g>
      <g>
        <path class="cls-11" d="m591.63,444.31c3.4,8.24-7.9,21.96,9.33,25.04-3.63,4.11-5.75.96-8.64-1,0,0-1.12-1.12-1.12-1.12-.32-.64-.15-.15-.47-.79,0,0,.03.06.03.06-.07-6.81-.14-13.61-.21-20.42.04-.62.08-1.24.13-1.86h.25c.25-.06.48-.03.71.09Z"/>
        <g>
          <path class="cls-3" d="m392.94,411.77c-2.59,2.01-5.18,4.03-7.77,6.04-.04.03-.1.04-.15.03-4.51-1.4-9.03-2.81-13.54-4.21-.14-.04-.16-.24-.03-.31,6.83-4,14.19-2.16,21.41-1.84.15,0,.21.2.09.29Z"/>
          <g>
            <path class="cls-9" d="m202.93,414.49c2.24-12.34,5.61-14.59,11.22-13.47,25.83,7.27,32.29,21.81,60.21,22.52,3.13.08,6.29-1.07,9.44-1.65,1.83-.09,3.66-.17,5.49-.26,1.75-.22,3.5-.45,5.24-.67,5.03-1.01,10.06-2.03,15.08-3.04,1.68-.02,3.35-.05,5.03-.07,18.73-2.66,37.28-7.55,56.46-4.33,4.66,1.45,9.32,2.9,13.99,4.35-.35.05-.7.1-1.04.16-.49-.24-.98-.49-1.47-.73-.08.3-.16.61-.23.91-10.88,1.84-21.97,2.89-32.61,5.68-20.17,5.29-43.3,0-60.32,16.62-.36.31-.72.62-1.09.92,0,0,.02-.01.02,0-1.36.33-2.98,1.31-4.03.88-25.73-10.33-34.48-11.52-60.07-22.2-11.22,6.73-23.57,4.49-21.32-5.61Z"/>
            <path class="cls-11" d="m338.49,412.34c20.3-1.28,33.74-7.13,20.55-30.77,7.32-6.51,14.08-.46,20.44,1.72,4.85,1.67,6.68.84,8.27-3.27.36.89.73,1.78,1.09,2.68,1.97,4.37,3.95,8.75,5.92,13.12.24,1.56.48,3.12.73,4.68,0,1.52,0,3.04,0,4.57-.74,2.14-1.47,4.29-2.21,6.43-7.48-.26-15.12-2.33-22.18,2.02-19.18-3.22-37.73,1.67-56.46,4.33-1.63.14-5.09.61-5.12.14,7.98-1.36,20.98-4.28,28.96-5.64Z"/>
            <path class="cls-11" d="m219.76,399.9c27.36,9.68,26.56,9.53,53.94,19.16,3.29,1.16,6.73,1.9,10.1,2.84-3.15.58-6.31,1.73-9.44,1.65-27.67,1.04-28.77-10.76-54.6-18.03-5.69-1.6-6.73-2.24-10.1-1.12-3.37,1.12-5.61,5.61-5.61,5.61,0-3.37,2.24-7.86,5.61-10.1,1.32-.88,6.73-1.12,10.1,0Z"/>
            <path class="cls-9" d="m358.91,333.69c3.37-5.61,7.86-12.34,7.86-12.34,13.47-24.69,51.58-33.43,83.44-19.54,1.11.48,2.32.73,3.48,1.09-27.01-.18-48.93,8.78-61.62,34.32-.46.62-1.25,1.98-1.25,1.98-11.68.27-17.66-14.63-31.91-5.5Z"/>
            <path class="cls-3" d="m361.18,330.47c12.2-5.07,18.84,8.97,29.64,8.72-3.69,12.85-7.57,25.68-3.01,39.16-.04.24,0,.47.1.69-.05.32-.11.65-.16.97-1.59,4.11-3.42,4.93-8.27,3.27-6.36-2.18-13.11-8.23-20.44-1.72-1.58-5.25-3.16-10.51-4.74-15.76-.24-3.33-.47-6.55-.7-9.88.82-5.41,1.64-10.81,2.46-16.22.55-1.44,1.41-3.68,1.96-5.12l2.13-3.25c.25-.38.61-.69,1.03-.87Z"/>
            <path class="cls-9" d="m620.43,439.48q3.31-.3,6.68.82c12.56,4.38,23.9,8.82,36.45,13.2-20.18-6.94-38.06-1.6-54.71,10.25-.47.32-.94.63-1.4.95h.03c-1.86-1.26-4.26-2.13-5.49-3.85-3.9-5.42,1.1-13.71-5.67-18.38.74-.07,17.37-2.37,24.11-2.99Z"/>
            <path class="cls-3" d="m490.22,396.39c-5.08-5.14-2.26-9.96.2-15.22,9.22-1.28,18.43-2.57,27.65-3.85,5.23,2.17,9.65,4.58,3.09,10.29,1.17,1.22,2.4,3.54,3.51,3.49,8.35-.39,16.68-1.26,25.02-1.97-19.21,2.82-38.41,5.63-57.62,8.45,0,0,.04.04.04.04-.63-.41-1.26-.82-1.89-1.22Z"/>
            <path class="cls-9" d="m549.69,389.13c-8.34.72-16.67,1.58-25.02,1.97-1.11.05-2.34-2.27-3.51-3.49,6.55-5.71,2.14-8.12-3.09-10.29,2.5-.15,5.01-.29,7.51-.44,5.07.05,10.14.1,15.21.14.49,0,.98,0,1.47,0,11.32,3.15,22.64,6.3,33.96,9.45-.39.08-.78.16-1.16.24-8.46.81-16.91,1.61-25.37,2.42Z"/>
            <path class="cls-3" d="m607.47,464.7c-1.52,1.24-3.04,2.47-4.56,3.71-.66.32-1.32.63-1.99.95,0,0,.03,0,.03,0-17.24-3.08-5.93-16.8-9.33-25.04,1.56-.61,3.13-1.23,4.69-1.84,6.77,4.67,1.77,12.96,5.67,18.38,1.23,1.71,3.63,2.59,5.49,3.85Z"/>
            <g>
              <path class="cls-11" d="m265.77,716.35c.75.31,2.57-.15,3.37,0,7.34,1.37,13.78,4.38,21.13,5.76-13.75,1.53-26.09-2.38-37.53-9.75,0,0,.24-.27.24-.27,4.31,1.74,8.49,2.53,12.8,4.27Z"/>
              <path class="cls-11" d="m218.22,694.46c-9.72-5.06.04.02-9.68-5.05-1.12-1.12-1.31-1.95-1.12-2.24,9.59,5.29,1.4,1.78,10.99,7.07l-.19.22Z"/>
              <path class="cls-11" d="m252.74,712.35c-4.95-2.49-9.9-4.99-14.85-7.48,0,0,.2-.23.2-.23,4.96,2.48,9.93,4.96,14.89,7.44l-.24.27Z"/>
              <path class="cls-11" d="m234.15,703.01c-4.96-2.48-10.56-5.51-15.52-7.99,0,0,1.12-1.12,1.12-1.12,4.96,2.48,9.64,6.39,14.6,8.87l-.21.24Z"/>
              <path class="cls-11" d="m237.88,704.87c-1.24-.62-2.49-1.24-3.73-1.86,0,0,.21-.24.21-.24,1.24.62,2.48,1.24,3.72,1.86l-.2.23Z"/>
              <path class="cls-11" d="m281.79,713.06c0,.62,0,1.24-.01,1.86-.03-.9-.06-1.8-.08-2.7,0,0,.15-.11.16-.12-.02.32-.04.64-.06.96Z"/>
            </g>
            <g>
              <g>
                <path class="cls-11" d="m281.63,712.43c-5.76-6.19-1.11-27.48.97-34.24-.01,6.76-.96,27.48-.97,34.24Z"/>
                <path class="cls-9" d="m281.79,713.06c10.42,14.91,21.3,3.39,32.01.52,6.09-1.63,12.12-3.47,18.18-5.21-.13.14-.26.27-.4.41.16-.11.32-.22.47-.33,18.77-6.61,37.33-13.88,56.36-19.66,19.75-6,39.93-10.56,59.92-15.74-52.69,16.36-105.37,32.71-158.06,49.07-7.74-1.45-15.49-2.9-23.23-4.35,4.78-1.66,10.85,3.41,14.74-2.84,0-.62,0-1.24.01-1.86Z"/>
                <g>
                  <path class="cls-8" d="m608.85,463.75c16.66-11.86,34.53-17.2,54.71-10.25,1.18.55,2.36,1.1,3.54,1.66-16-.41-31.79-.58-46.66,7.42-7.74,4.17-12.8,14.68-23.88,11.22-2-.63-4.24-4.32-5.36-6.57,2.89,1.96,6.13,6.24,9.76,2.12h-.03c.66-.31,5.03-3.41,6.55-4.65,0,0-.03,0-.03,0,.47-.32.94-.63,1.4-.95Z"/>
                  <path class="cls-8" d="m387.81,378.36c-4.56-13.48-.68-26.32,3.01-39.16,0,0,.79-1.36,1.25-1.98,12.69-25.54,34.61-34.5,61.62-34.32,1.01.57,2.03,1.13,3.04,1.7-3.71.63-7.43,1.18-11.13,1.9-4.2.82-8.44,1.56-12.54,2.75-19.56,5.69-31.22,19.43-39.83,37.29-5.03,10.44-7.14,20.61-5.42,31.83Zm46.1-71.1c-.74-.39-1.03-.68-1.31-.67-.43.01-.84.23-1.27.37.12.33.29.96.35.94.57-.09,1.12-.3,2.23-.64Z"/>
                  <path class="cls-8" d="m549.69,389.13c8.46-.81,16.91-1.61,25.37-2.42.88-.01,1.76-.03,2.65-.04.55.42,1.1.84,1.65,1.25-26.73,3.56-53.46,7.16-80.2,10.59-2.28.29-4.71-.59-7.08-.93,19.21-2.82,38.41-5.63,57.62-8.45Z"/>
                  <path class="cls-8" d="m395.41,399.91c-.21-1.37-.42-2.73-.64-4.1,5.36,2.18,1.46,13.93,1.46,13.93-13.65,23.63-38.65,16.17-58.29,18.64-42.13,5.31-48.73,9.88-48.72,51.76,0,18.09,1.23,36.32,1.25,54.41l-2.24,1.12c-.9-2.42-1.6-6.11-1.57-8.51.42-28.59,1.09-57.17,1.7-85.75h-.02c.36-.3.72-.6,1.09-.91,17.02-16.62,40.15-11.33,60.32-16.62,10.63-2.79,21.72-3.84,32.61-5.68,0,0,.02,0,.03,0,1.62-.65,3.14-1.27,4.76-1.92,1.33-1.03,2.66-2.06,3.98-3.09,1.41-1.1,2.48-2.59,3.06-4.28.19-.56.39-1.12.58-1.68.22-2.47.43-4.83.65-7.3Z"/>
                  <path class="cls-8" d="m281.83,617.31c.77-6.45,2.35-11.61,7.51-14.3.31-.37,2.72-1.53,2.72-1.53,5.72-1.57,11.08-1.4,16.41,1.86,26.01,15.87,50.48,7.38,62.54-21.55,6.37-14.54,5.14-29.09.02-43.64,10.42,21.36,8.43,42.39-5.78,60.53-12.55,16.03-28.92,25.48-49.88,12.21-5.61-3.55-11.01-9.68-18.77-5.19-10,5.78-11.49,15.96-11.94,26.04-1.19,26.78-1.9,53.58-2.8,80.37,0,0-.16.12-.16.12-.02-.67-.04-1.35-.06-2.02.01-6.76.02-13.52.03-20.28,0-2.55,0-5.11,0-7.66,0-10.16,0-20.32,0-30.49-.02-9.69-.03-19.38-.05-29.07.07-1.79.13-3.59.2-5.38Z"/>
                </g>
                <path class="cls-8" d="m301.28,537.02c-1.22.44-2.43.87-3.65,1.31-.95,0-1.9-.01-2.85-.02-.56-.09-1.13-.18-1.69-.28-.04-.27-.09-.54-.15-.81l.03-.04c2.77-.06,5.54-.11,8.31-.17Z"/>
                <path class="cls-8" d="m370.11,536.37c-.58-.97-1.17-1.94-1.75-2.91.58.97,1.17,1.94,1.75,2.91Z"/>
                <path class="cls-8" d="m290.17,535.34c.93.62,1.87,1.23,2.8,1.85,0,0-.03.04-.03.04-.93-.62-1.86-1.25-2.78-1.87v-.02Z"/>
                <path class="cls-8" d="m368.34,533.43c-.35-.6-.7-1.19-1.05-1.79.35.6.7,1.19,1.05,1.79Z"/>
                <path class="cls-8" d="m366.43,530.74c-.31-.34-.62-.68-.93-1.03.31.34.62.68.93,1.03Z"/>
                <path class="cls-8" d="m371.07,538.22c-.33-.64-.67-1.28-1-1.92.33.64.67,1.28,1,1.92Z"/>
                <path class="cls-8" d="m367.36,531.72c-.32-.34-.63-.67-.95-1.01.32.34.63.67.95,1.01Z"/>
                <path class="cls-8" d="m289.25,534.41c.31.31.61.62.92.93,0,0-.01.02-.01.02-.31-.31-.62-.62-.92-.94h.02Z"/>
                <path class="cls-3" d="m294.78,538.31c.95,0,1.9.01,2.85.02-.95,0-1.9-.01-2.85-.02Z"/>
                <path class="cls-11" d="m281.63,622.69c-.26-.89-.52-1.78-.78-2.67.33-.9.65-1.81.98-2.71-.07,1.79-.13,3.59-.2,5.38Z"/>
                <path class="cls-11" d="m281.67,682.25c0-10.16,0-20.32,0-30.49,0,10.16,0,20.32,0,30.49Z"/>
                <path class="cls-3" d="m290.46,534.56l1.12,1.12c.1.12,1.6,1.71,1.6,1.71.29.2.13.66-.22.63-15.52-1.3-28.04-10.13-41.68-16.31-23.77-10.78-12.66-3.53-36.01-15.21-4.49-2.24-3.08-3.91-6.73-11.22-2.24-4.49-5.61-68.45-1.12-76.31,2.36-4.13,11.57-3.51,14.59-2.24,25.58,10.69,36.58,15.24,62.31,25.57,1.06.42,2.68-.56,4.03-.88-.61,28.58-1.29,57.17-1.7,85.75-.03,1.81.94,3.63,1.8,5.45.41.87,1.4,1.2,2.01,1.94Z"/>
              </g>
              <g>
                <path class="cls-11" d="m203.88,573.72c.1.04.17.16.17.26-.03,3.35-1.12,7.82-1.12,15.56,1.12,13.47,0,15.71,0,28.05.89,13.22-1.12,35.91-.65,52.69.18,6.55,2.32,12.47,5.16,17.27l1.1,1.86q-3.37-2.24-5.61-5.61c-3.37-5.61-2.16-10.8-2.24-15.71-.43-26.42,1.12-34.79,0-61.72,0-.01,0-12.21,0-19.05,0-3.23.37-6.46,1.1-9.61.92-3.96,1.3-4.32,2.09-3.99Z"/>
                <g>
                  <path class="cls-9" d="m213.03,573.83c13.44,2.25,3.37,1.12,17.55,5.68,6.97,2.24,14.22,3.54,21.33,5.32,5.3,8.41,14.7,9.04,22.87,11.85,5.64,1.94,11.51,3.22,17.27,4.79v-.04c-.57.69-1.15,1.39-1.73,2.08-2.64,4.58-6.8,11.83-9.44,16.41l-.03.09c-1.36.69-3.57,2.31-3.97,1.94-11.1-10.1-26.01-11.95-38.94-18.03-20.53-9.65-14.25-6.34-35.01-15.51.32-1.37-1.12-7.86,0-12.34,0-1.12,0-2.24,2.24-4.49,1.77-1.77,7.84,2.24,7.86,2.24Z"/>
                  <path class="cls-3" d="m371,581.79c-12.06,28.93-36.53,37.42-62.54,21.55-5.33-3.26-10.69-3.42-16.41-1.86-5.77-1.57-11.63-2.85-17.27-4.79-8.17-2.81-17.57-3.44-22.87-11.85,19.75-.11,39.56-1.12,58.4,6.88,8.84,3.75,9.09-3.77,12.56-9,11.46-17.28,27.49-28.78,48.47-31.97.22-.03,2.38,7.4,2.23,11.29-.26,6.61-1.65,13.18-2.56,19.76Z"/>
                  <path class="cls-3" d="m281.69,712.21c.03.9.06,1.8.08,2.7-3.2,5.14-7.87,2.63-12.09,2.49-3.9-.93-7.64-1.82-11.53-2.74-6.69-3.34-13.38-6.69-20.07-10.03-1.24-.62-2.48-1.24-3.72-1.86-4.96-2.48-9.92-4.97-14.88-7.45-3.72-1.86-3.37-2.06-6.46-3.66-3.67-1.9-7.86-4.49-8.98-8.98-3.44-13.77-1.12-25.81-1.12-62.84-.1-14.75.14-17.69,0-31.42,20.76,9.17,14.48,5.86,35.01,15.51,12.93,6.08,27.84,7.93,38.94,18.03.4.36,2.61-1.25,3.97-1.94l.78.49c.02,10.42.03,20.83.05,31.25,0,10.16,0,20.32,0,30.49-.37,3.49-.96,9.13-1.33,12.62-1.09,5.1-1.19,10.21,1.28,15.32.02.67.04,1.35.06,2.02Z"/>
                  <path class="cls-12" d="m373.56,562.03c.16-3.89-2.01-11.32-2.23-11.29-20.97,3.19-37.01,14.69-48.47,31.97-3.47,5.23-3.71,12.76-12.56,9-18.84-8-38.25-6.77-58-6.65-7.1-1.77-7.55-1.3-14.59-3.37-19.08-5.61-16.83-5.61-32.54-10.1,9.22-8.29,13.47-7.86,24.69-6.73,23.57,2.24,29.61-13.15,26.61-37.35-.16-1.31-2.32-2.75-3.85-3.45-40.24-17.83-33.98-13.07-42.96-19.81-4.49-4.49-7.41-10-7.86-24.69-.44-14.04-2.51-46.49,1.12-60.6,0,0,4.49,0,3.37,4.49-1.12,15.71-1.11,29.28,0,43.76,1.12,14.59-1.12,24.69,7.86,38.15l.57.57c19.27,8.25,14.22,5.63,36.56,15.76,13.67,6.21,26.22,15.06,41.8,16.33.57.09,1.13.18,1.69.27.95.01,1.91.01,2.85.02,1.22-.44,2.44-.88,3.65-1.31,19.74-17.17,40.07-29.08,64.23-7.31.3.34.59.66.91,1,.29.31.58.62.88.93v.02c.36.58.7,1.19,1.04,1.77l.03.03c.57.94,1.13,1.87,1.71,2.83l.04.08c.31.62.63,1.22.95,1.84l-.04-.07c5.12,14.55,6.35,29.1-.02,43.64.91-6.59,2.3-13.15,2.56-19.76Z"/>
                  <path class="cls-15" d="m691.35,504.01c0,2.1-.08,4.23-.23,6.39-.03.39-.09.8-.18,1.18-5.58,24.12-12.01,25.37-17.82,30.83l-4.54,4.19c-.29.27-.59.5-.92.72-3.35,2.22-22.71,14.76-32.49,15.1-.39.01-.78-.02-1.17-.08l-21.13-3.05c-.23-.03-.46-.08-.69-.13-12.05-2.84-24.56-9.75-21.41,13.02.04.32.07.66.07.99,0,12.51,0,25.01.01,37.5l.02.63c.03.44.01.88-.04,1.32-.33,2.73-3.82,17.21-3.82,17.21-.04.28-.18.54-.38.73-.3.29-.79.75-1.19,1.14-.22.21-.51.38-.81.48-2.94.94-35,11.39-38.1,12.55-.17.06-.34.12-.52.17-4.84,1.4-66.33,19.21-97.69,28.3v-.18c-19.97,5.18-40.16,9.74-59.91,15.74-19.02,5.78-37.58,13.04-56.36,19.66l-.08-.08c-6.05,1.74-12.09,3.57-18.17,5.21-10.71,2.87-21.59,14.39-32-.52.01-.33.03-.64.06-.97.9-26.79,1.6-53.58,2.81-80.36.45-10.08,1.94-20.27,11.94-26.05,7.77-4.49,13.16,1.64,18.77,5.2,20.96,13.28,37.32,3.82,49.88-12.21,14.21-18.13,16.2-39.16,5.78-60.53l.04.07c-.33-.62-.64-1.22-.95-1.84l-.04-.08c-.57-.95-1.13-1.89-1.71-2.83l-.03-.03c-.35-.58-.68-1.19-1.03-1.77v-.02c-.3-.31-.59-.62-.89-.93l-.63-.7c-.18-.2-.38-.4-.58-.58-9.22-8.2-17.87-11.52-26.15-11.52-13.07,0-25.19,8.25-37.09,18.52-2.6,2.24-6.4,2.48-9.26.58-1.08-.71-1.94-1.67-2.54-2.77-.59-1.11-.92-2.36-.92-3.65-.01-16.82-.03-33.63-.03-50.45-.01-41.88,6.59-46.45,48.72-51.75,15.56-1.97,43.14-12.49,53.85-16.79,2.28-.92,3.99-2.85,4.62-5.22.88-3.3,1.63-7.05-1.77-10.75-2.03-2.21-4.15-6.54-4.9-9.45l-1.83-7.13c-.1-.22-.13-.45-.09-.7-1.73-11.21.38-21.38,5.41-31.82,8.62-17.86,20.27-31.6,39.84-37.29,6.05-1.76,12.41-2.52,18.49-4.04.9-.22,1.81-.38,2.74-.45l1.95-.12c.33-.02.64-.03.97-.01,22.57,1.14,39.12,27.83,37.48,62.74-.03.73,0,3.37-3.37,13.47-1.04,4.17-5.44,9.62-2.04,14.47.48.69,1.14,1.24,1.85,1.69.33.21.65.42.97.64l-.03-.03c2.36.34,4.79,1.22,7.07.93,26.07-3.35,52.12-6.85,78.17-10.32,1.52-.2,3.07.08,4.42.81,2.92,1.57,4.93,3.69,6.29,6.21,1.71,3.15,2.39,6.95,2.55,11.05.11,12.65.51,24.74.62,37.39l.46,22.31c.03,1.38.45,2.71,1.21,3.86,1.12,1.69,2.19,3.5,3.69,3.96,11.06,3.47,16.14-7.05,23.87-11.22,14.58-7.84,30.04-7.84,45.72-7.44.62.02,1.25.09,1.84.28,13.02,4.08,23.36,24.19,23.36,48.6Z"/>
                </g>
              </g>
            </g>
          </g>
        </g>
      </g>
      <polygon class="cls-9" points="328.38 416.09 296.68 428.05 329.71 424.26 328.38 416.09"/>
    </g>
  </g>
</svg>