<?xml version="1.0" encoding="UTF-8"?>
<svg id="_Слой_1" data-name="Слой 1" xmlns="http://www.w3.org/2000/svg" viewBox="0 0 1080 243">
  <defs>
    <style>
      .cls-1 {
        fill: #fff;
      }

      .cls-1, .cls-2, .cls-3 {
        stroke-width: 0px;
      }

      .cls-2 {
        fill: #2295d3;
      }

      .cls-3 {
        fill: #e72f51;
      }
    </style>
  </defs>
  <rect class="cls-1" width="1080" height="243"/>
  <g>
    <g>
      <rect class="cls-3" x="437.82" y="49.6" width="23.97" height="143.8"/>
      <path class="cls-3" d="m489.84,97.53c-2.65,7.5-4.09,15.57-4.09,23.97s1.44,16.47,4.09,23.97c1.33,3.77,2.97,7.4,4.89,10.84,2.62,4.73,5.75,9.13,9.33,13.12,1.78,1.99,3.67,3.88,5.66,5.66v18.31h-15.47c-1.9-1.67-3.73-3.42-5.49-5.24-1.04-1.07-2.04-2.15-3.02-3.26-4.2-4.75-7.94-9.93-11.14-15.47-.29-.5-.57-1.01-.85-1.51h0c-3.87-6.99-6.9-14.53-8.95-22.46-.01-.06-.03-.12-.05-.19-1.94-7.6-2.98-15.57-2.98-23.78s1.03-16.18,2.98-23.78c.01-.07.03-.13.05-.19,2.04-7.93,5.07-15.47,8.95-22.46h0c.28-.51.57-1.01.85-1.51,3.2-5.53,6.94-10.71,11.14-15.47.97-1.11,1.98-2.2,3.02-3.26,1.75-1.82,3.58-3.57,5.49-5.24h15.47v18.31c-1.99,1.78-3.88,3.67-5.66,5.66-3.58,3.99-6.71,8.4-9.33,13.12-1.92,3.45-3.56,7.08-4.89,10.84Z"/>
      <path class="cls-3" d="m599.17,97.53c-4.21-7.28-10.28-13.34-17.56-17.56-7.05-4.07-15.24-6.41-23.97-6.41-4.13,0-8.14.53-11.97,1.51h0c-4.25,1.09-8.28,2.76-11.99,4.9-3.26,1.88-6.26,4.14-8.98,6.71-3.35,3.18-6.24,6.82-8.57,10.84-4.07,7.05-6.41,15.24-6.41,23.97s2.34,16.92,6.41,23.97c2.33,4.02,5.23,7.67,8.57,10.84,2.72,2.57,5.73,4.83,8.98,6.71,3.71,2.14,7.74,3.81,11.99,4.9h0c3.83.99,7.84,1.51,11.97,1.51,8.73,0,16.92-2.34,23.97-6.41,7.28-4.21,13.34-10.28,17.56-17.56,4.07-7.05,6.41-15.24,6.41-23.97s-2.34-16.92-6.41-23.97Zm-44.5,47.75c-11.83-1.46-20.99-11.56-20.99-23.78s9.16-22.32,20.99-23.78c-.01-.07,2.98-.19,2.98-.19,13.23,0,23.97,10.73,23.97,23.97s-10.73,23.97-23.97,23.97c0,0-2.99-.12-2.98-.19Z"/>
      <path class="cls-3" d="m722.09,49.6v143.8h-23.97v-113.42c-3.26,1.88-6.26,4.14-8.98,6.71-3.35,3.18-6.24,6.82-8.57,10.84h-12.82c-2.33-4.02-5.23-7.67-8.57-10.84-2.72-2.57-5.73-4.83-8.98-6.71v113.42h-23.97V49.6c8.4,0,16.47,1.44,23.97,4.09,1.02.36,2.02.74,3.02,1.15,7.75,3.14,14.83,7.58,20.95,13.07,6.12-5.49,13.2-9.93,20.95-13.07.99-.41,2-.79,3.02-1.15,7.5-2.65,15.57-4.09,23.97-4.09Z"/>
      <polygon class="cls-3" points="817.96 49.6 817.96 193.4 793.99 193.4 793.99 73.57 770.02 73.57 770.02 193.4 746.06 193.4 746.06 49.6 817.96 49.6"/>
    </g>
    <g>
      <path class="cls-2" d="m988.04,143.52s-.02-.06-.02-.09c-1.07-4.14-2.64-8.06-4.67-11.71-.15-.26-.29-.52-.45-.78-1.66-2.89-3.61-5.58-5.8-8.07-.51-.58-1.03-1.15-1.57-1.7-.91-.94-1.87-1.85-2.86-2.72h-16.13c-1,.87-1.94,1.78-2.86,2.72-.54.56-1.06,1.12-1.57,1.7-2.18,2.49-4.14,5.18-5.8,8.07-.16.26-.3.52-.45.78-2.03,3.65-3.6,7.57-4.67,11.71-.01.03-.02.06-.02.09-1.02,3.96-1.55,8.12-1.55,12.4v37.49h12.49v-24.99h24.99v24.99h12.5v-37.49c0-4.27-.54-8.43-1.55-12.4Zm-35.93,12.4c0-4.38.75-8.58,2.14-12.49.69-1.97,1.55-3.86,2.55-5.66,1.37-2.47,3-4.76,4.87-6.84h5.89c1.86,2.08,3.5,4.37,4.87,6.84,1,1.8,1.86,3.68,2.54,5.66,1.39,3.91,2.14,8.11,2.14,12.49h-24.99Z"/>
      <path class="cls-2" d="m1050.92,118.43v74.97h-12.49v-59.13c-1.7.98-3.26,2.16-4.68,3.5-1.75,1.65-3.26,3.56-4.48,5.66h-6.68c-1.21-2.1-2.73-4.01-4.48-5.66-1.42-1.34-2.98-2.52-4.68-3.5v59.13h-12.49v-74.97c4.38,0,8.59.75,12.49,2.14.53.18,1.05.38,1.57.59,4.04,1.64,7.73,3.96,10.93,6.82,3.2-2.86,6.88-5.19,10.93-6.82.51-.21,1.04-.41,1.57-.59,3.91-1.39,8.11-2.14,12.49-2.14Z"/>
      <path class="cls-2" d="m928.25,127.98v15.44h-3.34c-1.21-2.1-2.73-4.01-4.48-5.66-1.42-1.34-2.98-2.52-4.68-3.5-1.93-1.12-4.03-1.98-6.25-2.55-2-.51-4.09-.79-6.25-.79-4.55,0-8.82,1.21-12.49,3.34-3.79,2.2-6.96,5.36-9.15,9.15-2.13,3.67-3.34,7.94-3.34,12.49s1.21,8.82,3.34,12.49c2.2,3.79,5.36,6.96,9.15,9.15,3.67,2.13,7.94,3.34,12.49,3.34,2.16,0,4.25-.27,6.25-.79,2.22-.57,4.32-1.43,6.25-2.55,1.7-.98,3.26-2.16,4.68-3.5,1.75-1.65,3.26-3.56,4.48-5.66h3.34v15.44c-3.2,2.86-6.88,5.19-10.93,6.82-.51.21-1.04.41-1.57.59-3.91,1.39-8.11,2.14-12.49,2.14s-8.59-.75-12.49-2.14c-4.66-1.64-8.89-4.19-12.49-7.41-1.04-.92-2.02-1.91-2.95-2.95-3.23-3.6-5.77-7.84-7.41-12.49-1.39-3.91-2.14-8.11-2.14-12.49s.75-8.59,2.14-12.49c1.64-4.66,4.19-8.89,7.41-12.49.92-1.04,1.91-2.02,2.95-2.95,3.6-3.23,7.84-5.77,12.49-7.41,3.91-1.39,8.11-2.14,12.49-2.14s8.59.75,12.49,2.14c.53.18,1.05.38,1.57.59,4.04,1.64,7.73,3.96,10.93,6.82Z"/>
    </g>
    <g>
      <path class="cls-2" d="m373.24,118.43v74.97h-12.49v-16.92c-.51.58-1.03,1.15-1.57,1.7-.92.95-1.87,1.86-2.86,2.73-2.48,2.19-5.18,4.14-8.06,5.8-3.87,2.24-8.06,3.98-12.49,5.12-3.99,1.03-8.18,1.58-12.49,1.58v-74.97h12.49v60.34c.53-.18,1.05-.38,1.57-.59,4.04-1.64,7.73-3.96,10.93-6.82,1.04-.92,2.02-1.91,2.95-2.95,1.86-2.08,3.5-4.38,4.87-6.84,1-1.8,1.86-3.69,2.54-5.66,1.39-3.91,2.14-8.11,2.14-12.49v-24.99h12.49Z"/>
      <path class="cls-2" d="m253.97,118.43v4.43c-2.19,2.48-4.14,5.18-5.8,8.06h-19.19v12.49h12.49c.53,0,1.04.03,1.55.1-1.01,3.96-1.55,8.12-1.55,12.4h-12.49v24.99h19.19c1.66,2.89,3.61,5.58,5.8,8.06v4.43h-37.48v-74.97h37.48Z"/>
      <path class="cls-2" d="m91.55,127.98v15.44h-3.34c-1.21-2.1-2.73-4.01-4.48-5.66-1.42-1.34-2.98-2.52-4.68-3.5-1.93-1.12-4.03-1.98-6.25-2.55-2-.51-4.09-.79-6.25-.79-4.55,0-8.82,1.21-12.49,3.34-3.79,2.2-6.96,5.36-9.15,9.15-2.13,3.67-3.34,7.94-3.34,12.49s1.21,8.82,3.34,12.49c2.2,3.79,5.36,6.96,9.15,9.15,3.67,2.13,7.94,3.34,12.49,3.34,2.16,0,4.25-.27,6.25-.79,2.22-.57,4.32-1.43,6.25-2.55,1.7-.98,3.26-2.16,4.68-3.5,1.75-1.65,3.26-3.56,4.48-5.66h3.34v15.44c-3.2,2.86-6.88,5.19-10.93,6.82-.51.21-1.04.41-1.57.59-3.91,1.39-8.11,2.14-12.49,2.14s-8.59-.75-12.49-2.14c-4.66-1.64-8.89-4.19-12.49-7.41-1.04-.92-2.02-1.91-2.95-2.95-3.23-3.6-5.77-7.84-7.41-12.49-1.39-3.91-2.14-8.11-2.14-12.49s.75-8.59,2.14-12.49c1.64-4.66,4.19-8.89,7.41-12.49.92-1.04,1.91-2.02,2.95-2.95,3.6-3.23,7.84-5.77,12.49-7.41,3.91-1.39,8.11-2.14,12.49-2.14s8.59.75,12.49,2.14c.53.18,1.05.38,1.57.59,4.04,1.64,7.73,3.96,10.93,6.82Z"/>
      <path class="cls-2" d="m138.12,120.57c-3.91-1.39-8.11-2.14-12.49-2.14s-8.59.75-12.49,2.14c0,0-9.3,4.55-12.49,7.41v55.87c3.2,2.86,6.88,5.19,10.93,6.82.51.21,1.04.41,1.57.59,3.91,1.39,8.11,2.14,12.49,2.14s8.59-.75,12.49-2.14c4.66-1.64,8.89-4.19,12.49-7.41v-55.87c-3.6-3.23-7.84-5.77-12.49-7.41Zm0,57c-3.67,2.13-7.94,3.34-12.49,3.34-2.16,0-4.25-.27-6.25-.79-2.22-.57-4.32-1.43-6.25-2.55v-43.3c1.93-1.12,4.03-1.98,6.25-2.55,2-.51,4.09-.79,6.25-.79,4.55,0,8.82,1.21,12.49,3.34v43.3Z"/>
      <path class="cls-2" d="m206.34,155.92c-1.21-2.1-2.73-4.01-4.48-5.66-1.42-1.34-2.98-2.52-4.68-3.5-1.93-1.12-4.03-1.98-6.25-2.55-2-.52-4.09-.78-6.25-.78-4.55,0-8.82,1.21-12.5,3.34v-15.83h18.17l12.5-12.5h-43.16v74.97h24.98c2.16,0,4.25-.27,6.25-.78,2.22-.57,4.32-1.43,6.25-2.55,1.7-.98,3.26-2.16,4.68-3.5,1.75-1.65,3.27-3.56,4.48-5.66,2.13-3.67,3.34-7.94,3.34-12.5s-1.21-8.82-3.34-12.49Zm-20.1,24.89s.02.07.02.1h-1.58c-6.9,0-12.5-5.59-12.5-12.5s5.6-12.49,12.5-12.49h1.58s-.01.06-.02.09c6.17.77,10.94,6.03,10.94,12.4s-4.78,11.63-10.94,12.4Z"/>
      <path class="cls-2" d="m311.97,130.93c-1.21-2.1-2.73-4.01-4.48-5.66-1.42-1.34-2.98-2.52-4.68-3.5-1.93-1.12-4.03-1.98-6.25-2.55-2-.51-4.09-.79-6.25-.79h-24.99v74.97h12.49v-28.33c3.67,2.13,7.94,3.34,12.49,3.34,2.16,0,4.25-.27,6.25-.79,2.22-.57,4.32-1.43,6.25-2.55,1.7-.98,3.26-2.16,4.68-3.5,1.75-1.65,3.26-3.56,4.48-5.66,2.13-3.67,3.34-7.94,3.34-12.49s-1.21-8.82-3.34-12.49Zm-21.65,24.99c-6.82,0-12.37-5.47-12.49-12.26-.13-7,5.82-12.73,12.82-12.73h1.25s-.02.07-.02.1c6.16.76,10.94,6.02,10.94,12.4s-4.78,11.63-10.94,12.4c0,.03.02.07.02.1h-1.58Z"/>
    </g>
  </g>
</svg>